<svg width="1280" height="720" xmlns="http://www.w3.org/2000/svg" xmlns:xlink="http://www.w3.org/1999/xlink" overflow="hidden"><defs><clipPath id="clip0"><rect x="0" y="0" width="1280" height="720"/></clipPath></defs><g clip-path="url(#clip0)"><rect x="0" y="0" width="1280" height="720" fill="#FFFFFF"/><path d="M230.667 299.083 409.594 299.083 409.594 365.083 230.667 365.083Z" fill="#58595B" fill-rule="evenodd"/><path d="M230.667 365.083 409.594 365.083 409.594 431.083 230.667 431.083Z" fill="#FDB816" fill-rule="evenodd"/><path d="M230.667 431.083 409.594 431.083 409.594 497.083 230.667 497.083Z" fill="#4B7AA9" fill-rule="evenodd"/><path d="M230.667 497.083 409.594 497.083 409.594 563.083 230.667 563.083Z" fill="#E25656" fill-rule="evenodd"/><path d="M409.594 299.083 1049.33 299.083" stroke="#000000" stroke-width="0.666667" stroke-linejoin="round" stroke-miterlimit="10" fill="none" fill-rule="evenodd"/><path d="M230.667 277.083 1049.33 277.083" stroke="#000000" stroke-width="0.666667" stroke-linejoin="round" stroke-miterlimit="10" fill="none" fill-rule="evenodd"/><path d="M230.667 563.083 1049.33 563.083" stroke="#000000" stroke-width="0.666667" stroke-linejoin="round" stroke-miterlimit="10" fill="none" fill-rule="evenodd"/><text font-family="Open Sans,Open Sans_MSFontService,sans-serif" font-weight="700" font-size="15" transform="translate(280.13 295)">Population<tspan font-size="15" x="138.947" y="0">Measure</tspan><tspan font-size="15" x="246.581" y="0">n</tspan><tspan font-size="15" x="315.218" y="0">df</tspan><tspan font-size="15" x="377.609" y="0">X2</tspan><tspan font-size="15" x="435.081" y="0">X2/df</tspan><tspan font-size="15" x="502.385" y="0">RMSEA</tspan><tspan font-size="15" x="584.857" y="0">CFI</tspan><tspan font-size="15" x="649.081" y="0">TLI</tspan><tspan font-size="15" x="718.136" y="0">NFI</tspan><tspan fill="#FFFFFF" font-size="15" x="2.91666" y="44">Combined</tspan><tspan font-weight="400" font-size="15" x="156.363" y="22">SCQ</tspan><tspan font-weight="400" font-size="15" x="238.914" y="22">606</tspan><tspan font-weight="400" font-size="15" x="314.385" y="22">66</tspan><tspan font-weight="400" font-size="15" x="374.192" y="22">173</tspan><tspan font-weight="400" font-size="15" x="440.248" y="22">2.62</tspan><tspan font-weight="400" font-size="15" x="504.552" y="22">0.0517</tspan><tspan font-weight="400" font-size="15" x="577.357" y="22">0.969</tspan><tspan font-weight="400" font-size="15" x="641.331" y="22">0.953</tspan><tspan font-weight="400" font-size="15" x="711.969" y="22">0.952</tspan><tspan font-weight="400" font-size="15" x="152.697" y="44">ABAS</tspan><tspan font-weight="400" font-size="15" x="238.914" y="44">380</tspan><tspan font-weight="400" font-size="15" x="314.385" y="44">66</tspan><tspan font-weight="400" font-size="15" x="374.192" y="44">148</tspan><tspan font-weight="400" font-size="15" x="440.248" y="44">2.24</tspan><tspan font-weight="400" font-size="15" x="504.552" y="44">0.0571</tspan><tspan font-weight="400" font-size="15" x="577.357" y="44">0.962</tspan><tspan font-weight="400" font-size="15" x="641.331" y="44">0.943</tspan><tspan font-weight="400" font-size="15" x="711.969" y="44">0.935</tspan><tspan font-weight="400" font-size="15" x="152.863" y="66">CBCL</tspan><tspan font-weight="400" font-size="15" x="238.914" y="66">569</tspan><tspan font-weight="400" font-size="15" x="314.385" y="66">65</tspan><tspan font-weight="400" font-size="15" x="374.192" y="66">154</tspan><tspan font-weight="400" font-size="15" x="440.248" y="66">2.37</tspan><tspan font-weight="400" font-size="15" x="504.552" y="66">0.0491</tspan><tspan font-weight="400" font-size="15" x="581.524" y="66">0.97</tspan><tspan font-weight="400" font-size="15" x="645.498" y="66">0.96</tspan><tspan font-weight="400" font-size="15" x="716.136" y="66">0.95</tspan><tspan fill="#FFFFFF" font-size="15" x="25.4999" y="110">ASD</tspan><tspan font-weight="400" font-size="15" x="156.363" y="88">SCQ</tspan><tspan font-weight="400" font-size="15" x="238.914" y="88">349</tspan><tspan font-weight="400" font-size="15" x="314.385" y="88">66</tspan><tspan font-weight="400" font-size="15" x="378.359" y="88">81</tspan><tspan font-weight="400" font-size="15" x="440.248" y="88">1.23</tspan><tspan font-weight="400" font-size="15" x="504.552" y="88">0.0256</tspan><tspan font-weight="400" font-size="15" x="577.357" y="88">0.986</tspan><tspan font-weight="400" font-size="15" x="641.331" y="88">0.979</tspan><tspan font-weight="400" font-size="15" x="711.969" y="88">0.932</tspan><tspan font-weight="400" font-size="15" x="152.697" y="110">ABAS</tspan><tspan font-weight="400" font-size="15" x="238.914" y="110">279</tspan><tspan font-weight="400" font-size="15" x="314.385" y="110">66</tspan><tspan font-weight="400" font-size="15" x="372.276" y="110">86.4</tspan><tspan font-weight="400" font-size="15" x="440.248" y="110">1.31</tspan><tspan font-weight="400" font-size="15" x="504.552" y="110">0.0334</tspan><tspan font-weight="400" font-size="15" x="577.357" y="110">0.982</tspan><tspan font-weight="400" font-size="15" x="641.331" y="110">0.972</tspan><tspan font-weight="400" font-size="15" x="711.969" y="110">0.928</tspan><tspan font-weight="400" font-size="15" x="152.863" y="132">CBCL</tspan><tspan font-weight="400" font-size="15" x="238.914" y="132">318</tspan><tspan font-weight="400" font-size="15" x="314.385" y="132">65</tspan><tspan font-weight="400" font-size="15" x="372.276" y="132">66.3</tspan><tspan font-weight="400" font-size="15" x="440.248" y="132">1.02</tspan><tspan font-weight="400" font-size="15" x="500.385" y="132">0.00787</tspan><tspan font-weight="400" font-size="15" x="577.357" y="132">0.999</tspan><tspan font-weight="400" font-size="15" x="641.331" y="132">0.998</tspan><tspan font-weight="400" font-size="15" x="711.969" y="132">0.933</tspan><tspan fill="#FFFFFF" font-size="15" x="18.4999" y="176">ADHD</tspan><tspan font-weight="400" font-size="15" x="156.363" y="154">SCQ</tspan><tspan font-weight="400" font-size="15" x="238.914" y="154">103</tspan><tspan font-weight="400" font-size="15" x="314.385" y="154">66</tspan><tspan font-weight="400" font-size="15" x="372.276" y="154">75.4</tspan><tspan font-weight="400" font-size="15" x="440.248" y="154">1.14</tspan><tspan font-weight="400" font-size="15" x="504.552" y="154">0.0374</tspan><tspan font-weight="400" font-size="15" x="577.357" y="154">0.973</tspan><tspan font-weight="400" font-size="15" x="641.331" y="154">0.959</tspan><tspan font-weight="400" font-size="15" x="711.969" y="154">0.834</tspan><tspan font-weight="400" font-size="15" x="152.697" y="176">ABAS</tspan><tspan font-weight="400" font-size="15" x="243.081" y="176">44</tspan><tspan font-weight="400" font-size="15" x="314.385" y="176">66</tspan><tspan font-weight="400" font-size="15" x="372.276" y="176">33.9</tspan><tspan font-weight="400" font-size="15" x="436.081" y="176">0.514</tspan><tspan font-weight="400" font-size="15" x="523.135" y="176">0</tspan><tspan font-weight="400" font-size="15" x="581.524" y="176">1.31</tspan><tspan font-weight="400" font-size="15" x="645.498" y="176">1.47</tspan><tspan font-weight="400" font-size="15" x="711.969" y="176">0.834</tspan><tspan font-weight="400" font-size="15" x="152.863" y="198">CBCL</tspan><tspan font-weight="400" font-size="15" x="238.914" y="198">105</tspan><tspan font-weight="400" font-size="15" x="314.385" y="198">65</tspan><tspan font-weight="400" font-size="15" x="372.276" y="198">71.2</tspan><tspan font-weight="400" font-size="15" x="444.415" y="198">1.1</tspan><tspan font-weight="400" font-size="15" x="504.552" y="198">0.0303</tspan><tspan font-weight="400" font-size="15" x="577.357" y="198">0.983</tspan><tspan font-weight="400" font-size="15" x="641.331" y="198">0.977</tspan><tspan font-weight="400" font-size="15" x="711.969" y="198">0.842</tspan><tspan fill="#FFFFFF" font-size="15" x="30.3333" y="242">TD</tspan><tspan font-weight="400" font-size="15" x="156.363" y="220">SCQ</tspan><tspan font-weight="400" font-size="15" x="238.914" y="220">154</tspan><tspan font-weight="400" font-size="15" x="314.385" y="220">66</tspan><tspan font-weight="400" font-size="15" x="372.276" y="220">72.3</tspan><tspan font-weight="400" font-size="15" x="444.415" y="220">1.1</tspan><tspan font-weight="400" font-size="15" x="508.718" y="220">0.025</tspan><tspan font-weight="400" font-size="15" x="577.357" y="220">0.978</tspan><tspan font-weight="400" font-size="15" x="641.331" y="220">0.966</tspan><tspan font-weight="400" font-size="15" x="711.969" y="220">0.812</tspan><tspan font-weight="400" font-size="15" x="152.697" y="242">ABAS</tspan><tspan font-weight="400" font-size="15" x="243.081" y="242">57</tspan><tspan font-weight="400" font-size="15" x="314.385" y="242">66</tspan><tspan font-weight="400" font-size="15" x="372.276" y="242">54.7</tspan><tspan font-weight="400" font-size="15" x="436.081" y="242">0.829</tspan><tspan font-weight="400" font-size="15" x="523.135" y="242">0</tspan><tspan font-weight="400" font-size="15" x="581.524" y="242">1.09</tspan><tspan font-weight="400" font-size="15" x="645.498" y="242">1.14</tspan><tspan font-weight="400" font-size="15" x="711.969" y="242">0.758</tspan><tspan font-weight="400" font-size="15" x="152.863" y="264">CBCL</tspan><tspan font-weight="400" font-size="15" x="238.914" y="264">146</tspan><tspan font-weight="400" font-size="15" x="314.385" y="264">65</tspan><tspan font-weight="400" font-size="15" x="372.276" y="264">62.2</tspan><tspan font-weight="400" font-size="15" x="436.081" y="264">0.957</tspan><tspan font-weight="400" font-size="15" x="523.135" y="264">0</tspan><tspan font-weight="400" font-size="15" x="581.524" y="264">1.01</tspan><tspan font-weight="400" font-size="15" x="645.498" y="264">1.01</tspan><tspan font-weight="400" font-size="15" x="711.969" y="264">0.843</tspan></text></g></svg>