<svg width="1280" height="720" xmlns="http://www.w3.org/2000/svg" xmlns:xlink="http://www.w3.org/1999/xlink" overflow="hidden"><defs><clipPath id="clip0"><rect x="0" y="0" width="1280" height="720"/></clipPath></defs><g clip-path="url(#clip0)"><rect x="0" y="0" width="1280" height="720" fill="#FFFFFF"/><path d="M560.764 228.083 715.573 228.083 715.573 252.083 560.764 252.083Z" fill="#4B7AA9" fill-rule="evenodd"/><path d="M715.573 228.083 870.382 228.083 870.382 252.083 715.573 252.083Z" fill="#FDB816" fill-rule="evenodd"/><path d="M870.382 228.083 1025.19 228.083 1025.19 252.083 870.382 252.083Z" fill="#E25656" fill-rule="evenodd"/><path d="M1025.19 228.083 1180 228.083 1180 252.083 1025.19 252.083Z" fill="#58595B" fill-rule="evenodd"/><path d="M99.9999 252.083 283.773 252.083 283.773 324.083 99.9999 324.083Z" fill="#3F4077" fill-rule="evenodd"/><path d="M1025.19 252.083 1180 252.083 1180 276.083 1025.19 276.083Z" fill="#D9D9D9" fill-rule="evenodd"/><path d="M1025.19 276.083 1180 276.083 1180 300.083 1025.19 300.083Z" fill="#D9D9D9" fill-rule="evenodd"/><path d="M1025.19 300.083 1180 300.083 1180 324.083 1025.19 324.083Z" fill="#D9D9D9" fill-rule="evenodd"/><path d="M99.9999 324.083 283.773 324.083 283.773 348.083 99.9999 348.083Z" fill="#E77E24" fill-rule="evenodd"/><path d="M1025.19 324.083 1180 324.083 1180 348.083 1025.19 348.083Z" fill="#D9D9D9" fill-rule="evenodd"/><path d="M99.9999 348.083 283.773 348.083 283.773 372.083 99.9999 372.083Z" fill="#CE5F57" fill-rule="evenodd"/><path d="M1025.19 348.083 1180 348.083 1180 372.083 1025.19 372.083Z" fill="#D9D9D9" fill-rule="evenodd"/><path d="M99.9999 372.083 283.773 372.083 283.773 396.083 99.9999 396.083Z" fill="#47A5A2" fill-rule="evenodd"/><path d="M1025.19 372.083 1180 372.083 1180 396.083 1025.19 396.083Z" fill="#D9D9D9" fill-rule="evenodd"/><path d="M99.9999 396.083 283.773 396.083 283.773 420.083 99.9999 420.083Z" fill="#FDB715" fill-rule="evenodd"/><path d="M1025.19 396.083 1180 396.083 1180 420.083 1025.19 420.083Z" fill="#D9D9D9" fill-rule="evenodd"/><path d="M99.9999 420.083 283.773 420.083 283.773 444.083 99.9999 444.083Z" fill="#60AD45" fill-rule="evenodd"/><path d="M1025.19 420.083 1180 420.083 1180 444.083 1025.19 444.083Z" fill="#D9D9D9" fill-rule="evenodd"/><path d="M99.9999 444.083 283.773 444.083 283.773 492.083 99.9999 492.083Z" fill="#34444F" fill-rule="evenodd"/><path d="M1025.19 444.083 1180 444.083 1180 468.083 1025.19 468.083Z" fill="#D9D9D9" fill-rule="evenodd"/><path d="M1025.19 468.083 1180 468.083 1180 492.083 1025.19 492.083Z" fill="#D9D9D9" fill-rule="evenodd"/><path d="M99.9999 492.083 283.773 492.083 283.773 612.083 99.9999 612.083Z" fill="#125C83" fill-rule="evenodd"/><path d="M1025.19 492.083 1180 492.083 1180 516.083 1025.19 516.083Z" fill="#D9D9D9" fill-rule="evenodd"/><path d="M1025.19 516.083 1180 516.083 1180 540.083 1025.19 540.083Z" fill="#D9D9D9" fill-rule="evenodd"/><path d="M1025.19 540.083 1180 540.083 1180 564.083 1025.19 564.083Z" fill="#D9D9D9" fill-rule="evenodd"/><path d="M1025.19 564.083 1180 564.083 1180 588.083 1025.19 588.083Z" fill="#D9D9D9" fill-rule="evenodd"/><path d="M1025.19 588.083 1180 588.083 1180 612.083 1025.19 612.083Z" fill="#D9D9D9" fill-rule="evenodd"/><path d="M99.9999 252.083 1180 252.083" stroke="#000000" stroke-width="0.666667" stroke-linejoin="round" stroke-miterlimit="10" fill="none" fill-rule="evenodd"/><path d="M99.9999 324.083 1180 324.083" stroke="#000000" stroke-width="0.666667" stroke-linejoin="round" stroke-miterlimit="10" stroke-dasharray="0.666667 2" fill="none" fill-rule="evenodd"/><path d="M99.9999 348.083 1180 348.083" stroke="#000000" stroke-width="0.666667" stroke-linejoin="round" stroke-miterlimit="10" stroke-dasharray="0.666667 2" fill="none" fill-rule="evenodd"/><path d="M99.9999 372.083 1180 372.083" stroke="#000000" stroke-width="0.666667" stroke-linejoin="round" stroke-miterlimit="10" stroke-dasharray="0.666667 2" fill="none" fill-rule="evenodd"/><path d="M99.9999 396.083 1180 396.083" stroke="#000000" stroke-width="0.666667" stroke-linejoin="round" stroke-miterlimit="10" stroke-dasharray="0.666667 2" fill="none" fill-rule="evenodd"/><path d="M99.9999 420.083 1180 420.083" stroke="#000000" stroke-width="0.666667" stroke-linejoin="round" stroke-miterlimit="10" stroke-dasharray="0.666667 2" fill="none" fill-rule="evenodd"/><path d="M99.9999 444.083 1180 444.083" stroke="#000000" stroke-width="0.666667" stroke-linejoin="round" stroke-miterlimit="10" stroke-dasharray="0.666667 2" fill="none" fill-rule="evenodd"/><path d="M99.9999 492.083 1180 492.083" stroke="#000000" stroke-width="0.666667" stroke-linejoin="round" stroke-miterlimit="10" stroke-dasharray="0.666667 2" fill="none" fill-rule="evenodd"/><path d="M99.9999 612.083 1180 612.083" stroke="#000000" stroke-width="0.666667" stroke-linejoin="round" stroke-miterlimit="10" stroke-dasharray="0.666667 2" fill="none" fill-rule="evenodd"/><text fill="#FFFFFF" font-family="Open Sans,Open Sans_MSFontService,sans-serif" font-weight="700" font-size="16" transform="translate(614.752 247)">ADHD<tspan font-size="16" x="162.392" y="0">ASD</tspan><tspan font-size="16" x="322.451" y="0">TD</tspan><tspan font-size="16" x="467.51" y="0">Total</tspan><tspan font-style="italic" font-weight="400" font-size="16" x="-473.449" y="48">Demographics</tspan><tspan fill="#000000" font-weight="400" font-size="16" x="-206.483" y="24">Age</tspan><tspan fill="#000000" font-weight="400" font-size="16" x="-13" y="24">10.6</tspan><tspan fill="#000000" font-weight="400" font-size="16" x="18.8333" y="24">±</tspan><tspan fill="#000000" font-weight="400" font-size="16" x="28" y="24">3.12</tspan><tspan fill="#000000" font-weight="400" font-size="16" x="141.809" y="24">10.1</tspan><tspan fill="#000000" font-weight="400" font-size="16" x="173.642" y="24">±</tspan><tspan fill="#000000" font-weight="400" font-size="16" x="182.809" y="24">4.58</tspan><tspan fill="#000000" font-size="16" x="296.451" y="24">11.7</tspan><tspan fill="#000000" font-size="16" x="328.451" y="24">±</tspan><tspan fill="#000000" font-size="16" x="337.618" y="24">4.67</tspan><tspan fill="#000000" font-weight="400" font-size="16" x="451.427" y="24">10.5</tspan><tspan fill="#000000" font-weight="400" font-size="16" x="483.26" y="24">±</tspan><tspan fill="#000000" font-weight="400" font-size="16" x="492.427" y="24">4.08</tspan><tspan fill="#000000" font-weight="400" font-size="16" x="-267.067" y="48">Caregiver Education</tspan><tspan fill="#000000" font-weight="400" font-size="16" x="-13" y="48">17.2</tspan><tspan fill="#000000" font-weight="400" font-size="16" x="18.8333" y="48">±</tspan><tspan fill="#000000" font-weight="400" font-size="16" x="28" y="48">2.07</tspan><tspan fill="#000000" font-weight="400" font-size="16" x="141.809" y="48">17.6</tspan><tspan fill="#000000" font-weight="400" font-size="16" x="173.642" y="48">±</tspan><tspan fill="#000000" font-weight="400" font-size="16" x="182.809" y="48">2.14</tspan><tspan fill="#000000" font-size="16" x="296.451" y="48">18.4</tspan><tspan fill="#000000" font-size="16" x="328.451" y="48">±</tspan><tspan fill="#000000" font-size="16" x="337.618" y="48">1.93</tspan><tspan fill="#000000" font-weight="400" font-size="16" x="451.427" y="48">17.7</tspan><tspan fill="#000000" font-weight="400" font-size="16" x="483.26" y="48">±</tspan><tspan fill="#000000" font-weight="400" font-size="16" x="492.427" y="48">2.12</tspan><tspan fill="#000000" font-weight="400" font-size="16" x="-262.984" y="72">Household Income</tspan><tspan fill="#000000" font-weight="400" font-size="16" x="-13" y="72">4.85</tspan><tspan fill="#000000" font-weight="400" font-size="16" x="18.8333" y="72">±</tspan><tspan fill="#000000" font-weight="400" font-size="16" x="28" y="72">2.07</tspan><tspan fill="#000000" font-weight="400" font-size="16" x="141.809" y="72">4.80</tspan><tspan fill="#000000" font-weight="400" font-size="16" x="173.642" y="72">±</tspan><tspan fill="#000000" font-weight="400" font-size="16" x="182.809" y="72">1.99</tspan><tspan fill="#000000" font-size="16" x="296.451" y="72">5.70</tspan><tspan fill="#000000" font-size="16" x="328.451" y="72">±</tspan><tspan fill="#000000" font-size="16" x="337.618" y="72">2.03</tspan><tspan fill="#000000" font-weight="400" font-size="16" x="451.427" y="72">5.02</tspan><tspan fill="#000000" font-weight="400" font-size="16" x="483.26" y="72">±</tspan><tspan fill="#000000" font-weight="400" font-size="16" x="492.427" y="72">2.05</tspan><tspan font-style="italic" font-weight="400" font-size="16" x="-430.782" y="96">IQ</tspan><tspan fill="#000000" font-weight="400" font-size="16" x="-237.317" y="96">Full</tspan><tspan fill="#000000" font-weight="400" font-size="16" x="-211.15" y="96">-</tspan><tspan fill="#000000" font-weight="400" font-size="16" x="-205.984" y="96">scale IQ</tspan><tspan fill="#000000" font-weight="400" font-size="16" x="-13" y="96">99.5</tspan><tspan fill="#000000" font-weight="400" font-size="16" x="18.8333" y="96">±</tspan><tspan fill="#000000" font-weight="400" font-size="16" x="28" y="96">15.6</tspan><tspan fill="#000000" font-size="16" x="141.642" y="96">86.2</tspan><tspan fill="#000000" font-size="16" x="173.642" y="96">±</tspan><tspan fill="#000000" font-size="16" x="182.809" y="96">25.7</tspan><tspan fill="#000000" font-weight="400" font-size="16" x="298.784" y="96">109</tspan><tspan fill="#000000" font-weight="400" font-size="16" x="326.284" y="96">±</tspan><tspan fill="#000000" font-weight="400" font-size="16" x="335.451" y="96">12.0</tspan><tspan fill="#000000" font-weight="400" font-size="16" x="451.427" y="96">94.7</tspan><tspan fill="#000000" font-weight="400" font-size="16" x="483.26" y="96">±</tspan><tspan fill="#000000" font-weight="400" font-size="16" x="492.427" y="96">22.5</tspan><tspan font-style="italic" font-weight="400" font-size="16" x="-456.782" y="120">Language</tspan><tspan fill="#000000" font-weight="400" font-size="16" x="-228.65" y="120">Language</tspan><tspan fill="#000000" font-weight="400" font-size="16" x="-13" y="120">40.8</tspan><tspan fill="#000000" font-weight="400" font-size="16" x="18.8333" y="120">±</tspan><tspan fill="#000000" font-weight="400" font-size="16" x="28" y="120">26.7</tspan><tspan fill="#000000" font-size="16" x="141.642" y="120">22.7</tspan><tspan fill="#000000" font-size="16" x="173.642" y="120">±</tspan><tspan fill="#000000" font-size="16" x="182.809" y="120">28.1</tspan><tspan fill="#000000" font-weight="400" font-size="16" x="296.618" y="120">64.2</tspan><tspan fill="#000000" font-weight="400" font-size="16" x="328.451" y="120">±</tspan><tspan fill="#000000" font-weight="400" font-size="16" x="337.618" y="120">21.8</tspan><tspan fill="#000000" font-weight="400" font-size="16" x="451.427" y="120">33.0</tspan><tspan fill="#000000" font-weight="400" font-size="16" x="483.26" y="120">±</tspan><tspan fill="#000000" font-weight="400" font-size="16" x="492.427" y="120">31.2</tspan><tspan font-style="italic" font-weight="400" font-size="16" x="-447.866" y="144">Anxiety</tspan><tspan fill="#000000" font-weight="400" font-size="16" x="-257.65" y="144">Anxiety Problems</tspan><tspan fill="#000000" font-weight="400" font-size="16" x="-13" y="144">78.2</tspan><tspan fill="#000000" font-weight="400" font-size="16" x="18.8333" y="144">±</tspan><tspan fill="#000000" font-weight="400" font-size="16" x="28" y="144">18.9</tspan><tspan fill="#000000" font-size="16" x="141.642" y="144">81.0</tspan><tspan fill="#000000" font-size="16" x="173.642" y="144">±</tspan><tspan fill="#000000" font-size="16" x="182.809" y="144">18.7</tspan><tspan fill="#000000" font-weight="400" font-size="16" x="296.618" y="144">58.3</tspan><tspan fill="#000000" font-weight="400" font-size="16" x="328.451" y="144">±</tspan><tspan fill="#000000" font-weight="400" font-size="16" x="337.618" y="144">13.2</tspan><tspan fill="#000000" font-weight="400" font-size="16" x="451.427" y="144">77.4</tspan><tspan fill="#000000" font-weight="400" font-size="16" x="483.26" y="144">±</tspan><tspan fill="#000000" font-weight="400" font-size="16" x="492.427" y="144">19.5</tspan><tspan font-style="italic" font-weight="400" font-size="16" x="-454.616" y="168">Attention</tspan><tspan fill="#000000" font-weight="400" font-size="16" x="-264.9" y="168">Attention Problems</tspan><tspan fill="#000000" font-size="16" x="-13.1667" y="168">91.2</tspan><tspan fill="#000000" font-size="16" x="18.8333" y="168">±</tspan><tspan fill="#000000" font-size="16" x="28" y="168">11.2</tspan><tspan fill="#000000" font-weight="400" font-size="16" x="141.809" y="168">87.9</tspan><tspan fill="#000000" font-weight="400" font-size="16" x="173.642" y="168">±</tspan><tspan fill="#000000" font-weight="400" font-size="16" x="182.809" y="168">13.3</tspan><tspan fill="#000000" font-weight="400" font-size="16" x="296.618" y="168">56.7</tspan><tspan fill="#000000" font-weight="400" font-size="16" x="328.451" y="168">±</tspan><tspan fill="#000000" font-weight="400" font-size="16" x="337.618" y="168">10.0</tspan><tspan fill="#000000" font-weight="400" font-size="16" x="451.427" y="168">86.0</tspan><tspan fill="#000000" font-weight="400" font-size="16" x="483.26" y="168">±</tspan><tspan fill="#000000" font-weight="400" font-size="16" x="492.427" y="168">15.8</tspan><tspan font-style="italic" font-weight="400" font-size="16" x="-450.116" y="192">Sensory</tspan><tspan fill="#000000" font-weight="400" font-size="16" x="-271.4" y="192">Sensory Profile Score</tspan><tspan fill="#000000" font-weight="400" font-size="16" x="-10.8334" y="192">142</tspan><tspan fill="#000000" font-weight="400" font-size="16" x="16.6666" y="192">±</tspan><tspan fill="#000000" font-weight="400" font-size="16" x="25.8333" y="192">22.6</tspan><tspan fill="#000000" font-size="16" x="143.892" y="192">131</tspan><tspan fill="#000000" font-size="16" x="171.392" y="192">±</tspan><tspan fill="#000000" font-size="16" x="180.559" y="192">25.4</tspan><tspan fill="#000000" font-weight="400" font-size="16" x="298.784" y="192">178</tspan><tspan fill="#000000" font-weight="400" font-size="16" x="326.284" y="192">±</tspan><tspan fill="#000000" font-weight="400" font-size="16" x="335.451" y="192">12.9</tspan><tspan fill="#000000" font-weight="400" font-size="16" x="453.593" y="192">144</tspan><tspan fill="#000000" font-weight="400" font-size="16" x="481.093" y="192">±</tspan><tspan fill="#000000" font-weight="400" font-size="16" x="490.26" y="192">28.4</tspan><tspan font-style="italic" font-weight="400" font-size="16" x="-440.199" y="228">RRBs</tspan><tspan fill="#000000" font-weight="400" font-size="16" x="-199.15" y="216">IS</tspan><tspan fill="#000000" font-weight="400" font-size="16" x="-13" y="216">4.00</tspan><tspan fill="#000000" font-weight="400" font-size="16" x="18.8333" y="216">±</tspan><tspan fill="#000000" font-weight="400" font-size="16" x="28" y="216">4.65</tspan><tspan fill="#000000" font-size="16" x="141.642" y="216">7.92</tspan><tspan fill="#000000" font-size="16" x="173.642" y="216">±</tspan><tspan fill="#000000" font-size="16" x="182.809" y="216">6.33</tspan><tspan fill="#000000" font-weight="400" font-size="16" x="292.035" y="216">0.652</tspan><tspan fill="#000000" font-weight="400" font-size="16" x="333.035" y="216">±</tspan><tspan fill="#000000" font-weight="400" font-size="16" x="342.201" y="216">1.63</tspan><tspan fill="#000000" font-weight="400" font-size="16" x="451.427" y="216">5.45</tspan><tspan fill="#000000" font-weight="400" font-size="16" x="483.26" y="216">±</tspan><tspan fill="#000000" font-weight="400" font-size="16" x="492.427" y="216">5.90</tspan><tspan fill="#000000" font-weight="400" font-size="16" x="-214.234" y="240">RSMB</tspan><tspan fill="#000000" font-weight="400" font-size="16" x="-13" y="240">2.77</tspan><tspan fill="#000000" font-weight="400" font-size="16" x="18.8333" y="240">±</tspan><tspan fill="#000000" font-weight="400" font-size="16" x="28" y="240">3.45</tspan><tspan fill="#000000" font-size="16" x="141.642" y="240">5.78</tspan><tspan fill="#000000" font-size="16" x="173.642" y="240">±</tspan><tspan fill="#000000" font-size="16" x="182.809" y="240">4.17</tspan><tspan fill="#000000" font-weight="400" font-size="16" x="287.451" y="240">0.216</tspan><tspan fill="#000000" font-weight="400" font-size="16" x="328.451" y="240">±</tspan><tspan fill="#000000" font-weight="400" font-size="16" x="337.618" y="240">0.721</tspan><tspan fill="#000000" font-weight="400" font-size="16" x="451.427" y="240">3.89</tspan><tspan fill="#000000" font-weight="400" font-size="16" x="483.26" y="240">±</tspan><tspan fill="#000000" font-weight="400" font-size="16" x="492.427" y="240">4.12</tspan><tspan font-style="italic" font-weight="400" font-size="16" x="-501.616" y="312">Social Communication</tspan><tspan fill="#000000" font-weight="400" font-size="16" x="-273.567" y="264">SCQ Social Symptoms</tspan><tspan fill="#000000" font-weight="400" font-size="16" x="-13" y="264">2.24</tspan><tspan fill="#000000" font-weight="400" font-size="16" x="18.8333" y="264">±</tspan><tspan fill="#000000" font-weight="400" font-size="16" x="28" y="264">2.64</tspan><tspan fill="#000000" font-size="16" x="141.642" y="264">7.07</tspan><tspan fill="#000000" font-size="16" x="173.642" y="264">±</tspan><tspan fill="#000000" font-size="16" x="182.809" y="264">3.80</tspan><tspan fill="#000000" font-weight="400" font-size="16" x="287.451" y="264">0.690</tspan><tspan fill="#000000" font-weight="400" font-size="16" x="328.451" y="264">±</tspan><tspan fill="#000000" font-weight="400" font-size="16" x="337.618" y="264">0.977</tspan><tspan fill="#000000" font-weight="400" font-size="16" x="451.427" y="264">4.26</tspan><tspan fill="#000000" font-weight="400" font-size="16" x="483.26" y="264">±</tspan><tspan fill="#000000" font-weight="400" font-size="16" x="492.427" y="264">4.07</tspan><tspan fill="#000000" font-weight="400" font-size="16" x="-311.483" y="288">SCQ Communication Symptoms</tspan><tspan fill="#000000" font-weight="400" font-size="16" x="-13" y="288">3.16</tspan><tspan fill="#000000" font-weight="400" font-size="16" x="18.8333" y="288">±</tspan><tspan fill="#000000" font-weight="400" font-size="16" x="28" y="288">2.42</tspan><tspan fill="#000000" font-size="16" x="141.642" y="288">6.33</tspan><tspan fill="#000000" font-size="16" x="173.642" y="288">±</tspan><tspan fill="#000000" font-size="16" x="182.809" y="288">2.71</tspan><tspan fill="#000000" font-weight="400" font-size="16" x="296.618" y="288">1.26</tspan><tspan fill="#000000" font-weight="400" font-size="16" x="328.451" y="288">±</tspan><tspan fill="#000000" font-weight="400" font-size="16" x="337.618" y="288">1.55</tspan><tspan fill="#000000" font-weight="400" font-size="16" x="451.427" y="288">4.37</tspan><tspan fill="#000000" font-weight="400" font-size="16" x="483.26" y="288">±</tspan><tspan fill="#000000" font-weight="400" font-size="16" x="492.427" y="288">3.12</tspan><tspan fill="#000000" font-weight="400" font-size="16" x="-256.317" y="312">ABAS Social Skills</tspan><tspan fill="#000000" font-weight="400" font-size="16" x="-13" y="312">53.0</tspan><tspan fill="#000000" font-weight="400" font-size="16" x="18.8333" y="312">±</tspan><tspan fill="#000000" font-weight="400" font-size="16" x="28" y="312">9.15</tspan><tspan fill="#000000" font-size="16" x="141.642" y="312">39.2</tspan><tspan fill="#000000" font-size="16" x="173.642" y="312">±</tspan><tspan fill="#000000" font-size="16" x="182.809" y="312">14.5</tspan><tspan fill="#000000" font-weight="400" font-size="16" x="296.618" y="312">63.9</tspan><tspan fill="#000000" font-weight="400" font-size="16" x="328.451" y="312">±</tspan><tspan fill="#000000" font-weight="400" font-size="16" x="337.618" y="312">6.18</tspan><tspan fill="#000000" font-weight="400" font-size="16" x="451.427" y="312">43.6</tspan><tspan fill="#000000" font-weight="400" font-size="16" x="483.26" y="312">±</tspan><tspan fill="#000000" font-weight="400" font-size="16" x="492.427" y="312">15.4</tspan><tspan fill="#000000" font-weight="400" font-size="16" x="-294.234" y="336">ABAS Communication Skills</tspan><tspan fill="#000000" font-weight="400" font-size="16" x="-13" y="336">56.8</tspan><tspan fill="#000000" font-weight="400" font-size="16" x="18.8333" y="336">±</tspan><tspan fill="#000000" font-weight="400" font-size="16" x="28" y="336">9.84</tspan><tspan fill="#000000" font-size="16" x="141.642" y="336">43.4</tspan><tspan fill="#000000" font-size="16" x="173.642" y="336">±</tspan><tspan fill="#000000" font-size="16" x="182.809" y="336">16.8</tspan><tspan fill="#000000" font-weight="400" font-size="16" x="296.618" y="336">68.1</tspan><tspan fill="#000000" font-weight="400" font-size="16" x="328.451" y="336">±</tspan><tspan fill="#000000" font-weight="400" font-size="16" x="337.618" y="336">5.18</tspan><tspan fill="#000000" font-weight="400" font-size="16" x="451.427" y="336">47.7</tspan><tspan fill="#000000" font-weight="400" font-size="16" x="483.26" y="336">±</tspan><tspan fill="#000000" font-weight="400" font-size="16" x="492.427" y="336">17.1</tspan><tspan fill="#000000" font-weight="400" font-size="16" x="-269.4" y="360">CBCL Social Problem</tspan><tspan fill="#000000" font-weight="400" font-size="16" x="-13" y="360">80.2</tspan><tspan fill="#000000" font-weight="400" font-size="16" x="18.8333" y="360">±</tspan><tspan fill="#000000" font-weight="400" font-size="16" x="28" y="360">17.1</tspan><tspan fill="#000000" font-size="16" x="141.642" y="360">85.8</tspan><tspan fill="#000000" font-size="16" x="173.642" y="360">±</tspan><tspan fill="#000000" font-size="16" x="182.809" y="360">14.0</tspan><tspan fill="#000000" font-weight="400" font-size="16" x="296.618" y="360">56.0</tspan><tspan fill="#000000" font-weight="400" font-size="16" x="328.451" y="360">±</tspan><tspan fill="#000000" font-weight="400" font-size="16" x="337.618" y="360">10.4</tspan><tspan fill="#000000" font-weight="400" font-size="16" x="451.427" y="360">80.0</tspan><tspan fill="#000000" font-weight="400" font-size="16" x="483.26" y="360">±</tspan><tspan fill="#000000" font-weight="400" font-size="16" x="492.427" y="360">17.5</tspan></text></g></svg>