<?xml version="1.0" encoding="utf-8"?>
<!-- Generator: Adobe Illustrator 24.2.0, SVG Export Plug-In . SVG Version: 6.00 Build 0)  -->
<svg version="1.1" id="Layer_1" xmlns="http://www.w3.org/2000/svg" xmlns:xlink="http://www.w3.org/1999/xlink" x="0px" y="0px"
	 viewBox="0 0 647 273.8" style="enable-background:new 0 0 647 273.8;" xml:space="preserve">
<style type="text/css">
	.st0{fill:#5C79BC;}
	.st1{fill:#A4DEF6;}
	.st2{fill:#46C6E6;}
	.st3{fill:#6FCFF3;}
	.st4{fill:#4F69A3;}
	.st5{fill:#ACA6D2;}
	.st6{fill:#97D5F0;}
	.st7{fill:#FFFFFF;}
	.st8{fill:#78CEED;}
	.st9{fill:#7AAED8;}
	.st10{fill:#9569AD;}
	.st11{fill:#866EAD;}
	.st12{fill:#5FCAE5;}
	.st13{fill:#C8EAF5;}
	.st14{fill:#616E7D;}
	.st15{fill:#4E5B6C;}
</style>
<g>
	<g>
		<g>
			<g>
				<path class="st0" d="M73.4,107.5c0,0,1-0.9,2.8,0.7l0.9-1.3C77.1,106.9,75,105.2,73.4,107.5z"/>
				<path class="st0" d="M76.8,103.6c0,0-1.1,1.4,0.5,3.1l-1.1,1.1C76.2,107.7,73.6,104.6,76.8,103.6z"/>
			</g>
			<path class="st1" d="M72.1,142c2-3.1,5.2-4,5.2-4l7.6-2.8h7.2l7.6,2.8c0,0,3.2,0.8,5.2,4H72.1z"/>
			<path class="st2" d="M98.3,156.7H110c0-2-0.1-4.8-0.1-4.8c-0.7-12-9.4-13.9-9.4-13.9c-6.8-1.6-3.1,8.9-3.1,8.9
				C97.2,149.5,97.6,152.9,98.3,156.7z"/>
			<g>
				<rect x="83.5" y="128.1" class="st1" width="9.9" height="9.7"/>
			</g>
			<g>
				<path class="st3" d="M93.4,132.6v-4.5h-9.9v2.2C86.3,132.7,89.7,133,93.4,132.6z"/>
			</g>
			<path class="st0" d="M104,156.7c0.2-5.2,0.1-6.7,0.1-8.4c-0.1-4-1-7.3-3.6-10.3c0,0,0,0,0,0l-7.1-2.3c0,0,1.5,2.6-5,2.6
				c0,0-4.3-0.2-4.9-2.6l-7.2,2.3c0,0-6.1,1.5-7.2,8l3.6,6.6l-0.1,4.1H104z"/>
			<g>
				<path class="st0" d="M101.1,116c0.3-2.2-0.2-4.4-0.2-6.6c0-1.5-0.3-3.7-2.1-3.9c-2.5-0.3-3.3,4.1-3.5,6c-0.2,2.6,0.4,5.4,0.9,8
					c0.2,0.9,0.2,2.8,1.2,3.2c0.9,0.4,1.8-0.5,2.3-1.2C100.9,120,100.9,117.9,101.1,116z"/>
				<path class="st1" d="M99.2,126.8c-1,3.9-2.8,5-2.8,5l-2.4,0.5c-1.4-0.2-3.7-0.7-3.7-0.7c-5.4-1.8-7-2.3-7.8-4.4
					c0-0.1-4.3-14.8-4.3-14.8c-0.7-7.6,7.2-9.1,8.4-9.3c1.2-0.3,8.7-2.4,10.9,4.9C97.7,107.9,100.9,116.3,99.2,126.8z"/>
				<path class="st0" d="M101.7,100.6c0.4,2.3,0,5.6-1.8,7.1c-2,1.6-3.7,1.2-6,1.7c-2.5,0.5-5,0.8-7.5,1.2c-1.7,0.3-3.7,0.5-4.5,2.4
					c-1.1,2.4-1.3,5.6-0.6,8c0.6,2,0.8,3.9,1.4,6.5c-2.2-1.9-4-4.6-4-4.6c-1.1-2-1.1-2-2.4-5.4c-0.7-2-1.4-3.8-1.5-5.8
					c-0.1-2.7,1.2-3.8,2.6-6.3c1.3-2.3,3.2-3.9,5.7-4.6c0,0,12.4,0.7,12.2-2.1c0,0,3,0.8,2.4,2.7c0,0,3.1-0.6,2.5-2.7
					C100.2,98.6,101.5,99.2,101.7,100.6z"/>
				<path class="st1" d="M81.8,120.5c0,0-1.3-2.9-3.4-1.2c0,0-1,0.7,0.2,2.7c0,0,1.7,2.8,3.8,1.3L81.8,120.5z"/>
				<path class="st0" d="M81.6,113.7c0,0,0,5.2,1,8l-1,0.2c0,0-0.5-3.6-2.4-3.6L81.6,113.7z"/>
			</g>
			<path class="st2" d="M79.1,156.7c0,0-10.9,0-10.9,0c0,0,0-2.6,0-2.8c0.1-2.6,0.2-5.1,0.7-7.6c0.7-3.6,2.4-6.8,6.3-7.7
				c1.8-0.4,3.3,0.6,4.3,2.1C79.5,140.7,81.2,142.9,79.1,156.7z"/>
		</g>
		<g>
			<path class="st0" d="M180.6,134.4c-1.8-0.7-2.9-2.2-5.1-2c-3.8,0.3-6.5,4.6-10.2,1.7c-4.4-3.5-3.3-24.7-1.3-29.5
				c1.6-4.1,4.6-0.1,8.9-1.5c5-1.6,9.3,2.3,11.9,6.4c2.7,4.3,4.1,9.7,3.7,14.7C188,128.9,187.2,136.8,180.6,134.4z"/>
			<g>
				<path class="st2" d="M197.6,156.7h-9.3l-1.7-6.7c0,0-1.4-10.2,5.7-10.4c0,0,3.6,2.6,4.6,8.6C196.9,148.2,197.6,153,197.6,156.7z
					"/>
			</g>
			<g>
				<path class="st2" d="M165.1,156.7l1.3-5.1c0,0,1.4-10.2-5.7-10.4c0,0-4.2,3.1-3.8,15.5H165.1"/>
			</g>
			<g>
				<rect x="172.2" y="124.8" class="st1" width="8.5" height="12.5"/>
			</g>
			<g>
				<path class="st3" d="M180.7,129.9v-5.1h-8.5v7.3C175,132.1,178.3,131.5,180.7,129.9z"/>
			</g>
			<path class="st1" d="M160.9,141.3c1.9-3,4.9-3.8,4.9-3.8l7.2-2.7h6.9l8.8,2.7c0,0,3,0.8,4.9,3.8H160.9z"/>
			<path class="st2" d="M162.6,156.7H191l-0.2-5.3l4.2-6.3c-0.9-6.2-6.3-7.6-6.3-7.6l-6.9-2c0,0,0.4,2.3-5.3,2.3c0,0-4.6,0-5.1-2.3
				l-5.5,2c0,0-4,1.2-6.2,5.3l3.1,8.6V156.7z"/>
			<path class="st1" d="M181.6,125.8c-0.3,0.7-0.7,1.3-1.3,1.8c-1.4,1.4-3.1,2.5-4.9,3.2c-2.2,0.9-5.6,1-7.4-0.8
				c-1.4-1.5-2.2-3.7-2.8-5.7c-1.2-3.8-1.2-7.9-0.9-11.8c0.1-0.9,0.2-1.8,0.3-2.7c1.4-8.5,8.7-8.5,8.7-8.5
				c5.5-0.2,10.5,2.4,11.4,8.2c0.3,2.2-0.1,4.6-0.2,6.8c-0.1,1.6-0.3,3.3-0.8,4.8C183.2,122.8,182.3,124.3,181.6,125.8z"/>
			<path class="st0" d="M163.8,117.6c-2.1-6.4-0.4-13.9,2.1-16.2c7-6.6,19.8-4.1,23.7,6.3c1.2,3.2,0.6,15.2,0.1,18.8
				c-0.7,4.9-2.5,8.3-6.3,8.3c0.1-4.1-0.2-8.6,0.1-13.5c0.4-4.9-0.3-5-4.4-7.3c-2-1.1-3.2-2.3-4.5-4.2c-1.6-2.3-0.4-3.1-3.5-3
				C171.2,106.8,164,106.6,163.8,117.6z"/>
			<path class="st1" d="M182.3,119.3c0,0,0.7-3,3.1-1.8c0,0,1.1,0.5,0.3,2.6c0,0-1.1,3-3.4,1.9L182.3,119.3z"/>
		</g>
		<g>
			<path class="st1" d="M204.4,142c2-3.1,5.2-4,5.2-4l7.6-2.8h7.2l7.6,2.8c0,0,3.2,0.8,5.2,4H204.4z"/>
			<path class="st2" d="M230.7,156.7h11.7c0-2-0.1-4.8-0.1-4.8c-0.7-12-9.4-13.9-9.4-13.9c-6.8-1.6-3.1,8.9-3.1,8.9
				C229.5,149.5,229.9,152.9,230.7,156.7z"/>
			<g>
				<rect x="215.8" y="128.1" class="st1" width="9.9" height="9.7"/>
			</g>
			<g>
				<path class="st3" d="M225.7,132.6v-4.5h-9.9v2.2C218.6,132.7,222.1,133,225.7,132.6z"/>
			</g>
			<path class="st2" d="M236.3,156.7c0.2-5.2,0.1-6.7,0.1-8.4c-0.1-4-1-7.3-3.6-10.3c0,0,0,0,0,0l-7.1-2.3c0,0,1.5,2.6-5,2.6
				c0,0-4.3-0.2-4.9-2.6l-7.2,2.3c0,0-6.1,1.5-7.2,8l3.6,6.6l-0.1,4.1H236.3z"/>
			<g>
				<path class="st0" d="M232.6,113.7c0-2.3-0.1-4.6,0-6.9c0-1.5,0.2-1.1-1.5-1.3c-2.4-0.2-3.1,4.2-3.3,6.1c-0.2,2.6,0.3,5.4,0.8,8
					c0.2,0.9,0.1,2.8,1.1,3.2c0.8,0.4,1.7-0.5,2.1-1.2c1-1.5,0.8-3.9,0.9-5.7C232.6,115.2,232.6,114.4,232.6,113.7z"/>
				<path class="st1" d="M231.6,126.8c-1,3.9-2.8,5-2.8,5l-2.4,0.5c-1.4-0.2-3.7-0.7-3.7-0.7c-5.4-1.8-7-2.3-7.8-4.4
					c0-0.1-4.3-14.8-4.3-14.8c-0.7-7.6,7.2-9.1,8.4-9.3c1.2-0.3,8.7-2.4,10.9,4.9C230,107.9,233.3,116.3,231.6,126.8z"/>
				<path class="st4" d="M209.8,105.4c-2.6,1.3-2.7,3.6-2.6,6.3c0.1,2.1,0.7,3.8,1.5,5.8c1.3,3.4,1.3,3.4,2.4,5.4c0,0,1.7,2.7,4,4.6
					c-0.7-2.6-0.8-4.5-1.4-6.5c-0.7-2.4-0.5-5.6,0.6-8c0,0,0.6-1.6,3.1-2.1c2.5-0.5,0,0,0,0L209.8,105.4"/>
				<path class="st1" d="M214.1,120.5c0,0-1.3-2.9-3.4-1.2c0,0-1,0.7,0.2,2.7c0,0,1.7,2.8,3.8,1.3L214.1,120.5z"/>
				<path class="st4" d="M213.9,113.7c0,0,0,5.2,1,8l-1,0.2c0,0-0.5-3.6-2.4-3.6L213.9,113.7z"/>
				<path class="st0" d="M233.9,102.5c8.5,8.6-17.1,8.5-17.1,8.5s-2.7,1.2-6.9-5.7c0,0-1.1-5.4,11-7.1
					C220.8,98.3,228.8,97.3,233.9,102.5z"/>
			</g>
			<path class="st2" d="M211.5,156.7c0,0-10.9,0-10.9,0c0,0,0-2.6,0-2.8c0.1-2.6,0.2-5.1,0.7-7.6c0.7-3.6,2.4-6.8,6.3-7.7
				c1.8-0.4,3.3,0.6,4.3,2.1C211.8,140.7,213.5,142.9,211.5,156.7z"/>
		</g>
		<g>
			<path class="st0" d="M126.8,100.6c0,0-9.1,2.7-8.3,17.2V149h10.4L126.8,100.6z"/>
			<path class="st0" d="M125.8,109.9v44.8h19.9V117c0,0,1.3-14.5-8.2-16.3C137.4,100.7,125.8,98.6,125.8,109.9z"/>
			<rect x="125.3" y="138.6" class="st1" width="13.8" height="6.8"/>
			<path class="st1" d="M154.3,156.7H145l-1.7-6.7c0,0-1.4-10.2,5.7-10.4c0,0,3.6,2.6,4.6,8.6C153.6,148.2,154.4,153,154.3,156.7z"
				/>
			<path class="st1" d="M121.9,156.7l1.3-5.1c0,0,2.2-11.4-4.8-11.5c0,0-5.1,4.2-4.7,16.6H121.9"/>
			<rect x="128.9" y="124.8" class="st1" width="8.5" height="12.5"/>
			<path class="st3" d="M137.4,129.9v-5.1h-8.5v7.3C131.7,132.1,135.1,131.5,137.4,129.9z"/>
			<path class="st1" d="M117.6,141.3c1.9-3,4.9-3.8,4.9-3.8l7.2-2.7h6.9l8.8,2.7c0,0,3,0.8,4.9,3.8H117.6z"/>
			<path class="st2" d="M119.4,151.4v5.3h27.7l-0.3-6.2c-0.3-11.9,1-11.9,1-11.9c-1.2-0.8-2.3-1.1-2.3-1.1l-6.9-2
				c0,0-1.5,6.5-7.2,6.5c0,0-4.4-2.4-3.2-6.5l-5.5,2c0,0-2.2,0.7-4.2,2.6C118.3,140.1,119.3,140.7,119.4,151.4z"/>
			<path class="st1" d="M138.4,125.8c-0.3,0.7-0.7,1.3-1.3,1.8c-1.4,1.4-3.1,2.5-4.9,3.2c-2.2,0.9-5.6,1-7.4-0.8
				c-1.4-1.5-2.2-3.7-2.8-5.7c-1.2-3.8-1.2-7.9-0.9-11.8c0.1-0.9,0.2-1.8,0.3-2.7c1.4-8.5,8.7-8.5,8.7-8.5
				c5.5-0.2,10.5,2.4,11.4,8.2c0.3,2.2-0.1,4.6-0.2,6.8c-0.1,1.6-0.3,3.3-0.8,4.8C139.9,122.8,139,124.3,138.4,125.8z"/>
			<path class="st1" d="M139.1,119.3c0,0,0.7-3,3.1-1.8c0,0,1.1,0.5,0.3,2.6c0,0-1.1,3-3.4,1.9L139.1,119.3z"/>
			<path class="st0" d="M120.6,110.9c-0.4-11.7,10.7-11.1,10.7-11.1c10.9,0.4,11.4,5.4,11.4,5.4c1.3,6.3-0.6,12.4-0.6,12.4
				c-2.3-0.5-2.7,2.6-2.7,2.6c0.2-5-0.2-5.3-0.2-5.3c-3.5,0-6.1-0.4-6.1-0.4L133,111l-0.9,3.3c0,0-5-0.1-10.2-1.3
				c0,0-1.4,0.1-1.4,4.3V110.9z"/>
		</g>
		<g>
			<g>
				<path class="st5" d="M241.8,65.5c-0.4-2.6-1.5-5.1-3.2-7.3c-5.4-6.8-17.1-8.8-24.1-3.3c-7.5,5.9-12.8,19.6-3.9,25.9
					c1,0.7,2.1,1.3,3.4,1.8c-0.3,1.5-1,4-2.5,4.9c0,0,5.3,0.4,7.3-3.5c7.9,1.5,17.2-0.5,20.9-7C241.6,73.6,242.4,69.4,241.8,65.5z"
					/>
				<path class="st6" d="M225.1,79.1c-3.5-0.4-6.8-1.9-8.9-4.8c-2.1-3-2.9-6.8-2.7-10.5c0.2-3.4,1.2-7,3.8-9.4
					c1-0.9,2.1-1.6,3.2-2.3c-2.2,0.5-4.3,1.4-6,2.8c-7.5,5.9-12.8,19.6-3.9,25.9c1,0.7,2.1,1.3,3.4,1.8c-0.3,1.5-1,4-2.5,4.9
					c0,0,5.3,0.4,7.3-3.5c7.9,1.5,17.2-0.5,20.9-7c0.4-0.6,0.7-1.3,1-2C236.4,78.6,230.4,79.8,225.1,79.1z"/>
				<g>
					<circle class="st7" cx="218.2" cy="69.2" r="2.1"/>
					<path class="st7" d="M226.8,68.9c0,1.1-0.9,2.1-2.1,2.1c-1.1,0-2.1-0.9-2.1-2.1c0-1.1,0.9-2.1,2.1-2.1
						C225.9,66.9,226.8,67.8,226.8,68.9z"/>
					<circle class="st7" cx="231.2" cy="68.6" r="2.1"/>
				</g>
			</g>
			<g>
				<path class="st8" d="M151.6,56.4l-32,2.5c-2.2,0-3.9,1.8-3.9,3.9l2.5,15.7c0,2.2,1.8,3.9,3.9,3.9l1.5,0.1h0c0,0,0.9,3.4-0.9,5.1
					c0,0,5.2-1.3,6.1-4.8l20.3,1.2c2.2,0,3.9-1.8,3.9-3.9l2.5-19.9C155.6,58.1,153.8,56.4,151.6,56.4z"/>
				<path class="st9" d="M155.5,59.5c0,1.1-0.1,2.1-0.3,3.2c-0.2,2.2-0.6,4.4-1,6.6c-0.4,2-0.8,4-1.7,5.8c-1.5,3-4.7,4.1-7.9,4.6
					c-3.3,0.5-6.6,0.3-9.9,0.5c-1.8,0.1-3.7,0.2-5.5,0.2c-1.6-0.1-3.3-0.2-4.7-1c-2.7-1.6-3.1-5.5-3.5-8.2c-0.4-3.2-1.2-7.3,1-10
					c1-1.3,2.3-1.8,3.8-2.3c0.5-0.2,1.1-0.3,1.7-0.6l-8,0.6c-2.2,0-3.9,1.8-3.9,3.9l2.5,15.7c0,2.2,1.8,3.9,3.9,3.9l1.5,0.1h0
					c0,0,0.9,3.4-0.9,5.1c0,0,5.2-1.3,6.1-4.8l20.3,1.2c2.2,0,3.9-1.8,3.9-3.9l2.5-19.9C155.6,60,155.6,59.8,155.5,59.5z"/>
				<g>
					<path class="st7" d="M147.8,66.8c0,0.4-0.4,0.8-0.8,0.8h-22.7c-0.4,0-0.8-0.4-0.8-0.8l0,0c0-0.4,0.4-0.8,0.8-0.8H147
						C147.4,66,147.8,66.4,147.8,66.8L147.8,66.8z"/>
					<path class="st7" d="M147.8,70.2c0,0.4-0.4,0.8-0.8,0.8h-22.7c-0.4,0-0.8-0.4-0.8-0.8l0,0c0-0.4,0.4-0.8,0.8-0.8H147
						C147.4,69.4,147.8,69.8,147.8,70.2L147.8,70.2z"/>
					<path class="st7" d="M147.8,73.6c0,0.4-0.4,0.8-0.8,0.8h-22.7c-0.4,0-0.8-0.4-0.8-0.8l0,0c0-0.4,0.4-0.8,0.8-0.8H147
						C147.4,72.8,147.8,73.2,147.8,73.6L147.8,73.6z"/>
				</g>
			</g>
			<g>
				<path class="st10" d="M72.8,56.2c2.9-3.4,8-3,12-2.6c6.2,0.6,12.5,0.7,18.7,1.7c8.6,1.4,10.7,6.6,10.7,14.6
					c0,4.7-1.3,9.8-5.7,12.2c-0.5,0.3-1.1,0.5-1.7,0.8c0,1.4,0.5,3.3,2.9,4.8c0,0-6,0.7-7.5-3.5c-5.8,1-12.5,0.4-17.8,0.2
					c-7.1-0.3-14.1-2.6-15.5-10.5C67.8,67.7,69.6,59.9,72.8,56.2z"/>
				<path class="st11" d="M72.6,56.5c-0.7,1.4-1.2,2.9-1.5,4.5c-0.3,2.1-0.3,4.4-0.1,6.5c0.3,3.5,1.2,7,4.2,9.2
					c2.8,2,6.2,2.7,9.5,3.4c2.9,0.6,5.9,0.9,8.8,0.9c2.9,0,5.9-0.4,8.6-1.7c2.5-1.2,4.4-3.4,5.1-6.1c0.7-2.7,1-5.7,0.8-8.5
					c-0.2-2.7-0.8-5.6-2.4-7.9c-0.3-0.4-0.6-0.8-1-1.2c7.7,1.6,9.6,6.7,9.6,14.4c0,4.7-1.3,9.8-5.7,12.2c-0.5,0.3-1.1,0.5-1.7,0.8
					c0,1.4,0.5,3.3,2.9,4.8c0,0-6,0.7-7.5-3.5c-5.8,1-12.5,0.4-17.8,0.2c-7.1-0.3-14.1-2.6-15.5-10.5C67.8,67.8,69.5,60.3,72.6,56.5
					z"/>
				<g>
					<path class="st7" d="M89.3,64.9c0,0.5,0.4,1,1,1h13.3c0.5,0,1-0.4,1-1l0,0c0-0.5-0.4-1-1-1H90.2C89.7,63.9,89.3,64.3,89.3,64.9
						L89.3,64.9z"/>
					<path class="st7" d="M78.2,64.9c0,0.5,0.4,1,1,1h7.2c0.5,0,1-0.4,1-1l0,0c0-0.5-0.4-1-1-1h-7.2C78.6,63.9,78.2,64.3,78.2,64.9
						L78.2,64.9z"/>
					<path class="st7" d="M94.1,69.5c0,0.5,0.4,1,1,1h8.5c0.5,0,1-0.4,1-1l0,0c0-0.5-0.4-1-1-1H95C94.5,68.6,94.1,69,94.1,69.5
						L94.1,69.5z"/>
					<path class="st7" d="M78.2,69.5c0,0.5,0.4,1,1,1h12.3c0.5,0,1-0.4,1-1l0,0c0-0.5-0.4-1-1-1H79.2C78.6,68.6,78.2,69,78.2,69.5
						L78.2,69.5z"/>
					<path class="st7" d="M89.3,73.9c0,0.5,0.4,1,1,1h6.2c0.5,0,1-0.4,1-1l0,0c0-0.5-0.4-1-1-1h-6.2C89.7,72.9,89.3,73.4,89.3,73.9
						L89.3,73.9z"/>
					<path class="st7" d="M98.2,73.9c0,0.5,0.4,1,1,1h4.4c0.5,0,1-0.4,1-1l0,0c0-0.5-0.4-1-1-1h-4.4C98.6,72.9,98.2,73.4,98.2,73.9
						L98.2,73.9z"/>
					<path class="st7" d="M78.2,73.9c0,0.5,0.4,1,1,1h7.2c0.5,0,1-0.4,1-1l0,0c0-0.5-0.4-1-1-1h-7.2C78.6,72.9,78.2,73.4,78.2,73.9
						L78.2,73.9z"/>
				</g>
			</g>
			<g>
				<path class="st12" d="M204.5,62.4c0-4.2-3.4-7.6-7.6-7.6c-1,0-1.9,0.2-2.7,0.5c-0.8-4.3-4.6-7.6-9.2-7.6c-4,0-7.4,2.5-8.7,6.1
					c-0.7-0.5-1.4-0.7-2.3-0.7c-2.2,0-4,1.8-4,4c0,0.2,0,0.5,0.1,0.7c-0.8-0.4-1.7-0.7-2.7-0.7c-3,0-5.3,2.4-5.3,5.3
					c0,2.4,1.5,4.4,3.7,5.1c-1.2,1.3-1.9,3.1-1.9,5c0,4.2,3.4,7.6,7.6,7.6c1.1,0,2.2-0.2,3.1-0.7c0.3,3.9,3.6,7,7.5,7
					c3.4,0,6.3-2.3,7.3-5.5c1.3,1.2,3.1,1.9,5,1.9c4.2,0,7.6-3.4,7.6-7.6c0-2.3-1-4.3-2.6-5.7C202.4,68.6,204.5,65.7,204.5,62.4z"/>
				<path class="st13" d="M204.5,62.4c0-3.6-2.4-6.5-5.7-7.3c1.6,1.5,2.8,3.8,2.9,6c0.1,2.2-0.7,4.9-2.5,6.3
					c-0.8,0.6-2.4,1.4-3.4,1.3c1.5,1.9,2,4.2-0.1,6.1c-2.4,2.1-5.2,1.9-7.1-0.4c0,1.9-0.6,4.4-2.3,5.4c-1.4,0.9-3.3,1.4-5,1.2
					c-3.3-0.4-5.2-2.8-5.5-6c0,0.2-1,0.8-1.2,1c-0.4,0.3-0.8,0.5-1.3,0.7c-3.2,1.1-7.2-1.5-6.8-4.9c0.1-1.1,0.5-2.6,1.1-3.6
					c0.3-0.5,1-1.6,1.6-1.5c-4.2-0.3-5.2-7.3-0.5-9.4c-0.4-0.1-0.7-0.1-1.1-0.1c-3,0-5.3,2.4-5.3,5.3c0,2.4,1.5,4.4,3.7,5.1
					c-1.2,1.3-1.9,3.1-1.9,5c0,4.2,3.4,7.6,7.6,7.6c1.1,0,2.2-0.2,3.1-0.7c0.3,3.9,3.6,7,7.5,7c3.4,0,6.3-2.3,7.3-5.5
					c1.3,1.2,3.1,1.9,5,1.9c4.2,0,7.6-3.4,7.6-7.6c0-2.3-1-4.3-2.6-5.7C202.4,68.6,204.5,65.7,204.5,62.4z"/>
				<path class="st12" d="M171.1,84.6c-0.7,0.9-2.2,0.8-3.4-0.1c-1.1-0.9-1.5-2.4-0.7-3.3c0.7-0.9,2.2-0.8,3.4,0.1
					C171.5,82.2,171.8,83.7,171.1,84.6z"/>
				<path class="st12" d="M167.2,86.5c-0.5,0.7-1.7,0.6-2.6-0.1c-0.9-0.7-1.1-1.8-0.6-2.5c0.5-0.7,1.7-0.6,2.6,0.1
					C167.5,84.7,167.7,85.8,167.2,86.5z"/>
				<path class="st12" d="M163.7,87.3c-0.4,0.5-1.2,0.4-1.8-0.1c-0.6-0.5-0.8-1.3-0.4-1.8c0.4-0.5,1.2-0.4,1.8,0.1
					C163.9,86.1,164.1,86.9,163.7,87.3z"/>
				<path class="st13" d="M182.3,59.4c0-2.7,2.2-4.8,4.8-4.8c1.1,0,2,0.3,2.8,0.9c-0.9-1.2-2.3-2-3.9-2c-2.7,0-4.8,2.2-4.8,4.8
					c0,1.6,0.8,3,2,3.9C182.7,61.5,182.3,60.5,182.3,59.4z"/>
				<path class="st13" d="M174.1,70.9c2-0.4,3.9,0.9,4.3,2.9c0.2,0.8,0,1.6-0.3,2.2c0.8-0.8,1.2-2,0.9-3.2c-0.4-2-2.3-3.3-4.3-2.9
					c-1.2,0.2-2.2,1-2.6,2C172.6,71.5,173.3,71.1,174.1,70.9z"/>
				<g>
					<path class="st7" d="M178.9,67.8c0,1.1-0.9,2.1-2.1,2.1c-1.1,0-2.1-0.9-2.1-2.1c0-1.1,0.9-2.1,2.1-2.1
						C178,65.7,178.9,66.6,178.9,67.8z"/>
					<path class="st7" d="M185.4,67.5c0,1.1-0.9,2.1-2.1,2.1c-1.1,0-2.1-0.9-2.1-2.1c0-1.1,0.9-2.1,2.1-2.1
						C184.5,65.4,185.4,66.4,185.4,67.5z"/>
					<path class="st7" d="M191.9,67.2c0,1.1-0.9,2.1-2.1,2.1c-1.1,0-2.1-0.9-2.1-2.1c0-1.1,0.9-2.1,2.1-2.1
						C191,65.2,191.9,66.1,191.9,67.2z"/>
				</g>
			</g>
		</g>
	</g>
	<g>
		<g>
			<path class="st7" d="M59.9,199.4c0.8,0.5,2,0.9,3.3,0.9c1.9,0,2.9-1,2.9-2.4c0-1.3-0.8-2.1-2.7-2.8c-2.3-0.8-3.7-2-3.7-4
				c0-2.2,1.8-3.8,4.6-3.8c1.4,0,2.5,0.3,3.1,0.7l-0.5,1.5c-0.5-0.3-1.4-0.7-2.7-0.7c-1.9,0-2.7,1.1-2.7,2.1c0,1.3,0.9,2,2.8,2.7
				c2.4,0.9,3.6,2.1,3.6,4.1c0,2.2-1.6,4.1-4.9,4.1c-1.4,0-2.8-0.4-3.6-0.9L59.9,199.4z"/>
			<path class="st7" d="M79.7,196.4c0,3.7-2.6,5.4-5,5.4c-2.7,0-4.8-2-4.8-5.2c0-3.4,2.2-5.4,5-5.4
				C77.7,191.2,79.7,193.3,79.7,196.4z M71.7,196.5c0,2.2,1.3,3.9,3.1,3.9c1.8,0,3.1-1.7,3.1-3.9c0-1.7-0.9-3.9-3-3.9
				C72.6,192.6,71.7,194.6,71.7,196.5z"/>
			<path class="st7" d="M89.2,201.2c-0.5,0.3-1.5,0.6-2.9,0.6c-3,0-5-2.1-5-5.2c0-3.1,2.1-5.4,5.4-5.4c1.1,0,2,0.3,2.5,0.5l-0.4,1.4
				c-0.4-0.3-1.1-0.5-2.1-0.5c-2.3,0-3.6,1.7-3.6,3.8c0,2.3,1.5,3.8,3.5,3.8c1,0,1.7-0.3,2.3-0.5L89.2,201.2z"/>
			<path class="st7" d="M93.4,188.6c0,0.6-0.4,1.1-1.2,1.1c-0.6,0-1.1-0.5-1.1-1.1c0-0.6,0.5-1.1,1.1-1.1
				C93,187.5,93.4,188,93.4,188.6z M91.4,201.6v-10.1h1.8v10.1H91.4z"/>
			<path class="st7" d="M101.9,201.6l-0.1-1.3h-0.1c-0.6,0.8-1.7,1.5-3.1,1.5c-2,0-3.1-1.4-3.1-2.9c0-2.4,2.2-3.8,6.1-3.8v-0.2
				c0-0.8-0.2-2.3-2.3-2.3c-0.9,0-1.9,0.3-2.6,0.8l-0.4-1.2c0.8-0.5,2-0.9,3.3-0.9c3.1,0,3.8,2.1,3.8,4.1v3.8c0,0.9,0,1.7,0.2,2.4
				H101.9z M101.6,196.4c-2,0-4.3,0.3-4.3,2.3c0,1.2,0.8,1.8,1.7,1.8c1.3,0,2.2-0.8,2.4-1.7c0.1-0.2,0.1-0.4,0.1-0.6V196.4z"/>
			<path class="st7" d="M106.3,186.7h1.8v14.8h-1.8V186.7z"/>
			<path class="st7" d="M122.9,201.2c-0.5,0.3-1.5,0.6-2.9,0.6c-3,0-5-2.1-5-5.2c0-3.1,2.1-5.4,5.4-5.4c1.1,0,2,0.3,2.5,0.5
				l-0.4,1.4c-0.4-0.3-1.1-0.5-2.1-0.5c-2.3,0-3.6,1.7-3.6,3.8c0,2.3,1.5,3.8,3.5,3.8c1,0,1.7-0.3,2.3-0.5L122.9,201.2z"/>
			<path class="st7" d="M134.1,196.4c0,3.7-2.6,5.4-5,5.4c-2.7,0-4.8-2-4.8-5.2c0-3.4,2.2-5.4,5-5.4
				C132.1,191.2,134.1,193.3,134.1,196.4z M126.1,196.5c0,2.2,1.3,3.9,3.1,3.9c1.8,0,3.1-1.7,3.1-3.9c0-1.7-0.9-3.9-3-3.9
				C127,192.6,126.1,194.6,126.1,196.5z"/>
			<path class="st7" d="M136.4,194.2c0-1,0-1.9-0.1-2.7h1.6l0.1,1.6h0.1c0.6-1,1.5-1.9,3.2-1.9c1.4,0,2.4,0.8,2.9,2h0
				c0.3-0.6,0.7-1,1.1-1.3c0.6-0.5,1.3-0.7,2.2-0.7c1.3,0,3.3,0.9,3.3,4.4v6H149v-5.7c0-1.9-0.7-3.1-2.2-3.1c-1,0-1.9,0.8-2.2,1.7
				c-0.1,0.3-0.1,0.6-0.1,0.9v6.2h-1.8v-6.1c0-1.6-0.7-2.8-2.1-2.8c-1.1,0-2,0.9-2.3,1.8c-0.1,0.3-0.1,0.6-0.1,0.9v6.1h-1.8V194.2z"
				/>
			<path class="st7" d="M153.8,194.2c0-1,0-1.9-0.1-2.7h1.6l0.1,1.6h0.1c0.6-1,1.5-1.9,3.2-1.9c1.4,0,2.4,0.8,2.9,2h0
				c0.3-0.6,0.7-1,1.1-1.3c0.6-0.5,1.3-0.7,2.2-0.7c1.3,0,3.3,0.9,3.3,4.4v6h-1.8v-5.7c0-1.9-0.7-3.1-2.2-3.1c-1,0-1.9,0.8-2.2,1.7
				c-0.1,0.3-0.1,0.6-0.1,0.9v6.2h-1.8v-6.1c0-1.6-0.7-2.8-2.1-2.8c-1.1,0-2,0.9-2.3,1.8c-0.1,0.3-0.1,0.6-0.1,0.9v6.1h-1.8V194.2z"
				/>
			<path class="st7" d="M179.7,198.8c0,1,0,2,0.1,2.8h-1.6l-0.1-1.7h0c-0.5,0.8-1.5,1.9-3.3,1.9c-1.6,0-3.5-0.9-3.5-4.4v-5.9h1.8
				v5.6c0,1.9,0.6,3.2,2.3,3.2c1.2,0,2.1-0.9,2.4-1.7c0.1-0.3,0.2-0.6,0.2-0.9v-6.2h1.8V198.8z"/>
			<path class="st7" d="M182.8,194.2c0-1,0-1.9-0.1-2.7h1.6l0.1,1.7h0c0.5-1,1.7-1.9,3.3-1.9c1.4,0,3.6,0.8,3.6,4.3v6h-1.8v-5.8
				c0-1.6-0.6-3-2.3-3c-1.2,0-2.2,0.9-2.5,1.9c-0.1,0.2-0.1,0.5-0.1,0.9v6.1h-1.8V194.2z"/>
			<path class="st7" d="M196.4,188.6c0,0.6-0.4,1.1-1.2,1.1c-0.6,0-1.1-0.5-1.1-1.1c0-0.6,0.5-1.1,1.1-1.1
				C196,187.5,196.4,188,196.4,188.6z M194.4,201.6v-10.1h1.8v10.1H194.4z"/>
			<path class="st7" d="M206.5,201.2c-0.5,0.3-1.5,0.6-2.9,0.6c-3,0-5-2.1-5-5.2c0-3.1,2.1-5.4,5.4-5.4c1.1,0,2,0.3,2.5,0.5
				l-0.4,1.4c-0.4-0.3-1.1-0.5-2.1-0.5c-2.3,0-3.6,1.7-3.6,3.8c0,2.3,1.5,3.8,3.5,3.8c1,0,1.7-0.3,2.3-0.5L206.5,201.2z"/>
			<path class="st7" d="M214.2,201.6l-0.1-1.3H214c-0.6,0.8-1.7,1.5-3.1,1.5c-2,0-3.1-1.4-3.1-2.9c0-2.4,2.2-3.8,6.1-3.8v-0.2
				c0-0.8-0.2-2.3-2.3-2.3c-0.9,0-1.9,0.3-2.6,0.8l-0.4-1.2c0.8-0.5,2-0.9,3.3-0.9c3.1,0,3.8,2.1,3.8,4.1v3.8c0,0.9,0,1.7,0.2,2.4
				H214.2z M213.9,196.4c-2,0-4.3,0.3-4.3,2.3c0,1.2,0.8,1.8,1.7,1.8c1.3,0,2.2-0.8,2.4-1.7c0.1-0.2,0.1-0.4,0.1-0.6V196.4z"/>
			<path class="st7" d="M220.8,188.6v2.9h2.6v1.4h-2.6v5.5c0,1.3,0.4,2,1.4,2c0.5,0,0.8-0.1,1.1-0.1l0.1,1.4
				c-0.4,0.1-0.9,0.3-1.6,0.3c-0.9,0-1.5-0.3-2-0.8c-0.5-0.5-0.7-1.4-0.7-2.6v-5.5h-1.6v-1.4h1.6V189L220.8,188.6z"/>
			<path class="st7" d="M227.6,188.6c0,0.6-0.4,1.1-1.2,1.1c-0.6,0-1.1-0.5-1.1-1.1c0-0.6,0.5-1.1,1.1-1.1
				C227.1,187.5,227.6,188,227.6,188.6z M225.5,201.6v-10.1h1.8v10.1H225.5z"/>
			<path class="st7" d="M239.6,196.4c0,3.7-2.6,5.4-5,5.4c-2.7,0-4.8-2-4.8-5.2c0-3.4,2.2-5.4,5-5.4
				C237.6,191.2,239.6,193.3,239.6,196.4z M231.5,196.5c0,2.2,1.3,3.9,3.1,3.9c1.8,0,3.1-1.7,3.1-3.9c0-1.7-0.9-3.9-3-3.9
				C232.5,192.6,231.5,194.6,231.5,196.5z"/>
			<path class="st7" d="M241.9,194.2c0-1,0-1.9-0.1-2.7h1.6l0.1,1.7h0c0.5-1,1.7-1.9,3.3-1.9c1.4,0,3.6,0.8,3.6,4.3v6h-1.8v-5.8
				c0-1.6-0.6-3-2.3-3c-1.2,0-2.2,0.9-2.5,1.9c-0.1,0.2-0.1,0.5-0.1,0.9v6.1h-1.8V194.2z"/>
			<path class="st7" d="M117.7,211.8V224c0,0.9,0,1.9,0.1,2.6h-1.7l-0.1-1.8h0c-0.6,1.1-1.8,2-3.4,2c-2.4,0-4.3-2.1-4.3-5.1
				c0-3.4,2.1-5.4,4.5-5.4c1.5,0,2.6,0.7,3,1.5h0v-6H117.7z M115.8,220.6c0-0.2,0-0.5-0.1-0.8c-0.3-1.2-1.3-2.1-2.7-2.1
				c-1.9,0-3,1.7-3,3.9c0,2,1,3.7,3,3.7c1.2,0,2.4-0.8,2.7-2.2c0.1-0.3,0.1-0.5,0.1-0.8V220.6z"/>
			<path class="st7" d="M122.8,213.7c0,0.6-0.4,1.1-1.2,1.1c-0.6,0-1.1-0.5-1.1-1.1c0-0.6,0.5-1.1,1.1-1.1
				C122.3,212.5,122.8,213,122.8,213.7z M120.7,226.6v-10.1h1.8v10.1H120.7z"/>
			<path class="st7" d="M131.9,226.6v-8.7h-4.2v8.7h-1.8v-8.7h-1.4v-1.4h1.4v-0.3c0-1.4,0.3-2.7,1.1-3.4c0.6-0.6,1.4-0.9,2.5-0.9
				c0.6,0,1.1,0.2,1.4,0.4l-0.4,1.4c-0.3-0.1-0.7-0.3-1.1-0.3c-1.4,0-1.8,1.2-1.8,2.8v0.4h4.2v-0.5c0-1.4,0.3-2.7,1.2-3.5
				c0.7-0.7,1.6-0.9,2.4-0.9c0.7,0,1.2,0.1,1.6,0.3l-0.2,1.4c-0.3-0.1-0.6-0.2-1.2-0.2c-1.5,0-2,1.4-2,2.9v0.5h2.4v1.4h-2.4v8.7
				H131.9z"/>
			<path class="st7" d="M138.5,221.9c0,2.5,1.6,3.5,3.5,3.5c1.3,0,2.1-0.2,2.8-0.5l0.3,1.3c-0.6,0.3-1.8,0.6-3.4,0.6
				c-3.1,0-5-2-5-5.1s1.8-5.5,4.7-5.5c3.3,0,4.2,2.9,4.2,4.8c0,0.4,0,0.7-0.1,0.9H138.5z M143.9,220.6c0-1.2-0.5-3-2.5-3
				c-1.9,0-2.7,1.7-2.8,3H143.9z"/>
			<path class="st7" d="M148,219.7c0-1.2,0-2.2-0.1-3.2h1.6l0.1,2h0.1c0.5-1.4,1.6-2.2,2.8-2.2c0.2,0,0.4,0,0.5,0.1v1.7
				c-0.2,0-0.4-0.1-0.6-0.1c-1.3,0-2.2,1-2.5,2.4c0,0.3-0.1,0.5-0.1,0.9v5.4H148V219.7z"/>
			<path class="st7" d="M155.6,221.9c0,2.5,1.6,3.5,3.5,3.5c1.3,0,2.1-0.2,2.8-0.5l0.3,1.3c-0.6,0.3-1.8,0.6-3.4,0.6
				c-3.1,0-5-2-5-5.1s1.8-5.5,4.7-5.5c3.3,0,4.2,2.9,4.2,4.8c0,0.4,0,0.7-0.1,0.9H155.6z M161,220.6c0-1.2-0.5-3-2.5-3
				c-1.9,0-2.7,1.7-2.8,3H161z"/>
			<path class="st7" d="M165.1,219.3c0-1,0-1.9-0.1-2.7h1.6l0.1,1.7h0c0.5-1,1.7-1.9,3.3-1.9c1.4,0,3.6,0.8,3.6,4.3v6h-1.8v-5.8
				c0-1.6-0.6-3-2.3-3c-1.2,0-2.2,0.9-2.5,1.9c-0.1,0.2-0.1,0.5-0.1,0.9v6.1h-1.8V219.3z"/>
			<path class="st7" d="M183.9,226.3c-0.5,0.3-1.5,0.6-2.9,0.6c-3,0-5-2.1-5-5.2c0-3.1,2.1-5.4,5.4-5.4c1.1,0,2,0.3,2.5,0.5
				l-0.4,1.4c-0.4-0.3-1.1-0.5-2.1-0.5c-2.3,0-3.6,1.7-3.6,3.8c0,2.3,1.5,3.8,3.5,3.8c1,0,1.7-0.3,2.3-0.5L183.9,226.3z"/>
			<path class="st7" d="M186.9,221.9c0,2.5,1.6,3.5,3.5,3.5c1.3,0,2.1-0.2,2.8-0.5l0.3,1.3c-0.6,0.3-1.8,0.6-3.4,0.6
				c-3.1,0-5-2-5-5.1s1.8-5.5,4.7-5.5c3.3,0,4.2,2.9,4.2,4.8c0,0.4,0,0.7-0.1,0.9H186.9z M192.3,220.6c0-1.2-0.5-3-2.5-3
				c-1.9,0-2.7,1.7-2.8,3H192.3z"/>
			<path class="st7" d="M196.1,224.8c0.5,0.4,1.5,0.7,2.4,0.7c1.3,0,2-0.7,2-1.5c0-0.9-0.5-1.4-1.9-1.9c-1.8-0.6-2.7-1.6-2.7-2.9
				c0-1.6,1.3-3,3.5-3c1,0,1.9,0.3,2.5,0.6l-0.5,1.3c-0.4-0.3-1.1-0.6-2.1-0.6c-1.1,0-1.7,0.6-1.7,1.4c0,0.8,0.6,1.2,1.9,1.7
				c1.8,0.7,2.7,1.5,2.7,3c0,1.8-1.4,3-3.8,3c-1.1,0-2.1-0.3-2.8-0.7L196.1,224.8z"/>
		</g>
	</g>
	<ellipse class="st0" cx="331.8" cy="126.7" rx="42.9" ry="23.6"/>
	<g>
		<g>
			<g>
				<polygon class="st14" points="449.4,103.6 447.4,103.7 447.4,103.7 				"/>
				<path class="st11" d="M458.1,136.2c-8.8-8.8-13.7-19.2-14.7-31.1l-12.2,1.4l-0.2,0l-0.2,0c-1,0-2.2,0.1-3.4,0.2
					c-0.3,0-0.5,0.1-0.8,0.1c1.6,15.6,8.4,30.2,19.5,41.3c12.8,12.8,29.9,19.9,48,19.9c17.1,0,33.3-6.3,45.8-17.8l-12-12
					c-9.3,8.3-21.2,12.8-33.8,12.8C480.6,151.1,467.7,145.8,458.1,136.2z"/>
				<path class="st11" d="M493.7,32.7c-18.2,0-35.2,7.1-48,19.9c-1.5,1.5-2.9,3.1-4.3,4.7l12,12c1.3-1.7,2.7-3.3,4.2-4.8
					c9.6-9.6,22.4-14.9,36.1-14.9c13.7,0,26.5,5.3,36.1,14.9c9.3,9.3,14.6,21.6,14.9,34.8c5.6-0.9,11.2-1.8,16.8-2.7
					c-1-16.6-7.9-32.2-19.8-44C528.9,39.8,511.8,32.7,493.7,32.7L493.7,32.7z"/>
				<polygon class="st9" points="429,44.9 421.9,92.4 469.3,85.3 453.4,69.3 441.4,57.3 				"/>
				<polygon class="st9" points="528.1,138.3 540,150.3 552.2,162.5 559.4,115.1 511.9,122.1 				"/>
			</g>
			<g>
				<g>
					<path class="st1" d="M443.4,108.4c-0.1,5,2.2,9.6,6.1,12.4c1,0.7,3.9,2.5,7.1,2.5c0.4,0,0.9,0,1.3-0.1c-0.4,2.7,0.3,5.6,2,8.3
						c2.7,4.5,6.5,7.6,10.3,8.6c1.8,0.5,3.6,0.7,5.3,0.7c3.1,0,6-0.8,8.1-2.3c1.9-1.3,3.6-4.7,3.5-7c0,0,0,0,0,0v-7.1
						c0-0.1,0-0.2,0-0.4V90.4c0,0,0,0,0,0V60.9c0,0,0,0,0,0c0-2.7-1.6-5.4-4.3-6.9c-2.8-1.6-6-1.6-8.2-1.3c-3.6,0.5-6.7,2.1-8.8,4.4
						c-2.2,2.4-3.1,5.7-2.5,8.6c-4.3-0.7-8.9,0.7-12.3,3.8c-3.7,3.4-5.3,8.2-4.3,12.8c0.6,2.6,2.1,4.8,4.1,6
						c-0.7,1.1-1.2,2.3-1.4,3.8c-0.2,1.5-0.1,3,0.3,4.3C445.9,99,443.5,103.5,443.4,108.4z"/>
				</g>
				<g>
					<path class="st2" d="M533.6,103.8c0.4-1.3,0.5-2.9,0.3-4.3c-0.2-1.4-0.7-2.7-1.4-3.8c2.1-1.2,3.6-3.4,4.1-6
						c1-4.6-0.6-9.4-4.3-12.8c-3.4-3.1-8-4.5-12.3-3.8c0.6-2.9-0.3-6.2-2.5-8.6c-2.1-2.3-5.2-3.9-8.8-4.4c-2.2-0.3-5.4-0.3-8.2,1.3
						c-2.6,1.5-4.3,4.2-4.3,6.9c0,0,0,0,0,0v29.5c0,0,0,0,0,0v33.7c0,0.1,0,0.3,0,0.4v7.1c0,0,0,0,0,0c-0.1,2.3,1.5,5.6,3.5,7
						c2.2,1.5,5,2.3,8.1,2.3c1.7,0,3.5-0.2,5.3-0.7c3.8-1,7.6-4.2,10.3-8.6c1.6-2.7,2.3-5.6,2-8.3c0.4,0.1,0.9,0.1,1.3,0.1
						c3.1,0,6.1-1.8,7.1-2.5c3.9-2.7,6.2-7.4,6.1-12.4C539.9,110.8,537.5,106.3,533.6,103.8z"/>
				</g>
				<g>
					<path class="st15" d="M490.7,128.4c0-0.1,0-0.3,0-0.4V94.3c0,0,0,0,0,0V64.8c0,0,0,0,0,0c0-2.7-1.7-5.4-4.3-7
						c-2.8-1.6-6.1-1.6-8.2-1.3c-3.6,0.5-6.7,2.1-8.8,4.4c-2.2,2.4-3.1,5.7-2.5,8.6c-4.3-0.7-8.9,0.7-12.3,3.9
						c-3.7,3.4-5.3,8.2-4.3,12.9c0.6,2.6,2.1,4.8,4.1,6c-0.7,1.1-1.2,2.3-1.4,3.7c-0.2,1.5-0.1,3,0.3,4.3c-3.9,2.6-6.3,7.1-6.4,12
						c-0.1,5,2.2,9.7,6.2,12.4c1,0.7,3.9,2.5,7.1,2.5c0.4,0,0.8,0,1.2-0.1c-0.3,2.7,0.4,5.6,2,8.3c2.7,4.5,6.5,7.6,10.4,8.7
						c1.8,0.5,3.6,0.7,5.4,0.7c3.1,0,6-0.8,8.2-2.3c1.9-1.4,3.6-4.8,3.5-7c0,0,0,0,0,0V128.4z M486.2,141.1c-2.9,2.1-7.4,2.6-12,1.3
						c-3.4-0.9-6.8-3.8-9.3-7.9c-1.4-2.3-2-4.9-1.7-7.2c0.3-2.5,1.9-4.7,4-5.6c0,0,0,0,0,0c0.5,0.4,1.1,0.7,1.7,1
						c1,0.4,2.1,0.6,3.2,0.6c1.7,0,3.3-0.5,4.7-1.4c0.4-0.3,0.5-0.8,0.2-1.3c-0.3-0.4-0.8-0.5-1.3-0.2c-1.8,1.2-4.2,1.4-6.1,0.6
						c-2-0.8-3.5-2.7-3.8-4.8c-0.4-2.1,0.4-4.4,2-5.8c0.4-0.3,0.4-0.9,0.1-1.3c-0.3-0.4-0.9-0.4-1.3-0.1c-2,1.8-3,4.8-2.6,7.5
						c0.2,1.4,0.9,2.8,1.8,3.9c-1.8,1-3.2,2.8-4,4.9c-2.5,0.8-5.6-0.5-7.8-1.9c-3.5-2.4-5.5-6.5-5.4-10.9c0.1-4.2,2.1-8,5.3-10.4
						c0.9,1.6,2.4,2.9,4.1,3.4c0.6,0.2,1.3,0.3,1.9,0.3c1.4,0,2.8-0.5,3.8-1.3c0.4-0.3,0.4-0.9,0.1-1.3c-0.3-0.4-0.9-0.4-1.3-0.1
						c-1.1,0.9-2.7,1.2-4.1,0.7c-1.3-0.4-2.6-1.5-3.2-2.9c-0.6-1.3-0.9-2.9-0.6-4.5c0.3-1.8,1.2-3.4,2.4-4.4c1.3-1,3.1-1.3,4.5-0.7
						c0.5,0.2,1,0,1.2-0.4c0.2-0.5,0-1-0.4-1.2c-2-0.9-4.5-0.6-6.4,0.9c-0.2,0.1-0.3,0.3-0.4,0.4c-1.7-0.9-3.1-2.8-3.5-5
						c-0.9-4.1,0.5-8.2,3.7-11.2c3.1-2.9,7.3-4.1,11.3-3.3c-1,1.7-1,4,0,5.7c0.2,0.3,0.5,0.4,0.8,0.4c0.2,0,0.3,0,0.5-0.1
						c0.4-0.3,0.6-0.8,0.3-1.2c-0.9-1.5-0.6-3.5,0.6-4.7c1.2-1.2,3.3-1.4,4.7-0.5c0.4,0.3,1,0.1,1.3-0.3c0.3-0.4,0.1-1-0.3-1.3
						c-1.9-1.2-4.4-1.1-6.2,0.1c-0.6-2.5,0.1-5.3,2-7.5c1.8-2,4.6-3.4,7.7-3.8c1.9-0.3,4.7-0.3,7.1,1.1c2.1,1.2,3.5,3.5,3.4,5.6
						c0,0,0,0.1,0,0.1v12.3c-2,0.4-4,0.3-5.6-0.4c-1.9-0.8-3.4-2.5-3.9-4.3c-0.5-1.9,0.1-4.1,1.5-5.2c0.4-0.3,0.4-0.9,0.1-1.3
						c-0.3-0.4-0.9-0.4-1.3-0.1c-2,1.6-2.8,4.5-2.1,7.1c0.6,2.4,2.5,4.4,4.9,5.5c1.3,0.5,2.7,0.8,4.2,0.8c0.7,0,1.4-0.1,2.2-0.2
						v14.9c-0.9,2.1-3.6,3.7-5.8,3.5c-2.3-0.2-4.3-1.9-4.9-4.1c0.9-0.9,1.6-2,2-3.3c1-3,0.1-6.5-2.2-8.7c-0.4-0.3-0.9-0.3-1.3,0
						c-0.3,0.4-0.3,0.9,0,1.3c1.8,1.7,2.5,4.5,1.7,6.8c-0.8,2.3-3,4.2-5.4,4.5c-2.4,0.3-5-0.9-6.4-3c-0.3-0.4-0.8-0.5-1.2-0.3
						c-0.4,0.3-0.5,0.8-0.3,1.2c1.5,2.4,4.3,3.9,7.1,3.9c0.3,0,0.7,0,1-0.1c1.2-0.2,2.4-0.6,3.4-1.2c1,2.6,3.5,4.5,6.3,4.7
						c0.2,0,0.3,0,0.5,0c2,0,4-0.9,5.5-2.3V126c-2.2-1.7-5.3-2.2-7.9-1.2c-3.3,1.3-5.5,5.1-4.9,8.7c0.1,0.4,0.5,0.8,0.9,0.8
						c0,0,0.1,0,0.1,0c0.5-0.1,0.8-0.5,0.8-1c-0.4-2.7,1.2-5.7,3.8-6.7c2.5-1,5.6-0.1,7.2,2v7.1c0,0,0,0,0,0c0,0,0,0,0,0
						C489,137.1,487.7,140,486.2,141.1z"/>
					<path class="st15" d="M479.8,114.5c2.4,0,4.9-1.4,6.1-3.5c1.3-2.3,1.1-5.4-0.6-7.5c-0.3-0.4-0.9-0.5-1.3-0.2
						c-0.4,0.3-0.5,0.9-0.2,1.3c1.2,1.5,1.4,3.8,0.4,5.5c-0.9,1.7-3,2.8-4.9,2.6c-1.9-0.2-3.7-1.6-4.3-3.5c-0.2-0.5-0.7-0.7-1.1-0.6
						c-0.5,0.2-0.7,0.7-0.6,1.1c0.8,2.5,3.3,4.4,5.9,4.7C479.4,114.5,479.6,114.5,479.8,114.5z"/>
					<path class="st15" d="M530.3,100.3c0.4-1.3,0.5-2.8,0.3-4.3c-0.2-1.4-0.7-2.7-1.4-3.7c2-1.2,3.5-3.4,4.1-6
						c1-4.7-0.6-9.5-4.3-12.9c-3.4-3.1-8-4.5-12.3-3.9c0.5-2.9-0.4-6.2-2.5-8.6c-2.1-2.3-5.2-3.9-8.8-4.4c-2.2-0.3-5.4-0.3-8.2,1.3
						c-2.6,1.5-4.3,4.2-4.3,7c0,0,0,0,0,0v29.5c0,0,0,0,0,0V128c0,0.1,0,0.3,0,0.4v7.1c0,0,0,0,0,0c-0.1,2.3,1.6,5.7,3.5,7
						c2.2,1.5,5,2.3,8.2,2.3c1.7,0,3.5-0.2,5.4-0.7c3.8-1,7.6-4.2,10.4-8.7c1.6-2.7,2.3-5.6,2-8.3c0.4,0.1,0.8,0.1,1.2,0.1
						c3.2,0,6.1-1.9,7.1-2.5c4-2.8,6.3-7.4,6.2-12.4C536.6,107.4,534.3,103,530.3,100.3z M529.5,123.3c-2.1,1.5-5.3,2.8-7.8,1.9
						c-0.7-2.1-2.2-3.9-4-4.9c0.9-1.1,1.6-2.5,1.8-3.9c0.5-2.7-0.5-5.6-2.6-7.5c-0.4-0.3-0.9-0.3-1.3,0.1c-0.3,0.4-0.3,0.9,0.1,1.3
						c1.6,1.4,2.4,3.7,2,5.8c-0.4,2.1-1.9,4-3.8,4.8c-2,0.8-4.4,0.6-6.1-0.6c-0.4-0.3-1-0.2-1.3,0.2c-0.3,0.4-0.2,1,0.2,1.3
						c1.4,0.9,3,1.4,4.7,1.4c1.1,0,2.2-0.2,3.2-0.6c0.6-0.3,1.2-0.6,1.7-1c0,0,0,0,0,0c2.1,0.9,3.7,3.1,4,5.6
						c0.3,2.3-0.3,4.8-1.7,7.2c-2.5,4.1-5.9,7-9.3,7.9c-4.6,1.2-9.1,0.7-12-1.3c-1.6-1.1-2.8-4-2.7-5.5c0,0,0,0,0,0c0,0,0,0,0,0
						v-7.1c1.6-2.1,4.7-3,7.2-2c2.6,1,4.2,4,3.8,6.7c-0.1,0.5,0.3,1,0.8,1c0,0,0.1,0,0.1,0c0.4,0,0.8-0.3,0.9-0.8
						c0.6-3.5-1.6-7.3-4.9-8.7c-2.6-1-5.7-0.5-7.9,1.2V97.2c1.5,1.4,3.5,2.3,5.5,2.3c0.2,0,0.3,0,0.5,0c2.8-0.2,5.3-2.2,6.3-4.7
						c1,0.6,2.2,1.1,3.4,1.2c0.3,0,0.7,0.1,1,0.1c2.8,0,5.6-1.5,7.1-3.9c0.3-0.4,0.1-1-0.3-1.2c-0.4-0.3-1-0.1-1.2,0.3
						c-1.3,2.1-3.9,3.3-6.4,3c-2.4-0.3-4.7-2.1-5.4-4.5c-0.8-2.3,0-5.1,1.7-6.8c0.4-0.3,0.4-0.9,0-1.3c-0.3-0.4-0.9-0.4-1.3,0
						c-2.3,2.2-3.2,5.7-2.2,8.7c0.4,1.2,1.1,2.4,2,3.3c-0.6,2.2-2.7,3.9-4.9,4.1c-2.3,0.2-4.9-1.4-5.8-3.5V79.2
						c0.7,0.1,1.4,0.2,2.2,0.2c1.5,0,2.9-0.3,4.2-0.8c2.4-1,4.3-3.1,4.9-5.5c0.7-2.6-0.1-5.5-2.1-7.1c-0.4-0.3-1-0.3-1.3,0.1
						s-0.3,1,0.1,1.3c1.4,1.2,2,3.3,1.5,5.2c-0.5,1.8-2,3.5-3.9,4.3c-1.6,0.7-3.6,0.9-5.6,0.4V65.1c0,0,0-0.1,0-0.1
						c-0.1-2.1,1.3-4.4,3.4-5.6c2.4-1.4,5.2-1.4,7.1-1.1c3.2,0.4,5.9,1.8,7.7,3.8c1.9,2.1,2.7,5,2,7.5c-1.8-1.2-4.4-1.3-6.2-0.1
						c-0.4,0.3-0.5,0.8-0.3,1.3c0.3,0.4,0.8,0.5,1.3,0.3c1.4-0.9,3.5-0.7,4.7,0.5c1.2,1.2,1.5,3.2,0.6,4.7c-0.3,0.4-0.1,1,0.3,1.2
						c0.1,0.1,0.3,0.1,0.5,0.1c0.3,0,0.6-0.2,0.8-0.4c1-1.7,1-4,0-5.7c3.9-0.8,8.1,0.4,11.3,3.3c3.3,3,4.6,7.1,3.7,11.2
						c-0.5,2.2-1.8,4.1-3.5,5c-0.1-0.1-0.3-0.3-0.4-0.4c-1.9-1.5-4.4-1.8-6.4-0.9c-0.5,0.2-0.6,0.8-0.4,1.2c0.2,0.5,0.8,0.6,1.2,0.4
						c1.4-0.6,3.2-0.4,4.5,0.7c1.2,1,2.1,2.6,2.4,4.4c0.3,1.6,0,3.2-0.6,4.5c-0.7,1.4-1.9,2.5-3.2,2.9c-1.4,0.5-3,0.2-4.1-0.7
						c-0.4-0.3-1-0.3-1.3,0.1c-0.3,0.4-0.3,1,0.1,1.3c1.1,0.9,2.4,1.3,3.8,1.3c0.7,0,1.3-0.1,1.9-0.3c1.7-0.5,3.2-1.8,4.1-3.4
						c3.3,2.3,5.2,6.1,5.3,10.4C535,116.8,533,120.9,529.5,123.3z"/>
					<path class="st15" d="M509.7,108.7c-0.5-0.2-1,0.1-1.1,0.6c-0.6,1.9-2.4,3.3-4.3,3.5c-1.9,0.2-4-0.9-4.9-2.6
						c-0.9-1.7-0.8-4,0.4-5.5c0.3-0.4,0.2-1-0.2-1.3c-0.4-0.3-1-0.2-1.3,0.2c-1.6,2.1-1.8,5.2-0.6,7.5c1.2,2.1,3.6,3.5,6.1,3.5
						c0.2,0,0.4,0,0.6,0c2.6-0.2,5.1-2.2,5.9-4.7C510.4,109.3,510.2,108.8,509.7,108.7z"/>
				</g>
			</g>
		</g>
		<g>
			<g>
				<path class="st7" d="M403.6,187.7c0.9-0.2,2.2-0.3,3.5-0.3c1.9,0,3.2,0.4,4.1,1.1c0.7,0.6,1.1,1.6,1.1,2.7
					c0,1.9-1.2,3.1-2.7,3.6v0.1c1.1,0.4,1.7,1.4,2.1,2.8c0.5,2,0.8,3.3,1.1,3.9h-1.9c-0.2-0.4-0.5-1.6-0.9-3.4
					c-0.4-1.9-1.2-2.7-2.8-2.7h-1.7v6.1h-1.8V187.7z M405.4,194.1h1.9c1.9,0,3.2-1.1,3.2-2.7c0-1.8-1.3-2.6-3.2-2.6
					c-0.9,0-1.5,0.1-1.8,0.2V194.1z"/>
				<path class="st7" d="M415.9,196.8c0,2.5,1.6,3.5,3.5,3.5c1.3,0,2.1-0.2,2.8-0.5l0.3,1.3c-0.6,0.3-1.8,0.6-3.4,0.6
					c-3.1,0-5-2-5-5.1s1.8-5.5,4.7-5.5c3.3,0,4.2,2.9,4.2,4.8c0,0.4,0,0.7-0.1,0.9H415.9z M421.3,195.5c0-1.2-0.5-3-2.5-3
					c-1.9,0-2.7,1.7-2.8,3H421.3z"/>
				<path class="st7" d="M425.1,199.7c0.5,0.4,1.5,0.7,2.4,0.7c1.3,0,2-0.7,2-1.5c0-0.9-0.5-1.4-1.9-1.9c-1.8-0.6-2.7-1.6-2.7-2.9
					c0-1.6,1.3-3,3.5-3c1,0,1.9,0.3,2.5,0.6l-0.5,1.3c-0.4-0.3-1.1-0.6-2.1-0.6c-1.1,0-1.7,0.6-1.7,1.4c0,0.8,0.6,1.2,1.9,1.7
					c1.8,0.7,2.7,1.5,2.7,3.1c0,1.8-1.4,3-3.8,3c-1.1,0-2.1-0.3-2.8-0.7L425.1,199.7z"/>
				<path class="st7" d="M435.8,188.6v2.9h2.6v1.4h-2.6v5.5c0,1.3,0.4,2,1.4,2c0.5,0,0.8-0.1,1.1-0.1l0.1,1.4
					c-0.4,0.1-0.9,0.3-1.6,0.3c-0.9,0-1.5-0.3-2-0.8c-0.5-0.5-0.7-1.4-0.7-2.6v-5.5h-1.6v-1.4h1.6V189L435.8,188.6z"/>
				<path class="st7" d="M440.5,194.6c0-1.2,0-2.2-0.1-3.2h1.6l0.1,2h0.1c0.5-1.4,1.6-2.2,2.8-2.2c0.2,0,0.4,0,0.5,0.1v1.7
					c-0.2,0-0.4-0.1-0.6-0.1c-1.3,0-2.2,1-2.5,2.4c0,0.3-0.1,0.5-0.1,0.9v5.4h-1.8V194.6z"/>
				<path class="st7" d="M449.5,188.6c0,0.6-0.4,1.1-1.2,1.1c-0.6,0-1.1-0.5-1.1-1.1c0-0.6,0.5-1.1,1.1-1.1
					C449.1,187.5,449.5,188,449.5,188.6z M447.4,201.6v-10.1h1.8v10.1H447.4z"/>
				<path class="st7" d="M459.5,201.2c-0.5,0.3-1.5,0.6-2.9,0.6c-3,0-5-2.1-5-5.2c0-3.1,2.1-5.4,5.4-5.4c1.1,0,2,0.3,2.5,0.5
					l-0.4,1.4c-0.4-0.3-1.1-0.5-2.1-0.5c-2.3,0-3.6,1.7-3.6,3.8c0,2.3,1.5,3.8,3.5,3.8c1,0,1.7-0.3,2.3-0.5L459.5,201.2z"/>
				<path class="st7" d="M464.2,188.6v2.9h2.6v1.4h-2.6v5.5c0,1.3,0.4,2,1.4,2c0.5,0,0.8-0.1,1.1-0.1l0.1,1.4
					c-0.4,0.1-0.9,0.3-1.6,0.3c-0.9,0-1.5-0.3-2-0.8c-0.5-0.5-0.7-1.4-0.7-2.6v-5.5h-1.6v-1.4h1.6V189L464.2,188.6z"/>
				<path class="st7" d="M469.8,196.8c0,2.5,1.6,3.5,3.5,3.5c1.3,0,2.1-0.2,2.8-0.5l0.3,1.3c-0.6,0.3-1.8,0.6-3.4,0.6
					c-3.1,0-5-2-5-5.1s1.8-5.5,4.7-5.5c3.3,0,4.2,2.9,4.2,4.8c0,0.4,0,0.7-0.1,0.9H469.8z M475.2,195.5c0-1.2-0.5-3-2.5-3
					c-1.9,0-2.7,1.7-2.8,3H475.2z"/>
				<path class="st7" d="M488,186.7V199c0,0.9,0,1.9,0.1,2.6h-1.7l-0.1-1.8h0c-0.6,1.1-1.8,2-3.4,2c-2.4,0-4.3-2.1-4.3-5.1
					c0-3.4,2.1-5.4,4.5-5.4c1.5,0,2.6,0.7,3,1.5h0v-6H488z M486.1,195.6c0-0.2,0-0.5-0.1-0.8c-0.3-1.2-1.3-2.1-2.7-2.1
					c-1.9,0-3,1.7-3,3.9c0,2,1,3.7,3,3.7c1.2,0,2.4-0.8,2.7-2.2c0.1-0.3,0.1-0.5,0.1-0.8V195.6z"/>
				<path class="st7" d="M489.6,204.1c0.5-1.2,1-3.5,1.3-5l2-0.2c-0.5,1.8-1.4,4.1-2,5.1L489.6,204.1z"/>
				<path class="st7" d="M499.6,194.6c0-1.2,0-2.2-0.1-3.2h1.6l0.1,2h0.1c0.5-1.4,1.6-2.2,2.8-2.2c0.2,0,0.4,0,0.5,0.1v1.7
					c-0.2,0-0.4-0.1-0.6-0.1c-1.3,0-2.2,1-2.5,2.4c0,0.3-0.1,0.5-0.1,0.9v5.4h-1.8V194.6z"/>
				<path class="st7" d="M507.2,196.8c0,2.5,1.6,3.5,3.5,3.5c1.3,0,2.1-0.2,2.8-0.5l0.3,1.3c-0.6,0.3-1.8,0.6-3.4,0.6
					c-3.1,0-5-2-5-5.1s1.8-5.5,4.7-5.5c3.3,0,4.2,2.9,4.2,4.8c0,0.4,0,0.7-0.1,0.9H507.2z M512.6,195.5c0-1.2-0.5-3-2.5-3
					c-1.9,0-2.7,1.7-2.8,3H512.6z"/>
				<path class="st7" d="M516.6,194.8c0-1.3,0-2.3-0.1-3.3h1.7l0.1,1.7h0c0.8-1.2,1.9-2,3.6-2c2.4,0,4.3,2.1,4.3,5.1
					c0,3.6-2.2,5.4-4.6,5.4c-1.3,0-2.5-0.6-3.1-1.6h0v5.5h-1.8V194.8z M518.5,197.5c0,0.3,0,0.5,0.1,0.8c0.3,1.3,1.4,2.2,2.8,2.2
					c1.9,0,3.1-1.6,3.1-3.9c0-2-1.1-3.8-3-3.8c-1.3,0-2.4,0.9-2.8,2.3c-0.1,0.2-0.1,0.5-0.1,0.8V197.5z"/>
				<path class="st7" d="M529.6,196.8c0,2.5,1.6,3.5,3.5,3.5c1.3,0,2.1-0.2,2.8-0.5l0.3,1.3c-0.6,0.3-1.8,0.6-3.4,0.6
					c-3.1,0-5-2-5-5.1s1.8-5.5,4.7-5.5c3.3,0,4.2,2.9,4.2,4.8c0,0.4,0,0.7-0.1,0.9H529.6z M534.9,195.5c0-1.2-0.5-3-2.5-3
					c-1.9,0-2.7,1.7-2.8,3H534.9z"/>
				<path class="st7" d="M541.2,188.6v2.9h2.6v1.4h-2.6v5.5c0,1.3,0.4,2,1.4,2c0.5,0,0.8-0.1,1.1-0.1l0.1,1.4
					c-0.4,0.1-0.9,0.3-1.6,0.3c-0.9,0-1.5-0.3-2-0.8c-0.5-0.5-0.7-1.4-0.7-2.6v-5.5h-1.6v-1.4h1.6V189L541.2,188.6z"/>
				<path class="st7" d="M548,188.6c0,0.6-0.4,1.1-1.2,1.1c-0.6,0-1.1-0.5-1.1-1.1c0-0.6,0.5-1.1,1.1-1.1
					C547.5,187.5,548,188,548,188.6z M545.9,201.6v-10.1h1.8v10.1H545.9z"/>
				<path class="st7" d="M553,188.6v2.9h2.6v1.4H553v5.5c0,1.3,0.4,2,1.4,2c0.5,0,0.8-0.1,1.1-0.1l0.1,1.4c-0.4,0.1-0.9,0.3-1.6,0.3
					c-0.9,0-1.5-0.3-2-0.8c-0.5-0.5-0.7-1.4-0.7-2.6v-5.5h-1.6v-1.4h1.6V189L553,188.6z"/>
				<path class="st7" d="M559.8,188.6c0,0.6-0.4,1.1-1.2,1.1c-0.6,0-1.1-0.5-1.1-1.1c0-0.6,0.5-1.1,1.1-1.1
					C559.3,187.5,559.8,188,559.8,188.6z M557.7,201.6v-10.1h1.8v10.1H557.7z"/>
				<path class="st7" d="M563.3,191.5l2,5.7c0.3,0.9,0.6,1.8,0.8,2.6h0.1c0.2-0.8,0.5-1.7,0.9-2.6l2-5.7h1.9l-4,10.1h-1.8l-3.8-10.1
					H563.3z"/>
				<path class="st7" d="M573.5,196.8c0,2.5,1.6,3.5,3.5,3.5c1.3,0,2.1-0.2,2.8-0.5l0.3,1.3c-0.6,0.3-1.8,0.6-3.4,0.6
					c-3.1,0-5-2-5-5.1s1.8-5.5,4.7-5.5c3.3,0,4.2,2.9,4.2,4.8c0,0.4,0,0.7-0.1,0.9H573.5z M578.9,195.5c0-1.2-0.5-3-2.5-3
					c-1.9,0-2.7,1.7-2.8,3H578.9z"/>
				<path class="st7" d="M399.3,219.8c0-1.3,0-2.3-0.1-3.3h1.7l0.1,1.7h0c0.8-1.2,1.9-2,3.6-2c2.4,0,4.3,2.1,4.3,5.1
					c0,3.6-2.2,5.4-4.6,5.4c-1.3,0-2.5-0.6-3.1-1.6h0v5.5h-1.8V219.8z M401.1,222.5c0,0.3,0,0.5,0.1,0.8c0.3,1.3,1.4,2.2,2.8,2.2
					c1.9,0,3.1-1.6,3.1-3.9c0-2-1.1-3.8-3-3.8c-1.3,0-2.4,0.9-2.8,2.3c-0.1,0.2-0.1,0.5-0.1,0.8V222.5z"/>
				<path class="st7" d="M416.8,226.6l-0.1-1.3h-0.1c-0.6,0.8-1.7,1.5-3.1,1.5c-2,0-3.1-1.4-3.1-2.9c0-2.4,2.2-3.8,6.1-3.8V220
					c0-0.8-0.2-2.3-2.3-2.3c-0.9,0-1.9,0.3-2.6,0.8l-0.4-1.2c0.8-0.5,2-0.9,3.3-0.9c3.1,0,3.8,2.1,3.8,4.1v3.8c0,0.9,0,1.7,0.2,2.4
					H416.8z M416.5,221.5c-2,0-4.3,0.3-4.3,2.3c0,1.2,0.8,1.8,1.7,1.8c1.3,0,2.2-0.8,2.4-1.7c0.1-0.2,0.1-0.4,0.1-0.6V221.5z"/>
				<path class="st7" d="M423.4,213.6v2.9h2.6v1.4h-2.6v5.5c0,1.3,0.4,2,1.4,2c0.5,0,0.8-0.1,1.1-0.1l0.1,1.4
					c-0.4,0.1-0.9,0.3-1.6,0.3c-0.9,0-1.5-0.3-2-0.8c-0.5-0.5-0.7-1.4-0.7-2.6v-5.5H420v-1.4h1.6v-2.4L423.4,213.6z"/>
				<path class="st7" d="M430.3,213.6v2.9h2.6v1.4h-2.6v5.5c0,1.3,0.4,2,1.4,2c0.5,0,0.8-0.1,1.1-0.1l0.1,1.4
					c-0.4,0.1-0.9,0.3-1.6,0.3c-0.9,0-1.5-0.3-2-0.8c-0.5-0.5-0.7-1.4-0.7-2.6v-5.5h-1.6v-1.4h1.6v-2.4L430.3,213.6z"/>
				<path class="st7" d="M435.9,221.9c0,2.5,1.6,3.5,3.5,3.5c1.3,0,2.1-0.2,2.8-0.5l0.3,1.3c-0.6,0.3-1.8,0.6-3.4,0.6
					c-3.1,0-5-2-5-5.1s1.8-5.5,4.7-5.5c3.3,0,4.2,2.9,4.2,4.8c0,0.4,0,0.7-0.1,0.9H435.9z M441.3,220.6c0-1.2-0.5-3-2.5-3
					c-1.9,0-2.7,1.7-2.8,3H441.3z"/>
				<path class="st7" d="M445.3,219.7c0-1.2,0-2.2-0.1-3.2h1.6l0.1,2h0.1c0.5-1.4,1.6-2.2,2.8-2.2c0.2,0,0.4,0,0.5,0.1v1.7
					c-0.2,0-0.4-0.1-0.6-0.1c-1.3,0-2.2,1-2.5,2.4c0,0.3-0.1,0.5-0.1,0.9v5.4h-1.8V219.7z"/>
				<path class="st7" d="M452.3,219.3c0-1,0-1.9-0.1-2.7h1.6l0.1,1.7h0c0.5-1,1.7-1.9,3.3-1.9c1.4,0,3.6,0.8,3.6,4.3v6H459v-5.8
					c0-1.6-0.6-3-2.3-3c-1.2,0-2.2,0.9-2.5,1.9c-0.1,0.2-0.1,0.5-0.1,0.9v6.1h-1.8V219.3z"/>
				<path class="st7" d="M463.6,224.8c0.5,0.4,1.5,0.7,2.4,0.7c1.3,0,2-0.7,2-1.5c0-0.9-0.5-1.4-1.9-1.9c-1.8-0.6-2.7-1.6-2.7-2.9
					c0-1.6,1.3-3,3.5-3c1,0,1.9,0.3,2.5,0.6l-0.5,1.3c-0.4-0.3-1.1-0.6-2.1-0.6c-1.1,0-1.7,0.6-1.7,1.4c0,0.8,0.6,1.2,1.9,1.7
					c1.8,0.7,2.7,1.5,2.7,3c0,1.8-1.4,3-3.8,3c-1.1,0-2.1-0.3-2.8-0.7L463.6,224.8z"/>
				<path class="st7" d="M485.7,221.5c0,3.7-2.6,5.4-5,5.4c-2.7,0-4.8-2-4.8-5.2c0-3.4,2.2-5.4,5-5.4
					C483.7,216.3,485.7,218.4,485.7,221.5z M477.7,221.6c0,2.2,1.3,3.9,3.1,3.9c1.8,0,3.1-1.7,3.1-3.9c0-1.7-0.9-3.9-3-3.9
					C478.6,217.7,477.7,219.7,477.7,221.6z"/>
				<path class="st7" d="M488.2,226.6v-8.7h-1.4v-1.4h1.4v-0.5c0-1.4,0.3-2.7,1.2-3.5c0.7-0.7,1.6-0.9,2.5-0.9
					c0.6,0,1.2,0.1,1.6,0.3l-0.3,1.4c-0.3-0.1-0.6-0.2-1.2-0.2c-1.6,0-2,1.4-2,2.9v0.5h2.4v1.4H490v8.7H488.2z"/>
				<path class="st7" d="M498.5,226.6c0-0.7,0.1-1.7,0.1-2.6v-12.2h1.8v6.4h0c0.6-1.1,1.8-1.9,3.4-1.9c2.5,0,4.3,2.1,4.3,5.2
					c0,3.6-2.3,5.4-4.5,5.4c-1.5,0-2.6-0.6-3.4-1.9h-0.1l-0.1,1.7H498.5z M500.4,222.6c0,0.2,0,0.5,0.1,0.7c0.4,1.3,1.4,2.2,2.8,2.2
					c1.9,0,3.1-1.6,3.1-3.9c0-2-1-3.8-3-3.8c-1.3,0-2.4,0.9-2.8,2.3c0,0.2-0.1,0.5-0.1,0.8V222.6z"/>
				<path class="st7" d="M511.5,221.9c0,2.5,1.6,3.5,3.5,3.5c1.3,0,2.1-0.2,2.8-0.5l0.3,1.3c-0.6,0.3-1.8,0.6-3.4,0.6
					c-3.1,0-5-2-5-5.1s1.8-5.5,4.7-5.5c3.3,0,4.2,2.9,4.2,4.8c0,0.4,0,0.7-0.1,0.9H511.5z M516.9,220.6c0-1.2-0.5-3-2.5-3
					c-1.9,0-2.7,1.7-2.8,3H516.9z"/>
				<path class="st7" d="M520.9,211.8h1.8v6.3h0c0.3-0.5,0.8-1,1.3-1.3c0.5-0.3,1.2-0.5,1.9-0.5c1.4,0,3.5,0.8,3.5,4.3v6h-1.8v-5.8
					c0-1.6-0.6-3-2.3-3c-1.2,0-2.1,0.8-2.5,1.8c-0.1,0.3-0.1,0.5-0.1,0.9v6.1h-1.8V211.8z"/>
				<path class="st7" d="M538.1,226.6l-0.1-1.3h-0.1c-0.6,0.8-1.7,1.5-3.1,1.5c-2,0-3.1-1.4-3.1-2.9c0-2.4,2.2-3.8,6.1-3.8V220
					c0-0.8-0.2-2.3-2.3-2.3c-0.9,0-1.9,0.3-2.6,0.8l-0.4-1.2c0.8-0.5,2-0.9,3.3-0.9c3.1,0,3.8,2.1,3.8,4.1v3.8c0,0.9,0,1.7,0.2,2.4
					H538.1z M537.8,221.5c-2,0-4.3,0.3-4.3,2.3c0,1.2,0.8,1.8,1.7,1.8c1.3,0,2.2-0.8,2.4-1.7c0.1-0.2,0.1-0.4,0.1-0.6V221.5z"/>
				<path class="st7" d="M543.1,216.5l2,5.7c0.3,0.9,0.6,1.8,0.8,2.6h0.1c0.2-0.8,0.5-1.7,0.9-2.6l2-5.7h1.9l-4,10.1H545l-3.8-10.1
					H543.1z"/>
				<path class="st7" d="M554.5,213.7c0,0.6-0.4,1.1-1.2,1.1c-0.6,0-1.1-0.5-1.1-1.1c0-0.6,0.5-1.1,1.1-1.1
					C554.1,212.5,554.5,213,554.5,213.7z M552.5,226.6v-10.1h1.8v10.1H552.5z"/>
				<path class="st7" d="M566.5,221.5c0,3.7-2.6,5.4-5,5.4c-2.7,0-4.8-2-4.8-5.2c0-3.4,2.2-5.4,5-5.4
					C564.5,216.3,566.5,218.4,566.5,221.5z M558.5,221.6c0,2.2,1.3,3.9,3.1,3.9c1.8,0,3.1-1.7,3.1-3.9c0-1.7-0.9-3.9-3-3.9
					C559.4,217.7,558.5,219.7,558.5,221.6z"/>
				<path class="st7" d="M577.3,223.9c0,1,0,2,0.1,2.8h-1.6l-0.1-1.7h0c-0.5,0.8-1.5,1.9-3.3,1.9c-1.6,0-3.5-0.9-3.5-4.4v-5.9h1.8
					v5.6c0,1.9,0.6,3.2,2.3,3.2c1.2,0,2.1-0.9,2.4-1.7c0.1-0.3,0.2-0.6,0.2-0.9v-6.2h1.8V223.9z"/>
				<path class="st7" d="M580.3,219.7c0-1.2,0-2.2-0.1-3.2h1.6l0.1,2h0.1c0.5-1.4,1.6-2.2,2.8-2.2c0.2,0,0.4,0,0.5,0.1v1.7
					c-0.2,0-0.4-0.1-0.6-0.1c-1.3,0-2.2,1-2.5,2.4c0,0.3-0.1,0.5-0.1,0.9v5.4h-1.8V219.7z"/>
			</g>
		</g>
	</g>
	<g>
		<path class="st7" d="M307.1,133H304v-8.6l0-1.4l0.1-1.6c-0.5,0.5-0.9,0.9-1.1,1l-1.7,1.4l-1.5-1.9l4.8-3.8h2.6V133z"/>
		<path class="st7" d="M317.3,118.6c0-1,0.6-1.5,1.7-1.5s1.7,0.5,1.7,1.5c0,0.5-0.1,0.9-0.4,1.1c-0.3,0.3-0.7,0.4-1.3,0.4
			C317.9,120.1,317.3,119.6,317.3,118.6z M320.6,133h-3.1v-11.4h3.1V133z"/>
		<path class="st7" d="M334.4,133h-3.1v-6.7c0-0.8-0.1-1.4-0.4-1.9c-0.3-0.4-0.8-0.6-1.4-0.6c-0.9,0-1.5,0.3-1.9,0.9
			s-0.6,1.5-0.6,2.9v5.4h-3.1v-11.4h2.4l0.4,1.5h0.2c0.3-0.6,0.8-1,1.4-1.3c0.6-0.3,1.3-0.4,2.1-0.4c1.3,0,2.3,0.4,3,1.1
			c0.7,0.7,1,1.8,1,3.1V133z"/>
		<path class="st7" d="M342.1,126.6c0-3,0.6-5.1,1.9-6.6c1.2-1.4,3.1-2.2,5.6-2.2c0.9,0,1.5,0.1,2,0.2v2.5c-0.6-0.1-1.2-0.2-1.8-0.2
			c-1.1,0-2,0.2-2.6,0.5c-0.7,0.3-1.2,0.8-1.5,1.4c-0.3,0.6-0.5,1.5-0.6,2.7h0.1c0.7-1.2,1.8-1.7,3.2-1.7c1.3,0,2.4,0.4,3.1,1.3
			c0.8,0.8,1.1,2,1.1,3.5c0,1.6-0.4,2.9-1.3,3.8c-0.9,0.9-2.1,1.4-3.7,1.4c-1.1,0-2.1-0.3-2.9-0.8s-1.5-1.3-1.9-2.2
			C342.3,129.2,342.1,128,342.1,126.6z M347.5,130.7c0.7,0,1.2-0.2,1.6-0.7c0.4-0.5,0.5-1.1,0.5-1.9c0-0.7-0.2-1.3-0.5-1.7
			c-0.3-0.4-0.8-0.6-1.5-0.6c-0.6,0-1.2,0.2-1.6,0.6c-0.5,0.4-0.7,0.9-0.7,1.4c0,0.8,0.2,1.5,0.6,2.1
			C346.3,130.4,346.8,130.7,347.5,130.7z"/>
		<path class="st7" d="M354,126.6c0-3,0.6-5.1,1.9-6.6c1.2-1.4,3.1-2.2,5.6-2.2c0.9,0,1.5,0.1,2,0.2v2.5c-0.6-0.1-1.2-0.2-1.8-0.2
			c-1.1,0-2,0.2-2.6,0.5c-0.7,0.3-1.2,0.8-1.5,1.4c-0.3,0.6-0.5,1.5-0.6,2.7h0.1c0.7-1.2,1.8-1.7,3.2-1.7c1.3,0,2.4,0.4,3.1,1.3
			c0.8,0.8,1.1,2,1.1,3.5c0,1.6-0.4,2.9-1.3,3.8c-0.9,0.9-2.1,1.4-3.7,1.4c-1.1,0-2.1-0.3-2.9-0.8s-1.5-1.3-1.9-2.2
			C354.3,129.2,354,128,354,126.6z M359.4,130.7c0.7,0,1.2-0.2,1.6-0.7c0.4-0.5,0.5-1.1,0.5-1.9c0-0.7-0.2-1.3-0.5-1.7
			c-0.3-0.4-0.8-0.6-1.5-0.6c-0.6,0-1.2,0.2-1.6,0.6c-0.5,0.4-0.7,0.9-0.7,1.4c0,0.8,0.2,1.5,0.6,2.1
			C358.2,130.4,358.8,130.7,359.4,130.7z"/>
	</g>
</g>
<g>
</g>
<g>
</g>
<g>
</g>
<g>
</g>
<g>
</g>
<g>
</g>
</svg>
