<svg xmlns="http://www.w3.org/2000/svg" viewBox="0 0 98.822 98.822"><defs><style>.a{fill:#66c8c9;}.b{fill:#054062;}.c{fill:#fff;}.d{fill:#fdb816;}.e{fill:#f37666;}.f{fill:#035b83;}</style></defs><circle class="a" cx="49.411" cy="49.411" r="49.411" transform="translate(-7.38 8.697) rotate(-9.363)"/><rect class="b" x="53.757" y="55.124" width="13.126" height="24.05"/><rect class="c" x="70.404" y="39.772" width="13.126" height="39.402"/><rect class="d" x="20.463" y="62.216" width="13.126" height="16.796"/><rect class="e" x="37.11" y="48.711" width="13.126" height="30.463"/><polygon class="e" points="16.541 64.321 13.653 61.432 40.462 34.623 59.956 42.468 75.788 26.529 78.686 29.407 60.945 47.27 41.441 39.421 16.541 64.321"/><polygon class="e" points="81.338 35.401 85.501 19.648 69.775 23.918 81.338 35.401"/><path class="f" d="M21.763,36.15a1.672,1.672,0,0,1-1.534-1.8h0a1.672,1.672,0,0,1,1.8-1.534l4.641.366a1.671,1.671,0,0,1,1.535,1.8h0a1.674,1.674,0,0,1-1.8,1.534Z"/><path class="f" d="M10.476,37.225a3.643,3.643,0,0,1-3.164-4.05h0a3.64,3.64,0,0,1,3.761-3.5l8.322.658a3.639,3.639,0,0,1,3.165,4.048h0a3.641,3.641,0,0,1-3.761,3.5Z"/><path class="a" d="M44.223,42.864a9.624,9.624,0,1,1,1.386-13.54A9.624,9.624,0,0,1,44.223,42.864Z"/><path class="e" d="M48.729,38.126V36.255L36.643,31.391l-8.224,8.224c1.04,1.343,2.107,2.664,3.107,4.033l6.327-6.327L47,41C47.584,40.043,48.2,39.1,48.729,38.126Z"/><path class="c" d="M44.43,34.984a6.577,6.577,0,1,0-6.577,6.576A6.577,6.577,0,0,0,44.43,34.984Z"/><path class="d" d="M47.943,27.423A12.635,12.635,0,1,0,46.123,45.2,12.635,12.635,0,0,0,47.943,27.423Zm-3.72,15.441a9.624,9.624,0,1,1,1.386-13.54A9.624,9.624,0,0,1,44.223,42.864Z"/></svg>