<svg xmlns="http://www.w3.org/2000/svg" viewBox="0 0 98.822 98.822"><defs><style>.a{fill:#66c8c9;}.b{fill:#035b83;}.c{fill:#353049;}.d{fill:#f37666;}.e{fill:#fff;}.f{fill:#fdb816;}</style></defs><circle class="a" cx="49.411" cy="49.411" r="49.411"/><path class="b" d="M88.857,65.807c2.007,1.832,1.424,3.334-1.292,3.334H25.115c-2.716,0-3.3-1.5-1.29-3.334l3.553-3.25a14.762,14.762,0,0,1,8.588-3.332h40.75A14.757,14.757,0,0,1,85.3,62.557Z"/><path class="c" d="M83.815,58.94a2.479,2.479,0,0,1-2.472,2.469H31.336a2.477,2.477,0,0,1-2.473-2.469V29.984a2.477,2.477,0,0,1,2.473-2.467H81.343a2.478,2.478,0,0,1,2.472,2.467Z"/><path class="b" d="M83.815,58.94a2.479,2.479,0,0,1-2.472,2.469H31.336a2.477,2.477,0,0,1-2.473-2.469V29.984a2.477,2.477,0,0,1,2.473-2.467H81.343a2.478,2.478,0,0,1,2.472,2.467Z"/><path class="d" d="M81.83,57.72A1.486,1.486,0,0,1,80.348,59.2H32.331a1.484,1.484,0,0,1-1.482-1.481V31.209a1.492,1.492,0,0,1,1.482-1.486H80.348a1.494,1.494,0,0,1,1.482,1.486Z"/><path class="e" d="M34.743,34.406a1.285,1.285,0,0,1,1.4-1.4H37.4a1.214,1.214,0,0,1,1.349,1.361v2.859a1.223,1.223,0,0,1-1.353,1.36h-1.25a1.247,1.247,0,0,1-1.4-1.36ZM36.385,37.6h.739c.357,0,.553-.133.553-.545V34.532c0-.351-.153-.545-.52-.545h-.8a.5.5,0,0,0-.545.545v2.519A.5.5,0,0,0,36.385,37.6Z"/><path class="e" d="M54.293,34.406A1.285,1.285,0,0,1,55.7,33h1.25A1.213,1.213,0,0,1,58.3,34.364v2.859a1.223,1.223,0,0,1-1.353,1.36h-1.25a1.248,1.248,0,0,1-1.4-1.36ZM55.935,37.6h.739c.358,0,.554-.133.554-.545V34.532c0-.351-.154-.545-.52-.545h-.8a.5.5,0,0,0-.546.545v2.519A.5.5,0,0,0,55.935,37.6Z"/><path class="e" d="M41.259,43.3a1.285,1.285,0,0,1,1.4-1.4h1.25a1.213,1.213,0,0,1,1.348,1.361v2.858a1.224,1.224,0,0,1-1.352,1.361H42.658a1.248,1.248,0,0,1-1.4-1.361ZM42.9,46.5h.738c.358,0,.554-.133.554-.545V43.43c0-.351-.153-.545-.52-.545h-.8a.5.5,0,0,0-.546.545v2.519A.5.5,0,0,0,42.9,46.5Z"/><path class="e" d="M41.259,52.2a1.286,1.286,0,0,1,1.4-1.4h1.25a1.213,1.213,0,0,1,1.348,1.361V55.02a1.224,1.224,0,0,1-1.352,1.361H42.658a1.248,1.248,0,0,1-1.4-1.361ZM42.9,55.4h.738c.358,0,.554-.133.554-.545V52.329c0-.351-.153-.545-.52-.545h-.8a.5.5,0,0,0-.546.545v2.519A.5.5,0,0,0,42.9,55.4Z"/><path class="e" d="M34.743,52.2a1.285,1.285,0,0,1,1.4-1.4H37.4a1.214,1.214,0,0,1,1.349,1.361V55.02a1.224,1.224,0,0,1-1.353,1.361h-1.25a1.248,1.248,0,0,1-1.4-1.361ZM36.385,55.4h.739c.357,0,.553-.133.553-.545V52.329c0-.351-.153-.545-.52-.545h-.8a.5.5,0,0,0-.545.545v2.519A.5.5,0,0,0,36.385,55.4Z"/><path class="e" d="M60.81,34.406a1.285,1.285,0,0,1,1.4-1.4h1.25a1.213,1.213,0,0,1,1.349,1.361v2.859a1.223,1.223,0,0,1-1.353,1.36h-1.25a1.248,1.248,0,0,1-1.4-1.36ZM62.452,37.6h.739c.358,0,.553-.133.553-.545V34.532c0-.351-.153-.545-.52-.545h-.8a.5.5,0,0,0-.546.545v2.519A.5.5,0,0,0,62.452,37.6Z"/><path class="e" d="M67.326,34.406a1.286,1.286,0,0,1,1.4-1.4h1.25a1.214,1.214,0,0,1,1.349,1.361v2.859a1.223,1.223,0,0,1-1.353,1.36h-1.25a1.248,1.248,0,0,1-1.4-1.36ZM68.969,37.6h.739c.357,0,.553-.133.553-.545V34.532c0-.351-.153-.545-.52-.545h-.8a.5.5,0,0,0-.545.545v2.519A.5.5,0,0,0,68.969,37.6Z"/><path class="e" d="M42.191,33.634,43.271,33H44.33v5.58H43.262v-4.52l-1.071.269Z"/><path class="e" d="M48.708,33.634,49.787,33h1.059v5.58H49.779v-4.52l-1.071.269Z"/><path class="e" d="M74.775,33.634,75.855,33h1.059v5.58H75.846v-4.52l-1.071.269Z"/><path class="e" d="M35.674,42.533l1.08-.631h1.059v5.58H36.745V42.961l-1.071.27Z"/><path class="e" d="M48.708,51.432l1.079-.632h1.059v5.581H49.779V51.86l-1.071.269Z"/><path class="e" d="M54.293,43.3a1.285,1.285,0,0,1,1.4-1.4h1.25A1.213,1.213,0,0,1,58.3,43.263v2.858a1.224,1.224,0,0,1-1.353,1.361h-1.25a1.248,1.248,0,0,1-1.4-1.361ZM55.935,46.5h.739c.358,0,.554-.133.554-.545V43.43c0-.351-.154-.545-.52-.545h-.8a.5.5,0,0,0-.546.545v2.519A.5.5,0,0,0,55.935,46.5Z"/><path class="e" d="M60.81,52.2a1.285,1.285,0,0,1,1.4-1.4h1.25a1.213,1.213,0,0,1,1.349,1.361V55.02a1.224,1.224,0,0,1-1.353,1.361h-1.25a1.248,1.248,0,0,1-1.4-1.361ZM62.452,55.4h.739c.358,0,.553-.133.553-.545V52.329c0-.351-.153-.545-.52-.545h-.8a.5.5,0,0,0-.546.545v2.519A.5.5,0,0,0,62.452,55.4Z"/><path class="e" d="M67.326,52.2a1.286,1.286,0,0,1,1.4-1.4h1.25a1.214,1.214,0,0,1,1.349,1.361V55.02a1.224,1.224,0,0,1-1.353,1.361h-1.25a1.248,1.248,0,0,1-1.4-1.361ZM68.969,55.4h.739c.357,0,.553-.133.553-.545V52.329c0-.351-.153-.545-.52-.545h-.8a.5.5,0,0,0-.545.545v2.519A.5.5,0,0,0,68.969,55.4Z"/><path class="e" d="M48.708,42.533l1.079-.631h1.059v5.58H49.779V42.961l-1.071.27Z"/><path class="e" d="M61.742,42.533l1.079-.631H63.88v5.58H62.813V42.961l-1.071.27Z"/><path class="e" d="M55.225,51.432,56.3,50.8h1.059v5.581H56.3V51.86l-1.071.269Z"/><path class="e" d="M73.843,43.3a1.285,1.285,0,0,1,1.4-1.4H76.5a1.213,1.213,0,0,1,1.348,1.361v2.858a1.224,1.224,0,0,1-1.352,1.361H75.242a1.248,1.248,0,0,1-1.4-1.361ZM75.486,46.5h.738c.358,0,.554-.133.554-.545V43.43c0-.351-.153-.545-.52-.545h-.8a.5.5,0,0,0-.546.545v2.519A.5.5,0,0,0,75.486,46.5Z"/><path class="e" d="M74.775,51.432l1.08-.632h1.059v5.581H75.846V51.86l-1.071.269Z"/><path class="e" d="M68.258,42.533l1.08-.631H70.4v5.58H69.329V42.961l-1.071.27Z"/><path class="b" d="M19.98,56.676a1.961,1.961,0,0,1-2.772,0h0a1.961,1.961,0,0,1,0-2.772l3.862-3.863a1.959,1.959,0,0,1,2.772,0h0a1.961,1.961,0,0,1,0,2.772Z"/><path class="b" d="M12.341,67.567a4.274,4.274,0,0,1-6.025-.261h0a4.271,4.271,0,0,1-.261-6.025l6.927-6.926a4.27,4.27,0,0,1,6.024.261h0a4.269,4.269,0,0,1,.26,6.023Z"/><path class="f" d="M46.215,41.1A14.825,14.825,0,1,0,31.39,55.926,14.825,14.825,0,0,0,46.215,41.1Z"/><path class="d" d="M42.683,41.1A11.293,11.293,0,1,0,31.39,52.393,11.294,11.294,0,0,0,42.683,41.1Z"/><path class="e" d="M34.275,41.835,35.7,41h1.4v7.385H35.692V42.4l-1.417.356Z"/><path class="e" d="M33.042,34.807a1.651,1.651,0,0,0,1.851,1.8h1.655a1.619,1.619,0,0,0,1.79-1.8v-2.6a11.268,11.268,0,0,0-1.413-.947v3.321c0,.545-.259.721-.732.721h-.978a.665.665,0,0,1-.761-.726V31.246a.658.658,0,0,1,.722-.722h.142a11.194,11.194,0,0,0-2-.539,2.046,2.046,0,0,0-.277,1.094Z"/></svg>