<svg xmlns="http://www.w3.org/2000/svg" viewBox="0 0 98.822 98.822"><defs><style>.a{fill:#fdb816;}.b{fill:#fff;}.c{fill:#f37666;}.d{fill:#035b83;}.e{fill:#054062;}</style></defs><circle class="a" cx="49.411" cy="49.411" r="49.411"/><path class="b" d="M21.807,22a1.688,1.688,0,0,1,1.656-2.013l1.634-.159a1.594,1.594,0,0,1,1.937,1.607l.364,3.738a1.608,1.608,0,0,1-1.6,1.951l-1.634.159a1.639,1.639,0,0,1-2-1.6Zm2.554,3.966.966-.094c.467-.046.707-.245.654-.783l-.321-3.3c-.045-.458-.27-.693-.75-.646l-1.048.1a.653.653,0,0,0-.644.782l.321,3.294A.66.66,0,0,0,24.361,25.966Z"/><path class="c" d="M30.413,31.339A1.688,1.688,0,0,1,32.04,29.3l1.632-.183A1.594,1.594,0,0,1,35.631,30.7l.418,3.732A1.607,1.607,0,0,1,34.482,36.4l-1.631.183a1.64,1.64,0,0,1-2.026-1.571Zm2.611,3.929.964-.109c.468-.052.7-.254.643-.792l-.369-3.294c-.051-.457-.28-.689-.758-.635l-1.047.117a.653.653,0,0,0-.633.792l.369,3.288A.661.661,0,0,0,33.024,35.268Z"/><path class="c" d="M63.673,18.729a1.688,1.688,0,0,1,2.237-1.337l1.593.4a1.594,1.594,0,0,1,1.281,2.166L67.867,23.6a1.608,1.608,0,0,1-2.16,1.3l-1.592-.4a1.64,1.64,0,0,1-1.346-2.182Zm1.067,4.6.941.237c.456.115.748.008.88-.517l.809-3.214a.614.614,0,0,0-.487-.861l-1.021-.257a.654.654,0,0,0-.871.519l-.808,3.209A.661.661,0,0,0,64.74,23.324Z"/><path class="c" d="M60.124,30.223a1.689,1.689,0,0,1,1.627-2.036L63.383,28a1.593,1.593,0,0,1,1.959,1.579l.419,3.732a1.608,1.608,0,0,1-1.567,1.974l-1.632.183A1.639,1.639,0,0,1,60.537,33.9Zm2.612,3.929.964-.108c.467-.052.7-.255.643-.792l-.369-3.294c-.052-.458-.28-.689-.759-.635l-1.046.117a.653.653,0,0,0-.633.791L61.9,33.52A.66.66,0,0,0,62.736,34.152Z"/><path class="c" d="M71.8,41.375a1.688,1.688,0,0,1,1.627-2.036l1.632-.183a1.593,1.593,0,0,1,1.959,1.579l.418,3.731a1.606,1.606,0,0,1-1.567,1.974l-1.631.183a1.639,1.639,0,0,1-2.026-1.571ZM74.407,45.3l.965-.108c.467-.053.7-.255.643-.793l-.37-3.293c-.051-.458-.28-.689-.758-.635l-1.047.117a.653.653,0,0,0-.633.791l.369,3.288A.661.661,0,0,0,74.407,45.3Z"/><path class="b" d="M46.992,81.619a1.689,1.689,0,0,1,1.627-2.037l1.632-.183a1.594,1.594,0,0,1,1.959,1.579l.418,3.732a1.607,1.607,0,0,1-1.567,1.974l-1.631.183A1.64,1.64,0,0,1,47.4,85.3ZM49.6,85.547l.964-.108c.467-.052.7-.254.643-.792l-.369-3.294c-.051-.458-.28-.689-.758-.635l-1.047.117a.653.653,0,0,0-.633.792l.369,3.288A.66.66,0,0,0,49.6,85.547Z"/><path class="b" d="M41.986,28.232a1.688,1.688,0,0,1,2.537-.595l1.4.865a1.593,1.593,0,0,1,.564,2.452l-1.978,3.192a1.606,1.606,0,0,1-2.451.583l-1.4-.865a1.639,1.639,0,0,1-.621-2.487Zm-.376,4.7.825.511a.619.619,0,0,0,.995-.226L45.175,30.4a.615.615,0,0,0-.2-.969l-.9-.554a.653.653,0,0,0-.987.231l-1.743,2.813A.661.661,0,0,0,41.61,32.935Z"/><path class="d" d="M54.032,20.725a1.689,1.689,0,0,1,1.133-2.348l1.55-.541a1.594,1.594,0,0,1,2.262,1.1l1.238,3.545a1.607,1.607,0,0,1-1.088,2.273l-1.55.542a1.639,1.639,0,0,1-2.324-1.081Zm3.421,3.249.916-.32a.62.62,0,0,0,.45-.916l-1.093-3.129a.614.614,0,0,0-.881-.45l-.994.347a.653.653,0,0,0-.441.912L56.5,23.542A.662.662,0,0,0,57.453,23.974Z"/><path class="c" d="M33.221,18.2a1.689,1.689,0,0,1,2.538-.6l1.4.865a1.593,1.593,0,0,1,.564,2.452L35.741,24.11a1.607,1.607,0,0,1-2.452.584l-1.4-.865a1.638,1.638,0,0,1-.621-2.487Zm-.375,4.7.824.511a.62.62,0,0,0,1-.226l1.745-2.817a.614.614,0,0,0-.2-.968l-.9-.555a.652.652,0,0,0-.986.231l-1.743,2.813A.661.661,0,0,0,32.846,22.9Z"/><path class="d" d="M71.872,28.787a1.688,1.688,0,0,1,2.537-.595l1.4.865a1.593,1.593,0,0,1,.564,2.452L74.391,34.7a1.606,1.606,0,0,1-2.451.583l-1.4-.864a1.639,1.639,0,0,1-.621-2.487Zm-.376,4.7.825.511a.619.619,0,0,0,1-.226l1.746-2.817a.615.615,0,0,0-.2-.968l-.9-.555a.653.653,0,0,0-.987.231l-1.743,2.813A.661.661,0,0,0,71.5,33.49Z"/><path class="d" d="M50.324,36.4a1.688,1.688,0,0,1,2.537-.6l1.4.865a1.594,1.594,0,0,1,.564,2.453l-1.978,3.192a1.606,1.606,0,0,1-2.451.583L49,42.031a1.639,1.639,0,0,1-.621-2.487Zm-.376,4.7.825.511a.619.619,0,0,0,.995-.225l1.745-2.817a.615.615,0,0,0-.2-.969l-.9-.554a.653.653,0,0,0-.987.23L49.685,40.09A.66.66,0,0,0,49.948,41.1Z"/><path class="b" d="M57.7,38.347A1.688,1.688,0,0,1,59.8,36.8l1.624.244a1.594,1.594,0,0,1,1.485,2.032l-.558,3.713a1.607,1.607,0,0,1-2.023,1.5l-1.624-.244a1.639,1.639,0,0,1-1.551-2.041Zm1.509,4.47.96.144c.464.07.745-.065.825-.6l.493-3.277a.614.614,0,0,0-.569-.81l-1.041-.156a.653.653,0,0,0-.816.6l-.492,3.272A.661.661,0,0,0,59.213,42.817Z"/><path class="d" d="M20.333,36.354a1.688,1.688,0,0,1,1.438-2.173l1.609-.328a1.593,1.593,0,0,1,2.093,1.4l.75,3.68a1.607,1.607,0,0,1-1.384,2.106l-1.609.328a1.64,1.64,0,0,1-2.158-1.384Zm2.952,3.68.951-.194c.46-.094.678-.316.569-.846l-.662-3.248a.615.615,0,0,0-.812-.565l-1.032.21a.653.653,0,0,0-.559.845l.661,3.242A.659.659,0,0,0,23.285,40.034Z"/><path class="b" d="M28.645,39.979l1.113-1.208,1.33-.406,2.144,7.009-1.341.41-1.737-5.678-1.241.749Z"/><path class="b" d="M48.734,89.753l1.487-.7,1.385.127-.665,7.3-1.4-.127.539-5.913-1.433.224Z"/><path class="b" d="M40.344,38.084l1.572-.476,1.352.325L41.557,45.06l-1.363-.327,1.386-5.774-1.45.016Z"/><path class="b" d="M70.973,18.376l1.392-.872,1.391-.041.219,7.326-1.4.042L72.4,18.9l-1.4.4Z"/><path class="b" d="M48.773,14.17l1.572-.475,1.353.325-1.711,7.127-1.364-.327,1.387-5.774-1.451.015Z"/><path class="c" d="M49.744,28.061l.771-1.45L51.7,25.88l3.851,6.237-1.193.736L51.236,27.8l-1.011,1.04Z"/><path class="d" d="M39.7,16.777l.771-1.451,1.184-.73,3.85,6.236-1.192.737L41.2,16.516l-1.011,1.041Z"/><path class="b" d="M66.664,38.084l1.572-.476,1.352.325L67.877,45.06l-1.363-.327L67.9,38.959l-1.45.016Z"/><polygon class="d" points="79.929 52.579 49.411 76.105 18.893 52.579 79.929 52.579"/><rect class="d" x="45.029" y="70.796" width="8.765" height="10.73"/><rect class="e" x="18.893" y="45.047" width="61.036" height="7.532"/></svg>