<svg xmlns="http://www.w3.org/2000/svg" xmlns:xlink="http://www.w3.org/1999/xlink" viewBox="0 0 800 600"><defs><clipPath id="clip-path" transform="translate(0 11.31)"><rect x="29" y="19.69" width="724.2" height="560.62" rx="231.1" style="fill:none"/></clipPath></defs><g id="Layer_1" data-name="Layer 1"><g style="clip-path:url(#clip-path)"><rect width="800" height="600" style="fill:#a8d2de"/><path d="M123.9,43.72a42.48,42.48,0,0,1,41.52,34,26.36,26.36,0,0,1,45.2,16.62L82.08,94.06a43.7,43.7,0,0,1-.74-8A42.47,42.47,0,0,1,123.9,43.72Z" transform="translate(0 11.31)" style="fill:#ccdee2"/><path d="M663.38,38.73a36.73,36.73,0,0,1,35.91,29.42,22.79,22.79,0,0,1,39.09,14.37l-111.16-.25a36.71,36.71,0,0,1,36.16-43.54Z" transform="translate(0 11.31)" style="fill:#ccdee2"/><path d="M491.81,111.08a31,31,0,0,1,30.31,24.83,19.24,19.24,0,0,1,33,12.13l-93.82-.21a30.22,30.22,0,0,1-.54-5.82A31,31,0,0,1,491.81,111.08Z" transform="translate(0 11.31)" style="fill:#ccdee2"/><path d="M230.6,511.2a40.59,40.59,0,0,1,39.69,32.51A25.2,25.2,0,0,1,313.5,559.6l-122.88-.28a40.61,40.61,0,0,1,40-48.12Z" transform="translate(0 11.31)" style="fill:#ccdee2"/><path d="M548.71,479.53a34.87,34.87,0,0,1,34.08,27.92,21.64,21.64,0,0,1,37.1,13.64l-105.51-.24a34.83,34.83,0,0,1,34.33-41.32Z" transform="translate(0 11.31)" style="fill:#ccdee2"/><polygon points="78.55 555.23 161 519.91 203.42 447.27 269.74 406.49 267.36 383.03 0 386.58 0 600 42.44 600 78.55 555.23" style="fill:#96633f"/><polygon points="719 542 625 491.78 586.88 440.48 528.97 406.8 532.58 385.56 800 389.38 800 600 758.98 600 719 542" style="fill:#96633f"/><polygon points="485.93 352.29 475.37 343.33 460.34 366.72 462.63 369.14 485.93 352.29" style="fill:#f5f5f5"/><polygon points="405 321.7 394.35 320.74 398.1 353.58 402.16 353.68 405 321.7" style="fill:#f5f5f5"/><polygon points="324.75 339.88 315.48 348.73 339.61 368.68 343.05 366.51 324.75 339.88" style="fill:#f5f5f5"/><polygon points="314.07 438.14 323.47 448.27 342.96 424.8 340.72 422.33 314.07 438.14" style="fill:#f5f5f5"/><polygon points="394.94 466.75 405.63 467.28 402.4 436.58 398.33 436.65 394.94 466.75" style="fill:#f5f5f5"/><polygon points="478.62 446.81 486.77 438.64 461.83 421.81 458.81 424.53 478.62 446.81" style="fill:#f5f5f5"/></g></g></svg>