<?xml version="1.0" encoding="utf-8"?>
<!-- Generator: Adobe Illustrator 24.2.0, SVG Export Plug-In . SVG Version: 6.00 Build 0)  -->
<svg version="1.1" id="Layer_1" xmlns="http://www.w3.org/2000/svg" xmlns:xlink="http://www.w3.org/1999/xlink" x="0px" y="0px"
	 viewBox="0 0 709.9 380.7" style="enable-background:new 0 0 709.9 380.7;" xml:space="preserve">
<style type="text/css">
	.st0{fill:#3BA8A5;}
	.st1{fill:#E25E54;}
	.st2{fill:#D79628;}
	.st3{fill:#66C8C9;}
	.st4{fill:#035B83;}
	.st5{fill:#353049;}
	.st6{fill:#F37666;}
	.st7{fill:#FFFFFF;}
	.st8{fill:#FDB816;}
	.st9{fill:#054062;}
	.st10{fill:none;stroke:#000000;stroke-miterlimit:10;}
	.st11{fill:#67C8C9;}
	.st12{fill:#044163;}
	.st13{fill:none;stroke:#424143;stroke-linecap:round;stroke-linejoin:round;}
	.st14{fill:#424143;}
	.st15{fill:#764636;}
	.st16{fill:#C2E8FB;}
	.st17{fill:#003746;}
	.st18{fill:#73B999;}
	.st19{fill:#CEE39D;}
	.st20{opacity:0.75;}
	.st21{fill:#FDB817;}
	.st22{fill:url(#SVGID_1_);}
	.st23{fill:#79BD9A;}
	.st24{fill:none;}
	.st25{fill:#0D486E;}
	.st26{fill:url(#SVGID_2_);}
	.st27{fill:#3F8787;}
	.st28{fill:url(#SVGID_3_);}
	.st29{fill:url(#SVGID_4_);}
</style>
<g>
	<path class="st0" d="M42.5,75.4c0,2.4-0.7,4.2-2,5.4s-3.3,1.9-5.8,1.9h-4V68.4h4.5c2.3,0,4.1,0.6,5.4,1.8S42.5,73.2,42.5,75.4z
		 M39.3,75.4c0-3.1-1.4-4.6-4.1-4.6h-1.6v9.3h1.3C37.9,80.1,39.3,78.6,39.3,75.4z"/>
	<path class="st0" d="M54.2,82.6l-1-3.4h-5.2l-1,3.4h-3.3l5-14.3h3.7l5.1,14.3H54.2z M52.4,76.7c-1-3.1-1.5-4.8-1.6-5.2
		s-0.2-0.7-0.3-1c-0.2,0.8-0.8,2.9-1.8,6.2H52.4z"/>
	<path class="st0" d="M64.7,82.6h-3V70.9h-3.9v-2.5h10.8v2.5h-3.9V82.6z"/>
	<path class="st0" d="M79.5,82.6l-1-3.4h-5.2l-1,3.4H69l5-14.3h3.7l5.1,14.3H79.5z M77.8,76.7c-1-3.1-1.5-4.8-1.6-5.2
		s-0.2-0.7-0.3-1c-0.2,0.8-0.8,2.9-1.8,6.2H77.8z"/>
	<path class="st0" d="M40.5,96.8c0,1.5-0.5,2.7-1.4,3.5s-2.3,1.2-4.1,1.2h-1.3v5.1h-3V92.4h4.6c1.7,0,3,0.4,4,1.1
		S40.5,95.3,40.5,96.8z M33.6,99.1h1c0.9,0,1.6-0.2,2.1-0.6s0.7-0.9,0.7-1.6c0-0.7-0.2-1.2-0.6-1.6s-1-0.5-1.8-0.5h-1.4V99.1z"/>
	<path class="st0" d="M46.2,101.2v5.5h-3V92.4h4.2c1.9,0,3.4,0.4,4.3,1.1s1.4,1.8,1.4,3.2c0,0.8-0.2,1.6-0.7,2.2s-1.1,1.2-2,1.5
		c2.1,3.2,3.5,5.3,4.2,6.2h-3.4l-3.4-5.5H46.2z M46.2,98.7h1c1,0,1.7-0.2,2.1-0.5s0.7-0.8,0.7-1.5c0-0.7-0.2-1.2-0.7-1.4
		s-1.2-0.4-2.2-0.4h-0.9V98.7z"/>
	<path class="st0" d="M69.3,99.5c0,2.4-0.6,4.2-1.8,5.4s-2.9,1.9-5,1.9s-3.9-0.6-5-1.9s-1.8-3.1-1.8-5.5s0.6-4.2,1.8-5.4
		s2.9-1.9,5.1-1.9s3.9,0.6,5,1.9S69.3,97.1,69.3,99.5z M58.9,99.5c0,1.6,0.3,2.8,0.9,3.6s1.5,1.2,2.7,1.2c2.4,0,3.6-1.6,3.6-4.8
		c0-3.2-1.2-4.8-3.6-4.8c-1.2,0-2.1,0.4-2.7,1.2S58.9,97.9,58.9,99.5z"/>
	<path class="st0" d="M78.4,94.7c-1.1,0-2,0.4-2.6,1.3s-0.9,2-0.9,3.6c0,3.2,1.2,4.8,3.6,4.8c1,0,2.2-0.3,3.6-0.8v2.5
		c-1.2,0.5-2.5,0.7-3.9,0.7c-2.1,0-3.7-0.6-4.8-1.9s-1.7-3.1-1.7-5.4c0-1.5,0.3-2.8,0.8-3.9s1.3-2,2.3-2.6s2.2-0.9,3.6-0.9
		c1.4,0,2.8,0.3,4.2,1l-1,2.5C81,95.4,80.5,95.1,80,95S78.9,94.7,78.4,94.7z"/>
	<path class="st0" d="M93.3,106.6H85V92.4h8.2v2.5h-5.2V98h4.8v2.5h-4.8v3.7h5.2V106.6z"/>
	<path class="st0" d="M104.7,102.7c0,1.3-0.5,2.3-1.4,3s-2.2,1.1-3.9,1.1c-1.5,0-2.9-0.3-4-0.9v-2.8c1,0.4,1.8,0.7,2.4,0.9
		s1.3,0.3,1.8,0.3c0.7,0,1.2-0.1,1.5-0.4s0.5-0.6,0.5-1.1c0-0.3-0.1-0.5-0.2-0.7s-0.4-0.4-0.7-0.6s-0.9-0.5-1.9-1
		c-0.9-0.4-1.5-0.8-2-1.2s-0.8-0.8-1-1.3s-0.4-1.1-0.4-1.8c0-1.3,0.4-2.3,1.3-3s2-1.1,3.5-1.1c0.7,0,1.5,0.1,2.1,0.3
		s1.4,0.4,2.1,0.7l-1,2.4c-0.8-0.3-1.4-0.5-1.9-0.7s-1-0.2-1.5-0.2c-0.6,0-1,0.1-1.3,0.4s-0.5,0.6-0.5,1c0,0.3,0.1,0.5,0.2,0.7
		s0.3,0.4,0.6,0.6s0.9,0.5,1.9,1c1.3,0.6,2.2,1.3,2.7,1.9S104.7,101.7,104.7,102.7z"/>
	<path class="st0" d="M115.7,102.7c0,1.3-0.5,2.3-1.4,3s-2.2,1.1-3.9,1.1c-1.5,0-2.9-0.3-4-0.9v-2.8c1,0.4,1.8,0.7,2.4,0.9
		s1.3,0.3,1.8,0.3c0.7,0,1.2-0.1,1.5-0.4s0.5-0.6,0.5-1.1c0-0.3-0.1-0.5-0.2-0.7s-0.4-0.4-0.7-0.6s-0.9-0.5-1.9-1
		c-0.9-0.4-1.5-0.8-2-1.2s-0.8-0.8-1-1.3s-0.4-1.1-0.4-1.8c0-1.3,0.4-2.3,1.3-3s2-1.1,3.5-1.1c0.7,0,1.5,0.1,2.1,0.3
		s1.4,0.4,2.1,0.7l-1,2.4c-0.8-0.3-1.4-0.5-1.9-0.7s-1-0.2-1.5-0.2c-0.6,0-1,0.1-1.3,0.4s-0.5,0.6-0.5,1c0,0.3,0.1,0.5,0.2,0.7
		s0.3,0.4,0.6,0.6s0.9,0.5,1.9,1c1.3,0.6,2.2,1.3,2.7,1.9S115.7,101.7,115.7,102.7z"/>
	<path class="st0" d="M118.3,106.6V92.4h3v14.3H118.3z"/>
	<path class="st0" d="M137.6,106.6h-3.8l-6.2-10.8h-0.1c0.1,1.9,0.2,3.3,0.2,4.1v6.7h-2.7V92.4h3.8l6.2,10.7h0.1
		c-0.1-1.9-0.1-3.2-0.1-3.9v-6.8h2.7V106.6z"/>
	<path class="st0" d="M146.6,98.6h5.7v7.4c-0.9,0.3-1.8,0.5-2.6,0.6s-1.6,0.2-2.5,0.2c-2.2,0-3.8-0.6-4.9-1.9s-1.7-3.1-1.7-5.5
		c0-2.3,0.7-4.1,2-5.4s3.1-1.9,5.5-1.9c1.5,0,2.9,0.3,4.2,0.9l-1,2.4c-1-0.5-2.1-0.8-3.3-0.8c-1.3,0-2.4,0.4-3.1,1.3
		s-1.2,2.1-1.2,3.5c0,1.5,0.3,2.7,1,3.5s1.6,1.2,2.8,1.2c0.6,0,1.3-0.1,1.9-0.2v-3h-2.7V98.6z"/>
</g>
<g>
	<g>
		<path class="st2" d="M39,258.4c0,1.3-0.5,2.3-1.4,3s-2.2,1.1-3.9,1.1c-1.5,0-2.9-0.3-4-0.9v-2.8c1,0.4,1.8,0.7,2.4,0.9
			s1.3,0.3,1.8,0.3c0.7,0,1.2-0.1,1.5-0.4s0.5-0.6,0.5-1.1c0-0.3-0.1-0.5-0.2-0.7c-0.2-0.2-0.4-0.4-0.7-0.6c-0.3-0.2-0.9-0.5-1.9-1
			c-0.9-0.4-1.5-0.8-2-1.2c-0.4-0.4-0.8-0.8-1-1.3c-0.3-0.5-0.4-1.1-0.4-1.8c0-1.3,0.4-2.3,1.3-3s2-1.1,3.5-1.1
			c0.7,0,1.5,0.1,2.1,0.3s1.4,0.4,2.1,0.7l-1,2.4c-0.8-0.3-1.4-0.5-1.9-0.7c-0.5-0.1-1-0.2-1.5-0.2c-0.6,0-1,0.1-1.3,0.4
			c-0.3,0.3-0.5,0.6-0.5,1c0,0.3,0.1,0.5,0.2,0.7c0.1,0.2,0.3,0.4,0.6,0.6s0.9,0.5,1.9,1c1.3,0.6,2.2,1.3,2.7,1.9
			C38.8,256.7,39,257.4,39,258.4z"/>
		<path class="st2" d="M49.9,262.3h-8.2v-14.3h8.2v2.5h-5.2v3.1h4.8v2.5h-4.8v3.7h5.2V262.3z"/>
		<path class="st2" d="M58.9,262.3l-3.4-11.2h-0.1c0.1,2.3,0.2,3.8,0.2,4.6v6.6h-2.7v-14.3H57l3.4,10.9h0.1l3.6-10.9h4.1v14.3h-2.8
			v-6.8c0-0.3,0-0.7,0-1.1c0-0.4,0.1-1.5,0.1-3.3h-0.1l-3.7,11.2H58.9z"/>
		<path class="st2" d="M39.4,286.3l-1-3.4h-5.2l-1,3.4h-3.3l5-14.3h3.7l5.1,14.3H39.4z M37.6,280.4c-1-3.1-1.5-4.8-1.6-5.2
			c-0.1-0.4-0.2-0.7-0.3-1c-0.2,0.8-0.8,2.9-1.8,6.2H37.6z"/>
		<path class="st2" d="M57.1,286.3h-3.8L47,275.5h-0.1c0.1,1.9,0.2,3.3,0.2,4.1v6.7h-2.7v-14.3h3.8l6.2,10.7h0.1
			c-0.1-1.9-0.1-3.2-0.1-3.9v-6.8h2.7V286.3z"/>
		<path class="st2" d="M69.4,286.3l-1-3.4h-5.2l-1,3.4h-3.3l5-14.3h3.7l5.1,14.3H69.4z M67.7,280.4c-1-3.1-1.5-4.8-1.6-5.2
			c-0.1-0.4-0.2-0.7-0.3-1c-0.2,0.8-0.8,2.9-1.8,6.2H67.7z"/>
		<path class="st2" d="M74.5,286.3v-14.3h3v11.8h5.8v2.5H74.5z"/>
		<path class="st2" d="M90.2,277.9l3-5.9h3.3l-4.7,8.7v5.6h-3v-5.5l-4.7-8.8h3.3L90.2,277.9z"/>
		<path class="st2" d="M106.7,282.4c0,1.3-0.5,2.3-1.4,3s-2.2,1.1-3.9,1.1c-1.5,0-2.9-0.3-4-0.9v-2.8c1,0.4,1.8,0.7,2.4,0.9
			s1.3,0.3,1.8,0.3c0.7,0,1.2-0.1,1.5-0.4s0.5-0.6,0.5-1.1c0-0.3-0.1-0.5-0.2-0.7c-0.2-0.2-0.4-0.4-0.7-0.6c-0.3-0.2-0.9-0.5-1.9-1
			c-0.9-0.4-1.5-0.8-2-1.2c-0.4-0.4-0.8-0.8-1-1.3c-0.3-0.5-0.4-1.1-0.4-1.8c0-1.3,0.4-2.3,1.3-3s2-1.1,3.5-1.1
			c0.7,0,1.5,0.1,2.1,0.3s1.4,0.4,2.1,0.7l-1,2.4c-0.8-0.3-1.4-0.5-1.9-0.7c-0.5-0.1-1-0.2-1.5-0.2c-0.6,0-1,0.1-1.3,0.4
			c-0.3,0.3-0.5,0.6-0.5,1c0,0.3,0.1,0.5,0.2,0.7c0.1,0.2,0.3,0.4,0.6,0.6s0.9,0.5,1.9,1c1.3,0.6,2.2,1.3,2.7,1.9
			C106.4,280.7,106.7,281.4,106.7,282.4z"/>
		<path class="st2" d="M109.3,286.3v-14.3h3v14.3H109.3z"/>
		<path class="st2" d="M124.3,282.4c0,1.3-0.5,2.3-1.4,3s-2.2,1.1-3.9,1.1c-1.5,0-2.9-0.3-4-0.9v-2.8c1,0.4,1.8,0.7,2.4,0.9
			s1.3,0.3,1.8,0.3c0.7,0,1.2-0.1,1.5-0.4s0.5-0.6,0.5-1.1c0-0.3-0.1-0.5-0.2-0.7c-0.2-0.2-0.4-0.4-0.7-0.6c-0.3-0.2-0.9-0.5-1.9-1
			c-0.9-0.4-1.5-0.8-2-1.2c-0.4-0.4-0.8-0.8-1-1.3c-0.3-0.5-0.4-1.1-0.4-1.8c0-1.3,0.4-2.3,1.3-3s2-1.1,3.5-1.1
			c0.7,0,1.5,0.1,2.1,0.3s1.4,0.4,2.1,0.7l-1,2.4c-0.8-0.3-1.4-0.5-1.9-0.7c-0.5-0.1-1-0.2-1.5-0.2c-0.6,0-1,0.1-1.3,0.4
			c-0.3,0.3-0.5,0.6-0.5,1c0,0.3,0.1,0.5,0.2,0.7c0.1,0.2,0.3,0.4,0.6,0.6s0.9,0.5,1.9,1c1.3,0.6,2.2,1.3,2.7,1.9
			C124.1,280.7,124.3,281.4,124.3,282.4z"/>
	</g>
</g>
<g>
	<g>
		<circle class="st3" cx="248.1" cy="60.8" r="49.4"/>
		<g>
			<g>
				<path class="st4" d="M287.5,77.2c2,1.8,1.4,3.3-1.3,3.3h-62.4c-2.7,0-3.3-1.5-1.3-3.3L226,74c2-1.8,5.9-3.3,8.6-3.3h40.8
					c2.7,0,6.6,1.5,8.6,3.3L287.5,77.2z"/>
				<path class="st5" d="M282.5,70.4c0,1.4-1.1,2.5-2.5,2.5h-50c-1.4,0-2.5-1.1-2.5-2.5v-29c0-1.4,1.1-2.5,2.5-2.5h50
					c1.4,0,2.5,1.1,2.5,2.5V70.4z"/>
				<path class="st4" d="M282.5,70.4c0,1.4-1.1,2.5-2.5,2.5h-50c-1.4,0-2.5-1.1-2.5-2.5v-29c0-1.4,1.1-2.5,2.5-2.5h50
					c1.4,0,2.5,1.1,2.5,2.5V70.4z"/>
				<path class="st6" d="M280.5,69.2c0,0.8-0.7,1.5-1.5,1.5h-48c-0.8,0-1.5-0.7-1.5-1.5V42.6c0-0.8,0.7-1.5,1.5-1.5h48
					c0.8,0,1.5,0.7,1.5,1.5V69.2z"/>
			</g>
			<g>
				<g>
					<path class="st7" d="M233.4,45.8c0-0.9,0.6-1.4,1.4-1.4h1.3c1,0,1.3,0.6,1.3,1.4v2.9c0,0.9-0.5,1.4-1.4,1.4h-1.3
						c-0.9,0-1.4-0.4-1.4-1.4V45.8z M235,49h0.7c0.4,0,0.6-0.1,0.6-0.5V46c0-0.4-0.2-0.5-0.5-0.5H235c-0.5,0-0.5,0.3-0.5,0.5v2.5
						C234.5,48.9,234.8,49,235,49z"/>
				</g>
				<g>
					<path class="st7" d="M253,45.8c0-0.9,0.6-1.4,1.4-1.4h1.3c1,0,1.3,0.6,1.3,1.4v2.9c0,0.9-0.5,1.4-1.4,1.4h-1.3
						c-0.9,0-1.4-0.4-1.4-1.4V45.8z M254.6,49h0.7c0.4,0,0.6-0.1,0.6-0.5V46c0-0.4-0.2-0.5-0.5-0.5h-0.8c-0.5,0-0.5,0.3-0.5,0.5v2.5
						C254,48.9,254.3,49,254.6,49z"/>
				</g>
				<g>
					<path class="st7" d="M239.9,54.7c0-0.9,0.6-1.4,1.4-1.4h1.3c1,0,1.3,0.6,1.3,1.4v2.9c0,0.9-0.5,1.4-1.4,1.4h-1.3
						c-0.9,0-1.4-0.4-1.4-1.4V54.7z M241.6,57.9h0.7c0.4,0,0.6-0.1,0.6-0.5v-2.5c0-0.4-0.2-0.5-0.5-0.5h-0.8c-0.5,0-0.5,0.3-0.5,0.5
						v2.5C241,57.8,241.3,57.9,241.6,57.9z"/>
				</g>
				<g>
					<path class="st7" d="M239.9,63.6c0-0.9,0.6-1.4,1.4-1.4h1.3c1,0,1.3,0.6,1.3,1.4v2.9c0,0.9-0.5,1.4-1.4,1.4h-1.3
						c-0.9,0-1.4-0.4-1.4-1.4V63.6z M241.6,66.8h0.7c0.4,0,0.6-0.1,0.6-0.5v-2.5c0-0.4-0.2-0.5-0.5-0.5h-0.8c-0.5,0-0.5,0.3-0.5,0.5
						v2.5C241,66.7,241.3,66.8,241.6,66.8z"/>
				</g>
				<g>
					<path class="st7" d="M233.4,63.6c0-0.9,0.6-1.4,1.4-1.4h1.3c1,0,1.3,0.6,1.3,1.4v2.9c0,0.9-0.5,1.4-1.4,1.4h-1.3
						c-0.9,0-1.4-0.4-1.4-1.4V63.6z M235,66.8h0.7c0.4,0,0.6-0.1,0.6-0.5v-2.5c0-0.4-0.2-0.5-0.5-0.5H235c-0.5,0-0.5,0.3-0.5,0.5
						v2.5C234.5,66.7,234.8,66.8,235,66.8z"/>
				</g>
				<g>
					<path class="st7" d="M259.5,45.8c0-0.9,0.6-1.4,1.4-1.4h1.3c1,0,1.3,0.6,1.3,1.4v2.9c0,0.9-0.5,1.4-1.4,1.4h-1.3
						c-0.9,0-1.4-0.4-1.4-1.4V45.8z M261.1,49h0.7c0.4,0,0.6-0.1,0.6-0.5V46c0-0.4-0.2-0.5-0.5-0.5h-0.8c-0.5,0-0.5,0.3-0.5,0.5v2.5
						C260.5,48.9,260.9,49,261.1,49z"/>
				</g>
				<g>
					<path class="st7" d="M266,45.8c0-0.9,0.6-1.4,1.4-1.4h1.3c1,0,1.3,0.6,1.3,1.4v2.9c0,0.9-0.5,1.4-1.4,1.4h-1.3
						c-0.9,0-1.4-0.4-1.4-1.4V45.8z M267.6,49h0.7c0.4,0,0.6-0.1,0.6-0.5V46c0-0.4-0.2-0.5-0.5-0.5h-0.8c-0.5,0-0.5,0.3-0.5,0.5v2.5
						C267.1,48.9,267.4,49,267.6,49z"/>
				</g>
				<g>
					<path class="st7" d="M240.9,45.1l1.1-0.6h1.1V50h-1.1v-4.5l-1.1,0.3V45.1z"/>
				</g>
				<g>
					<path class="st7" d="M247.4,45.1l1.1-0.6h1.1V50h-1.1v-4.5l-1.1,0.3V45.1z"/>
				</g>
				<g>
					<path class="st7" d="M273.4,45.1l1.1-0.6h1.1V50h-1.1v-4.5l-1.1,0.3V45.1z"/>
				</g>
				<g>
					<path class="st7" d="M234.3,54l1.1-0.6h1.1v5.6h-1.1v-4.5l-1.1,0.3V54z"/>
				</g>
				<g>
					<path class="st7" d="M247.4,62.9l1.1-0.6h1.1v5.6h-1.1v-4.5l-1.1,0.3V62.9z"/>
				</g>
				<g>
					<path class="st7" d="M253,54.7c0-0.9,0.6-1.4,1.4-1.4h1.3c1,0,1.3,0.6,1.3,1.4v2.9c0,0.9-0.5,1.4-1.4,1.4h-1.3
						c-0.9,0-1.4-0.4-1.4-1.4V54.7z M254.6,57.9h0.7c0.4,0,0.6-0.1,0.6-0.5v-2.5c0-0.4-0.2-0.5-0.5-0.5h-0.8c-0.5,0-0.5,0.3-0.5,0.5
						v2.5C254,57.8,254.3,57.9,254.6,57.9z"/>
				</g>
				<g>
					<path class="st7" d="M259.5,63.6c0-0.9,0.6-1.4,1.4-1.4h1.3c1,0,1.3,0.6,1.3,1.4v2.9c0,0.9-0.5,1.4-1.4,1.4h-1.3
						c-0.9,0-1.4-0.4-1.4-1.4V63.6z M261.1,66.8h0.7c0.4,0,0.6-0.1,0.6-0.5v-2.5c0-0.4-0.2-0.5-0.5-0.5h-0.8c-0.5,0-0.5,0.3-0.5,0.5
						v2.5C260.5,66.7,260.9,66.8,261.1,66.8z"/>
				</g>
				<g>
					<path class="st7" d="M266,63.6c0-0.9,0.6-1.4,1.4-1.4h1.3c1,0,1.3,0.6,1.3,1.4v2.9c0,0.9-0.5,1.4-1.4,1.4h-1.3
						c-0.9,0-1.4-0.4-1.4-1.4V63.6z M267.6,66.8h0.7c0.4,0,0.6-0.1,0.6-0.5v-2.5c0-0.4-0.2-0.5-0.5-0.5h-0.8c-0.5,0-0.5,0.3-0.5,0.5
						v2.5C267.1,66.7,267.4,66.8,267.6,66.8z"/>
				</g>
				<g>
					<path class="st7" d="M247.4,54l1.1-0.6h1.1v5.6h-1.1v-4.5l-1.1,0.3V54z"/>
				</g>
				<g>
					<path class="st7" d="M260.4,54l1.1-0.6h1.1v5.6h-1.1v-4.5l-1.1,0.3V54z"/>
				</g>
				<g>
					<path class="st7" d="M253.9,62.9l1.1-0.6h1.1v5.6H255v-4.5l-1.1,0.3V62.9z"/>
				</g>
				<g>
					<path class="st7" d="M272.5,54.7c0-0.9,0.6-1.4,1.4-1.4h1.3c1,0,1.3,0.6,1.3,1.4v2.9c0,0.9-0.5,1.4-1.4,1.4h-1.3
						c-0.9,0-1.4-0.4-1.4-1.4V54.7z M274.1,57.9h0.7c0.4,0,0.6-0.1,0.6-0.5v-2.5c0-0.4-0.2-0.5-0.5-0.5h-0.8c-0.5,0-0.5,0.3-0.5,0.5
						v2.5C273.6,57.8,273.9,57.9,274.1,57.9z"/>
				</g>
				<g>
					<path class="st7" d="M273.4,62.9l1.1-0.6h1.1v5.6h-1.1v-4.5l-1.1,0.3V62.9z"/>
				</g>
				<g>
					<path class="st7" d="M266.9,54l1.1-0.6h1.1v5.6H268v-4.5l-1.1,0.3V54z"/>
				</g>
			</g>
			<g>
				<path class="st4" d="M218.6,68.1c-0.8,0.8-2,0.8-2.8,0l0,0c-0.8-0.8-0.8-2,0-2.8l3.9-3.9c0.8-0.8,2-0.8,2.8,0l0,0
					c0.8,0.8,0.8,2,0,2.8L218.6,68.1z"/>
				<path class="st4" d="M211,79c-1.6,1.6-4.3,1.5-6-0.3l0,0c-1.7-1.7-1.9-4.4-0.3-6l6.9-6.9c1.6-1.6,4.3-1.5,6,0.3l0,0
					c1.7,1.7,1.9,4.4,0.3,6L211,79z"/>
				<path class="st8" d="M244.9,52.5c0-8.2-6.6-14.8-14.8-14.8c-8.2,0-14.8,6.6-14.8,14.8c0,8.2,6.6,14.8,14.8,14.8
					C238.2,67.4,244.9,60.7,244.9,52.5z"/>
				<path class="st6" d="M241.3,52.5c0-6.2-5.1-11.3-11.3-11.3c-6.2,0-11.3,5.1-11.3,11.3c0,6.2,5.1,11.3,11.3,11.3
					C236.3,63.8,241.3,58.8,241.3,52.5z"/>
			</g>
			<g>
				<path class="st7" d="M232.9,53.3l1.4-0.8h1.4v7.4h-1.4v-6l-1.4,0.4V53.3z"/>
			</g>
			<path class="st7" d="M231.7,46.2c0,1.2,0.7,1.8,1.9,1.8h1.7c1.1,0,1.8-0.6,1.8-1.8v-2.6c-0.4-0.3-0.9-0.7-1.4-0.9V46
				c0,0.5-0.3,0.7-0.7,0.7h-1c-0.3,0-0.8-0.1-0.8-0.7v-3.3c0-0.3,0.1-0.7,0.7-0.7h0.1c-0.6-0.2-1.3-0.4-2-0.5
				c-0.2,0.3-0.3,0.7-0.3,1.1V46.2z"/>
		</g>
	</g>
	<g>
		<path d="M241.6,136c0,1.9-0.5,3.4-1.5,4.3s-2.5,1.5-4.4,1.5h-2.7v-11.4h3.1c1.8,0,3.2,0.5,4.2,1.4S241.6,134.1,241.6,136z
			 M240.7,136c0-1.6-0.4-2.9-1.2-3.7c-0.8-0.8-2.1-1.2-3.7-1.2h-2.1v10h1.9C239,141.1,240.7,139.4,240.7,136z"/>
		<path d="M249.1,141.8l-0.2-1.3h-0.1c-0.4,0.5-0.9,0.9-1.3,1.2s-1,0.3-1.6,0.3c-0.8,0-1.5-0.2-1.9-0.6s-0.7-1-0.7-1.8
			c0-0.8,0.3-1.5,1-1.9c0.7-0.5,1.7-0.7,3-0.7l1.6,0v-0.6c0-0.8-0.2-1.4-0.5-1.8c-0.3-0.4-0.9-0.6-1.6-0.6c-0.8,0-1.6,0.2-2.4,0.7
			l-0.3-0.7c0.9-0.4,1.9-0.7,2.8-0.7c0.9,0,1.6,0.2,2.1,0.7s0.7,1.2,0.7,2.3v5.6H249.1z M246,141.2c0.9,0,1.6-0.3,2.1-0.8
			s0.8-1.2,0.8-2.2v-0.8l-1.5,0.1c-1.2,0.1-2,0.2-2.6,0.6c-0.5,0.3-0.8,0.8-0.8,1.5c0,0.5,0.2,0.9,0.5,1.2S245.4,141.2,246,141.2z"
			/>
		<path d="M254.7,141.2c0.5,0,0.9,0,1.3-0.1v0.6c-0.4,0.1-0.8,0.2-1.3,0.2c-0.8,0-1.3-0.2-1.7-0.6s-0.5-1-0.5-1.9V134h-1.3v-0.5
			l1.3-0.4l0.4-1.9h0.4v2.1h2.5v0.7h-2.5v5.4c0,0.7,0.1,1.1,0.3,1.4S254.2,141.2,254.7,141.2z"/>
		<path d="M263,141.8l-0.2-1.3h-0.1c-0.4,0.5-0.9,0.9-1.3,1.2s-1,0.3-1.6,0.3c-0.8,0-1.5-0.2-1.9-0.6s-0.7-1-0.7-1.8
			c0-0.8,0.3-1.5,1-1.9c0.7-0.5,1.7-0.7,3-0.7l1.6,0v-0.6c0-0.8-0.2-1.4-0.5-1.8c-0.3-0.4-0.9-0.6-1.6-0.6c-0.8,0-1.6,0.2-2.4,0.7
			l-0.3-0.7c0.9-0.4,1.9-0.7,2.8-0.7c0.9,0,1.6,0.2,2.1,0.7s0.7,1.2,0.7,2.3v5.6H263z M259.9,141.2c0.9,0,1.6-0.3,2.1-0.8
			s0.8-1.2,0.8-2.2v-0.8l-1.5,0.1c-1.2,0.1-2,0.2-2.6,0.6c-0.5,0.3-0.8,0.8-0.8,1.5c0,0.5,0.2,0.9,0.5,1.2S259.3,141.2,259.9,141.2z
			"/>
		<path d="M223.7,150.1c-1.4,0-2.6,0.5-3.4,1.4s-1.2,2.2-1.2,3.8c0,1.6,0.4,2.9,1.2,3.8s1.9,1.4,3.3,1.4c1,0,1.8-0.1,2.6-0.4v0.7
			c-0.8,0.3-1.7,0.4-2.8,0.4c-1.6,0-2.9-0.5-3.8-1.6s-1.4-2.5-1.4-4.3c0-1.2,0.2-2.2,0.7-3.1s1.1-1.6,1.9-2.1s1.8-0.7,2.9-0.7
			c1.1,0,2.1,0.2,3,0.6l-0.3,0.7C225.5,150.3,224.6,150.1,223.7,150.1z"/>
		<path d="M229.4,161h-0.8v-12.2h0.8V161z"/>
		<path d="M235.6,161.1c-1.2,0-2.2-0.4-2.9-1.1s-1-1.8-1-3.2c0-1.4,0.3-2.4,1-3.3s1.6-1.2,2.7-1.2c1,0,1.8,0.3,2.4,1
			s0.9,1.6,0.9,2.8v0.6h-6.1c0,1.2,0.3,2.1,0.8,2.7s1.3,0.9,2.3,0.9c0.5,0,0.9,0,1.3-0.1s0.8-0.2,1.4-0.4v0.7
			c-0.5,0.2-0.9,0.4-1.3,0.4S236.1,161.1,235.6,161.1z M235.4,153c-0.8,0-1.5,0.3-2,0.8s-0.8,1.3-0.9,2.3h5.3c0-1-0.2-1.8-0.6-2.3
			S236.2,153,235.4,153z"/>
		<path d="M246.1,161l-0.2-1.3h-0.1c-0.4,0.5-0.9,0.9-1.3,1.2s-1,0.3-1.6,0.3c-0.8,0-1.5-0.2-1.9-0.6s-0.7-1-0.7-1.8
			c0-0.8,0.3-1.5,1-1.9s1.7-0.7,3-0.7l1.6,0v-0.6c0-0.8-0.2-1.4-0.5-1.8s-0.9-0.6-1.6-0.6c-0.8,0-1.6,0.2-2.4,0.7l-0.3-0.7
			c0.9-0.4,1.9-0.7,2.8-0.7c0.9,0,1.6,0.2,2.1,0.7s0.7,1.2,0.7,2.3v5.6H246.1z M243,160.4c0.9,0,1.6-0.3,2.1-0.8s0.8-1.2,0.8-2.2
			v-0.8l-1.5,0.1c-1.2,0.1-2,0.2-2.6,0.6s-0.8,0.8-0.8,1.5c0,0.5,0.2,0.9,0.5,1.2S242.4,160.4,243,160.4z"/>
		<path d="M255.4,161v-5.5c0-0.9-0.2-1.5-0.5-1.9s-0.9-0.6-1.7-0.6c-1,0-1.8,0.3-2.2,0.8s-0.7,1.3-0.7,2.5v4.7h-0.8v-8.5h0.7
			l0.1,1.2h0c0.6-0.9,1.5-1.3,2.9-1.3c1.9,0,2.9,1,2.9,3.1v5.6H255.4z"/>
		<path d="M258.8,150.1c0-0.5,0.2-0.8,0.5-0.8c0.2,0,0.3,0.1,0.4,0.2s0.1,0.3,0.1,0.6c0,0.2,0,0.4-0.1,0.6s-0.2,0.2-0.4,0.2
			C259,150.9,258.8,150.6,258.8,150.1z M259.7,161h-0.8v-8.5h0.8V161z"/>
		<path d="M268.4,161v-5.5c0-0.9-0.2-1.5-0.5-1.9s-0.9-0.6-1.7-0.6c-1,0-1.8,0.3-2.2,0.8s-0.7,1.3-0.7,2.5v4.7h-0.8v-8.5h0.7
			l0.1,1.2h0c0.6-0.9,1.5-1.3,2.9-1.3c1.9,0,2.9,1,2.9,3.1v5.6H268.4z"/>
		<path d="M278.6,152.5v0.5l-1.8,0.1c0.5,0.6,0.7,1.2,0.7,1.9c0,0.8-0.3,1.5-0.8,2s-1.3,0.8-2.2,0.8c-0.4,0-0.7,0-0.8,0
			c-0.3,0.2-0.5,0.4-0.7,0.6s-0.2,0.5-0.2,0.7c0,0.3,0.1,0.5,0.3,0.6s0.6,0.2,1,0.2h1.5c0.9,0,1.6,0.2,2.1,0.6s0.7,0.9,0.7,1.7
			c0,0.9-0.4,1.6-1.1,2.1c-0.7,0.5-1.8,0.7-3.1,0.7c-1.1,0-1.9-0.2-2.5-0.6c-0.6-0.4-0.9-1-0.9-1.7c0-0.6,0.2-1.1,0.5-1.5
			c0.4-0.4,0.9-0.6,1.5-0.8c-0.3-0.1-0.5-0.3-0.6-0.5s-0.2-0.4-0.2-0.7c0-0.6,0.4-1.1,1.1-1.5c-0.5-0.2-0.9-0.5-1.2-1
			s-0.4-0.9-0.4-1.5c0-0.8,0.3-1.5,0.8-2s1.3-0.8,2.2-0.8c0.6,0,1,0.1,1.3,0.2H278.6z M271.7,162.4c0,1.2,0.9,1.8,2.6,1.8
			c2.2,0,3.3-0.7,3.3-2.1c0-0.5-0.2-0.9-0.5-1.1c-0.3-0.2-0.9-0.3-1.7-0.3H274C272.5,160.6,271.7,161.2,271.7,162.4z M272.4,155.1
			c0,0.7,0.2,1.2,0.6,1.5s0.9,0.5,1.6,0.5c0.7,0,1.3-0.2,1.6-0.5s0.6-0.9,0.6-1.6c0-0.7-0.2-1.3-0.6-1.6s-0.9-0.5-1.6-0.5
			c-0.7,0-1.2,0.2-1.6,0.6S272.4,154.4,272.4,155.1z"/>
	</g>
</g>
<g>
	<g>
		<circle class="st8" cx="610" cy="241.2" r="49.4"/>
		<g>
			<path class="st7" d="M582.4,213.8c-0.1-1.2,0.5-1.9,1.7-2l1.6-0.2c1.3-0.1,1.8,0.7,1.9,1.6l0.4,3.7c0.1,1.2-0.5,1.8-1.6,2
				l-1.6,0.2c-1.1,0.1-1.9-0.4-2-1.6L582.4,213.8z M585,217.7l1-0.1c0.5,0,0.7-0.2,0.7-0.8l-0.3-3.3c0-0.5-0.3-0.7-0.7-0.6l-1,0.1
				c-0.6,0.1-0.7,0.5-0.6,0.8l0.3,3.3C584.2,217.7,584.7,217.8,585,217.7z"/>
		</g>
		<g>
			<path class="st6" d="M591,223.1c-0.1-1.2,0.5-1.9,1.6-2l1.6-0.2c1.3-0.2,1.9,0.6,2,1.6l0.4,3.7c0.1,1.2-0.5,1.9-1.6,2l-1.6,0.2
				c-1.1,0.1-1.9-0.4-2-1.6L591,223.1z M593.7,227l1-0.1c0.5-0.1,0.7-0.3,0.6-0.8l-0.4-3.3c-0.1-0.5-0.3-0.7-0.8-0.6l-1,0.1
				c-0.6,0.1-0.7,0.5-0.6,0.8l0.4,3.3C592.9,227,593.3,227.1,593.7,227z"/>
		</g>
		<g>
			<path class="st6" d="M624.3,210.5c0.3-1.2,1.2-1.6,2.2-1.3l1.6,0.4c1.3,0.3,1.5,1.2,1.3,2.2l-0.9,3.6c-0.3,1.2-1.1,1.6-2.2,1.3
				l-1.6-0.4c-1.1-0.3-1.6-1-1.3-2.2L624.3,210.5z M625.4,215.1l0.9,0.2c0.5,0.1,0.7,0,0.9-0.5l0.8-3.2c0.1-0.4,0-0.7-0.5-0.9
				l-1-0.3c-0.6-0.1-0.8,0.2-0.9,0.5l-0.8,3.2C624.7,214.8,625,215,625.4,215.1z"/>
		</g>
		<g>
			<path class="st6" d="M620.8,222c-0.1-1.2,0.5-1.9,1.6-2l1.6-0.2c1.3-0.2,1.9,0.6,2,1.6l0.4,3.7c0.1,1.2-0.5,1.9-1.6,2l-1.6,0.2
				c-1.1,0.1-1.9-0.4-2-1.6L620.8,222z M623.4,225.9l1-0.1c0.5-0.1,0.7-0.3,0.6-0.8l-0.4-3.3c-0.1-0.5-0.3-0.7-0.8-0.6l-1,0.1
				c-0.6,0.1-0.7,0.5-0.6,0.8l0.4,3.3C622.6,225.9,623,226,623.4,225.9z"/>
		</g>
		<g>
			<path class="st6" d="M632.4,233.1c-0.1-1.2,0.5-1.9,1.6-2l1.6-0.2c1.3-0.2,1.9,0.6,2,1.6l0.4,3.7c0.1,1.2-0.5,1.9-1.6,2l-1.6,0.2
				c-1.1,0.1-1.9-0.4-2-1.6L632.4,233.1z M635,237.1l1-0.1c0.5-0.1,0.7-0.3,0.6-0.8l-0.4-3.3c-0.1-0.5-0.3-0.7-0.8-0.6l-1,0.1
				c-0.6,0.1-0.7,0.5-0.6,0.8l0.4,3.3C634.3,237,634.7,237.1,635,237.1z"/>
		</g>
		<g>
			<path class="st7" d="M607.6,273.4c-0.1-1.2,0.5-1.9,1.6-2l1.6-0.2c1.3-0.2,1.9,0.6,2,1.6l0.4,3.7c0.1,1.2-0.5,1.9-1.6,2l-1.6,0.2
				c-1.1,0.1-1.9-0.4-2-1.6L607.6,273.4z M610.2,277.3l1-0.1c0.5-0.1,0.7-0.3,0.6-0.8l-0.4-3.3c-0.1-0.5-0.3-0.7-0.8-0.6l-1,0.1
				c-0.6,0.1-0.7,0.5-0.6,0.8l0.4,3.3C609.5,277.3,609.9,277.4,610.2,277.3z"/>
		</g>
		<g>
			<path class="st7" d="M602.6,220c0.6-1,1.6-1.2,2.5-0.6l1.4,0.9c1.1,0.7,1.1,1.6,0.6,2.5l-2,3.2c-0.6,1-1.5,1.2-2.5,0.6l-1.4-0.9
				c-1-0.6-1.3-1.5-0.6-2.5L602.6,220z M602.2,224.7l0.8,0.5c0.4,0.2,0.7,0.2,1-0.2l1.7-2.8c0.2-0.4,0.2-0.7-0.2-1l-0.9-0.6
				c-0.5-0.3-0.8,0-1,0.2l-1.7,2.8C601.7,224.2,602,224.5,602.2,224.7z"/>
		</g>
		<g>
			<path class="st4" d="M614.7,212.5c-0.4-1.1,0.1-2,1.1-2.3l1.6-0.5c1.3-0.4,1.9,0.2,2.3,1.1l1.2,3.5c0.4,1.1,0,1.9-1.1,2.3
				l-1.6,0.5c-1.1,0.4-1.9,0.1-2.3-1.1L614.7,212.5z M618.1,215.7l0.9-0.3c0.4-0.2,0.6-0.4,0.5-0.9l-1.1-3.1
				c-0.2-0.4-0.4-0.6-0.9-0.5l-1,0.3c-0.6,0.2-0.5,0.6-0.4,0.9l1.1,3.1C617.3,215.9,617.8,215.9,618.1,215.7z"/>
		</g>
		<g>
			<path class="st6" d="M593.9,210c0.6-1,1.6-1.2,2.5-0.6l1.4,0.9c1.1,0.7,1.1,1.6,0.6,2.5l-2,3.2c-0.6,1-1.5,1.2-2.5,0.6l-1.4-0.9
				c-1-0.6-1.3-1.5-0.6-2.5L593.9,210z M593.5,214.7l0.8,0.5c0.4,0.2,0.7,0.2,1-0.2l1.7-2.8c0.2-0.4,0.2-0.7-0.2-1l-0.9-0.6
				c-0.5-0.3-0.8,0-1,0.2l-1.7,2.8C592.9,214.2,593.2,214.5,593.5,214.7z"/>
		</g>
		<g>
			<path class="st4" d="M632.5,220.6c0.6-1,1.6-1.2,2.5-0.6l1.4,0.9c1.1,0.7,1.1,1.6,0.6,2.5l-2,3.2c-0.6,1-1.5,1.2-2.5,0.6
				l-1.4-0.9c-1-0.6-1.3-1.5-0.6-2.5L632.5,220.6z M632.1,225.3l0.8,0.5c0.4,0.2,0.7,0.2,1-0.2l1.7-2.8c0.2-0.4,0.2-0.7-0.2-1
				l-0.9-0.6c-0.5-0.3-0.8,0-1,0.2l-1.7,2.8C631.5,224.8,631.8,225.1,632.1,225.3z"/>
		</g>
		<g>
			<path class="st4" d="M611,228.2c0.6-1,1.6-1.2,2.5-0.6l1.4,0.9c1.1,0.7,1.1,1.6,0.6,2.5l-2,3.2c-0.6,1-1.5,1.2-2.5,0.6l-1.4-0.9
				c-1-0.6-1.3-1.5-0.6-2.5L611,228.2z M610.6,232.9l0.8,0.5c0.4,0.2,0.7,0.2,1-0.2l1.7-2.8c0.2-0.4,0.2-0.7-0.2-1l-0.9-0.6
				c-0.5-0.3-0.8,0-1,0.2l-1.7,2.8C610,232.4,610.3,232.7,610.6,232.9z"/>
		</g>
		<g>
			<path class="st7" d="M618.3,230.1c0.2-1.2,1-1.7,2.1-1.5l1.6,0.2c1.3,0.2,1.6,1.1,1.5,2l-0.6,3.7c-0.2,1.2-0.9,1.7-2,1.5
				l-1.6-0.2c-1.1-0.2-1.7-0.9-1.6-2L618.3,230.1z M619.8,234.6l1,0.1c0.5,0.1,0.7-0.1,0.8-0.6l0.5-3.3c0.1-0.5-0.1-0.7-0.6-0.8
				l-1-0.2c-0.6-0.1-0.8,0.3-0.8,0.6l-0.5,3.3C619.1,234.4,619.5,234.5,619.8,234.6z"/>
		</g>
		<g>
			<path class="st4" d="M581,228.1c-0.2-1.2,0.3-2,1.4-2.2l1.6-0.3c1.3-0.3,1.9,0.5,2.1,1.4l0.8,3.7c0.2,1.2-0.3,1.9-1.4,2.1
				l-1.6,0.3c-1.1,0.2-1.9-0.2-2.2-1.4L581,228.1z M583.9,231.8l1-0.2c0.5-0.1,0.7-0.3,0.6-0.8l-0.7-3.2c-0.1-0.5-0.3-0.7-0.8-0.6
				l-1,0.2c-0.6,0.1-0.6,0.6-0.6,0.8l0.7,3.2C583.2,231.8,583.6,231.9,583.9,231.8z"/>
		</g>
		<g>
			<path class="st7" d="M589.3,231.7l1.1-1.2l1.3-0.4l2.1,7l-1.3,0.4l-1.7-5.7l-1.2,0.7L589.3,231.7z"/>
		</g>
		<g>
			<path class="st7" d="M609.4,281.5l1.5-0.7l1.4,0.1l-0.7,7.3l-1.4-0.1l0.5-5.9l-1.4,0.2L609.4,281.5z"/>
		</g>
		<g>
			<path class="st7" d="M601,229.9l1.6-0.5l1.4,0.3l-1.7,7.1l-1.4-0.3l1.4-5.8l-1.5,0L601,229.9z"/>
		</g>
		<g>
			<path class="st7" d="M631.6,210.1l1.4-0.9l1.4,0l0.2,7.3l-1.4,0l-0.2-5.9l-1.4,0.4L631.6,210.1z"/>
		</g>
		<g>
			<path class="st7" d="M609.4,205.9l1.6-0.5l1.4,0.3l-1.7,7.1l-1.4-0.3l1.4-5.8l-1.5,0L609.4,205.9z"/>
		</g>
		<g>
			<path class="st6" d="M610.4,219.8l0.8-1.5l1.2-0.7l3.9,6.2l-1.2,0.7l-3.1-5.1l-1,1L610.4,219.8z"/>
		</g>
		<g>
			<path class="st4" d="M600.3,208.5l0.8-1.5l1.2-0.7l3.9,6.2l-1.2,0.7l-3.1-5.1l-1,1L600.3,208.5z"/>
		</g>
		<g>
			<path class="st7" d="M627.3,229.9l1.6-0.5l1.4,0.3l-1.7,7.1l-1.4-0.3l1.4-5.8l-1.5,0L627.3,229.9z"/>
		</g>
		<g>
			<polygon class="st4" points="640.6,244.3 610,267.9 579.5,244.3 			"/>
			<rect x="605.7" y="262.6" class="st4" width="8.8" height="10.7"/>
			<rect x="579.5" y="236.8" class="st9" width="61" height="7.5"/>
		</g>
	</g>
	<g>
		<g>
			<path d="M562.4,316.3c0,1.9-0.5,3.4-1.5,4.3c-1,1-2.5,1.5-4.4,1.5h-2.7v-11.4h3.1c1.8,0,3.2,0.5,4.2,1.4S562.4,314.5,562.4,316.3
				z M561.6,316.3c0-1.6-0.4-2.9-1.2-3.7c-0.8-0.8-2.1-1.2-3.7-1.2h-2.1v10h1.9C559.9,321.4,561.6,319.7,561.6,316.3z"/>
			<path d="M564.8,311.3c0-0.5,0.2-0.8,0.5-0.8c0.2,0,0.3,0.1,0.4,0.2c0.1,0.1,0.1,0.3,0.1,0.6c0,0.2,0,0.4-0.1,0.6
				c-0.1,0.1-0.2,0.2-0.4,0.2C564.9,312,564.8,311.8,564.8,311.3z M565.6,322.1h-0.8v-8.5h0.8V322.1z"/>
			<path d="M573.8,319.9c0,0.8-0.3,1.3-0.9,1.8c-0.6,0.4-1.4,0.6-2.5,0.6c-1.1,0-2-0.2-2.7-0.5v-0.8c0.9,0.4,1.8,0.6,2.7,0.6
				c0.8,0,1.5-0.1,1.9-0.4c0.4-0.3,0.7-0.6,0.7-1.1c0-0.4-0.2-0.8-0.5-1.1c-0.3-0.3-0.9-0.6-1.7-0.9c-0.8-0.3-1.4-0.6-1.8-0.8
				c-0.3-0.2-0.6-0.5-0.8-0.8c-0.2-0.3-0.3-0.6-0.3-1c0-0.6,0.3-1.1,0.8-1.5c0.5-0.4,1.3-0.6,2.2-0.6c0.9,0,1.8,0.2,2.6,0.5
				l-0.3,0.7c-0.8-0.3-1.6-0.5-2.3-0.5c-0.7,0-1.2,0.1-1.6,0.3c-0.4,0.2-0.6,0.5-0.6,1c0,0.4,0.2,0.8,0.5,1.1s0.9,0.6,1.8,0.9
				c0.8,0.3,1.3,0.5,1.7,0.7c0.3,0.2,0.6,0.5,0.8,0.8S573.8,319.5,573.8,319.9z"/>
			<path d="M578.2,321.6c0.5,0,0.9,0,1.3-0.1v0.6c-0.4,0.1-0.8,0.2-1.3,0.2c-0.8,0-1.3-0.2-1.7-0.6c-0.4-0.4-0.5-1-0.5-1.9v-5.5
				h-1.3v-0.5l1.3-0.4l0.4-1.9h0.4v2.1h2.5v0.7h-2.5v5.4c0,0.7,0.1,1.1,0.3,1.4S577.7,321.6,578.2,321.6z"/>
			<path d="M581.2,311.3c0-0.5,0.2-0.8,0.5-0.8c0.2,0,0.3,0.1,0.4,0.2c0.1,0.1,0.1,0.3,0.1,0.6c0,0.2,0,0.4-0.1,0.6
				c-0.1,0.1-0.2,0.2-0.4,0.2C581.4,312,581.2,311.8,581.2,311.3z M582.1,322.1h-0.8v-8.5h0.8V322.1z"/>
			<path d="M585.7,322.1h-0.8V310h0.8V322.1z"/>
			<path d="M589.3,322.1h-0.8V310h0.8V322.1z"/>
			<path d="M602.8,319.2c0,1-0.4,1.7-1.1,2.3c-0.7,0.6-1.6,0.8-2.8,0.8c-1.4,0-2.5-0.2-3.2-0.5V321c0.8,0.3,1.9,0.5,3.1,0.5
				c0.9,0,1.7-0.2,2.2-0.6s0.8-1,0.8-1.7c0-0.4-0.1-0.8-0.3-1.1c-0.2-0.3-0.5-0.5-0.9-0.8s-1-0.5-1.8-0.8c-1.2-0.4-2-0.8-2.4-1.3
				c-0.4-0.5-0.7-1.1-0.7-1.9c0-0.9,0.3-1.6,1-2.1s1.5-0.8,2.6-0.8c1.1,0,2.1,0.2,3,0.6l-0.3,0.7c-0.9-0.4-1.9-0.6-2.7-0.6
				c-0.8,0-1.5,0.2-2,0.6s-0.8,0.9-0.8,1.6c0,0.4,0.1,0.8,0.2,1c0.2,0.3,0.4,0.5,0.8,0.7c0.3,0.2,0.9,0.5,1.8,0.8
				c0.9,0.3,1.6,0.6,2,0.9s0.8,0.6,1,1S602.8,318.7,602.8,319.2z"/>
			<path d="M604.9,311.3c0-0.5,0.2-0.8,0.5-0.8c0.2,0,0.3,0.1,0.4,0.2c0.1,0.1,0.1,0.3,0.1,0.6c0,0.2,0,0.4-0.1,0.6
				c-0.1,0.1-0.2,0.2-0.4,0.2C605.1,312,604.9,311.8,604.9,311.3z M605.8,322.1H605v-8.5h0.8V322.1z"/>
			<path d="M615.3,313.6v0.5l-1.8,0.1c0.5,0.6,0.7,1.2,0.7,1.9c0,0.8-0.3,1.5-0.8,2s-1.3,0.8-2.2,0.8c-0.4,0-0.7,0-0.8,0
				c-0.3,0.2-0.5,0.4-0.7,0.6s-0.2,0.5-0.2,0.7c0,0.3,0.1,0.5,0.3,0.6s0.6,0.2,1,0.2h1.5c0.9,0,1.6,0.2,2.1,0.6
				c0.5,0.4,0.7,0.9,0.7,1.7c0,0.9-0.4,1.6-1.1,2.1c-0.7,0.5-1.8,0.7-3.1,0.7c-1.1,0-1.9-0.2-2.5-0.6c-0.6-0.4-0.9-1-0.9-1.7
				c0-0.6,0.2-1.1,0.5-1.5c0.4-0.4,0.9-0.6,1.5-0.8c-0.3-0.1-0.5-0.3-0.6-0.5c-0.2-0.2-0.2-0.4-0.2-0.7c0-0.6,0.4-1.1,1.1-1.5
				c-0.5-0.2-0.9-0.5-1.2-1c-0.3-0.4-0.4-0.9-0.4-1.5c0-0.8,0.3-1.5,0.8-2c0.5-0.5,1.3-0.8,2.2-0.8c0.6,0,1,0.1,1.3,0.2H615.3z
				 M608.4,323.6c0,1.2,0.9,1.8,2.6,1.8c2.2,0,3.3-0.7,3.3-2.1c0-0.5-0.2-0.9-0.5-1.1c-0.3-0.2-0.9-0.3-1.7-0.3h-1.4
				C609.2,321.7,608.4,322.3,608.4,323.6z M609,316.3c0,0.7,0.2,1.2,0.6,1.5c0.4,0.4,0.9,0.5,1.6,0.5c0.7,0,1.3-0.2,1.6-0.5
				s0.6-0.9,0.6-1.6c0-0.7-0.2-1.3-0.6-1.6c-0.4-0.4-0.9-0.5-1.6-0.5c-0.7,0-1.2,0.2-1.6,0.6C609.2,315,609,315.6,609,316.3z"/>
			<path d="M622.9,322.1v-5.5c0-0.9-0.2-1.5-0.5-1.9c-0.4-0.4-0.9-0.6-1.7-0.6c-1,0-1.8,0.3-2.2,0.8c-0.5,0.5-0.7,1.3-0.7,2.5v4.7
				H617v-8.5h0.7l0.1,1.2h0c0.6-0.9,1.5-1.3,2.9-1.3c1.9,0,2.9,1,2.9,3.1v5.6H622.9z"/>
			<path d="M626.3,311.3c0-0.5,0.2-0.8,0.5-0.8c0.2,0,0.3,0.1,0.4,0.2c0.1,0.1,0.1,0.3,0.1,0.6c0,0.2,0,0.4-0.1,0.6
				c-0.1,0.1-0.2,0.2-0.4,0.2C626.5,312,626.3,311.8,626.3,311.3z M627.2,322.1h-0.8v-8.5h0.8V322.1z"/>
			<path d="M633.2,314.3h-2v7.8h-0.8v-7.8h-1.6v-0.5l1.6-0.3v-0.7c0-1,0.2-1.8,0.6-2.3c0.4-0.5,1-0.7,1.9-0.7c0.5,0,0.9,0.1,1.4,0.2
				l-0.2,0.7c-0.4-0.1-0.8-0.2-1.2-0.2c-0.6,0-1,0.2-1.3,0.5c-0.3,0.4-0.4,0.9-0.4,1.7v0.8h2V314.3z M634.8,311.3
				c0-0.5,0.2-0.8,0.5-0.8c0.2,0,0.3,0.1,0.4,0.2c0.1,0.1,0.1,0.3,0.1,0.6c0,0.2,0,0.4-0.1,0.6c-0.1,0.1-0.2,0.2-0.4,0.2
				C634.9,312,634.8,311.8,634.8,311.3z M635.6,322.1h-0.8v-8.5h0.8V322.1z"/>
			<path d="M641.9,322.3c-1.2,0-2.2-0.4-2.9-1.1s-1-1.8-1-3.2c0-1.4,0.4-2.5,1.1-3.3c0.7-0.8,1.7-1.2,2.9-1.2c0.7,0,1.4,0.1,2.1,0.4
				l-0.2,0.7c-0.7-0.2-1.4-0.4-1.9-0.4c-1,0-1.8,0.3-2.4,1c-0.5,0.6-0.8,1.6-0.8,2.8c0,1.1,0.3,2,0.8,2.7s1.3,1,2.3,1
				c0.8,0,1.5-0.1,2.1-0.4v0.7C643.5,322.1,642.8,322.3,641.9,322.3z"/>
			<path d="M651.2,322.1l-0.2-1.3H651c-0.4,0.5-0.9,0.9-1.3,1.2s-1,0.3-1.6,0.3c-0.8,0-1.5-0.2-1.9-0.6c-0.5-0.4-0.7-1-0.7-1.8
				c0-0.8,0.3-1.5,1-1.9c0.7-0.5,1.7-0.7,3-0.7l1.6,0v-0.6c0-0.8-0.2-1.4-0.5-1.8c-0.3-0.4-0.9-0.6-1.6-0.6c-0.8,0-1.6,0.2-2.4,0.7
				l-0.3-0.7c0.9-0.4,1.9-0.7,2.8-0.7c0.9,0,1.6,0.2,2.1,0.7s0.7,1.2,0.7,2.3v5.6H651.2z M648.1,321.6c0.9,0,1.6-0.3,2.1-0.8
				c0.5-0.5,0.8-1.2,0.8-2.2v-0.8l-1.5,0.1c-1.2,0.1-2,0.2-2.6,0.6c-0.5,0.3-0.8,0.8-0.8,1.5c0,0.5,0.2,0.9,0.5,1.2
				C647.1,321.4,647.5,321.6,648.1,321.6z"/>
			<path d="M660.5,322.1v-5.5c0-0.9-0.2-1.5-0.5-1.9c-0.4-0.4-0.9-0.6-1.7-0.6c-1,0-1.8,0.3-2.2,0.8c-0.5,0.5-0.7,1.3-0.7,2.5v4.7
				h-0.8v-8.5h0.7l0.1,1.2h0c0.6-0.9,1.5-1.3,2.9-1.3c1.9,0,2.9,1,2.9,3.1v5.6H660.5z"/>
			<path d="M666.2,321.6c0.5,0,0.9,0,1.3-0.1v0.6c-0.4,0.1-0.8,0.2-1.3,0.2c-0.8,0-1.3-0.2-1.7-0.6c-0.4-0.4-0.5-1-0.5-1.9v-5.5
				h-1.3v-0.5l1.3-0.4l0.4-1.9h0.4v2.1h2.5v0.7h-2.5v5.4c0,0.7,0.1,1.1,0.3,1.4S665.8,321.6,666.2,321.6z"/>
			<path d="M586.2,341.3h-0.8v-11.4h6.3v0.7h-5.5v4.8h5.2v0.7h-5.2V341.3z"/>
			<path d="M598.4,341.3l-0.2-1.3h-0.1c-0.4,0.5-0.9,0.9-1.3,1.2s-1,0.3-1.6,0.3c-0.8,0-1.5-0.2-1.9-0.6s-0.7-1-0.7-1.8
				c0-0.8,0.3-1.5,1-1.9s1.7-0.7,3-0.7l1.6,0v-0.6c0-0.8-0.2-1.4-0.5-1.8s-0.9-0.6-1.6-0.6c-0.8,0-1.6,0.2-2.4,0.7l-0.3-0.7
				c0.9-0.4,1.9-0.7,2.8-0.7c0.9,0,1.6,0.2,2.1,0.7s0.7,1.2,0.7,2.3v5.6H598.4z M595.3,340.8c0.9,0,1.6-0.3,2.1-0.8s0.8-1.2,0.8-2.2
				V337l-1.5,0.1c-1.2,0.1-2,0.2-2.6,0.6s-0.8,0.8-0.8,1.5c0,0.5,0.2,0.9,0.5,1.2S594.7,340.8,595.3,340.8z"/>
			<path d="M605.1,341.5c-1.2,0-2.2-0.4-2.9-1.1s-1-1.8-1-3.2c0-1.4,0.4-2.5,1.1-3.3s1.7-1.2,2.9-1.2c0.7,0,1.4,0.1,2.1,0.4
				l-0.2,0.7c-0.7-0.2-1.4-0.4-1.9-0.4c-1,0-1.8,0.3-2.4,1s-0.8,1.6-0.8,2.8c0,1.1,0.3,2,0.8,2.7s1.3,1,2.3,1c0.8,0,1.5-0.1,2.1-0.4
				v0.7C606.7,341.3,606,341.5,605.1,341.5z"/>
			<path d="M611.6,340.8c0.5,0,0.9,0,1.3-0.1v0.6c-0.4,0.1-0.8,0.2-1.3,0.2c-0.8,0-1.3-0.2-1.7-0.6s-0.5-1-0.5-1.9v-5.5h-1.3V333
				l1.3-0.4l0.4-1.9h0.4v2.1h2.5v0.7h-2.5v5.4c0,0.7,0.1,1.1,0.3,1.4S611.1,340.8,611.6,340.8z"/>
			<path d="M621.7,337.1c0,1.4-0.3,2.5-1,3.2s-1.6,1.2-2.8,1.2c-0.7,0-1.4-0.2-2-0.5s-1-0.9-1.3-1.5s-0.5-1.4-0.5-2.3
				c0-1.4,0.3-2.5,1-3.2s1.6-1.2,2.8-1.2c1.2,0,2.1,0.4,2.7,1.2S621.7,335.7,621.7,337.1z M615,337.1c0,1.2,0.3,2.1,0.8,2.7
				s1.2,1,2.2,1s1.7-0.3,2.2-1s0.8-1.6,0.8-2.7c0-1.2-0.3-2.1-0.8-2.7s-1.2-1-2.2-1s-1.7,0.3-2.2,1S615,335.9,615,337.1z"/>
			<path d="M627.4,332.7c0.4,0,0.7,0,1.2,0.1l-0.1,0.7c-0.4-0.1-0.7-0.1-1.1-0.1c-0.7,0-1.3,0.3-1.8,0.9s-0.7,1.4-0.7,2.3v4.7H624
				v-8.5h0.7l0.1,1.5h0.1c0.3-0.6,0.7-1.1,1.1-1.3S626.8,332.7,627.4,332.7z"/>
			<path d="M635.5,339.1c0,0.8-0.3,1.3-0.9,1.8s-1.4,0.6-2.5,0.6c-1.1,0-2-0.2-2.7-0.5v-0.8c0.9,0.4,1.8,0.6,2.7,0.6
				c0.8,0,1.5-0.1,1.9-0.4s0.7-0.6,0.7-1.1c0-0.4-0.2-0.8-0.5-1.1s-0.9-0.6-1.7-0.9c-0.8-0.3-1.4-0.6-1.8-0.8s-0.6-0.5-0.8-0.8
				s-0.3-0.6-0.3-1c0-0.6,0.3-1.1,0.8-1.5s1.3-0.6,2.2-0.6c0.9,0,1.8,0.2,2.6,0.5l-0.3,0.7c-0.8-0.3-1.6-0.5-2.3-0.5
				c-0.7,0-1.2,0.1-1.6,0.3s-0.6,0.5-0.6,1c0,0.4,0.2,0.8,0.5,1.1s0.9,0.6,1.8,0.9c0.8,0.3,1.3,0.5,1.7,0.7s0.6,0.5,0.8,0.8
				S635.5,338.7,635.5,339.1z"/>
		</g>
	</g>
</g>
<g>
	<g>
		<circle class="st8" cx="248.1" cy="241.2" r="49.4"/>
	</g>
	<g>
		<g>
			<path d="M240.2,322.1h-0.8v-11.4h6.3v0.7h-5.5v4.8h5.2v0.7h-5.2V322.1z"/>
			<path d="M247.1,311.3c0-0.5,0.2-0.8,0.5-0.8c0.2,0,0.3,0.1,0.4,0.2c0.1,0.1,0.1,0.3,0.1,0.6c0,0.2,0,0.4-0.1,0.6
				c-0.1,0.1-0.2,0.2-0.4,0.2C247.3,312,247.1,311.8,247.1,311.3z M248,322.1h-0.8v-8.5h0.8V322.1z"/>
			<path d="M253.1,321.6c0.5,0,0.9,0,1.3-0.1v0.6c-0.4,0.1-0.8,0.2-1.3,0.2c-0.8,0-1.3-0.2-1.7-0.6c-0.4-0.4-0.5-1-0.5-1.9v-5.5
				h-1.3v-0.5l1.3-0.4l0.4-1.9h0.4v2.1h2.5v0.7h-2.5v5.4c0,0.7,0.1,1.1,0.3,1.4S252.6,321.6,253.1,321.6z"/>
			<path d="M213.9,338.4c0,1-0.4,1.7-1.1,2.3s-1.6,0.8-2.8,0.8c-1.4,0-2.5-0.2-3.2-0.5v-0.8c0.8,0.3,1.9,0.5,3.1,0.5
				c0.9,0,1.7-0.2,2.2-0.6s0.8-1,0.8-1.7c0-0.4-0.1-0.8-0.3-1.1s-0.5-0.5-0.9-0.8s-1-0.5-1.8-0.8c-1.2-0.4-2-0.8-2.4-1.3
				s-0.7-1.1-0.7-1.9c0-0.9,0.3-1.6,1-2.1s1.5-0.8,2.6-0.8c1.1,0,2.1,0.2,3,0.6l-0.3,0.7c-0.9-0.4-1.9-0.6-2.7-0.6
				c-0.8,0-1.5,0.2-2,0.6s-0.8,0.9-0.8,1.6c0,0.4,0.1,0.8,0.2,1s0.4,0.5,0.8,0.7s0.9,0.5,1.8,0.8c0.9,0.3,1.6,0.6,2,0.9s0.8,0.6,1,1
				S213.9,337.9,213.9,338.4z"/>
			<path d="M222.6,341.3h-6.2v-11.4h6.2v0.7h-5.4v4.3h5.1v0.7h-5.1v4.9h5.4V341.3z"/>
			<path d="M230.2,341.3l-4.3-10.5h-0.1c0,0.6,0.1,1.3,0.1,2v8.6h-0.8v-11.4h1.2l4,10h0l4-10h1.2v11.4h-0.8v-8.7
				c0-0.6,0-1.2,0.1-1.9H235l-4.3,10.5H230.2z"/>
			<path d="M248.2,341.3l-4.3-10.5h-0.1c0,0.6,0.1,1.3,0.1,2v8.6h-0.8v-11.4h1.2l4,10h0l4-10h1.2v11.4h-0.8v-8.7
				c0-0.6,0-1.2,0.1-1.9h-0.1l-4.3,10.5H248.2z"/>
			<path d="M263.8,337.1c0,1.4-0.3,2.5-1,3.2s-1.6,1.2-2.8,1.2c-0.7,0-1.4-0.2-2-0.5s-1-0.9-1.3-1.5s-0.5-1.4-0.5-2.3
				c0-1.4,0.3-2.5,1-3.2s1.6-1.2,2.8-1.2c1.2,0,2.1,0.4,2.7,1.2S263.8,335.7,263.8,337.1z M257.1,337.1c0,1.2,0.3,2.1,0.8,2.7
				s1.2,1,2.2,1s1.7-0.3,2.2-1s0.8-1.6,0.8-2.7c0-1.2-0.3-2.1-0.8-2.7s-1.2-1-2.2-1s-1.7,0.3-2.2,1S257.1,335.9,257.1,337.1z"/>
			<path d="M269.2,332.7c0.6,0,1.1,0.1,1.6,0.3s0.8,0.6,1.2,1.1h0c0-0.7,0-1.3,0-1.9v-3.1h0.8v12.2h-0.5l-0.2-1.3H272
				c-0.6,1-1.6,1.5-2.8,1.5c-1.2,0-2.1-0.4-2.7-1.1s-0.9-1.8-0.9-3.2c0-1.5,0.3-2.6,0.9-3.4S268.1,332.7,269.2,332.7z M269.2,333.4
				c-0.9,0-1.6,0.3-2.1,1s-0.7,1.6-0.7,2.8c0,2.4,0.9,3.6,2.8,3.6c1,0,1.7-0.3,2.1-0.8s0.7-1.5,0.7-2.8v-0.1c0-1.3-0.2-2.3-0.7-2.8
				S270.2,333.4,269.2,333.4z"/>
			<path d="M279.1,341.5c-1.2,0-2.2-0.4-2.9-1.1s-1-1.8-1-3.2c0-1.4,0.3-2.4,1-3.3s1.6-1.2,2.7-1.2c1,0,1.8,0.3,2.4,1
				s0.9,1.6,0.9,2.8v0.6H276c0,1.2,0.3,2.1,0.8,2.7s1.3,0.9,2.3,0.9c0.5,0,0.9,0,1.3-0.1s0.8-0.2,1.4-0.4v0.7
				c-0.5,0.2-0.9,0.4-1.3,0.4S279.6,341.5,279.1,341.5z M278.8,333.3c-0.8,0-1.5,0.3-2,0.8s-0.8,1.3-0.9,2.3h5.3
				c0-1-0.2-1.8-0.6-2.3S279.6,333.3,278.8,333.3z"/>
			<path d="M285.2,341.3h-0.8v-12.2h0.8V341.3z"/>
		</g>
	</g>
	<g>
		<rect x="232.5" y="252" class="st11" width="15.7" height="6.4"/>
		<rect x="211.9" y="252" class="st11" width="15.7" height="6.4"/>
		<ellipse class="st12" cx="230.1" cy="238.5" rx="13" ry="6.1"/>
		<line class="st13" x1="219.8" y1="252" x2="229.1" y2="245.3"/>
		<polygon class="st14" points="228.5,247.8 228.9,245.5 226.5,245.1 227.7,244.2 230.1,244.6 229.7,247 		"/>
		<line class="st13" x1="243.2" y1="238.8" x2="254.5" y2="239"/>
		<polygon class="st14" points="252.5,240.7 254.2,239 252.5,237.3 254,237.3 255.6,239 253.9,240.7 		"/>
		<line class="st13" x1="240.4" y1="252" x2="231" y2="245.3"/>
		<polygon class="st14" points="233.6,245.1 231.2,245.5 231.6,247.8 230.5,247 230.1,244.6 232.4,244.2 		"/>
		<rect x="250.4" y="218.9" class="st11" width="15.7" height="6.4"/>
		<rect x="271" y="218.9" class="st11" width="15.7" height="6.4"/>
		<ellipse class="st6" cx="268.6" cy="238.8" rx="13" ry="6.1"/>
		<line class="st13" x1="278.9" y1="225.3" x2="269.5" y2="232"/>
		<polygon class="st14" points="270.1,229.5 269.7,231.8 272.1,232.2 270.9,233.1 268.6,232.7 269,230.3 		"/>
		<line class="st13" x1="258.3" y1="225.3" x2="267.6" y2="232"/>
		<polygon class="st14" points="265,232.2 267.4,231.8 267,229.5 268.2,230.3 268.6,232.7 266.2,233.1 		"/>
	</g>
</g>
<g>
	<g>
		<circle class="st8" cx="429.1" cy="241.2" r="49.4"/>
	</g>
	<g>
		<g>
			<path d="M392,322.1l-4.3-10.5h-0.1c0,0.6,0.1,1.3,0.1,2v8.6H387v-11.4h1.2l4,10h0l4-10h1.2v11.4h-0.8v-8.7c0-0.6,0-1.2,0.1-1.9
				h-0.1l-4.3,10.5H392z"/>
			<path d="M401.2,313.6v5.5c0,0.9,0.2,1.5,0.5,1.9c0.4,0.4,0.9,0.6,1.7,0.6c1,0,1.8-0.3,2.2-0.8c0.5-0.5,0.7-1.3,0.7-2.5v-4.7h0.8
				v8.5h-0.7l-0.1-1.2h0c-0.6,0.9-1.5,1.3-2.9,1.3c-1.9,0-2.9-1-2.9-3.1v-5.5H401.2z"/>
			<path d="M410.8,322.1H410V310h0.8V322.1z"/>
			<path d="M415.9,321.6c0.5,0,0.9,0,1.3-0.1v0.6c-0.4,0.1-0.8,0.2-1.3,0.2c-0.8,0-1.3-0.2-1.7-0.6c-0.4-0.4-0.5-1-0.5-1.9v-5.5
				h-1.3v-0.5l1.3-0.4l0.4-1.9h0.4v2.1h2.5v0.7h-2.5v5.4c0,0.7,0.1,1.1,0.3,1.4S415.4,321.6,415.9,321.6z"/>
			<path d="M418.9,311.3c0-0.5,0.2-0.8,0.5-0.8c0.2,0,0.3,0.1,0.4,0.2c0.1,0.1,0.1,0.3,0.1,0.6c0,0.2,0,0.4-0.1,0.6
				c-0.1,0.1-0.2,0.2-0.4,0.2C419,312,418.9,311.8,418.9,311.3z M419.8,322.1H419v-8.5h0.8V322.1z"/>
			<path d="M421.9,318.1v-0.6h3.7v0.6H421.9z"/>
			<path d="M434.4,313.6v0.5l-1.8,0.1c0.5,0.6,0.7,1.2,0.7,1.9c0,0.8-0.3,1.5-0.8,2s-1.3,0.8-2.2,0.8c-0.4,0-0.7,0-0.8,0
				c-0.3,0.2-0.5,0.4-0.7,0.6s-0.2,0.5-0.2,0.7c0,0.3,0.1,0.5,0.3,0.6s0.6,0.2,1,0.2h1.5c0.9,0,1.6,0.2,2.1,0.6
				c0.5,0.4,0.7,0.9,0.7,1.7c0,0.9-0.4,1.6-1.1,2.1c-0.7,0.5-1.8,0.7-3.1,0.7c-1.1,0-1.9-0.2-2.5-0.6c-0.6-0.4-0.9-1-0.9-1.7
				c0-0.6,0.2-1.1,0.5-1.5c0.4-0.4,0.9-0.6,1.5-0.8c-0.3-0.1-0.5-0.3-0.6-0.5c-0.2-0.2-0.2-0.4-0.2-0.7c0-0.6,0.4-1.1,1.1-1.5
				c-0.5-0.2-0.9-0.5-1.2-1c-0.3-0.4-0.4-0.9-0.4-1.5c0-0.8,0.3-1.5,0.8-2c0.5-0.5,1.3-0.8,2.2-0.8c0.6,0,1,0.1,1.3,0.2H434.4z
				 M427.5,323.6c0,1.2,0.9,1.8,2.6,1.8c2.2,0,3.3-0.7,3.3-2.1c0-0.5-0.2-0.9-0.5-1.1c-0.3-0.2-0.9-0.3-1.7-0.3h-1.4
				C428.3,321.7,427.5,322.3,427.5,323.6z M428.1,316.3c0,0.7,0.2,1.2,0.6,1.5c0.4,0.4,0.9,0.5,1.6,0.5c0.7,0,1.3-0.2,1.6-0.5
				s0.6-0.9,0.6-1.6c0-0.7-0.2-1.3-0.6-1.6c-0.4-0.4-0.9-0.5-1.6-0.5c-0.7,0-1.2,0.2-1.6,0.6C428.3,315,428.1,315.6,428.1,316.3z"/>
			<path d="M439.5,313.5c0.4,0,0.7,0,1.2,0.1l-0.1,0.7c-0.4-0.1-0.7-0.1-1.1-0.1c-0.7,0-1.3,0.3-1.8,0.9c-0.5,0.6-0.7,1.4-0.7,2.3
				v4.7h-0.8v-8.5h0.7l0.1,1.5h0.1c0.3-0.6,0.7-1.1,1.1-1.3C438.4,313.6,438.9,313.5,439.5,313.5z"/>
			<path d="M449.4,317.9c0,1.4-0.3,2.5-1,3.2c-0.7,0.8-1.6,1.2-2.8,1.2c-0.7,0-1.4-0.2-2-0.5s-1-0.9-1.3-1.5s-0.5-1.4-0.5-2.3
				c0-1.4,0.3-2.5,1-3.2s1.6-1.2,2.8-1.2c1.2,0,2.1,0.4,2.7,1.2C449,315.4,449.4,316.5,449.4,317.9z M442.7,317.9
				c0,1.2,0.3,2.1,0.8,2.7c0.5,0.7,1.2,1,2.2,1s1.7-0.3,2.2-1c0.5-0.7,0.8-1.6,0.8-2.7c0-1.2-0.3-2.1-0.8-2.7c-0.5-0.6-1.2-1-2.2-1
				s-1.7,0.3-2.2,1C442.9,315.8,442.7,316.7,442.7,317.9z"/>
			<path d="M452.4,313.6v5.5c0,0.9,0.2,1.5,0.5,1.9c0.4,0.4,0.9,0.6,1.7,0.6c1,0,1.8-0.3,2.2-0.8c0.5-0.5,0.7-1.3,0.7-2.5v-4.7h0.8
				v8.5h-0.7l-0.1-1.2h0c-0.6,0.9-1.5,1.3-2.9,1.3c-1.9,0-2.9-1-2.9-3.1v-5.5H452.4z"/>
			<path d="M464.8,322.3c-1.3,0-2.3-0.5-2.9-1.5h-0.1l0,0.7c0,0.4,0,0.8,0,1.3v3.2h-0.8v-12.3h0.7l0.1,1.2h0
				c0.6-0.9,1.5-1.4,2.8-1.4c1.1,0,2,0.4,2.6,1.1c0.6,0.8,0.9,1.8,0.9,3.3c0,1.4-0.3,2.5-0.9,3.2
				C466.7,321.9,465.9,322.3,464.8,322.3z M464.8,321.6c0.9,0,1.5-0.3,2-1c0.5-0.6,0.7-1.5,0.7-2.7c0-2.5-0.9-3.7-2.7-3.7
				c-1,0-1.7,0.3-2.2,0.8c-0.5,0.5-0.7,1.4-0.7,2.7v0.3c0,1.3,0.2,2.3,0.7,2.8C463,321.3,463.8,321.6,464.8,321.6z"/>
			<path d="M405.9,337.3h-4.6l-1.6,4h-0.9l4.6-11.5h0.5l4.5,11.5h-0.9L405.9,337.3z M401.6,336.6h4.1l-1.6-4.1
				c-0.1-0.3-0.3-0.8-0.5-1.3c-0.1,0.5-0.3,1-0.5,1.4L401.6,336.6z"/>
			<path d="M415.7,341.3v-5.5c0-0.9-0.2-1.5-0.5-1.9s-0.9-0.6-1.7-0.6c-1,0-1.8,0.3-2.2,0.8s-0.7,1.3-0.7,2.5v4.7h-0.8v-8.5h0.7
				l0.1,1.2h0c0.6-0.9,1.5-1.3,2.9-1.3c1.9,0,2.9,1,2.9,3.1v5.6H415.7z"/>
			<path d="M424.4,341.3l-0.2-1.3h-0.1c-0.4,0.5-0.9,0.9-1.3,1.2s-1,0.3-1.6,0.3c-0.8,0-1.5-0.2-1.9-0.6s-0.7-1-0.7-1.8
				c0-0.8,0.3-1.5,1-1.9s1.7-0.7,3-0.7l1.6,0v-0.6c0-0.8-0.2-1.4-0.5-1.8s-0.9-0.6-1.6-0.6c-0.8,0-1.6,0.2-2.4,0.7l-0.3-0.7
				c0.9-0.4,1.9-0.7,2.8-0.7c0.9,0,1.6,0.2,2.1,0.7s0.7,1.2,0.7,2.3v5.6H424.4z M421.3,340.8c0.9,0,1.6-0.3,2.1-0.8s0.8-1.2,0.8-2.2
				V337l-1.5,0.1c-1.2,0.1-2,0.2-2.6,0.6s-0.8,0.8-0.8,1.5c0,0.5,0.2,0.9,0.5,1.2S420.7,340.8,421.3,340.8z"/>
			<path d="M428.5,341.3h-0.8v-12.2h0.8V341.3z"/>
			<path d="M429.9,332.8h0.8l1.8,4.8c0.5,1.5,0.9,2.5,1,3h0c0.2-0.7,0.6-1.7,1.1-3l1.8-4.7h0.8l-3.8,9.9c-0.3,0.8-0.6,1.3-0.8,1.6
				s-0.5,0.5-0.7,0.6s-0.6,0.2-1,0.2c-0.3,0-0.6-0.1-1-0.2v-0.7c0.3,0.1,0.6,0.1,1,0.1c0.3,0,0.5-0.1,0.7-0.2s0.4-0.3,0.6-0.6
				s0.4-0.7,0.6-1.3s0.4-0.9,0.4-1.1L429.9,332.8z"/>
			<path d="M444,339.1c0,0.8-0.3,1.3-0.9,1.8s-1.4,0.6-2.5,0.6c-1.1,0-2-0.2-2.7-0.5v-0.8c0.9,0.4,1.8,0.6,2.7,0.6
				c0.8,0,1.5-0.1,1.9-0.4s0.7-0.6,0.7-1.1c0-0.4-0.2-0.8-0.5-1.1s-0.9-0.6-1.7-0.9c-0.8-0.3-1.4-0.6-1.8-0.8s-0.6-0.5-0.8-0.8
				s-0.3-0.6-0.3-1c0-0.6,0.3-1.1,0.8-1.5s1.3-0.6,2.2-0.6c0.9,0,1.8,0.2,2.6,0.5l-0.3,0.7c-0.8-0.3-1.6-0.5-2.3-0.5
				c-0.7,0-1.2,0.1-1.6,0.3s-0.6,0.5-0.6,1c0,0.4,0.2,0.8,0.5,1.1s0.9,0.6,1.8,0.9c0.8,0.3,1.3,0.5,1.7,0.7s0.6,0.5,0.8,0.8
				S444,338.7,444,339.1z"/>
			<path d="M446,330.5c0-0.5,0.2-0.8,0.5-0.8c0.2,0,0.3,0.1,0.4,0.2s0.1,0.3,0.1,0.6c0,0.2,0,0.4-0.1,0.6s-0.2,0.2-0.4,0.2
				C446.2,331.2,446,331,446,330.5z M446.9,341.3h-0.8v-8.5h0.8V341.3z"/>
			<path d="M455,339.1c0,0.8-0.3,1.3-0.9,1.8s-1.4,0.6-2.5,0.6c-1.1,0-2-0.2-2.7-0.5v-0.8c0.9,0.4,1.8,0.6,2.7,0.6
				c0.8,0,1.5-0.1,1.9-0.4s0.7-0.6,0.7-1.1c0-0.4-0.2-0.8-0.5-1.1s-0.9-0.6-1.7-0.9c-0.8-0.3-1.4-0.6-1.8-0.8s-0.6-0.5-0.8-0.8
				s-0.3-0.6-0.3-1c0-0.6,0.3-1.1,0.8-1.5s1.3-0.6,2.2-0.6c0.9,0,1.8,0.2,2.6,0.5l-0.3,0.7c-0.8-0.3-1.6-0.5-2.3-0.5
				c-0.7,0-1.2,0.1-1.6,0.3s-0.6,0.5-0.6,1c0,0.4,0.2,0.8,0.5,1.1s0.9,0.6,1.8,0.9c0.8,0.3,1.3,0.5,1.7,0.7s0.6,0.5,0.8,0.8
				S455,338.7,455,339.1z"/>
		</g>
	</g>
	<g>
		<g>
			<g>
				
					<image style="overflow:visible;opacity:0.2;" width="244" height="119" xlink:href="20B680A1.png"  transform="matrix(0.24 0 0 0.24 399.4626 206.3097)">
				</image>
				<g>
					<g>
						<g>
							<g>
								<polygon class="st3" points="409,215.2 409,222 415.2,226.7 415.2,210.5 								"/>
								<g>
									<rect x="441.8" y="210.5" class="st4" width="8.1" height="16.1"/>
									<g>
										<rect x="415.2" y="210.5" class="st6" width="26.6" height="16.1"/>
									</g>
								</g>
								<path class="st7" d="M410.9,217.4c0.6,0,1.2,0.5,1.2,1.2c0,0.6-0.5,1.2-1.2,1.2s-1.2-0.5-1.2-1.2
									C409.8,218,410.3,217.4,410.9,217.4z"/>
							</g>
						</g>
						<path class="st15" d="M410.6,217.8c-0.1-0.1-0.2-0.1-0.3-0.2c-0.4-0.2-0.8-0.5-1.3-0.7c-0.2-0.1-0.3-0.1-0.5-0.2
							c-1.2-0.4-2.4-0.4-3.3,0c-0.4,0.1-0.7,0.3-0.9,0.6c-0.6,0.6-0.8,1.4-0.6,2.1c0.2,0.7,0.9,1.4,1.7,1.6c0.3,0.1,0.6,0.1,1,0.1
							c0.3,0,0.5,0,0.8-0.1c0.7-0.1,1.3-0.3,1.9-0.5v-0.4c-0.6,0.3-1.3,0.5-2,0.6c-0.6,0.1-1.2,0.1-1.6-0.1
							c-0.7-0.2-1.3-0.7-1.5-1.4c-0.2-0.6,0-1.3,0.5-1.8c0.2-0.2,0.5-0.4,0.8-0.5c0.4-0.2,0.9-0.3,1.4-0.3c0.5,0,1.1,0.1,1.7,0.3h0
							c0.2,0.1,0.4,0.2,0.6,0.2c0.4,0.2,0.7,0.3,1,0.5c0.2,0.1,0.3,0.2,0.4,0.3c0.2,0.1,0.5,0.3,0.5,0.5c0,0.1-0.1,0.3-0.4,0.5
							c-0.1,0.1-0.3,0.2-0.4,0.3c0.1,0.1,0.2,0.1,0.3,0.2c0.1-0.1,0.2-0.2,0.3-0.3c0.3-0.2,0.5-0.5,0.5-0.8
							C411.3,218.3,411,218,410.6,217.8z"/>
					</g>
				</g>
			</g>
			<g>
				<g>
					<path class="st9" d="M425.3,221.3l-0.2-0.9h-1.6l-0.3,0.9h-1.5l1.6-5h1.8l1.7,5H425.3z M424.8,219.3l-0.2-0.8
						c0-0.2-0.1-0.4-0.2-0.7c-0.1-0.3-0.1-0.5-0.1-0.6c0,0.1-0.1,0.3-0.1,0.6c-0.1,0.3-0.2,0.8-0.4,1.6H424.8z"/>
					<path class="st9" d="M430.6,219.8c0,0.3-0.1,0.6-0.2,0.8c-0.2,0.2-0.4,0.4-0.7,0.6c-0.3,0.1-0.6,0.2-1,0.2
						c-0.3,0-0.6,0-0.8-0.1s-0.5-0.1-0.7-0.2v-1.2c0.3,0.1,0.5,0.2,0.8,0.3c0.3,0.1,0.5,0.1,0.8,0.1c0.2,0,0.3,0,0.4-0.1
						s0.1-0.2,0.1-0.3c0-0.1,0-0.1-0.1-0.2c0-0.1-0.1-0.1-0.2-0.2s-0.3-0.2-0.7-0.3c-0.3-0.1-0.6-0.3-0.7-0.4s-0.3-0.3-0.4-0.5
						c-0.1-0.2-0.1-0.4-0.1-0.6c0-0.5,0.2-0.8,0.5-1.1c0.3-0.3,0.8-0.4,1.4-0.4c0.5,0,1,0.1,1.6,0.4l-0.4,1
						c-0.5-0.2-0.9-0.3-1.2-0.3c-0.2,0-0.3,0-0.4,0.1c-0.1,0.1-0.1,0.1-0.1,0.2c0,0.1,0.1,0.2,0.2,0.3s0.4,0.2,0.8,0.4
						c0.4,0.2,0.7,0.4,0.9,0.6C430.5,219.2,430.6,219.5,430.6,219.8z"/>
					<path class="st9" d="M435.6,218.7c0,0.8-0.2,1.5-0.7,1.9s-1.1,0.7-1.9,0.7h-1.6v-5h1.7c0.8,0,1.4,0.2,1.9,0.6
						S435.6,218,435.6,218.7z M434.2,218.8c0-0.5-0.1-0.8-0.3-1c-0.2-0.2-0.5-0.3-0.8-0.3h-0.4v2.8h0.3c0.4,0,0.7-0.1,0.9-0.4
						S434.2,219.3,434.2,218.8z"/>
				</g>
			</g>
		</g>
		<g>
			<g>
				
					<image style="overflow:visible;opacity:0.2;" width="244" height="118" xlink:href="20B680A3.png"  transform="matrix(0.24 0 0 0.24 399.4626 226.7097)">
				</image>
				<g>
					<g>
						<g>
							<g>
								<polygon class="st3" points="409,235.5 409,242.2 415.2,246.9 415.2,230.8 								"/>
								<g>
									<rect x="441.8" y="230.8" class="st4" width="8.1" height="16.1"/>
									<g>
										<rect x="415.2" y="230.8" class="st6" width="26.6" height="16.1"/>
									</g>
								</g>
								<path class="st7" d="M410.9,237.7c0.6,0,1.2,0.5,1.2,1.2s-0.5,1.2-1.2,1.2s-1.2-0.5-1.2-1.2S410.3,237.7,410.9,237.7z"/>
							</g>
						</g>
						<path class="st15" d="M410.6,238.1c-0.1-0.1-0.2-0.1-0.3-0.2c-0.4-0.2-0.8-0.5-1.3-0.7c-0.2-0.1-0.3-0.1-0.5-0.2
							c-1.2-0.4-2.4-0.4-3.3,0c-0.4,0.1-0.7,0.3-0.9,0.6c-0.6,0.6-0.8,1.4-0.6,2.1c0.2,0.7,0.9,1.4,1.7,1.6c0.3,0.1,0.6,0.1,1,0.1
							c0.3,0,0.5,0,0.8-0.1c0.7-0.1,1.3-0.3,1.9-0.5v-0.4c-0.6,0.3-1.3,0.5-2,0.6c-0.6,0.1-1.2,0.1-1.6-0.1
							c-0.7-0.2-1.3-0.7-1.5-1.4c-0.2-0.6,0-1.3,0.5-1.8c0.2-0.2,0.5-0.4,0.8-0.5c0.4-0.2,0.9-0.3,1.4-0.3c0.5,0,1.1,0.1,1.7,0.3h0
							c0.2,0.1,0.4,0.2,0.6,0.2c0.4,0.2,0.7,0.3,1,0.5c0.2,0.1,0.3,0.2,0.4,0.3c0.2,0.1,0.5,0.3,0.5,0.5c0,0.1-0.1,0.3-0.4,0.5
							c-0.1,0.1-0.3,0.2-0.4,0.3c0.1,0.1,0.2,0.1,0.3,0.2c0.1-0.1,0.2-0.2,0.3-0.3c0.3-0.2,0.5-0.5,0.5-0.8
							C411.3,238.5,411,238.3,410.6,238.1z"/>
					</g>
				</g>
			</g>
			<g>
				<path class="st9" d="M422.6,241.3l-0.2-0.9h-1.6l-0.3,0.9H419l1.6-5h1.8l1.7,5H422.6z M422.1,239.3l-0.2-0.8
					c0-0.2-0.1-0.4-0.2-0.7c-0.1-0.3-0.1-0.5-0.1-0.6c0,0.1-0.1,0.3-0.1,0.6c-0.1,0.3-0.2,0.8-0.4,1.6H422.1z"/>
				<path class="st9" d="M428.9,238.7c0,0.8-0.2,1.5-0.7,1.9s-1.1,0.7-1.9,0.7h-1.6v-5h1.7c0.8,0,1.4,0.2,1.9,0.6
					S428.9,237.9,428.9,238.7z M427.5,238.7c0-0.5-0.1-0.8-0.3-1c-0.2-0.2-0.5-0.3-0.8-0.3H426v2.8h0.3c0.4,0,0.7-0.1,0.9-0.4
					S427.5,239.2,427.5,238.7z"/>
				<path class="st9" d="M434.1,241.3h-1.4v-2h-1.6v2h-1.4v-5h1.4v1.9h1.6v-1.9h1.4V241.3z"/>
				<path class="st9" d="M439.4,238.7c0,0.8-0.2,1.5-0.7,1.9s-1.1,0.7-1.9,0.7h-1.6v-5h1.7c0.8,0,1.4,0.2,1.9,0.6
					S439.4,237.9,439.4,238.7z M438,238.7c0-0.5-0.1-0.8-0.3-1c-0.2-0.2-0.5-0.3-0.8-0.3h-0.4v2.8h0.3c0.4,0,0.7-0.1,0.9-0.4
					S438,239.2,438,238.7z"/>
			</g>
		</g>
		<g>
			<g>
				
					<image style="overflow:visible;opacity:0.2;" width="244" height="118" xlink:href="20B680A6.png"  transform="matrix(0.24 0 0 0.24 399.4626 247.8297)">
				</image>
				<g>
					<g>
						<g>
							<g>
								<polygon class="st3" points="409,256.5 409,263.3 415.2,268 415.2,251.9 								"/>
								<g>
									<rect x="441.8" y="251.9" class="st4" width="8.1" height="16.1"/>
									<g>
										<rect x="415.2" y="251.9" class="st6" width="26.6" height="16.1"/>
									</g>
								</g>
								<path class="st7" d="M410.9,258.8c0.6,0,1.2,0.5,1.2,1.2s-0.5,1.2-1.2,1.2s-1.2-0.5-1.2-1.2S410.3,258.8,410.9,258.8z"/>
							</g>
						</g>
						<path class="st15" d="M410.6,259.1c-0.1-0.1-0.2-0.1-0.3-0.2c-0.4-0.2-0.8-0.5-1.3-0.7c-0.2-0.1-0.3-0.1-0.5-0.2
							c-1.2-0.4-2.4-0.4-3.3,0c-0.4,0.1-0.7,0.3-0.9,0.6c-0.6,0.6-0.8,1.4-0.6,2.1c0.2,0.7,0.9,1.4,1.7,1.6c0.3,0.1,0.6,0.1,1,0.1
							c0.3,0,0.5,0,0.8-0.1c0.7-0.1,1.3-0.3,1.9-0.5v-0.4c-0.6,0.3-1.3,0.5-2,0.6c-0.6,0.1-1.2,0.1-1.6-0.1
							c-0.7-0.2-1.3-0.7-1.5-1.4c-0.2-0.6,0-1.3,0.5-1.8c0.2-0.2,0.5-0.4,0.8-0.5c0.4-0.2,0.9-0.3,1.4-0.3c0.5,0,1.1,0.1,1.7,0.3h0
							c0.2,0.1,0.4,0.2,0.6,0.2c0.4,0.2,0.7,0.3,1,0.5c0.2,0.1,0.3,0.2,0.4,0.3c0.2,0.1,0.5,0.3,0.5,0.5c0,0.1-0.1,0.3-0.4,0.5
							c-0.1,0.1-0.3,0.2-0.4,0.3c0.1,0.1,0.2,0.1,0.3,0.2c0.1-0.1,0.2-0.2,0.3-0.3c0.3-0.2,0.5-0.5,0.5-0.8
							C411.3,259.6,411,259.4,410.6,259.1z"/>
					</g>
				</g>
			</g>
			<g>
				<path class="st9" d="M427.5,262.4h-1.3v-3.9h-1.2v-1.1h3.8v1.1h-1.2V262.4z"/>
				<path class="st9" d="M433.7,259.8c0,0.8-0.2,1.5-0.7,1.9s-1.1,0.7-1.9,0.7h-1.6v-5h1.7c0.8,0,1.4,0.2,1.9,0.6
					S433.7,259,433.7,259.8z M432.3,259.8c0-0.5-0.1-0.8-0.3-1c-0.2-0.2-0.5-0.3-0.8-0.3h-0.4v2.8h0.3c0.4,0,0.7-0.1,0.9-0.4
					S432.3,260.3,432.3,259.8z"/>
			</g>
		</g>
	</g>
</g>
</svg>
