<svg xmlns="http://www.w3.org/2000/svg" viewBox="0 0 98.822 98.822"><defs><style>.a{fill:#f37666;}.b{fill:#054062;}.c{fill:#fdb816;}.d{fill:#66c8c9;}</style></defs><circle class="a" cx="49.411" cy="49.411" r="49.411"/><circle class="b" cx="33.607" cy="27.559" r="1.48"/><circle class="b" cx="28.171" cy="30.991" r="1.48"/><circle class="b" cx="39.656" cy="32.938" r="1.48"/><circle class="b" cx="38.111" cy="28.1" r="1.48"/><circle class="b" cx="33.607" cy="33.101" r="1.48"/><circle class="b" cx="29.265" cy="36.772" r="1.48"/><circle class="b" cx="34.51" cy="38.643" r="1.48"/><circle class="b" cx="39.656" cy="43.448" r="1.48"/><circle class="b" cx="31.13" cy="44.927" r="1.48"/><circle class="c" cx="58.924" cy="33.524" r="1.48"/><circle class="b" cx="45.622" cy="31.52" r="1.48"/><circle class="c" cx="63.687" cy="35.899" r="1.48"/><circle class="c" cx="62.71" cy="31.193" r="1.48"/><circle class="c" cx="61.116" cy="40.261" r="1.48"/><circle class="b" cx="46.716" cy="37.301" r="1.48"/><circle class="b" cx="51.961" cy="39.172" r="1.48"/><circle class="b" cx="41.616" cy="36.772" r="1.48"/><circle class="b" cx="46.392" cy="43.363" r="1.48"/><circle class="d" cx="52.731" cy="51.216" r="1.48"/><circle class="d" cx="38.617" cy="58.234" r="1.48"/><circle class="d" cx="58.78" cy="56.595" r="1.48"/><circle class="d" cx="57.234" cy="51.757" r="1.48"/><circle class="d" cx="52.731" cy="56.758" r="1.48"/><circle class="d" cx="48.389" cy="60.429" r="1.48"/><circle class="d" cx="53.634" cy="62.3" r="1.48"/><circle class="d" cx="45.1" cy="64.339" r="1.48"/><circle class="d" cx="50.254" cy="68.584" r="1.48"/><circle class="d" cx="64.746" cy="55.178" r="1.48"/><circle class="d" cx="65.84" cy="60.958" r="1.48"/><circle class="d" cx="71.085" cy="62.829" r="1.48"/><circle class="d" cx="60.74" cy="60.429" r="1.48"/><circle class="d" cx="65.516" cy="67.02" r="1.48"/><circle class="c" cx="67.879" cy="30.693" r="1.48"/><circle class="d" cx="45.69" cy="57.024" r="1.48"/><circle class="d" cx="35.756" cy="60.908" r="1.48"/><circle class="d" cx="39.324" cy="63.806" r="1.48"/><circle class="d" cx="42.095" cy="68.56" r="1.48"/><circle class="d" cx="31.454" cy="59.548" r="1.48"/><circle class="d" cx="46.162" cy="71.797" r="1.48"/><path class="b" d="M77.571,77.571H21.841a.59.59,0,0,1-.59-.589V21.251h1.18V76.392h55.14Z"/><circle class="d" cx="42.327" cy="49.736" r="1.48"/></svg>