<svg xmlns="http://www.w3.org/2000/svg" viewBox="0 0 98.822 98.822"><defs><style>.a{fill:#fdb816;}.b{fill:#67c8c9;}.c{fill:#044163;}.d{fill:none;stroke:#424143;stroke-linecap:round;stroke-linejoin:round;}.e{fill:#424143;}.f{fill:#f37666;}</style></defs><circle class="a" cx="49.411" cy="49.411" r="49.411"/><rect class="b" x="33.876" y="60.254" width="15.7" height="6.4"/><rect class="b" x="13.276" y="60.254" width="15.7" height="6.4"/><ellipse class="c" cx="31.476" cy="46.754" rx="13" ry="6.1"/><line class="d" x1="21.176" y1="60.254" x2="30.476" y2="53.554"/><polygon class="e" points="29.876 56.054 30.276 53.754 27.876 53.354 29.076 52.454 31.476 52.854 31.076 55.254 29.876 56.054"/><line class="d" x1="44.576" y1="47.054" x2="55.876" y2="47.254"/><polygon class="e" points="53.876 48.954 55.576 47.254 53.876 45.554 55.376 45.554 56.976 47.254 55.276 48.954 53.876 48.954"/><line class="d" x1="41.776" y1="60.254" x2="32.376" y2="53.554"/><polygon class="e" points="34.976 53.354 32.576 53.754 32.976 56.054 31.876 55.254 31.476 52.854 33.776 52.454 34.976 53.354"/><rect class="b" x="51.776" y="27.154" width="15.7" height="6.4"/><rect class="b" x="72.376" y="27.154" width="15.7" height="6.4"/><ellipse class="f" cx="69.976" cy="47.054" rx="13" ry="6.1"/><line class="d" x1="80.276" y1="33.554" x2="70.876" y2="40.254"/><polygon class="e" points="71.476 37.754 71.076 40.054 73.476 40.454 72.276 41.354 69.976 40.954 70.376 38.554 71.476 37.754"/><line class="d" x1="59.676" y1="33.554" x2="68.976" y2="40.254"/><polygon class="e" points="66.376 40.454 68.776 40.054 68.376 37.754 69.576 38.554 69.976 40.954 67.576 41.354 66.376 40.454"/></svg>