<?xml version="1.0" encoding="utf-8"?>
<!-- Generator: Adobe Illustrator 24.2.0, SVG Export Plug-In . SVG Version: 6.00 Build 0)  -->
<svg version="1.1" id="Layer_1" xmlns="http://www.w3.org/2000/svg" xmlns:xlink="http://www.w3.org/1999/xlink" x="0px" y="0px"
	 viewBox="0 0 418 491" style="enable-background:new 0 0 418 491;" xml:space="preserve">
<style type="text/css">
	.st0{fill:none;}
	.st1{enable-background:new    ;}
	.st2{display:none;}
	.st3{fill:none;stroke:#888888;stroke-miterlimit:10;}
	.st4{fill:none;stroke:#DDDDDD;stroke-miterlimit:10;}
	.st5{display:none;fill:none;stroke:#DDDDDD;stroke-miterlimit:10;}
	.st6{fill:#4C78A8;}
	.st7{display:none;fill:#4C78A8;}
	.st8{fill:#F58518;}
	.st9{display:none;fill:#F58518;}
	.st10{fill:#E45756;}
	.st11{display:none;fill:#E45756;}
</style>
<g transform="translate(68,112)">
	<g>
		<g transform="translate(0,0)">
			<path class="st0" d="M0,0L0,0L0,0L0,0z"/>
			<g>
				<g>
					<g transform="translate(172,-36)">
						<path class="st0" d="M0,0L0,0L0,0L0,0z"/>
						<g>
							<g>
								<g transform="translate(0,-26)">
									<path pointer-events="none" class="st0" d="M0,0L0,0L0,0L0,0z"/>
									<g>
										<g pointer-events="none">
											<g class="st1">
												<path d="M-69.1,13V1.5h3.7c1.4,0,2.3,0.1,2.8,0.2c0.7,0.2,1.2,0.5,1.6,1.1c0.4,0.6,0.7,1.3,0.7,2.2
													c0,0.7-0.1,1.3-0.4,1.8c-0.3,0.5-0.6,0.9-1,1.1c-0.4,0.3-0.8,0.5-1.2,0.5c-0.6,0.1-1.4,0.2-2.4,0.2h-1.5V13H-69.1z
													 M-66.8,3.5v3.3h1.3c0.9,0,1.5-0.1,1.8-0.2c0.3-0.1,0.5-0.3,0.7-0.6c0.2-0.3,0.3-0.6,0.3-0.9c0-0.4-0.1-0.8-0.4-1
													c-0.2-0.3-0.6-0.4-0.9-0.5c-0.3-0.1-0.8-0.1-1.7-0.1H-66.8z"/>
												<path d="M-56.3,13h-2.2V4.7h2v1.2c0.3-0.6,0.7-0.9,0.9-1.1c0.3-0.2,0.6-0.3,0.9-0.3c0.5,0,1,0.1,1.4,0.4l-0.7,1.9
													c-0.4-0.2-0.7-0.4-1-0.4c-0.3,0-0.6,0.1-0.8,0.3c-0.2,0.2-0.4,0.5-0.5,0.9c-0.1,0.4-0.2,1.4-0.2,2.8V13z"/>
												<path d="M-52.2,3.6v-2h2.2v2H-52.2z M-52.2,13V4.7h2.2V13H-52.2z"/>
												<path d="M-47.9,4.7h2v1.1c0.7-0.9,1.6-1.3,2.6-1.3c0.5,0,1,0.1,1.4,0.3s0.7,0.5,1,1c0.4-0.4,0.8-0.8,1.2-1
													s0.9-0.3,1.4-0.3c0.6,0,1.1,0.1,1.5,0.4s0.7,0.6,0.9,1.1c0.2,0.4,0.2,0.9,0.2,1.7V13h-2.2V8.3c0-0.8-0.1-1.4-0.2-1.6
													c-0.2-0.3-0.5-0.5-0.9-0.5c-0.3,0-0.6,0.1-0.9,0.3c-0.3,0.2-0.5,0.5-0.6,0.8c-0.1,0.4-0.2,0.9-0.2,1.7v4h-2.2V8.5
													c0-0.8,0-1.3-0.1-1.6s-0.2-0.4-0.4-0.5s-0.4-0.2-0.7-0.2c-0.3,0-0.6,0.1-0.9,0.3c-0.3,0.2-0.5,0.4-0.6,0.8
													s-0.2,0.9-0.2,1.7v4h-2.2V4.7z"/>
												<path d="M-31.9,7.2l-2-0.4c0.2-0.8,0.6-1.4,1.2-1.8s1.4-0.6,2.4-0.6c1,0,1.7,0.1,2.2,0.3c0.5,0.2,0.8,0.5,1,0.9
													s0.3,1,0.3,2l0,2.6c0,0.7,0,1.3,0.1,1.6s0.2,0.7,0.4,1.1h-2.2c-0.1-0.1-0.1-0.4-0.2-0.6c0-0.1-0.1-0.2-0.1-0.3
													c-0.4,0.4-0.8,0.6-1.2,0.8c-0.4,0.2-0.9,0.3-1.4,0.3c-0.9,0-1.5-0.2-2-0.7s-0.7-1-0.7-1.8c0-0.5,0.1-0.9,0.3-1.3
													c0.2-0.4,0.5-0.6,0.9-0.8c0.4-0.2,1-0.4,1.7-0.5c1-0.2,1.7-0.4,2.1-0.5V7.4c0-0.4-0.1-0.7-0.3-0.9
													c-0.2-0.2-0.6-0.3-1.2-0.3c-0.4,0-0.7,0.1-0.9,0.2S-31.8,6.8-31.9,7.2z M-29,9c-0.3,0.1-0.7,0.2-1.3,0.3s-1,0.3-1.2,0.4
													c-0.3,0.2-0.4,0.5-0.4,0.8c0,0.3,0.1,0.6,0.3,0.8c0.2,0.2,0.5,0.3,0.9,0.3c0.4,0,0.8-0.1,1.1-0.4
													c0.3-0.2,0.4-0.4,0.5-0.7C-29,10.3-29,10-29,9.5V9z"/>
												<path d="M-22.5,13h-2.2V4.7h2v1.2c0.3-0.6,0.7-0.9,0.9-1.1c0.3-0.2,0.6-0.3,0.9-0.3c0.5,0,1,0.1,1.4,0.4L-20,6.8
													c-0.4-0.2-0.7-0.4-1-0.4c-0.3,0-0.6,0.1-0.8,0.3c-0.2,0.2-0.4,0.5-0.5,0.9c-0.1,0.4-0.2,1.4-0.2,2.8V13z"/>
												<path d="M-19.4,4.7h2.3l2,5.9l1.9-5.9h2.3l-2.9,8l-0.5,1.4c-0.2,0.5-0.4,0.9-0.6,1.1c-0.2,0.3-0.4,0.5-0.6,0.6
													c-0.2,0.2-0.5,0.3-0.8,0.4c-0.3,0.1-0.7,0.1-1.1,0.1c-0.4,0-0.8,0-1.2-0.1l-0.2-1.7c0.3,0.1,0.7,0.1,0.9,0.1
													c0.5,0,0.9-0.1,1.1-0.4c0.2-0.3,0.4-0.7,0.6-1.1L-19.4,4.7z"/>
												<path d="M-5.1,1.5h4.2c1,0,1.7,0.1,2.2,0.2C2,2,2.6,2.3,3.1,2.8c0.5,0.5,0.8,1.1,1.1,1.9s0.4,1.6,0.4,2.7
													c0,0.9-0.1,1.8-0.4,2.4c-0.3,0.8-0.7,1.5-1.2,2c-0.4,0.4-0.9,0.7-1.6,0.9c-0.5,0.2-1.2,0.2-2,0.2h-4.4V1.5z M-2.7,3.5
													v7.6H-1c0.6,0,1.1,0,1.4-0.1c0.4-0.1,0.7-0.3,0.9-0.5c0.2-0.2,0.4-0.6,0.6-1.1s0.2-1.2,0.2-2.1s-0.1-1.6-0.2-2
													S1.5,4.4,1.3,4.1S0.6,3.7,0.2,3.6c-0.3-0.1-1-0.1-1.9-0.1H-2.7z"/>
												<path d="M6.5,3.6v-2h2.2v2H6.5z M6.5,13V4.7h2.2V13H6.5z"/>
												<path d="M12.6,7.2l-2-0.4c0.2-0.8,0.6-1.4,1.2-1.8s1.4-0.6,2.4-0.6c1,0,1.7,0.1,2.2,0.3c0.5,0.2,0.8,0.5,1,0.9
													s0.3,1,0.3,2l0,2.6c0,0.7,0,1.3,0.1,1.6s0.2,0.7,0.4,1.1H16c-0.1-0.1-0.1-0.4-0.2-0.6c0-0.1-0.1-0.2-0.1-0.3
													c-0.4,0.4-0.8,0.6-1.2,0.8c-0.4,0.2-0.9,0.3-1.4,0.3c-0.9,0-1.5-0.2-2-0.7s-0.7-1-0.7-1.8c0-0.5,0.1-0.9,0.3-1.3
													c0.2-0.4,0.5-0.6,0.9-0.8c0.4-0.2,1-0.4,1.7-0.5c1-0.2,1.7-0.4,2.1-0.5V7.4c0-0.4-0.1-0.7-0.3-0.9
													C15,6.3,14.6,6.2,14,6.2c-0.4,0-0.7,0.1-0.9,0.2S12.7,6.8,12.6,7.2z M15.5,9c-0.3,0.1-0.7,0.2-1.3,0.3s-1,0.3-1.2,0.4
													c-0.3,0.2-0.4,0.5-0.4,0.8c0,0.3,0.1,0.6,0.3,0.8c0.2,0.2,0.5,0.3,0.9,0.3c0.4,0,0.8-0.1,1.1-0.4
													c0.3-0.2,0.4-0.4,0.5-0.7c0.1-0.2,0.1-0.5,0.1-1.1V9z"/>
												<path d="M19.6,13.5l2.5,0.3c0,0.3,0.1,0.5,0.3,0.6c0.2,0.2,0.5,0.2,1,0.2c0.6,0,1-0.1,1.3-0.3c0.2-0.1,0.3-0.3,0.4-0.6
													c0.1-0.2,0.1-0.5,0.1-1v-1.2c-0.7,0.9-1.5,1.3-2.5,1.3c-1.1,0-2-0.5-2.6-1.4c-0.5-0.7-0.8-1.7-0.8-2.8
													c0-1.4,0.3-2.5,1-3.2c0.7-0.7,1.5-1.1,2.5-1.1c1,0,1.9,0.5,2.5,1.4V4.7h2.1v7.4c0,1-0.1,1.7-0.2,2.2
													c-0.2,0.5-0.4,0.9-0.7,1.1c-0.3,0.3-0.7,0.5-1.2,0.6c-0.5,0.2-1.1,0.2-1.8,0.2c-1.4,0-2.4-0.2-3-0.7
													c-0.6-0.5-0.9-1.1-0.9-1.8C19.6,13.7,19.6,13.7,19.6,13.5z M21.6,8.7c0,0.9,0.2,1.5,0.5,1.9c0.3,0.4,0.8,0.6,1.3,0.6
													c0.5,0,1-0.2,1.4-0.6c0.4-0.4,0.6-1,0.6-1.9c0-0.9-0.2-1.5-0.5-1.9c-0.4-0.4-0.8-0.6-1.3-0.6c-0.5,0-1,0.2-1.3,0.6
													C21.8,7.2,21.6,7.8,21.6,8.7z"/>
												<path d="M37.2,13H35V8.8c0-0.9,0-1.5-0.1-1.7s-0.2-0.5-0.5-0.6s-0.5-0.2-0.8-0.2c-0.4,0-0.7,0.1-1,0.3
													C32.3,6.7,32.1,7,32,7.3c-0.1,0.3-0.2,1-0.2,1.9V13h-2.2V4.7h2v1.2c0.7-0.9,1.6-1.4,2.7-1.4c0.5,0,0.9,0.1,1.3,0.3
													c0.4,0.2,0.7,0.4,0.9,0.7C36.8,5.7,37,6,37,6.4c0.1,0.3,0.1,0.8,0.1,1.5V13z"/>
												<path d="M38.9,8.7c0-0.7,0.2-1.4,0.5-2.1s0.9-1.2,1.5-1.6c0.7-0.4,1.4-0.5,2.2-0.5c1.3,0,2.3,0.4,3.1,1.2
													c0.8,0.8,1.2,1.8,1.2,3.1c0,1.3-0.4,2.3-1.2,3.1c-0.8,0.8-1.8,1.2-3.1,1.2c-0.8,0-1.5-0.2-2.2-0.5
													c-0.7-0.3-1.2-0.8-1.6-1.5S38.9,9.7,38.9,8.7z M41.1,8.9c0,0.8,0.2,1.5,0.6,1.9s0.9,0.7,1.4,0.7c0.6,0,1.1-0.2,1.4-0.7
													c0.4-0.4,0.6-1.1,0.6-1.9C45.2,8,45,7.4,44.6,7c-0.4-0.4-0.9-0.7-1.4-0.7c-0.6,0-1.1,0.2-1.4,0.7S41.1,8,41.1,8.9z"/>
												<path d="M48.4,10.6l2.2-0.3c0.1,0.4,0.3,0.8,0.6,1c0.3,0.2,0.7,0.3,1.2,0.3c0.6,0,1-0.1,1.3-0.3
													c0.2-0.1,0.3-0.3,0.3-0.6c0-0.2-0.1-0.3-0.2-0.4c-0.1-0.1-0.4-0.2-0.7-0.3c-1.8-0.4-2.9-0.7-3.4-1.1
													c-0.7-0.4-1-1.1-1-1.9c0-0.7,0.3-1.3,0.9-1.8c0.6-0.5,1.4-0.7,2.6-0.7c1.1,0,2,0.2,2.5,0.6c0.6,0.4,0.9,0.9,1.1,1.6
													l-2.1,0.4c-0.1-0.3-0.3-0.6-0.5-0.7c-0.2-0.2-0.6-0.3-1.1-0.3c-0.6,0-1,0.1-1.2,0.2c-0.2,0.1-0.3,0.3-0.3,0.4
													c0,0.2,0.1,0.3,0.2,0.4c0.2,0.1,0.9,0.4,2.1,0.6c1.2,0.3,2,0.6,2.4,1c0.5,0.4,0.7,0.9,0.7,1.6c0,0.8-0.3,1.4-1,2
													c-0.6,0.5-1.6,0.8-2.8,0.8c-1.1,0-2-0.2-2.7-0.7C49,12,48.6,11.4,48.4,10.6z"/>
												<path d="M58.1,3.6v-2h2.2v2H58.1z M58.1,13V4.7h2.2V13H58.1z"/>
												<path d="M61.7,10.6l2.2-0.3c0.1,0.4,0.3,0.8,0.6,1c0.3,0.2,0.7,0.3,1.2,0.3c0.6,0,1-0.1,1.3-0.3
													c0.2-0.1,0.3-0.3,0.3-0.6c0-0.2-0.1-0.3-0.2-0.4c-0.1-0.1-0.4-0.2-0.7-0.3c-1.8-0.4-2.9-0.7-3.4-1.1
													c-0.7-0.4-1-1.1-1-1.9c0-0.7,0.3-1.3,0.9-1.8c0.6-0.5,1.4-0.7,2.6-0.7c1.1,0,2,0.2,2.5,0.6C68.6,5.4,69,6,69.2,6.7
													l-2.1,0.4c-0.1-0.3-0.3-0.6-0.5-0.7c-0.2-0.2-0.6-0.3-1.1-0.3c-0.6,0-1,0.1-1.2,0.2c-0.2,0.1-0.3,0.3-0.3,0.4
													c0,0.2,0.1,0.3,0.2,0.4c0.2,0.1,0.9,0.4,2.1,0.6c1.2,0.3,2,0.6,2.4,1c0.5,0.4,0.7,0.9,0.7,1.6c0,0.8-0.3,1.4-1,2
													c-0.6,0.5-1.6,0.8-2.8,0.8c-1.1,0-2-0.2-2.7-0.7C62.4,12,61.9,11.4,61.7,10.6z"/>
											</g>
										</g>
									</g>
									<path pointer-events="none" class="st2" d="M0,0"/>
								</g>
							</g>
						</g>
						<path class="st2" d="M0,0"/>
					</g>
				</g>
				<g>
					<g transform="translate(-1,0)">
						<path class="st0" d="M0,0L0,0v300l0,0V0z"/>
						<g>
							<g>
								<g transform="translate(0.5,0.5)">
									<path pointer-events="none" class="st0" d="M0,0L0,0L0,0L0,0z"/>
									<g>
										<g pointer-events="none">
											<line class="st3" x1="0" y1="300" x2="-5" y2="300"/>
											<line class="st3" x1="0" y1="270" x2="-5" y2="270"/>
											<line class="st3" x1="0" y1="240" x2="-5" y2="240"/>
											<line class="st3" x1="0" y1="210" x2="-5" y2="210"/>
											<line class="st3" x1="0" y1="180" x2="-5" y2="180"/>
											<line class="st3" x1="0" y1="150" x2="-5" y2="150"/>
											<line class="st3" x1="0" y1="120" x2="-5" y2="120"/>
											<line class="st3" x1="0" y1="90" x2="-5" y2="90"/>
											<line class="st3" x1="0" y1="60" x2="-5" y2="60"/>
											<line class="st3" x1="0" y1="30" x2="-5" y2="30"/>
											<line class="st3" x1="0" y1="0" x2="-5" y2="0"/>
										</g>
										<g pointer-events="none">
											<g class="st1">
												<path d="M-14.2,299.1c0-1.2,0.1-2.1,0.4-2.9c0.2-0.7,0.6-1.3,1.1-1.7s1.1-0.6,1.8-0.6c0.5,0,1,0.1,1.4,0.3
													c0.4,0.2,0.7,0.5,1,0.9c0.3,0.4,0.5,0.9,0.6,1.5c0.2,0.6,0.2,1.4,0.2,2.4c0,1.2-0.1,2.1-0.4,2.8
													c-0.2,0.7-0.6,1.3-1.1,1.7c-0.5,0.4-1.1,0.6-1.8,0.6c-1,0-1.7-0.3-2.3-1C-13.9,302.3-14.2,300.9-14.2,299.1z
													 M-12.9,299.1c0,1.6,0.2,2.7,0.6,3.3c0.4,0.5,0.9,0.8,1.4,0.8s1-0.3,1.4-0.8s0.6-1.6,0.6-3.3c0-1.6-0.2-2.7-0.6-3.3
													s-0.9-0.8-1.4-0.8c-0.6,0-1,0.2-1.4,0.7C-12.7,296.3-12.9,297.4-12.9,299.1z"/>
											</g>
											<g class="st1">
												<path d="M-25.1,274h-1.2v-7.8c-0.3,0.3-0.7,0.6-1.2,0.8s-0.9,0.5-1.3,0.6v-1.2c0.7-0.3,1.3-0.7,1.8-1.2s0.9-0.9,1.1-1.3
													h0.8V274z"/>
												<path d="M-22,269.1c0-1.2,0.1-2.1,0.4-2.9c0.2-0.7,0.6-1.3,1.1-1.7s1.1-0.6,1.8-0.6c0.5,0,1,0.1,1.4,0.3
													c0.4,0.2,0.7,0.5,1,0.9c0.3,0.4,0.5,0.9,0.6,1.5c0.2,0.6,0.2,1.4,0.2,2.4c0,1.2-0.1,2.1-0.4,2.8
													c-0.2,0.7-0.6,1.3-1.1,1.7c-0.5,0.4-1.1,0.6-1.8,0.6c-1,0-1.7-0.3-2.3-1C-21.7,272.3-22,270.9-22,269.1z M-20.7,269.1
													c0,1.6,0.2,2.7,0.6,3.3c0.4,0.5,0.9,0.8,1.4,0.8s1-0.3,1.4-0.8s0.6-1.6,0.6-3.3c0-1.6-0.2-2.7-0.6-3.3s-0.9-0.8-1.4-0.8
													c-0.6,0-1,0.2-1.4,0.7C-20.5,266.3-20.7,267.4-20.7,269.1z"/>
												<path d="M-14.2,269.1c0-1.2,0.1-2.1,0.4-2.9c0.2-0.7,0.6-1.3,1.1-1.7s1.1-0.6,1.8-0.6c0.5,0,1,0.1,1.4,0.3
													c0.4,0.2,0.7,0.5,1,0.9c0.3,0.4,0.5,0.9,0.6,1.5c0.2,0.6,0.2,1.4,0.2,2.4c0,1.2-0.1,2.1-0.4,2.8
													c-0.2,0.7-0.6,1.3-1.1,1.7c-0.5,0.4-1.1,0.6-1.8,0.6c-1,0-1.7-0.3-2.3-1C-13.9,272.3-14.2,270.9-14.2,269.1z
													 M-12.9,269.1c0,1.6,0.2,2.7,0.6,3.3c0.4,0.5,0.9,0.8,1.4,0.8s1-0.3,1.4-0.8s0.6-1.6,0.6-3.3c0-1.6-0.2-2.7-0.6-3.3
													s-0.9-0.8-1.4-0.8c-0.6,0-1,0.2-1.4,0.7C-12.7,266.3-12.9,267.4-12.9,269.1z"/>
											</g>
											<g class="st1">
												<path d="M-23.3,242.8v1.2h-6.6c0-0.3,0-0.6,0.1-0.9c0.2-0.5,0.4-0.9,0.8-1.3s0.9-0.9,1.6-1.5c1.1-0.9,1.8-1.6,2.2-2.1
													c0.4-0.5,0.6-1,0.6-1.5c0-0.5-0.2-0.9-0.5-1.2c-0.3-0.3-0.8-0.5-1.4-0.5c-0.6,0-1.1,0.2-1.4,0.5s-0.5,0.8-0.5,1.5
													l-1.3-0.1c0.1-0.9,0.4-1.7,1-2.2c0.6-0.5,1.3-0.7,2.3-0.7c1,0,1.7,0.3,2.3,0.8s0.8,1.2,0.8,2c0,0.4-0.1,0.8-0.2,1.2
													s-0.4,0.8-0.8,1.2s-1,1-1.9,1.8c-0.7,0.6-1.2,1-1.4,1.3c-0.2,0.2-0.4,0.4-0.5,0.7H-23.3z"/>
												<path d="M-22,239.1c0-1.2,0.1-2.1,0.4-2.9c0.2-0.7,0.6-1.3,1.1-1.7s1.1-0.6,1.8-0.6c0.5,0,1,0.1,1.4,0.3
													c0.4,0.2,0.7,0.5,1,0.9c0.3,0.4,0.5,0.9,0.6,1.5c0.2,0.6,0.2,1.4,0.2,2.4c0,1.2-0.1,2.1-0.4,2.8
													c-0.2,0.7-0.6,1.3-1.1,1.7c-0.5,0.4-1.1,0.6-1.8,0.6c-1,0-1.7-0.3-2.3-1C-21.7,242.3-22,240.9-22,239.1z M-20.7,239.1
													c0,1.6,0.2,2.7,0.6,3.3c0.4,0.5,0.9,0.8,1.4,0.8s1-0.3,1.4-0.8s0.6-1.6,0.6-3.3c0-1.6-0.2-2.7-0.6-3.3s-0.9-0.8-1.4-0.8
													c-0.6,0-1,0.2-1.4,0.7C-20.5,236.3-20.7,237.4-20.7,239.1z"/>
												<path d="M-14.2,239.1c0-1.2,0.1-2.1,0.4-2.9c0.2-0.7,0.6-1.3,1.1-1.7s1.1-0.6,1.8-0.6c0.5,0,1,0.1,1.4,0.3
													c0.4,0.2,0.7,0.5,1,0.9c0.3,0.4,0.5,0.9,0.6,1.5c0.2,0.6,0.2,1.4,0.2,2.4c0,1.2-0.1,2.1-0.4,2.8
													c-0.2,0.7-0.6,1.3-1.1,1.7c-0.5,0.4-1.1,0.6-1.8,0.6c-1,0-1.7-0.3-2.3-1C-13.9,242.3-14.2,240.9-14.2,239.1z
													 M-12.9,239.1c0,1.6,0.2,2.7,0.6,3.3c0.4,0.5,0.9,0.8,1.4,0.8s1-0.3,1.4-0.8s0.6-1.6,0.6-3.3c0-1.6-0.2-2.7-0.6-3.3
													s-0.9-0.8-1.4-0.8c-0.6,0-1,0.2-1.4,0.7C-12.7,236.3-12.9,237.4-12.9,239.1z"/>
											</g>
											<g class="st1">
												<path d="M-29.8,211.4l1.2-0.2c0.1,0.7,0.4,1.2,0.7,1.5c0.3,0.3,0.8,0.5,1.2,0.5c0.6,0,1.1-0.2,1.5-0.6s0.6-0.9,0.6-1.5
													c0-0.6-0.2-1-0.6-1.4c-0.4-0.4-0.8-0.6-1.4-0.6c-0.2,0-0.5,0-0.9,0.1l0.1-1.1c0.1,0,0.1,0,0.2,0c0.5,0,1-0.1,1.4-0.4
													s0.6-0.7,0.6-1.3c0-0.5-0.2-0.8-0.5-1.1s-0.7-0.4-1.2-0.4c-0.5,0-0.9,0.2-1.2,0.5s-0.5,0.8-0.6,1.4l-1.2-0.2
													c0.2-0.8,0.5-1.5,1-1.9c0.5-0.5,1.2-0.7,2-0.7c0.5,0,1.1,0.1,1.5,0.4c0.5,0.2,0.8,0.6,1.1,1s0.4,0.8,0.4,1.3
													c0,0.4-0.1,0.8-0.3,1.2s-0.6,0.6-1,0.8c0.6,0.1,1.1,0.4,1.4,0.9c0.3,0.4,0.5,1,0.5,1.6c0,0.9-0.3,1.6-1,2.2
													c-0.6,0.6-1.4,0.9-2.4,0.9c-0.9,0-1.6-0.3-2.2-0.8S-29.7,212.2-29.8,211.4z"/>
												<path d="M-22,209.1c0-1.2,0.1-2.1,0.4-2.9c0.2-0.7,0.6-1.3,1.1-1.7s1.1-0.6,1.8-0.6c0.5,0,1,0.1,1.4,0.3
													c0.4,0.2,0.7,0.5,1,0.9c0.3,0.4,0.5,0.9,0.6,1.5c0.2,0.6,0.2,1.4,0.2,2.4c0,1.2-0.1,2.1-0.4,2.8
													c-0.2,0.7-0.6,1.3-1.1,1.7c-0.5,0.4-1.1,0.6-1.8,0.6c-1,0-1.7-0.3-2.3-1C-21.7,212.3-22,210.9-22,209.1z M-20.7,209.1
													c0,1.6,0.2,2.7,0.6,3.3c0.4,0.5,0.9,0.8,1.4,0.8s1-0.3,1.4-0.8s0.6-1.6,0.6-3.3c0-1.6-0.2-2.7-0.6-3.3s-0.9-0.8-1.4-0.8
													c-0.6,0-1,0.2-1.4,0.7C-20.5,206.3-20.7,207.4-20.7,209.1z"/>
												<path d="M-14.2,209.1c0-1.2,0.1-2.1,0.4-2.9c0.2-0.7,0.6-1.3,1.1-1.7s1.1-0.6,1.8-0.6c0.5,0,1,0.1,1.4,0.3
													c0.4,0.2,0.7,0.5,1,0.9c0.3,0.4,0.5,0.9,0.6,1.5c0.2,0.6,0.2,1.4,0.2,2.4c0,1.2-0.1,2.1-0.4,2.8
													c-0.2,0.7-0.6,1.3-1.1,1.7c-0.5,0.4-1.1,0.6-1.8,0.6c-1,0-1.7-0.3-2.3-1C-13.9,212.3-14.2,210.9-14.2,209.1z
													 M-12.9,209.1c0,1.6,0.2,2.7,0.6,3.3c0.4,0.5,0.9,0.8,1.4,0.8s1-0.3,1.4-0.8s0.6-1.6,0.6-3.3c0-1.6-0.2-2.7-0.6-3.3
													s-0.9-0.8-1.4-0.8c-0.6,0-1,0.2-1.4,0.7C-12.7,206.3-12.9,207.4-12.9,209.1z"/>
											</g>
											<g class="st1">
												<path d="M-25.8,184v-2.4h-4.3v-1.1l4.6-6.5h1v6.5h1.4v1.1h-1.4v2.4H-25.8z M-25.8,180.5V176l-3.1,4.5H-25.8z"/>
												<path d="M-22,179.1c0-1.2,0.1-2.1,0.4-2.9c0.2-0.7,0.6-1.3,1.1-1.7s1.1-0.6,1.8-0.6c0.5,0,1,0.1,1.4,0.3
													c0.4,0.2,0.7,0.5,1,0.9c0.3,0.4,0.5,0.9,0.6,1.5c0.2,0.6,0.2,1.4,0.2,2.4c0,1.2-0.1,2.1-0.4,2.8
													c-0.2,0.7-0.6,1.3-1.1,1.7c-0.5,0.4-1.1,0.6-1.8,0.6c-1,0-1.7-0.3-2.3-1C-21.7,182.3-22,180.9-22,179.1z M-20.7,179.1
													c0,1.6,0.2,2.7,0.6,3.3c0.4,0.5,0.9,0.8,1.4,0.8s1-0.3,1.4-0.8s0.6-1.6,0.6-3.3c0-1.6-0.2-2.7-0.6-3.3s-0.9-0.8-1.4-0.8
													c-0.6,0-1,0.2-1.4,0.7C-20.5,176.3-20.7,177.4-20.7,179.1z"/>
												<path d="M-14.2,179.1c0-1.2,0.1-2.1,0.4-2.9c0.2-0.7,0.6-1.3,1.1-1.7s1.1-0.6,1.8-0.6c0.5,0,1,0.1,1.4,0.3
													c0.4,0.2,0.7,0.5,1,0.9c0.3,0.4,0.5,0.9,0.6,1.5c0.2,0.6,0.2,1.4,0.2,2.4c0,1.2-0.1,2.1-0.4,2.8
													c-0.2,0.7-0.6,1.3-1.1,1.7c-0.5,0.4-1.1,0.6-1.8,0.6c-1,0-1.7-0.3-2.3-1C-13.9,182.3-14.2,180.9-14.2,179.1z
													 M-12.9,179.1c0,1.6,0.2,2.7,0.6,3.3c0.4,0.5,0.9,0.8,1.4,0.8s1-0.3,1.4-0.8s0.6-1.6,0.6-3.3c0-1.6-0.2-2.7-0.6-3.3
													s-0.9-0.8-1.4-0.8c-0.6,0-1,0.2-1.4,0.7C-12.7,176.3-12.9,177.4-12.9,179.1z"/>
											</g>
											<g class="st1">
												<path d="M-29.8,151.4l1.3-0.1c0.1,0.6,0.3,1.1,0.7,1.4c0.3,0.3,0.8,0.5,1.3,0.5c0.6,0,1.1-0.2,1.5-0.7s0.6-1,0.6-1.8
													c0-0.7-0.2-1.3-0.6-1.7s-0.9-0.6-1.5-0.6c-0.4,0-0.8,0.1-1.1,0.3c-0.3,0.2-0.6,0.4-0.8,0.7l-1.2-0.2l1-5.1h5v1.2h-4
													l-0.5,2.7c0.6-0.4,1.2-0.6,1.9-0.6c0.9,0,1.6,0.3,2.2,0.9s0.9,1.4,0.9,2.3c0,0.9-0.3,1.7-0.8,2.4
													c-0.6,0.8-1.5,1.2-2.6,1.2c-0.9,0-1.7-0.3-2.2-0.8S-29.7,152.2-29.8,151.4z"/>
												<path d="M-22,149.1c0-1.2,0.1-2.1,0.4-2.9c0.2-0.7,0.6-1.3,1.1-1.7s1.1-0.6,1.8-0.6c0.5,0,1,0.1,1.4,0.3
													c0.4,0.2,0.7,0.5,1,0.9c0.3,0.4,0.5,0.9,0.6,1.5c0.2,0.6,0.2,1.4,0.2,2.4c0,1.2-0.1,2.1-0.4,2.8
													c-0.2,0.7-0.6,1.3-1.1,1.7c-0.5,0.4-1.1,0.6-1.8,0.6c-1,0-1.7-0.3-2.3-1C-21.7,152.3-22,150.9-22,149.1z M-20.7,149.1
													c0,1.6,0.2,2.7,0.6,3.3c0.4,0.5,0.9,0.8,1.4,0.8s1-0.3,1.4-0.8s0.6-1.6,0.6-3.3c0-1.6-0.2-2.7-0.6-3.3s-0.9-0.8-1.4-0.8
													c-0.6,0-1,0.2-1.4,0.7C-20.5,146.3-20.7,147.4-20.7,149.1z"/>
												<path d="M-14.2,149.1c0-1.2,0.1-2.1,0.4-2.9c0.2-0.7,0.6-1.3,1.1-1.7s1.1-0.6,1.8-0.6c0.5,0,1,0.1,1.4,0.3
													c0.4,0.2,0.7,0.5,1,0.9c0.3,0.4,0.5,0.9,0.6,1.5c0.2,0.6,0.2,1.4,0.2,2.4c0,1.2-0.1,2.1-0.4,2.8
													c-0.2,0.7-0.6,1.3-1.1,1.7c-0.5,0.4-1.1,0.6-1.8,0.6c-1,0-1.7-0.3-2.3-1C-13.9,152.3-14.2,150.9-14.2,149.1z
													 M-12.9,149.1c0,1.6,0.2,2.7,0.6,3.3c0.4,0.5,0.9,0.8,1.4,0.8s1-0.3,1.4-0.8s0.6-1.6,0.6-3.3c0-1.6-0.2-2.7-0.6-3.3
													s-0.9-0.8-1.4-0.8c-0.6,0-1,0.2-1.4,0.7C-12.7,146.3-12.9,147.4-12.9,149.1z"/>
											</g>
											<g class="st1">
												<path d="M-23.4,116.4l-1.2,0.1c-0.1-0.5-0.3-0.8-0.5-1.1c-0.3-0.4-0.7-0.5-1.2-0.5c-0.4,0-0.7,0.1-1,0.3
													c-0.4,0.3-0.7,0.7-0.9,1.2s-0.3,1.3-0.3,2.3c0.3-0.5,0.7-0.8,1.1-1s0.9-0.3,1.3-0.3c0.8,0,1.5,0.3,2.1,0.9
													c0.6,0.6,0.9,1.4,0.9,2.3c0,0.6-0.1,1.2-0.4,1.8c-0.3,0.5-0.6,1-1.1,1.2s-1,0.4-1.6,0.4c-1,0-1.9-0.4-2.5-1.1
													c-0.6-0.8-1-2-1-3.7c0-1.9,0.4-3.3,1.1-4.2c0.6-0.8,1.5-1.1,2.5-1.1c0.8,0,1.4,0.2,1.9,0.7S-23.5,115.7-23.4,116.4z
													 M-28.4,120.8c0,0.4,0.1,0.8,0.3,1.2s0.4,0.7,0.8,0.9c0.3,0.2,0.7,0.3,1,0.3c0.5,0,1-0.2,1.3-0.6s0.6-1,0.6-1.7
													c0-0.7-0.2-1.2-0.6-1.6c-0.4-0.4-0.8-0.6-1.4-0.6c-0.6,0-1,0.2-1.4,0.6C-28.2,119.6-28.4,120.1-28.4,120.8z"/>
												<path d="M-22,119.1c0-1.2,0.1-2.1,0.4-2.9c0.2-0.7,0.6-1.3,1.1-1.7s1.1-0.6,1.8-0.6c0.5,0,1,0.1,1.4,0.3
													c0.4,0.2,0.7,0.5,1,0.9c0.3,0.4,0.5,0.9,0.6,1.5c0.2,0.6,0.2,1.4,0.2,2.4c0,1.2-0.1,2.1-0.4,2.8
													c-0.2,0.7-0.6,1.3-1.1,1.7c-0.5,0.4-1.1,0.6-1.8,0.6c-1,0-1.7-0.3-2.3-1C-21.7,122.3-22,120.9-22,119.1z M-20.7,119.1
													c0,1.6,0.2,2.7,0.6,3.3c0.4,0.5,0.9,0.8,1.4,0.8s1-0.3,1.4-0.8s0.6-1.6,0.6-3.3c0-1.6-0.2-2.7-0.6-3.3s-0.9-0.8-1.4-0.8
													c-0.6,0-1,0.2-1.4,0.7C-20.5,116.3-20.7,117.4-20.7,119.1z"/>
												<path d="M-14.2,119.1c0-1.2,0.1-2.1,0.4-2.9c0.2-0.7,0.6-1.3,1.1-1.7s1.1-0.6,1.8-0.6c0.5,0,1,0.1,1.4,0.3
													c0.4,0.2,0.7,0.5,1,0.9c0.3,0.4,0.5,0.9,0.6,1.5c0.2,0.6,0.2,1.4,0.2,2.4c0,1.2-0.1,2.1-0.4,2.8
													c-0.2,0.7-0.6,1.3-1.1,1.7c-0.5,0.4-1.1,0.6-1.8,0.6c-1,0-1.7-0.3-2.3-1C-13.9,122.3-14.2,120.9-14.2,119.1z
													 M-12.9,119.1c0,1.6,0.2,2.7,0.6,3.3c0.4,0.5,0.9,0.8,1.4,0.8s1-0.3,1.4-0.8s0.6-1.6,0.6-3.3c0-1.6-0.2-2.7-0.6-3.3
													s-0.9-0.8-1.4-0.8c-0.6,0-1,0.2-1.4,0.7C-12.7,116.3-12.9,117.4-12.9,119.1z"/>
											</g>
											<g class="st1">
												<path d="M-29.7,85.3v-1.2h6.5v1c-0.6,0.7-1.3,1.6-1.9,2.7s-1.1,2.3-1.5,3.5C-26.8,92.1-27,93-27,94h-1.3
													c0-0.8,0.2-1.7,0.5-2.9s0.7-2.2,1.3-3.2c0.6-1,1.1-1.9,1.8-2.6H-29.7z"/>
												<path d="M-22,89.1c0-1.2,0.1-2.1,0.4-2.9c0.2-0.7,0.6-1.3,1.1-1.7s1.1-0.6,1.8-0.6c0.5,0,1,0.1,1.4,0.3
													c0.4,0.2,0.7,0.5,1,0.9c0.3,0.4,0.5,0.9,0.6,1.5c0.2,0.6,0.2,1.4,0.2,2.4c0,1.2-0.1,2.1-0.4,2.8
													c-0.2,0.7-0.6,1.3-1.1,1.7c-0.5,0.4-1.1,0.6-1.8,0.6c-1,0-1.7-0.3-2.3-1C-21.7,92.3-22,90.9-22,89.1z M-20.7,89.1
													c0,1.6,0.2,2.7,0.6,3.3c0.4,0.5,0.9,0.8,1.4,0.8s1-0.3,1.4-0.8s0.6-1.6,0.6-3.3c0-1.6-0.2-2.7-0.6-3.3s-0.9-0.8-1.4-0.8
													c-0.6,0-1,0.2-1.4,0.7C-20.5,86.3-20.7,87.4-20.7,89.1z"/>
												<path d="M-14.2,89.1c0-1.2,0.1-2.1,0.4-2.9c0.2-0.7,0.6-1.3,1.1-1.7s1.1-0.6,1.8-0.6c0.5,0,1,0.1,1.4,0.3
													c0.4,0.2,0.7,0.5,1,0.9c0.3,0.4,0.5,0.9,0.6,1.5c0.2,0.6,0.2,1.4,0.2,2.4c0,1.2-0.1,2.1-0.4,2.8
													c-0.2,0.7-0.6,1.3-1.1,1.7c-0.5,0.4-1.1,0.6-1.8,0.6c-1,0-1.7-0.3-2.3-1C-13.9,92.3-14.2,90.9-14.2,89.1z M-12.9,89.1
													c0,1.6,0.2,2.7,0.6,3.3c0.4,0.5,0.9,0.8,1.4,0.8s1-0.3,1.4-0.8s0.6-1.6,0.6-3.3c0-1.6-0.2-2.7-0.6-3.3S-10.4,85-11,85
													c-0.6,0-1,0.2-1.4,0.7C-12.7,86.3-12.9,87.4-12.9,89.1z"/>
											</g>
											<g class="st1">
												<path d="M-27.9,58.6c-0.5-0.2-0.9-0.5-1.1-0.8s-0.4-0.8-0.4-1.2c0-0.7,0.3-1.3,0.8-1.8s1.2-0.7,2.1-0.7
													c0.9,0,1.6,0.3,2.1,0.8c0.5,0.5,0.8,1.1,0.8,1.9c0,0.5-0.1,0.9-0.4,1.2c-0.2,0.3-0.6,0.6-1.1,0.8c0.6,0.2,1.1,0.5,1.4,1
													s0.5,1,0.5,1.6c0,0.9-0.3,1.6-0.9,2.2s-1.4,0.9-2.4,0.9s-1.8-0.3-2.4-0.9c-0.6-0.6-0.9-1.3-0.9-2.2
													c0-0.7,0.2-1.2,0.5-1.6C-29,59-28.5,58.7-27.9,58.6z M-28.5,61.1c0,0.4,0.1,0.7,0.2,1s0.4,0.6,0.7,0.8
													c0.3,0.2,0.7,0.3,1.1,0.3c0.6,0,1.1-0.2,1.5-0.6s0.6-0.9,0.6-1.4c0-0.6-0.2-1.1-0.6-1.5s-0.9-0.6-1.5-0.6
													c-0.6,0-1.1,0.2-1.4,0.6S-28.5,60.5-28.5,61.1z M-28.1,56.5c0,0.5,0.2,0.9,0.5,1.2s0.7,0.5,1.2,0.5
													c0.5,0,0.9-0.1,1.2-0.4c0.3-0.3,0.5-0.7,0.5-1.1c0-0.5-0.2-0.8-0.5-1.1c-0.3-0.3-0.7-0.5-1.2-0.5
													c-0.5,0-0.9,0.2-1.2,0.5S-28.1,56.1-28.1,56.5z"/>
												<path d="M-22,59.1c0-1.2,0.1-2.1,0.4-2.9c0.2-0.7,0.6-1.3,1.1-1.7s1.1-0.6,1.8-0.6c0.5,0,1,0.1,1.4,0.3
													c0.4,0.2,0.7,0.5,1,0.9c0.3,0.4,0.5,0.9,0.6,1.5c0.2,0.6,0.2,1.4,0.2,2.4c0,1.2-0.1,2.1-0.4,2.8
													c-0.2,0.7-0.6,1.3-1.1,1.7c-0.5,0.4-1.1,0.6-1.8,0.6c-1,0-1.7-0.3-2.3-1C-21.7,62.3-22,60.9-22,59.1z M-20.7,59.1
													c0,1.6,0.2,2.7,0.6,3.3c0.4,0.5,0.9,0.8,1.4,0.8s1-0.3,1.4-0.8s0.6-1.6,0.6-3.3c0-1.6-0.2-2.7-0.6-3.3s-0.9-0.8-1.4-0.8
													c-0.6,0-1,0.2-1.4,0.7C-20.5,56.3-20.7,57.4-20.7,59.1z"/>
												<path d="M-14.2,59.1c0-1.2,0.1-2.1,0.4-2.9c0.2-0.7,0.6-1.3,1.1-1.7s1.1-0.6,1.8-0.6c0.5,0,1,0.1,1.4,0.3
													c0.4,0.2,0.7,0.5,1,0.9c0.3,0.4,0.5,0.9,0.6,1.5c0.2,0.6,0.2,1.4,0.2,2.4c0,1.2-0.1,2.1-0.4,2.8
													c-0.2,0.7-0.6,1.3-1.1,1.7c-0.5,0.4-1.1,0.6-1.8,0.6c-1,0-1.7-0.3-2.3-1C-13.9,62.3-14.2,60.9-14.2,59.1z M-12.9,59.1
													c0,1.6,0.2,2.7,0.6,3.3c0.4,0.5,0.9,0.8,1.4,0.8s1-0.3,1.4-0.8s0.6-1.6,0.6-3.3c0-1.6-0.2-2.7-0.6-3.3S-10.4,55-11,55
													c-0.6,0-1,0.2-1.4,0.7C-12.7,56.3-12.9,57.4-12.9,59.1z"/>
											</g>
											<g class="st1">
												<path d="M-29.6,31.7l1.2-0.1c0.1,0.6,0.3,1,0.6,1.2s0.6,0.4,1.1,0.4c0.4,0,0.7-0.1,1-0.3s0.5-0.4,0.7-0.7
													c0.2-0.3,0.3-0.7,0.5-1.2s0.2-1,0.2-1.5c0-0.1,0-0.1,0-0.2c-0.2,0.4-0.6,0.7-1,1c-0.4,0.2-0.9,0.4-1.4,0.4
													c-0.8,0-1.5-0.3-2.1-0.9s-0.9-1.4-0.9-2.4c0-1,0.3-1.8,0.9-2.5s1.4-0.9,2.3-0.9c0.7,0,1.2,0.2,1.8,0.5s1,0.9,1.2,1.5
													c0.3,0.6,0.4,1.6,0.4,2.8c0,1.3-0.1,2.3-0.4,3.1c-0.3,0.8-0.7,1.3-1.2,1.7s-1.2,0.6-1.9,0.6c-0.8,0-1.4-0.2-1.9-0.7
													C-29.2,33.1-29.5,32.5-29.6,31.7z M-24.6,27.3c0-0.7-0.2-1.3-0.6-1.7s-0.8-0.6-1.4-0.6c-0.5,0-1,0.2-1.4,0.7
													s-0.6,1-0.6,1.7c0,0.6,0.2,1.2,0.6,1.6c0.4,0.4,0.9,0.6,1.4,0.6c0.6,0,1-0.2,1.4-0.6C-24.7,28.5-24.6,28-24.6,27.3z"/>
												<path d="M-22,29.1c0-1.2,0.1-2.1,0.4-2.9c0.2-0.7,0.6-1.3,1.1-1.7s1.1-0.6,1.8-0.6c0.5,0,1,0.1,1.4,0.3
													c0.4,0.2,0.7,0.5,1,0.9c0.3,0.4,0.5,0.9,0.6,1.5c0.2,0.6,0.2,1.4,0.2,2.4c0,1.2-0.1,2.1-0.4,2.8
													c-0.2,0.7-0.6,1.3-1.1,1.7c-0.5,0.4-1.1,0.6-1.8,0.6c-1,0-1.7-0.3-2.3-1C-21.7,32.3-22,30.9-22,29.1z M-20.7,29.1
													c0,1.6,0.2,2.7,0.6,3.3c0.4,0.5,0.9,0.8,1.4,0.8s1-0.3,1.4-0.8s0.6-1.6,0.6-3.3c0-1.6-0.2-2.7-0.6-3.3s-0.9-0.8-1.4-0.8
													c-0.6,0-1,0.2-1.4,0.7C-20.5,26.3-20.7,27.4-20.7,29.1z"/>
												<path d="M-14.2,29.1c0-1.2,0.1-2.1,0.4-2.9c0.2-0.7,0.6-1.3,1.1-1.7s1.1-0.6,1.8-0.6c0.5,0,1,0.1,1.4,0.3
													c0.4,0.2,0.7,0.5,1,0.9c0.3,0.4,0.5,0.9,0.6,1.5c0.2,0.6,0.2,1.4,0.2,2.4c0,1.2-0.1,2.1-0.4,2.8
													c-0.2,0.7-0.6,1.3-1.1,1.7c-0.5,0.4-1.1,0.6-1.8,0.6c-1,0-1.7-0.3-2.3-1C-13.9,32.3-14.2,30.9-14.2,29.1z M-12.9,29.1
													c0,1.6,0.2,2.7,0.6,3.3c0.4,0.5,0.9,0.8,1.4,0.8s1-0.3,1.4-0.8s0.6-1.6,0.6-3.3c0-1.6-0.2-2.7-0.6-3.3S-10.4,25-11,25
													c-0.6,0-1,0.2-1.4,0.7C-12.7,26.3-12.9,27.4-12.9,29.1z"/>
											</g>
											<g class="st1">
												<path d="M-36.8,4H-38v-7.8c-0.3,0.3-0.7,0.6-1.2,0.8s-0.9,0.5-1.3,0.6v-1.2c0.7-0.3,1.3-0.7,1.8-1.2s0.9-0.9,1.1-1.3
													h0.8V4z"/>
												<path d="M-33,4V2.6h1.4V4c0,0.5-0.1,0.9-0.3,1.2c-0.2,0.3-0.5,0.6-0.9,0.7l-0.3-0.5c0.3-0.1,0.5-0.3,0.6-0.5
													c0.1-0.2,0.2-0.5,0.2-1H-33z"/>
												<path d="M-29.8-0.9c0-1.2,0.1-2.1,0.4-2.9c0.2-0.7,0.6-1.3,1.1-1.7s1.1-0.6,1.8-0.6c0.5,0,1,0.1,1.4,0.3
													c0.4,0.2,0.7,0.5,1,0.9c0.3,0.4,0.5,0.9,0.6,1.5c0.2,0.6,0.2,1.4,0.2,2.4c0,1.2-0.1,2.1-0.4,2.8
													c-0.2,0.7-0.6,1.3-1.1,1.7c-0.5,0.4-1.1,0.6-1.8,0.6c-1,0-1.7-0.3-2.3-1C-29.4,2.3-29.8,0.9-29.8-0.9z M-28.5-0.9
													c0,1.6,0.2,2.7,0.6,3.3c0.4,0.5,0.9,0.8,1.4,0.8s1-0.3,1.4-0.8s0.6-1.6,0.6-3.3c0-1.6-0.2-2.7-0.6-3.3S-25.9-5-26.5-5
													c-0.6,0-1,0.2-1.4,0.7C-28.3-3.7-28.5-2.6-28.5-0.9z"/>
												<path d="M-22-0.9c0-1.2,0.1-2.1,0.4-2.9c0.2-0.7,0.6-1.3,1.1-1.7s1.1-0.6,1.8-0.6c0.5,0,1,0.1,1.4,0.3
													c0.4,0.2,0.7,0.5,1,0.9c0.3,0.4,0.5,0.9,0.6,1.5c0.2,0.6,0.2,1.4,0.2,2.4c0,1.2-0.1,2.1-0.4,2.8
													c-0.2,0.7-0.6,1.3-1.1,1.7C-17.4,4-18,4.2-18.7,4.2c-1,0-1.7-0.3-2.3-1C-21.7,2.3-22,0.9-22-0.9z M-20.7-0.9
													c0,1.6,0.2,2.7,0.6,3.3c0.4,0.5,0.9,0.8,1.4,0.8s1-0.3,1.4-0.8s0.6-1.6,0.6-3.3c0-1.6-0.2-2.7-0.6-3.3S-18.2-5-18.7-5
													c-0.6,0-1,0.2-1.4,0.7C-20.5-3.7-20.7-2.6-20.7-0.9z"/>
												<path d="M-14.2-0.9c0-1.2,0.1-2.1,0.4-2.9c0.2-0.7,0.6-1.3,1.1-1.7s1.1-0.6,1.8-0.6c0.5,0,1,0.1,1.4,0.3
													c0.4,0.2,0.7,0.5,1,0.9C-8.3-4.4-8-3.9-7.9-3.3c0.2,0.6,0.2,1.4,0.2,2.4c0,1.2-0.1,2.1-0.4,2.8
													c-0.2,0.7-0.6,1.3-1.1,1.7c-0.5,0.4-1.1,0.6-1.8,0.6c-1,0-1.7-0.3-2.3-1C-13.9,2.3-14.2,0.9-14.2-0.9z M-12.9-0.9
													c0,1.6,0.2,2.7,0.6,3.3c0.4,0.5,0.9,0.8,1.4,0.8s1-0.3,1.4-0.8s0.6-1.6,0.6-3.3c0-1.6-0.2-2.7-0.6-3.3S-10.4-5-11-5
													c-0.6,0-1,0.2-1.4,0.7C-12.7-3.7-12.9-2.6-12.9-0.9z"/>
											</g>
										</g>
										<g pointer-events="none">
											<line class="st3" x1="0" y1="300" x2="0" y2="0"/>
										</g>
										<g pointer-events="none">
											<g class="st1">
												<path d="M-53.9,205l0.7-2.1c1.2,0.3,2,0.9,2.6,1.6c0.6,0.8,0.9,1.7,0.9,2.9c0,1.4-0.5,2.6-1.5,3.5c-1,0.9-2.3,1.4-4,1.4
													c-1.8,0-3.2-0.5-4.2-1.4c-1-0.9-1.5-2.1-1.5-3.6c0-1.3,0.4-2.4,1.2-3.2c0.5-0.5,1.1-0.9,2-1.1l0.5,2.1
													c-0.6,0.1-1,0.4-1.3,0.8c-0.3,0.4-0.5,0.9-0.5,1.5c0,0.8,0.3,1.4,0.9,1.9c0.6,0.5,1.5,0.7,2.8,0.7
													c1.4,0,2.3-0.2,2.9-0.7s0.9-1.1,0.9-1.9c0-0.6-0.2-1.1-0.5-1.5C-52.6,205.4-53.2,205.1-53.9,205z"/>
												<path d="M-54,201.5c-0.7,0-1.3-0.2-2-0.5c-0.6-0.3-1.1-0.8-1.5-1.4c-0.3-0.6-0.5-1.3-0.5-2.1c0-1.2,0.4-2.1,1.1-2.9
													c0.8-0.8,1.7-1.1,2.9-1.1c1.2,0,2.2,0.4,2.9,1.1c0.8,0.8,1.2,1.7,1.2,2.9c0,0.7-0.2,1.4-0.5,2s-0.8,1.1-1.4,1.5
													C-52.3,201.3-53.1,201.5-54,201.5z M-53.9,199.4c0.8,0,1.4-0.2,1.8-0.5s0.6-0.8,0.6-1.4s-0.2-1-0.6-1.4
													c-0.4-0.4-1-0.5-1.8-0.5c-0.8,0-1.3,0.2-1.8,0.5c-0.4,0.4-0.6,0.8-0.6,1.4s0.2,1,0.6,1.4S-54.7,199.4-53.9,199.4z"/>
												<path d="M-50,186.7h-1.2c0.4,0.3,0.7,0.7,1,1.1c0.2,0.5,0.4,0.9,0.4,1.5c0,0.5-0.1,1-0.3,1.4c-0.2,0.4-0.6,0.7-1,0.9
													s-1,0.3-1.7,0.3h-4.9v-2.1h3.6c1.1,0,1.8,0,2-0.1c0.2-0.1,0.4-0.2,0.6-0.4c0.1-0.2,0.2-0.5,0.2-0.8
													c0-0.4-0.1-0.7-0.3-0.9c-0.2-0.3-0.4-0.5-0.7-0.6c-0.3-0.1-1-0.2-2.1-0.2h-3.3v-2.1h7.8V186.7z"/>
												<path d="M-50,175.6v2.1h-4c-0.8,0-1.4,0-1.6,0.1c-0.2,0.1-0.4,0.2-0.6,0.4s-0.2,0.4-0.2,0.7c0,0.4,0.1,0.7,0.3,1
													s0.5,0.5,0.8,0.6c0.3,0.1,0.9,0.2,1.8,0.2h3.5v2.1h-7.8v-1.9h1.1c-0.9-0.7-1.3-1.5-1.3-2.6c0-0.5,0.1-0.9,0.2-1.2
													c0.2-0.4,0.4-0.7,0.6-0.9s0.5-0.3,0.9-0.4c0.3-0.1,0.8-0.1,1.4-0.1H-50z"/>
												<path d="M-57.8,170h1.6v1.4h3.1c0.6,0,1,0,1.1,0c0.1,0,0.2-0.1,0.3-0.2c0.1-0.1,0.1-0.2,0.1-0.3c0-0.2-0.1-0.5-0.2-0.8
													l1.6-0.2c0.2,0.5,0.3,1,0.3,1.6c0,0.4-0.1,0.7-0.2,1c-0.1,0.3-0.3,0.5-0.5,0.7c-0.2,0.1-0.5,0.2-0.8,0.3
													c-0.2,0-0.7,0.1-1.4,0.1h-3.4v0.9h-1.6v-0.9h-1.5l-1.2-2.1h2.7V170z"/>
												<path d="M-54,164.8c-0.7,0-1.3-0.2-2-0.5c-0.6-0.3-1.1-0.8-1.5-1.4c-0.3-0.6-0.5-1.3-0.5-2.1c0-1.2,0.4-2.1,1.1-2.9
													c0.8-0.8,1.7-1.1,2.9-1.1c1.2,0,2.2,0.4,2.9,1.1c0.8,0.8,1.2,1.7,1.2,2.9c0,0.7-0.2,1.4-0.5,2s-0.8,1.1-1.4,1.5
													C-52.3,164.7-53.1,164.8-54,164.8z M-53.9,162.7c0.8,0,1.4-0.2,1.8-0.5s0.6-0.8,0.6-1.4s-0.2-1-0.6-1.4
													c-0.4-0.4-1-0.5-1.8-0.5c-0.8,0-1.3,0.2-1.8,0.5c-0.4,0.4-0.6,0.8-0.6,1.4s0.2,1,0.6,1.4S-54.7,162.7-53.9,162.7z"/>
												<path d="M-57.8,156.1V155h-0.6c-0.7,0-1.1-0.1-1.5-0.2c-0.3-0.1-0.6-0.4-0.8-0.8c-0.2-0.4-0.3-0.8-0.3-1.4
													c0-0.6,0.1-1.2,0.3-1.7l1.4,0.3c-0.1,0.3-0.1,0.6-0.1,0.9c0,0.3,0.1,0.5,0.2,0.6c0.1,0.1,0.4,0.2,0.8,0.2h0.5v-1.5h1.6
													v1.5h6.2v2.1h-6.2v1.1H-57.8z"/>
												<path d="M-50,146h-10.7v-4.6c0-1.1,0.1-2,0.3-2.5c0.2-0.5,0.5-0.9,1-1.2s1.1-0.5,1.7-0.5c0.8,0,1.5,0.2,2,0.7
													c0.5,0.5,0.9,1.2,1,2.1c0.3-0.5,0.6-0.9,0.9-1.2c0.3-0.3,0.9-0.7,1.7-1.2l2.1-1.3v2.6l-2.3,1.6
													c-0.8,0.6-1.4,0.9-1.6,1.1c-0.2,0.2-0.4,0.4-0.4,0.7c-0.1,0.2-0.1,0.6-0.1,1.1v0.4h4.5V146z M-56.2,143.8v-1.6
													c0-1,0-1.7-0.1-1.9s-0.2-0.5-0.5-0.6s-0.5-0.2-0.8-0.2c-0.4,0-0.7,0.1-0.9,0.3c-0.2,0.2-0.4,0.5-0.4,0.8
													c0,0.2,0,0.7,0,1.6v1.7H-56.2z"/>
												<path d="M-52.5,130.7l0.3-2.1c0.8,0.3,1.3,0.7,1.7,1.2c0.4,0.6,0.6,1.3,0.6,2.1c0,1.4-0.4,2.4-1.3,3
													c-0.7,0.5-1.6,0.8-2.7,0.8c-1.3,0-2.3-0.3-3-1c-0.7-0.7-1.1-1.5-1.1-2.6c0-1.2,0.4-2.1,1.1-2.7c0.8-0.7,1.9-1,3.5-1v5.2
													c0.6,0,1.1-0.2,1.4-0.5c0.3-0.3,0.5-0.7,0.5-1.2c0-0.3-0.1-0.6-0.3-0.8S-52.1,130.8-52.5,130.7z M-54.6,130.6
													c-0.6,0-1,0.2-1.4,0.5c-0.3,0.3-0.5,0.6-0.5,1.1c0,0.4,0.2,0.8,0.5,1.1s0.8,0.4,1.3,0.4V130.6z"/>
												<path d="M-55.5,120.1l0.4,2c-0.4,0.1-0.7,0.2-0.9,0.5c-0.2,0.2-0.3,0.6-0.3,0.9c0,0.5,0.2,0.9,0.5,1.2
													c0.4,0.3,0.9,0.5,1.8,0.5c0.9,0,1.6-0.2,2-0.5s0.6-0.7,0.6-1.2c0-0.4-0.1-0.7-0.3-1c-0.2-0.2-0.6-0.4-1.1-0.5l0.3-2
													c0.9,0.2,1.6,0.6,2.1,1.2c0.5,0.6,0.7,1.4,0.7,2.4c0,1.1-0.4,2-1.1,2.7c-0.7,0.7-1.7,1-3,1c-1.3,0-2.3-0.3-3-1
													c-0.7-0.7-1.1-1.6-1.1-2.8c0-0.9,0.2-1.7,0.6-2.3C-56.9,120.7-56.3,120.3-55.5,120.1z"/>
												<path d="M-54,119c-0.7,0-1.3-0.2-2-0.5c-0.6-0.3-1.1-0.8-1.5-1.4c-0.3-0.6-0.5-1.3-0.5-2.1c0-1.2,0.4-2.1,1.1-2.9
													c0.8-0.8,1.7-1.1,2.9-1.1c1.2,0,2.2,0.4,2.9,1.1c0.8,0.8,1.2,1.7,1.2,2.9c0,0.7-0.2,1.4-0.5,2c-0.3,0.6-0.8,1.1-1.4,1.5
													C-52.3,118.8-53.1,119-54,119z M-53.9,116.9c0.8,0,1.4-0.2,1.8-0.5s0.6-0.8,0.6-1.4s-0.2-1-0.6-1.4
													c-0.4-0.4-1-0.5-1.8-0.5c-0.8,0-1.3,0.2-1.8,0.5c-0.4,0.4-0.6,0.8-0.6,1.4s0.2,1,0.6,1.4S-54.7,116.9-53.9,116.9z"/>
												<path d="M-50,107.4v2.1h-7.8v-1.9h1.1c-0.5-0.3-0.9-0.6-1-0.9c-0.2-0.3-0.2-0.6-0.2-0.9c0-0.5,0.1-0.9,0.4-1.4l1.8,0.6
													c-0.2,0.3-0.3,0.7-0.3,1c0,0.3,0.1,0.5,0.2,0.7c0.2,0.2,0.4,0.4,0.9,0.5s1.3,0.2,2.6,0.2H-50z"/>
												<path d="M-50,96.4v1.9h-1.1c0.4,0.3,0.8,0.7,1,1.1c0.2,0.4,0.3,0.9,0.3,1.3c0,0.9-0.4,1.7-1.1,2.3c-0.7,0.6-1.7,1-3,1
													c-1.3,0-2.3-0.3-3-0.9c-0.7-0.6-1-1.4-1-2.4c0-0.9,0.4-1.6,1.1-2.3h-3.9v-2.1H-50z M-54.1,101.9c0.8,0,1.4-0.1,1.8-0.3
													c0.5-0.3,0.8-0.8,0.8-1.4c0-0.5-0.2-0.9-0.6-1.2c-0.4-0.3-1-0.5-1.8-0.5c-0.9,0-1.5,0.2-1.9,0.5
													c-0.4,0.3-0.6,0.7-0.6,1.2c0,0.5,0.2,0.9,0.6,1.2C-55.4,101.7-54.8,101.9-54.1,101.9z"/>
												<path d="M-52.2,95.1l-0.3-2.1c0.4-0.1,0.7-0.3,0.9-0.5c0.2-0.3,0.3-0.6,0.3-1.1c0-0.5-0.1-0.9-0.3-1.2
													c-0.1-0.2-0.3-0.3-0.5-0.3c-0.2,0-0.3,0-0.4,0.1c-0.1,0.1-0.2,0.3-0.3,0.7c-0.4,1.7-0.7,2.7-1,3.2
													c-0.4,0.6-1,0.9-1.8,0.9c-0.7,0-1.2-0.3-1.7-0.8s-0.7-1.4-0.7-2.5c0-1.1,0.2-1.9,0.5-2.4s0.9-0.9,1.5-1.1l0.4,1.9
													c-0.3,0.1-0.5,0.2-0.7,0.5c-0.2,0.2-0.2,0.6-0.2,1c0,0.5,0.1,0.9,0.2,1.2c0.1,0.2,0.2,0.2,0.4,0.2
													c0.1,0,0.3-0.1,0.4-0.2c0.1-0.2,0.3-0.8,0.6-1.9c0.2-1.1,0.6-1.9,0.9-2.3c0.4-0.4,0.9-0.6,1.5-0.6
													c0.7,0,1.3,0.3,1.8,0.9c0.5,0.6,0.8,1.5,0.8,2.6c0,1.1-0.2,1.9-0.6,2.5S-51.5,94.9-52.2,95.1z"/>
											</g>
										</g>
									</g>
									<path pointer-events="none" class="st2" d="M0,0"/>
								</g>
							</g>
						</g>
						<path class="st2" d="M0,0"/>
					</g>
				</g>
				<g>
					<g transform="translate(0,-1)">
						<path class="st0" d="M0,0h100l0,0H0z"/>
						<g>
							<g>
								<g transform="translate(50,-25)">
									<path pointer-events="none" class="st0" d="M0,0L0,0L0,0L0,0z"/>
									<g>
										<g pointer-events="none">
											<g class="st1">
												<path d="M-21.3,12l4.1-10.7h1.5l4.4,10.7h-1.6l-1.3-3.3h-4.5l-1.2,3.3H-21.3z M-18.2,7.6h3.6l-1.1-3
													C-16,3.7-16.3,3-16.4,2.4c-0.1,0.7-0.3,1.4-0.6,2.1L-18.2,7.6z"/>
												<path d="M-10.1,12V1.3h3.7c0.8,0,1.5,0.1,1.9,0.2c0.6,0.1,1.1,0.4,1.6,0.8c0.6,0.5,1,1.1,1.3,1.8
													c0.3,0.7,0.4,1.6,0.4,2.6c0,0.8-0.1,1.5-0.3,2.2c-0.2,0.6-0.4,1.2-0.7,1.6c-0.3,0.4-0.6,0.7-1,1
													c-0.4,0.2-0.8,0.4-1.3,0.5C-5,11.9-5.6,12-6.2,12H-10.1z M-8.7,10.7h2.3c0.7,0,1.3-0.1,1.7-0.2c0.4-0.1,0.7-0.3,1-0.6
													C-3.4,9.6-3.1,9.2-3,8.6c0.2-0.6,0.3-1.3,0.3-2.1c0-1.1-0.2-2-0.6-2.6C-3.6,3.4-4,3-4.6,2.8c-0.4-0.1-1-0.2-1.8-0.2
													h-2.3V10.7z"/>
												<path d="M0.8,12V1.3h1.4v4.4h5.6V1.3h1.4V12H7.8V6.9H2.2V12H0.8z"/>
												<path d="M11.6,12V1.3h3.7c0.8,0,1.5,0.1,1.9,0.2c0.6,0.1,1.1,0.4,1.6,0.8c0.6,0.5,1,1.1,1.3,1.8
													c0.3,0.7,0.4,1.6,0.4,2.6c0,0.8-0.1,1.5-0.3,2.2c-0.2,0.6-0.4,1.2-0.7,1.6c-0.3,0.4-0.6,0.7-1,1
													c-0.4,0.2-0.8,0.4-1.3,0.5c-0.5,0.1-1.1,0.2-1.7,0.2H11.6z M13,10.7h2.3c0.7,0,1.3-0.1,1.7-0.2c0.4-0.1,0.7-0.3,1-0.6
													c0.3-0.3,0.6-0.8,0.8-1.4C18.9,8.1,19,7.4,19,6.6c0-1.1-0.2-2-0.6-2.6c-0.4-0.6-0.8-1-1.3-1.2c-0.4-0.1-1-0.2-1.8-0.2
													H13V10.7z"/>
											</g>
										</g>
									</g>
									<path pointer-events="none" class="st2" d="M0,0"/>
								</g>
							</g>
						</g>
						<path class="st2" d="M0,0"/>
					</g>
					<g transform="translate(122,-1)">
						<path class="st0" d="M0,0h100l0,0H0z"/>
						<g>
							<g>
								<g transform="translate(50,-25)">
									<path pointer-events="none" class="st0" d="M0,0L0,0L0,0L0,0z"/>
									<g>
										<g pointer-events="none">
											<g class="st1">
												<path d="M-15.4,12l4.1-10.7h1.5L-5.4,12H-7l-1.3-3.3h-4.5l-1.2,3.3H-15.4z M-12.3,7.6h3.6l-1.1-3
													c-0.3-0.9-0.6-1.6-0.8-2.2c-0.1,0.7-0.3,1.4-0.6,2.1L-12.3,7.6z"/>
												<path d="M-4.7,8.6l1.3-0.1C-3.3,9-3.2,9.4-3,9.8c0.2,0.3,0.6,0.6,1.1,0.8c0.5,0.2,1,0.3,1.6,0.3c0.5,0,1-0.1,1.4-0.2
													s0.7-0.4,0.9-0.7c0.2-0.3,0.3-0.6,0.3-0.9c0-0.3-0.1-0.6-0.3-0.9C1.9,8,1.6,7.7,1.2,7.6C0.9,7.5,0.3,7.3-0.7,7
													c-1-0.2-1.7-0.5-2.1-0.7c-0.5-0.3-0.9-0.6-1.1-1C-4.2,5-4.3,4.5-4.3,4c0-0.5,0.2-1,0.5-1.5C-3.6,2-3.1,1.7-2.5,1.4
													c0.6-0.2,1.2-0.4,2-0.4c0.8,0,1.5,0.1,2.1,0.4C2.2,1.7,2.6,2.1,3,2.6s0.5,1.1,0.5,1.7L2.1,4.4C2,3.7,1.8,3.2,1.4,2.9
													C1,2.5,0.3,2.3-0.5,2.3c-0.9,0-1.5,0.2-1.9,0.5C-2.8,3.1-3,3.5-3,3.9c0,0.4,0.1,0.7,0.4,1c0.3,0.2,1,0.5,2.1,0.8
													C0.8,5.9,1.5,6.2,2,6.3C2.6,6.6,3.1,7,3.4,7.4c0.3,0.4,0.4,1,0.4,1.5c0,0.6-0.2,1.1-0.5,1.6c-0.3,0.5-0.8,0.9-1.4,1.2
													c-0.6,0.3-1.3,0.4-2.1,0.4c-1,0-1.8-0.1-2.4-0.4c-0.7-0.3-1.2-0.7-1.5-1.3C-4.5,9.9-4.7,9.3-4.7,8.6z"/>
												<path d="M5.7,12V1.3h3.7c0.8,0,1.5,0.1,1.9,0.2c0.6,0.1,1.1,0.4,1.6,0.8c0.6,0.5,1,1.1,1.3,1.8c0.3,0.7,0.4,1.6,0.4,2.6
													c0,0.8-0.1,1.5-0.3,2.2c-0.2,0.6-0.4,1.2-0.7,1.6c-0.3,0.4-0.6,0.7-1,1c-0.4,0.2-0.8,0.4-1.3,0.5
													c-0.5,0.1-1.1,0.2-1.7,0.2H5.7z M7.2,10.7h2.3c0.7,0,1.3-0.1,1.7-0.2c0.4-0.1,0.7-0.3,1-0.6c0.3-0.3,0.6-0.8,0.8-1.4
													c0.2-0.6,0.3-1.3,0.3-2.1c0-1.1-0.2-2-0.6-2.6c-0.4-0.6-0.8-1-1.3-1.2c-0.4-0.1-1-0.2-1.8-0.2H7.2V10.7z"/>
											</g>
										</g>
									</g>
									<path pointer-events="none" class="st2" d="M0,0"/>
								</g>
							</g>
						</g>
						<path class="st2" d="M0,0"/>
					</g>
					<g transform="translate(244,-1)">
						<path class="st0" d="M0,0h100l0,0H0z"/>
						<g>
							<g>
								<g transform="translate(50,-25)">
									<path pointer-events="none" class="st0" d="M0,0L0,0L0,0L0,0z"/>
									<g>
										<g pointer-events="none">
											<g class="st1">
												<path d="M-6.1,12V2.5h-3.5V1.3h8.5v1.3h-3.6V12H-6.1z"/>
												<path d="M0.3,12V1.3H4c0.8,0,1.5,0.1,1.9,0.2c0.6,0.1,1.1,0.4,1.6,0.8c0.6,0.5,1,1.1,1.3,1.8c0.3,0.7,0.4,1.6,0.4,2.6
													c0,0.8-0.1,1.5-0.3,2.2c-0.2,0.6-0.4,1.2-0.7,1.6c-0.3,0.4-0.6,0.7-1,1c-0.4,0.2-0.8,0.4-1.3,0.5
													C5.4,11.9,4.8,12,4.2,12H0.3z M1.7,10.7H4c0.7,0,1.3-0.1,1.7-0.2c0.4-0.1,0.7-0.3,1-0.6C7,9.6,7.3,9.2,7.5,8.6
													c0.2-0.6,0.3-1.3,0.3-2.1c0-1.1-0.2-2-0.6-2.6C6.8,3.4,6.4,3,5.8,2.8C5.5,2.6,4.8,2.5,4,2.5H1.7V10.7z"/>
											</g>
										</g>
									</g>
									<path pointer-events="none" class="st2" d="M0,0"/>
								</g>
							</g>
						</g>
						<path class="st2" d="M0,0"/>
					</g>
				</g>
				<g>
					<g transform="translate(0,301)">
						<path class="st0" d="M0,0h100l0,0H0z"/>
						<g>
							<g>
								<g transform="translate(0.5,0.5)">
									<path pointer-events="none" class="st0" d="M0,0L0,0L0,0L0,0z"/>
									<g>
										<g pointer-events="none">
											<line class="st3" x1="25" y1="0" x2="25" y2="5"/>
											<line class="st3" x1="75" y1="0" x2="75" y2="5"/>
										</g>
										<g pointer-events="none">
											<g class="st1">
												<path d="M28.5,52.5h-10v-6.8h1.2v5.4h3.1v-4.7h1.2v4.7h4.6V52.5z"/>
												<path d="M26.2,39.2l0.2-1.3c0.7,0.2,1.3,0.6,1.7,1.1s0.6,1.2,0.6,2.1c0,1.1-0.3,1.9-1,2.5c-0.7,0.6-1.6,0.9-2.8,0.9
													c-1.2,0-2.2-0.3-2.8-0.9s-1-1.4-1-2.4c0-1,0.3-1.8,1-2.4s1.6-0.9,2.8-0.9c0.1,0,0.2,0,0.3,0v5.4c0.8,0,1.4-0.3,1.8-0.7
													s0.6-0.9,0.6-1.5c0-0.5-0.1-0.8-0.4-1.2S26.7,39.4,26.2,39.2z M24.2,43.3v-4.1c-0.6,0.1-1.1,0.2-1.4,0.5
													c-0.5,0.4-0.7,0.9-0.7,1.5c0,0.6,0.2,1,0.6,1.4C23,43,23.5,43.2,24.2,43.3z"/>
												<path d="M28.5,36.4h-7.3v-1.1h1c-0.4-0.2-0.6-0.5-0.9-0.9c-0.2-0.4-0.3-0.8-0.3-1.3c0-0.5,0.1-1,0.3-1.3
													c0.2-0.3,0.5-0.6,0.9-0.7c-0.8-0.6-1.3-1.3-1.3-2.2c0-0.7,0.2-1.3,0.6-1.7c0.4-0.4,1-0.6,1.8-0.6h5v1.2h-4.6
													c-0.5,0-0.8,0-1.1,0.1c-0.2,0.1-0.4,0.2-0.5,0.4s-0.2,0.5-0.2,0.7c0,0.5,0.2,0.9,0.5,1.3c0.3,0.3,0.9,0.5,1.6,0.5h4.2
													v1.2h-4.7c-0.5,0-1,0.1-1.2,0.3s-0.4,0.5-0.4,1c0,0.3,0.1,0.7,0.3,1c0.2,0.3,0.4,0.5,0.8,0.6s0.9,0.2,1.5,0.2h3.8V36.4z
													"/>
												<path d="M27.6,20c0.4,0.5,0.7,0.9,0.8,1.3c0.2,0.4,0.2,0.9,0.2,1.4c0,0.8-0.2,1.4-0.6,1.8c-0.4,0.4-0.9,0.6-1.5,0.6
													c-0.4,0-0.7-0.1-1-0.2c-0.3-0.2-0.5-0.4-0.7-0.6c-0.2-0.3-0.3-0.6-0.4-0.9c-0.1-0.2-0.1-0.6-0.2-1.1
													c-0.1-1-0.3-1.7-0.4-2.2c-0.2,0-0.3,0-0.3,0c-0.5,0-0.9,0.1-1.1,0.3c-0.3,0.3-0.4,0.8-0.4,1.4c0,0.6,0.1,1,0.3,1.3
													c0.2,0.3,0.6,0.5,1.1,0.6L23.3,25c-0.5-0.1-0.9-0.3-1.2-0.5c-0.3-0.3-0.6-0.6-0.7-1.1c-0.2-0.5-0.3-1-0.3-1.6
													c0-0.6,0.1-1.1,0.2-1.5s0.3-0.7,0.6-0.9c0.2-0.2,0.5-0.3,0.8-0.4c0.2,0,0.6-0.1,1.1-0.1h1.6c1.1,0,1.9,0,2.2-0.1
													c0.3-0.1,0.6-0.2,0.9-0.3v1.3C28.2,19.9,27.9,20,27.6,20z M24.9,20.1c0.2,0.4,0.3,1.1,0.5,2c0.1,0.5,0.2,0.9,0.2,1.1
													s0.2,0.4,0.4,0.5c0.2,0.1,0.4,0.2,0.6,0.2c0.3,0,0.6-0.1,0.8-0.4c0.2-0.2,0.3-0.6,0.3-1.1c0-0.5-0.1-0.9-0.3-1.3
													c-0.2-0.4-0.5-0.6-0.9-0.8c-0.3-0.1-0.7-0.2-1.2-0.2H24.9z"/>
												<path d="M28.5,17h-10v-1.2h10V17z"/>
												<path d="M26.2,8.9l0.2-1.3c0.7,0.2,1.3,0.6,1.7,1.1s0.6,1.2,0.6,2.1c0,1.1-0.3,1.9-1,2.5c-0.7,0.6-1.6,0.9-2.8,0.9
													c-1.2,0-2.2-0.3-2.8-0.9s-1-1.4-1-2.4c0-1,0.3-1.8,1-2.4s1.6-0.9,2.8-0.9c0.1,0,0.2,0,0.3,0V13c0.8,0,1.4-0.3,1.8-0.7
													s0.6-0.9,0.6-1.5c0-0.5-0.1-0.8-0.4-1.2S26.7,9.1,26.2,8.9z M24.2,12.9V8.9c-0.6,0.1-1.1,0.2-1.4,0.5
													c-0.5,0.4-0.7,0.9-0.7,1.5c0,0.6,0.2,1,0.6,1.4C23,12.7,23.5,12.9,24.2,12.9z"/>
											</g>
											<g class="st1">
												<path d="M78.5,36.3h-10v-2l7.1-2.4c0.7-0.2,1.2-0.4,1.5-0.5c-0.4-0.1-0.9-0.3-1.6-0.5l-7-2.4v-1.8h10V28h-8.4l8.4,2.9
													v1.2L70,35h8.5V36.3z"/>
												<path d="M77.6,20c0.4,0.5,0.7,0.9,0.8,1.3c0.2,0.4,0.2,0.9,0.2,1.4c0,0.8-0.2,1.4-0.6,1.8c-0.4,0.4-0.9,0.6-1.5,0.6
													c-0.4,0-0.7-0.1-1-0.2c-0.3-0.2-0.5-0.4-0.7-0.6c-0.2-0.3-0.3-0.6-0.4-0.9c-0.1-0.2-0.1-0.6-0.2-1.1
													c-0.1-1-0.3-1.7-0.4-2.2c-0.2,0-0.3,0-0.3,0c-0.5,0-0.9,0.1-1.1,0.3c-0.3,0.3-0.4,0.8-0.4,1.4c0,0.6,0.1,1,0.3,1.3
													c0.2,0.3,0.6,0.5,1.1,0.6L73.3,25c-0.5-0.1-0.9-0.3-1.2-0.5c-0.3-0.3-0.6-0.6-0.7-1.1c-0.2-0.5-0.3-1-0.3-1.6
													c0-0.6,0.1-1.1,0.2-1.5s0.3-0.7,0.6-0.9c0.2-0.2,0.5-0.3,0.8-0.4c0.2,0,0.6-0.1,1.1-0.1h1.6c1.1,0,1.9,0,2.2-0.1
													c0.3-0.1,0.6-0.2,0.9-0.3v1.3C78.2,19.9,77.9,20,77.6,20z M74.9,20.1c0.2,0.4,0.3,1.1,0.5,2c0.1,0.5,0.2,0.9,0.2,1.1
													s0.2,0.4,0.4,0.5c0.2,0.1,0.4,0.2,0.6,0.2c0.3,0,0.6-0.1,0.8-0.4c0.2-0.2,0.3-0.6,0.3-1.1c0-0.5-0.1-0.9-0.3-1.3
													c-0.2-0.4-0.5-0.6-0.9-0.8c-0.3-0.1-0.7-0.2-1.2-0.2H74.9z"/>
												<path d="M78.5,17h-10v-1.2h10V17z"/>
												<path d="M76.2,8.9l0.2-1.3c0.7,0.2,1.3,0.6,1.7,1.1s0.6,1.2,0.6,2.1c0,1.1-0.3,1.9-1,2.5c-0.7,0.6-1.6,0.9-2.8,0.9
													c-1.2,0-2.2-0.3-2.8-0.9s-1-1.4-1-2.4c0-1,0.3-1.8,1-2.4s1.6-0.9,2.8-0.9c0.1,0,0.2,0,0.3,0V13c0.8,0,1.4-0.3,1.8-0.7
													s0.6-0.9,0.6-1.5c0-0.5-0.1-0.8-0.4-1.2S76.7,9.1,76.2,8.9z M74.2,12.9V8.9c-0.6,0.1-1.1,0.2-1.4,0.5
													c-0.5,0.4-0.7,0.9-0.7,1.5c0,0.6,0.2,1,0.6,1.4C73,12.7,73.5,12.9,74.2,12.9z"/>
											</g>
										</g>
										<g pointer-events="none">
											<line class="st3" x1="0" y1="0" x2="100" y2="0"/>
										</g>
										<g pointer-events="none">
											<g class="st1">
												<path d="M37.2,66.5l2.1-0.2c0.1,0.7,0.4,1.2,0.8,1.6c0.4,0.3,0.9,0.5,1.6,0.5c0.7,0,1.2-0.1,1.6-0.4
													c0.4-0.3,0.5-0.6,0.5-1c0-0.3-0.1-0.5-0.2-0.6c-0.1-0.2-0.4-0.3-0.8-0.5c-0.3-0.1-0.8-0.2-1.7-0.5
													c-1.2-0.3-2-0.6-2.4-1.1c-0.7-0.6-1-1.3-1-2.2c0-0.5,0.2-1.1,0.5-1.5c0.3-0.5,0.8-0.8,1.3-1.1s1.3-0.4,2.1-0.4
													c1.3,0,2.4,0.3,3,0.9c0.7,0.6,1,1.4,1.1,2.4l-2.2,0.1c-0.1-0.6-0.3-0.9-0.6-1.2c-0.3-0.2-0.8-0.4-1.4-0.4
													c-0.6,0-1.1,0.1-1.5,0.4c-0.2,0.2-0.3,0.4-0.3,0.7c0,0.3,0.1,0.5,0.3,0.7c0.3,0.2,0.9,0.5,2,0.7
													c1.1,0.2,1.8,0.5,2.3,0.8c0.5,0.3,0.9,0.6,1.2,1.1c0.3,0.5,0.4,1,0.4,1.7c0,0.6-0.2,1.2-0.5,1.7s-0.8,0.9-1.5,1.2
													c-0.6,0.3-1.4,0.4-2.3,0.4c-1.4,0-2.4-0.3-3.1-0.9C37.8,68.6,37.3,67.7,37.2,66.5z"/>
												<path d="M52.2,67.5l2.1,0.3c-0.3,0.8-0.7,1.3-1.2,1.7c-0.6,0.4-1.3,0.6-2.1,0.6c-1.4,0-2.4-0.4-3-1.3
													c-0.5-0.7-0.8-1.6-0.8-2.7c0-1.3,0.3-2.3,1-3c0.7-0.7,1.5-1.1,2.6-1.1c1.2,0,2.1,0.4,2.7,1.1c0.7,0.8,1,1.9,1,3.5h-5.2
													c0,0.6,0.2,1.1,0.5,1.4c0.3,0.3,0.7,0.5,1.2,0.5c0.3,0,0.6-0.1,0.8-0.3S52.1,67.9,52.2,67.5z M52.4,65.4
													c0-0.6-0.2-1-0.5-1.4c-0.3-0.3-0.6-0.5-1.1-0.5c-0.4,0-0.8,0.2-1.1,0.5s-0.4,0.8-0.4,1.3H52.4z"/>
												<path d="M55.1,70l2.8-4l-2.7-3.8h2.5l1.4,2.1l1.5-2.1H63l-2.6,3.7l2.9,4.1h-2.5l-1.6-2.4L57.5,70H55.1z"/>
											</g>
										</g>
									</g>
									<path pointer-events="none" class="st2" d="M0,0"/>
								</g>
							</g>
						</g>
						<path class="st2" d="M0,0"/>
					</g>
					<g transform="translate(122,301)">
						<path class="st0" d="M0,0h100l0,0H0z"/>
						<g>
							<g>
								<g transform="translate(0.5,0.5)">
									<path pointer-events="none" class="st0" d="M0,0L0,0L0,0L0,0z"/>
									<g>
										<g pointer-events="none">
											<line class="st3" x1="25" y1="0" x2="25" y2="5"/>
											<line class="st3" x1="75" y1="0" x2="75" y2="5"/>
										</g>
										<g pointer-events="none">
											<g class="st1">
												<path d="M28.5,52.5h-10v-6.8h1.2v5.4h3.1v-4.7h1.2v4.7h4.6V52.5z"/>
												<path d="M26.2,39.2l0.2-1.3c0.7,0.2,1.3,0.6,1.7,1.1s0.6,1.2,0.6,2.1c0,1.1-0.3,1.9-1,2.5c-0.7,0.6-1.6,0.9-2.8,0.9
													c-1.2,0-2.2-0.3-2.8-0.9s-1-1.4-1-2.4c0-1,0.3-1.8,1-2.4s1.6-0.9,2.8-0.9c0.1,0,0.2,0,0.3,0v5.4c0.8,0,1.4-0.3,1.8-0.7
													s0.6-0.9,0.6-1.5c0-0.5-0.1-0.8-0.4-1.2S26.7,39.4,26.2,39.2z M24.2,43.3v-4.1c-0.6,0.1-1.1,0.2-1.4,0.5
													c-0.5,0.4-0.7,0.9-0.7,1.5c0,0.6,0.2,1,0.6,1.4C23,43,23.5,43.2,24.2,43.3z"/>
												<path d="M28.5,36.4h-7.3v-1.1h1c-0.4-0.2-0.6-0.5-0.9-0.9c-0.2-0.4-0.3-0.8-0.3-1.3c0-0.5,0.1-1,0.3-1.3
													c0.2-0.3,0.5-0.6,0.9-0.7c-0.8-0.6-1.3-1.3-1.3-2.2c0-0.7,0.2-1.3,0.6-1.7c0.4-0.4,1-0.6,1.8-0.6h5v1.2h-4.6
													c-0.5,0-0.8,0-1.1,0.1c-0.2,0.1-0.4,0.2-0.5,0.4s-0.2,0.5-0.2,0.7c0,0.5,0.2,0.9,0.5,1.3c0.3,0.3,0.9,0.5,1.6,0.5h4.2
													v1.2h-4.7c-0.5,0-1,0.1-1.2,0.3s-0.4,0.5-0.4,1c0,0.3,0.1,0.7,0.3,1c0.2,0.3,0.4,0.5,0.8,0.6s0.9,0.2,1.5,0.2h3.8V36.4z
													"/>
												<path d="M27.6,20c0.4,0.5,0.7,0.9,0.8,1.3c0.2,0.4,0.2,0.9,0.2,1.4c0,0.8-0.2,1.4-0.6,1.8c-0.4,0.4-0.9,0.6-1.5,0.6
													c-0.4,0-0.7-0.1-1-0.2c-0.3-0.2-0.5-0.4-0.7-0.6c-0.2-0.3-0.3-0.6-0.4-0.9c-0.1-0.2-0.1-0.6-0.2-1.1
													c-0.1-1-0.3-1.7-0.4-2.2c-0.2,0-0.3,0-0.3,0c-0.5,0-0.9,0.1-1.1,0.3c-0.3,0.3-0.4,0.8-0.4,1.4c0,0.6,0.1,1,0.3,1.3
													c0.2,0.3,0.6,0.5,1.1,0.6L23.3,25c-0.5-0.1-0.9-0.3-1.2-0.5c-0.3-0.3-0.6-0.6-0.7-1.1c-0.2-0.5-0.3-1-0.3-1.6
													c0-0.6,0.1-1.1,0.2-1.5s0.3-0.7,0.6-0.9c0.2-0.2,0.5-0.3,0.8-0.4c0.2,0,0.6-0.1,1.1-0.1h1.6c1.1,0,1.9,0,2.2-0.1
													c0.3-0.1,0.6-0.2,0.9-0.3v1.3C28.2,19.9,27.9,20,27.6,20z M24.9,20.1c0.2,0.4,0.3,1.1,0.5,2c0.1,0.5,0.2,0.9,0.2,1.1
													s0.2,0.4,0.4,0.5c0.2,0.1,0.4,0.2,0.6,0.2c0.3,0,0.6-0.1,0.8-0.4c0.2-0.2,0.3-0.6,0.3-1.1c0-0.5-0.1-0.9-0.3-1.3
													c-0.2-0.4-0.5-0.6-0.9-0.8c-0.3-0.1-0.7-0.2-1.2-0.2H24.9z"/>
												<path d="M28.5,17h-10v-1.2h10V17z"/>
												<path d="M26.2,8.9l0.2-1.3c0.7,0.2,1.3,0.6,1.7,1.1s0.6,1.2,0.6,2.1c0,1.1-0.3,1.9-1,2.5c-0.7,0.6-1.6,0.9-2.8,0.9
													c-1.2,0-2.2-0.3-2.8-0.9s-1-1.4-1-2.4c0-1,0.3-1.8,1-2.4s1.6-0.9,2.8-0.9c0.1,0,0.2,0,0.3,0V13c0.8,0,1.4-0.3,1.8-0.7
													s0.6-0.9,0.6-1.5c0-0.5-0.1-0.8-0.4-1.2S26.7,9.1,26.2,8.9z M24.2,12.9V8.9c-0.6,0.1-1.1,0.2-1.4,0.5
													c-0.5,0.4-0.7,0.9-0.7,1.5c0,0.6,0.2,1,0.6,1.4C23,12.7,23.5,12.9,24.2,12.9z"/>
											</g>
											<g class="st1">
												<path d="M78.5,36.3h-10v-2l7.1-2.4c0.7-0.2,1.2-0.4,1.5-0.5c-0.4-0.1-0.9-0.3-1.6-0.5l-7-2.4v-1.8h10V28h-8.4l8.4,2.9
													v1.2L70,35h8.5V36.3z"/>
												<path d="M77.6,20c0.4,0.5,0.7,0.9,0.8,1.3c0.2,0.4,0.2,0.9,0.2,1.4c0,0.8-0.2,1.4-0.6,1.8c-0.4,0.4-0.9,0.6-1.5,0.6
													c-0.4,0-0.7-0.1-1-0.2c-0.3-0.2-0.5-0.4-0.7-0.6c-0.2-0.3-0.3-0.6-0.4-0.9c-0.1-0.2-0.1-0.6-0.2-1.1
													c-0.1-1-0.3-1.7-0.4-2.2c-0.2,0-0.3,0-0.3,0c-0.5,0-0.9,0.1-1.1,0.3c-0.3,0.3-0.4,0.8-0.4,1.4c0,0.6,0.1,1,0.3,1.3
													c0.2,0.3,0.6,0.5,1.1,0.6L73.3,25c-0.5-0.1-0.9-0.3-1.2-0.5c-0.3-0.3-0.6-0.6-0.7-1.1c-0.2-0.5-0.3-1-0.3-1.6
													c0-0.6,0.1-1.1,0.2-1.5s0.3-0.7,0.6-0.9c0.2-0.2,0.5-0.3,0.8-0.4c0.2,0,0.6-0.1,1.1-0.1h1.6c1.1,0,1.9,0,2.2-0.1
													c0.3-0.1,0.6-0.2,0.9-0.3v1.3C78.2,19.9,77.9,20,77.6,20z M74.9,20.1c0.2,0.4,0.3,1.1,0.5,2c0.1,0.5,0.2,0.9,0.2,1.1
													s0.2,0.4,0.4,0.5c0.2,0.1,0.4,0.2,0.6,0.2c0.3,0,0.6-0.1,0.8-0.4c0.2-0.2,0.3-0.6,0.3-1.1c0-0.5-0.1-0.9-0.3-1.3
													c-0.2-0.4-0.5-0.6-0.9-0.8c-0.3-0.1-0.7-0.2-1.2-0.2H74.9z"/>
												<path d="M78.5,17h-10v-1.2h10V17z"/>
												<path d="M76.2,8.9l0.2-1.3c0.7,0.2,1.3,0.6,1.7,1.1s0.6,1.2,0.6,2.1c0,1.1-0.3,1.9-1,2.5c-0.7,0.6-1.6,0.9-2.8,0.9
													c-1.2,0-2.2-0.3-2.8-0.9s-1-1.4-1-2.4c0-1,0.3-1.8,1-2.4s1.6-0.9,2.8-0.9c0.1,0,0.2,0,0.3,0V13c0.8,0,1.4-0.3,1.8-0.7
													s0.6-0.9,0.6-1.5c0-0.5-0.1-0.8-0.4-1.2S76.7,9.1,76.2,8.9z M74.2,12.9V8.9c-0.6,0.1-1.1,0.2-1.4,0.5
													c-0.5,0.4-0.7,0.9-0.7,1.5c0,0.6,0.2,1,0.6,1.4C73,12.7,73.5,12.9,74.2,12.9z"/>
											</g>
										</g>
										<g pointer-events="none">
											<line class="st3" x1="0" y1="0" x2="100" y2="0"/>
										</g>
										<g pointer-events="none">
											<g class="st1">
												<path d="M37.2,66.5l2.1-0.2c0.1,0.7,0.4,1.2,0.8,1.6c0.4,0.3,0.9,0.5,1.6,0.5c0.7,0,1.2-0.1,1.6-0.4
													c0.4-0.3,0.5-0.6,0.5-1c0-0.3-0.1-0.5-0.2-0.6c-0.1-0.2-0.4-0.3-0.8-0.5c-0.3-0.1-0.8-0.2-1.7-0.5
													c-1.2-0.3-2-0.6-2.4-1.1c-0.7-0.6-1-1.3-1-2.2c0-0.5,0.2-1.1,0.5-1.5c0.3-0.5,0.8-0.8,1.3-1.1s1.3-0.4,2.1-0.4
													c1.3,0,2.4,0.3,3,0.9c0.7,0.6,1,1.4,1.1,2.4l-2.2,0.1c-0.1-0.6-0.3-0.9-0.6-1.2c-0.3-0.2-0.8-0.4-1.4-0.4
													c-0.6,0-1.1,0.1-1.5,0.4c-0.2,0.2-0.3,0.4-0.3,0.7c0,0.3,0.1,0.5,0.3,0.7c0.3,0.2,0.9,0.5,2,0.7
													c1.1,0.2,1.8,0.5,2.3,0.8c0.5,0.3,0.9,0.6,1.2,1.1c0.3,0.5,0.4,1,0.4,1.7c0,0.6-0.2,1.2-0.5,1.7s-0.8,0.9-1.5,1.2
													c-0.6,0.3-1.4,0.4-2.3,0.4c-1.4,0-2.4-0.3-3.1-0.9C37.8,68.6,37.3,67.7,37.2,66.5z"/>
												<path d="M52.2,67.5l2.1,0.3c-0.3,0.8-0.7,1.3-1.2,1.7c-0.6,0.4-1.3,0.6-2.1,0.6c-1.4,0-2.4-0.4-3-1.3
													c-0.5-0.7-0.8-1.6-0.8-2.7c0-1.3,0.3-2.3,1-3c0.7-0.7,1.5-1.1,2.6-1.1c1.2,0,2.1,0.4,2.7,1.1c0.7,0.8,1,1.9,1,3.5h-5.2
													c0,0.6,0.2,1.1,0.5,1.4c0.3,0.3,0.7,0.5,1.2,0.5c0.3,0,0.6-0.1,0.8-0.3S52.1,67.9,52.2,67.5z M52.4,65.4
													c0-0.6-0.2-1-0.5-1.4c-0.3-0.3-0.6-0.5-1.1-0.5c-0.4,0-0.8,0.2-1.1,0.5s-0.4,0.8-0.4,1.3H52.4z"/>
												<path d="M55.1,70l2.8-4l-2.7-3.8h2.5l1.4,2.1l1.5-2.1H63l-2.6,3.7l2.9,4.1h-2.5l-1.6-2.4L57.5,70H55.1z"/>
											</g>
										</g>
									</g>
									<path pointer-events="none" class="st2" d="M0,0"/>
								</g>
							</g>
						</g>
						<path class="st2" d="M0,0"/>
					</g>
					<g transform="translate(244,301)">
						<path class="st0" d="M0,0h100l0,0H0z"/>
						<g>
							<g>
								<g transform="translate(0.5,0.5)">
									<path pointer-events="none" class="st0" d="M0,0L0,0L0,0L0,0z"/>
									<g>
										<g pointer-events="none">
											<line class="st3" x1="25" y1="0" x2="25" y2="5"/>
											<line class="st3" x1="75" y1="0" x2="75" y2="5"/>
										</g>
										<g pointer-events="none">
											<g class="st1">
												<path d="M28.5,52.5h-10v-6.8h1.2v5.4h3.1v-4.7h1.2v4.7h4.6V52.5z"/>
												<path d="M26.2,39.2l0.2-1.3c0.7,0.2,1.3,0.6,1.7,1.1s0.6,1.2,0.6,2.1c0,1.1-0.3,1.9-1,2.5c-0.7,0.6-1.6,0.9-2.8,0.9
													c-1.2,0-2.2-0.3-2.8-0.9s-1-1.4-1-2.4c0-1,0.3-1.8,1-2.4s1.6-0.9,2.8-0.9c0.1,0,0.2,0,0.3,0v5.4c0.8,0,1.4-0.3,1.8-0.7
													s0.6-0.9,0.6-1.5c0-0.5-0.1-0.8-0.4-1.2S26.7,39.4,26.2,39.2z M24.2,43.3v-4.1c-0.6,0.1-1.1,0.2-1.4,0.5
													c-0.5,0.4-0.7,0.9-0.7,1.5c0,0.6,0.2,1,0.6,1.4C23,43,23.5,43.2,24.2,43.3z"/>
												<path d="M28.5,36.4h-7.3v-1.1h1c-0.4-0.2-0.6-0.5-0.9-0.9c-0.2-0.4-0.3-0.8-0.3-1.3c0-0.5,0.1-1,0.3-1.3
													c0.2-0.3,0.5-0.6,0.9-0.7c-0.8-0.6-1.3-1.3-1.3-2.2c0-0.7,0.2-1.3,0.6-1.7c0.4-0.4,1-0.6,1.8-0.6h5v1.2h-4.6
													c-0.5,0-0.8,0-1.1,0.1c-0.2,0.1-0.4,0.2-0.5,0.4s-0.2,0.5-0.2,0.7c0,0.5,0.2,0.9,0.5,1.3c0.3,0.3,0.9,0.5,1.6,0.5h4.2
													v1.2h-4.7c-0.5,0-1,0.1-1.2,0.3s-0.4,0.5-0.4,1c0,0.3,0.1,0.7,0.3,1c0.2,0.3,0.4,0.5,0.8,0.6s0.9,0.2,1.5,0.2h3.8V36.4z
													"/>
												<path d="M27.6,20c0.4,0.5,0.7,0.9,0.8,1.3c0.2,0.4,0.2,0.9,0.2,1.4c0,0.8-0.2,1.4-0.6,1.8c-0.4,0.4-0.9,0.6-1.5,0.6
													c-0.4,0-0.7-0.1-1-0.2c-0.3-0.2-0.5-0.4-0.7-0.6c-0.2-0.3-0.3-0.6-0.4-0.9c-0.1-0.2-0.1-0.6-0.2-1.1
													c-0.1-1-0.3-1.7-0.4-2.2c-0.2,0-0.3,0-0.3,0c-0.5,0-0.9,0.1-1.1,0.3c-0.3,0.3-0.4,0.8-0.4,1.4c0,0.6,0.1,1,0.3,1.3
													c0.2,0.3,0.6,0.5,1.1,0.6L23.3,25c-0.5-0.1-0.9-0.3-1.2-0.5c-0.3-0.3-0.6-0.6-0.7-1.1c-0.2-0.5-0.3-1-0.3-1.6
													c0-0.6,0.1-1.1,0.2-1.5s0.3-0.7,0.6-0.9c0.2-0.2,0.5-0.3,0.8-0.4c0.2,0,0.6-0.1,1.1-0.1h1.6c1.1,0,1.9,0,2.2-0.1
													c0.3-0.1,0.6-0.2,0.9-0.3v1.3C28.2,19.9,27.9,20,27.6,20z M24.9,20.1c0.2,0.4,0.3,1.1,0.5,2c0.1,0.5,0.2,0.9,0.2,1.1
													s0.2,0.4,0.4,0.5c0.2,0.1,0.4,0.2,0.6,0.2c0.3,0,0.6-0.1,0.8-0.4c0.2-0.2,0.3-0.6,0.3-1.1c0-0.5-0.1-0.9-0.3-1.3
													c-0.2-0.4-0.5-0.6-0.9-0.8c-0.3-0.1-0.7-0.2-1.2-0.2H24.9z"/>
												<path d="M28.5,17h-10v-1.2h10V17z"/>
												<path d="M26.2,8.9l0.2-1.3c0.7,0.2,1.3,0.6,1.7,1.1s0.6,1.2,0.6,2.1c0,1.1-0.3,1.9-1,2.5c-0.7,0.6-1.6,0.9-2.8,0.9
													c-1.2,0-2.2-0.3-2.8-0.9s-1-1.4-1-2.4c0-1,0.3-1.8,1-2.4s1.6-0.9,2.8-0.9c0.1,0,0.2,0,0.3,0V13c0.8,0,1.4-0.3,1.8-0.7
													s0.6-0.9,0.6-1.5c0-0.5-0.1-0.8-0.4-1.2S26.7,9.1,26.2,8.9z M24.2,12.9V8.9c-0.6,0.1-1.1,0.2-1.4,0.5
													c-0.5,0.4-0.7,0.9-0.7,1.5c0,0.6,0.2,1,0.6,1.4C23,12.7,23.5,12.9,24.2,12.9z"/>
											</g>
											<g class="st1">
												<path d="M78.5,36.3h-10v-2l7.1-2.4c0.7-0.2,1.2-0.4,1.5-0.5c-0.4-0.1-0.9-0.3-1.6-0.5l-7-2.4v-1.8h10V28h-8.4l8.4,2.9
													v1.2L70,35h8.5V36.3z"/>
												<path d="M77.6,20c0.4,0.5,0.7,0.9,0.8,1.3c0.2,0.4,0.2,0.9,0.2,1.4c0,0.8-0.2,1.4-0.6,1.8c-0.4,0.4-0.9,0.6-1.5,0.6
													c-0.4,0-0.7-0.1-1-0.2c-0.3-0.2-0.5-0.4-0.7-0.6c-0.2-0.3-0.3-0.6-0.4-0.9c-0.1-0.2-0.1-0.6-0.2-1.1
													c-0.1-1-0.3-1.7-0.4-2.2c-0.2,0-0.3,0-0.3,0c-0.5,0-0.9,0.1-1.1,0.3c-0.3,0.3-0.4,0.8-0.4,1.4c0,0.6,0.1,1,0.3,1.3
													c0.2,0.3,0.6,0.5,1.1,0.6L73.3,25c-0.5-0.1-0.9-0.3-1.2-0.5c-0.3-0.3-0.6-0.6-0.7-1.1c-0.2-0.5-0.3-1-0.3-1.6
													c0-0.6,0.1-1.1,0.2-1.5s0.3-0.7,0.6-0.9c0.2-0.2,0.5-0.3,0.8-0.4c0.2,0,0.6-0.1,1.1-0.1h1.6c1.1,0,1.9,0,2.2-0.1
													c0.3-0.1,0.6-0.2,0.9-0.3v1.3C78.2,19.9,77.9,20,77.6,20z M74.9,20.1c0.2,0.4,0.3,1.1,0.5,2c0.1,0.5,0.2,0.9,0.2,1.1
													s0.2,0.4,0.4,0.5c0.2,0.1,0.4,0.2,0.6,0.2c0.3,0,0.6-0.1,0.8-0.4c0.2-0.2,0.3-0.6,0.3-1.1c0-0.5-0.1-0.9-0.3-1.3
													c-0.2-0.4-0.5-0.6-0.9-0.8c-0.3-0.1-0.7-0.2-1.2-0.2H74.9z"/>
												<path d="M78.5,17h-10v-1.2h10V17z"/>
												<path d="M76.2,8.9l0.2-1.3c0.7,0.2,1.3,0.6,1.7,1.1s0.6,1.2,0.6,2.1c0,1.1-0.3,1.9-1,2.5c-0.7,0.6-1.6,0.9-2.8,0.9
													c-1.2,0-2.2-0.3-2.8-0.9s-1-1.4-1-2.4c0-1,0.3-1.8,1-2.4s1.6-0.9,2.8-0.9c0.1,0,0.2,0,0.3,0V13c0.8,0,1.4-0.3,1.8-0.7
													s0.6-0.9,0.6-1.5c0-0.5-0.1-0.8-0.4-1.2S76.7,9.1,76.2,8.9z M74.2,12.9V8.9c-0.6,0.1-1.1,0.2-1.4,0.5
													c-0.5,0.4-0.7,0.9-0.7,1.5c0,0.6,0.2,1,0.6,1.4C73,12.7,73.5,12.9,74.2,12.9z"/>
											</g>
										</g>
										<g pointer-events="none">
											<line class="st3" x1="0" y1="0" x2="100" y2="0"/>
										</g>
										<g pointer-events="none">
											<g class="st1">
												<path d="M37.2,66.5l2.1-0.2c0.1,0.7,0.4,1.2,0.8,1.6c0.4,0.3,0.9,0.5,1.6,0.5c0.7,0,1.2-0.1,1.6-0.4
													c0.4-0.3,0.5-0.6,0.5-1c0-0.3-0.1-0.5-0.2-0.6c-0.1-0.2-0.4-0.3-0.8-0.5c-0.3-0.1-0.8-0.2-1.7-0.5
													c-1.2-0.3-2-0.6-2.4-1.1c-0.7-0.6-1-1.3-1-2.2c0-0.5,0.2-1.1,0.5-1.5c0.3-0.5,0.8-0.8,1.3-1.1s1.3-0.4,2.1-0.4
													c1.3,0,2.4,0.3,3,0.9c0.7,0.6,1,1.4,1.1,2.4l-2.2,0.1c-0.1-0.6-0.3-0.9-0.6-1.2c-0.3-0.2-0.8-0.4-1.4-0.4
													c-0.6,0-1.1,0.1-1.5,0.4c-0.2,0.2-0.3,0.4-0.3,0.7c0,0.3,0.1,0.5,0.3,0.7c0.3,0.2,0.9,0.5,2,0.7
													c1.1,0.2,1.8,0.5,2.3,0.8c0.5,0.3,0.9,0.6,1.2,1.1c0.3,0.5,0.4,1,0.4,1.7c0,0.6-0.2,1.2-0.5,1.7s-0.8,0.9-1.5,1.2
													c-0.6,0.3-1.4,0.4-2.3,0.4c-1.4,0-2.4-0.3-3.1-0.9C37.8,68.6,37.3,67.7,37.2,66.5z"/>
												<path d="M52.2,67.5l2.1,0.3c-0.3,0.8-0.7,1.3-1.2,1.7c-0.6,0.4-1.3,0.6-2.1,0.6c-1.4,0-2.4-0.4-3-1.3
													c-0.5-0.7-0.8-1.6-0.8-2.7c0-1.3,0.3-2.3,1-3c0.7-0.7,1.5-1.1,2.6-1.1c1.2,0,2.1,0.4,2.7,1.1c0.7,0.8,1,1.9,1,3.5h-5.2
													c0,0.6,0.2,1.1,0.5,1.4c0.3,0.3,0.7,0.5,1.2,0.5c0.3,0,0.6-0.1,0.8-0.3S52.1,67.9,52.2,67.5z M52.4,65.4
													c0-0.6-0.2-1-0.5-1.4c-0.3-0.3-0.6-0.5-1.1-0.5c-0.4,0-0.8,0.2-1.1,0.5s-0.4,0.8-0.4,1.3H52.4z"/>
												<path d="M55.1,70l2.8-4l-2.7-3.8h2.5l1.4,2.1l1.5-2.1H63l-2.6,3.7l2.9,4.1h-2.5l-1.6-2.4L57.5,70H55.1z"/>
											</g>
										</g>
									</g>
									<path pointer-events="none" class="st2" d="M0,0"/>
								</g>
							</g>
						</g>
						<path class="st2" d="M0,0"/>
					</g>
				</g>
				<g>
					<g transform="translate(0,0)">
						<path class="st4" d="M0.5,0.5h100v300H0.5V0.5z"/>
						<g>
							<g>
								<g transform="translate(0.5,0.5)">
									<path pointer-events="none" class="st0" d="M0,0L0,0L0,0L0,0z"/>
									<g>
										<g pointer-events="none">
											<line class="st4" x1="0" y1="300" x2="100" y2="300"/>
											<line class="st4" x1="0" y1="270" x2="100" y2="270"/>
											<line class="st4" x1="0" y1="240" x2="100" y2="240"/>
											<line class="st4" x1="0" y1="210" x2="100" y2="210"/>
											<line class="st4" x1="0" y1="180" x2="100" y2="180"/>
											<line class="st4" x1="0" y1="150" x2="100" y2="150"/>
											<line class="st4" x1="0" y1="120" x2="100" y2="120"/>
											<line class="st4" x1="0" y1="90" x2="100" y2="90"/>
											<line class="st4" x1="0" y1="60" x2="100" y2="60"/>
											<line class="st4" x1="0" y1="30" x2="100" y2="30"/>
											<line class="st4" x1="0" y1="0" x2="100" y2="0"/>
										</g>
									</g>
									<path pointer-events="none" class="st5" d="M0,0"/>
								</g>
							</g>
							<g>
								<path class="st6" d="M52.5,61.2h45V300h-45V61.2z"/>
								<path class="st6" d="M2.5,219.3h45V300h-45V219.3z"/>
							</g>
						</g>
						<path class="st7" d="M0,0"/>
					</g>
					<g transform="translate(122,0)">
						<path class="st4" d="M0.5,0.5h100v300H0.5V0.5z"/>
						<g>
							<g>
								<g transform="translate(0.5,0.5)">
									<path pointer-events="none" class="st0" d="M0,0L0,0L0,0L0,0z"/>
									<g>
										<g pointer-events="none">
											<line class="st4" x1="0" y1="300" x2="100" y2="300"/>
											<line class="st4" x1="0" y1="270" x2="100" y2="270"/>
											<line class="st4" x1="0" y1="240" x2="100" y2="240"/>
											<line class="st4" x1="0" y1="210" x2="100" y2="210"/>
											<line class="st4" x1="0" y1="180" x2="100" y2="180"/>
											<line class="st4" x1="0" y1="150" x2="100" y2="150"/>
											<line class="st4" x1="0" y1="120" x2="100" y2="120"/>
											<line class="st4" x1="0" y1="90" x2="100" y2="90"/>
											<line class="st4" x1="0" y1="60" x2="100" y2="60"/>
											<line class="st4" x1="0" y1="30" x2="100" y2="30"/>
											<line class="st4" x1="0" y1="0" x2="100" y2="0"/>
										</g>
									</g>
									<path pointer-events="none" class="st5" d="M0,0"/>
								</g>
							</g>
							<g>
								<path class="st8" d="M2.5,223.8h45V300h-45V223.8z"/>
								<path class="st8" d="M52.5,18h45v282h-45V18z"/>
							</g>
						</g>
						<path class="st9" d="M0,0"/>
					</g>
					<g transform="translate(244,0)">
						<path class="st4" d="M0.5,0.5h100v300H0.5V0.5z"/>
						<g>
							<g>
								<g transform="translate(0.5,0.5)">
									<path pointer-events="none" class="st0" d="M0,0L0,0L0,0L0,0z"/>
									<g>
										<g pointer-events="none">
											<line class="st4" x1="0" y1="300" x2="100" y2="300"/>
											<line class="st4" x1="0" y1="270" x2="100" y2="270"/>
											<line class="st4" x1="0" y1="240" x2="100" y2="240"/>
											<line class="st4" x1="0" y1="210" x2="100" y2="210"/>
											<line class="st4" x1="0" y1="180" x2="100" y2="180"/>
											<line class="st4" x1="0" y1="150" x2="100" y2="150"/>
											<line class="st4" x1="0" y1="120" x2="100" y2="120"/>
											<line class="st4" x1="0" y1="90" x2="100" y2="90"/>
											<line class="st4" x1="0" y1="60" x2="100" y2="60"/>
											<line class="st4" x1="0" y1="30" x2="100" y2="30"/>
											<line class="st4" x1="0" y1="0" x2="100" y2="0"/>
										</g>
									</g>
									<path pointer-events="none" class="st5" d="M0,0"/>
								</g>
							</g>
							<g>
								<path class="st10" d="M2.5,258.3h45V300h-45V258.3z"/>
								<path class="st10" d="M52.5,254.1h45V300h-45V254.1z"/>
							</g>
						</g>
						<path class="st11" d="M0,0"/>
					</g>
				</g>
				<g>
					<g transform="translate(0,-107)">
						<path pointer-events="none" class="st0" d="M0,0h131v27H0V0z"/>
						<g>
							<g>
								<g transform="translate(0,16)">
									<path pointer-events="none" class="st0" d="M0,0L0,0L0,0L0,0z"/>
									<g>
										<g>
											<g transform="translate(0,0)">
												<path class="st0" d="M0,0h44v11H0V0z"/>
												<g>
													<g>
														<path class="st6" d="M1,1h10v10H1V1z"/>
													</g>
													<g>
														<g class="st1">
															<path d="M16,9l2.7-7.2h1L22.7,9h-1.1l-0.8-2.2h-3L17,9H16z M18.1,6.1h2.4l-0.7-2c-0.2-0.6-0.4-1.1-0.5-1.5
																C19.1,3.1,19,3.5,18.8,4L18.1,6.1z"/>
															<path d="M23.4,9V1.8h2.5c0.6,0,1,0,1.3,0.1c0.4,0.1,0.8,0.3,1,0.5c0.4,0.3,0.7,0.7,0.8,1.2c0.2,0.5,0.3,1.1,0.3,1.7
																c0,0.5-0.1,1-0.2,1.4s-0.3,0.8-0.5,1c-0.2,0.3-0.4,0.5-0.7,0.7c-0.2,0.2-0.5,0.3-0.9,0.4S26.5,9,26,9H23.4z
																 M24.4,8.2h1.5c0.5,0,0.8,0,1.1-0.1s0.5-0.2,0.6-0.4c0.2-0.2,0.4-0.5,0.5-0.9c0.1-0.4,0.2-0.8,0.2-1.4
																c0-0.7-0.1-1.3-0.4-1.7c-0.2-0.4-0.5-0.7-0.9-0.8c-0.3-0.1-0.7-0.1-1.2-0.1h-1.5V8.2z"/>
															<path d="M30.7,9V1.8h0.9v2.9h3.7V1.8h0.9V9h-0.9V5.6h-3.7V9H30.7z"/>
															<path d="M37.9,9V1.8h2.5c0.6,0,1,0,1.3,0.1c0.4,0.1,0.8,0.3,1,0.5c0.4,0.3,0.7,0.7,0.8,1.2c0.2,0.5,0.3,1.1,0.3,1.7
																c0,0.5-0.1,1-0.2,1.4s-0.3,0.8-0.5,1c-0.2,0.3-0.4,0.5-0.7,0.7c-0.2,0.2-0.5,0.3-0.9,0.4S40.9,9,40.5,9H37.9z
																 M38.8,8.2h1.5c0.5,0,0.8,0,1.1-0.1s0.5-0.2,0.6-0.4c0.2-0.2,0.4-0.5,0.5-0.9c0.1-0.4,0.2-0.8,0.2-1.4
																c0-0.7-0.1-1.3-0.4-1.7c-0.2-0.4-0.5-0.7-0.9-0.8c-0.3-0.1-0.7-0.1-1.2-0.1h-1.5V8.2z"/>
														</g>
													</g>
												</g>
												<path class="st2" d="M0,0"/>
											</g>
											<g transform="translate(54,0)">
												<path class="st0" d="M0,0h37v11H0V0z"/>
												<g>
													<g>
														<path class="st8" d="M1,1h10v10H1V1z"/>
													</g>
													<g>
														<g class="st1">
															<path d="M16,9l2.7-7.2h1L22.7,9h-1.1l-0.8-2.2h-3L17,9H16z M18.1,6.1h2.4l-0.7-2c-0.2-0.6-0.4-1.1-0.5-1.5
																C19.1,3.1,19,3.5,18.8,4L18.1,6.1z"/>
															<path d="M23.1,6.7L24,6.6c0,0.4,0.1,0.7,0.3,0.9c0.2,0.2,0.4,0.4,0.7,0.6c0.3,0.1,0.7,0.2,1.1,0.2
																c0.4,0,0.7-0.1,1-0.2s0.5-0.3,0.6-0.4c0.1-0.2,0.2-0.4,0.2-0.6c0-0.2-0.1-0.4-0.2-0.6c-0.1-0.2-0.3-0.3-0.6-0.4
																c-0.2-0.1-0.6-0.2-1.3-0.3c-0.7-0.2-1.1-0.3-1.4-0.4c-0.3-0.2-0.6-0.4-0.8-0.7c-0.2-0.3-0.3-0.6-0.3-0.9
																c0-0.4,0.1-0.7,0.3-1c0.2-0.3,0.5-0.6,0.9-0.7s0.8-0.2,1.3-0.2c0.5,0,1,0.1,1.4,0.3c0.4,0.2,0.7,0.4,0.9,0.8
																s0.3,0.7,0.4,1.1l-0.9,0.1c0-0.5-0.2-0.8-0.5-1S26.5,2.6,26,2.6c-0.6,0-1,0.1-1.3,0.3c-0.3,0.2-0.4,0.5-0.4,0.8
																c0,0.3,0.1,0.5,0.3,0.6c0.2,0.2,0.7,0.3,1.4,0.5c0.8,0.2,1.3,0.3,1.6,0.5C28,5.4,28.3,5.7,28.5,6
																c0.2,0.3,0.3,0.6,0.3,1c0,0.4-0.1,0.7-0.3,1.1c-0.2,0.3-0.5,0.6-0.9,0.8c-0.4,0.2-0.9,0.3-1.4,0.3
																c-0.6,0-1.2-0.1-1.6-0.3s-0.8-0.5-1-0.9C23.3,7.6,23.1,7.2,23.1,6.7z"/>
															<path d="M30.1,9V1.8h2.5c0.6,0,1,0,1.3,0.1c0.4,0.1,0.8,0.3,1,0.5c0.4,0.3,0.7,0.7,0.8,1.2C35.9,4.2,36,4.7,36,5.4
																c0,0.5-0.1,1-0.2,1.4s-0.3,0.8-0.5,1c-0.2,0.3-0.4,0.5-0.7,0.7c-0.2,0.2-0.5,0.3-0.9,0.4S33.1,9,32.7,9H30.1z
																 M31.1,8.2h1.5c0.5,0,0.8,0,1.1-0.1s0.5-0.2,0.6-0.4c0.2-0.2,0.4-0.5,0.5-0.9c0.1-0.4,0.2-0.8,0.2-1.4
																c0-0.7-0.1-1.3-0.4-1.7c-0.2-0.4-0.5-0.7-0.9-0.8c-0.3-0.1-0.7-0.1-1.2-0.1h-1.5V8.2z"/>
														</g>
													</g>
												</g>
												<path class="st2" d="M0,0"/>
											</g>
											<g transform="translate(101,0)">
												<path class="st0" d="M0,0h30v11H0V0z"/>
												<g>
													<g>
														<path class="st10" d="M1,1h10v10H1V1z"/>
													</g>
													<g>
														<g class="st1">
															<path d="M18.6,9V2.7h-2.4V1.8h5.7v0.8h-2.4V9H18.6z"/>
															<path d="M22.9,9V1.8h2.5c0.6,0,1,0,1.3,0.1c0.4,0.1,0.8,0.3,1,0.5c0.4,0.3,0.7,0.7,0.8,1.2c0.2,0.5,0.3,1.1,0.3,1.7
																c0,0.5-0.1,1-0.2,1.4s-0.3,0.8-0.5,1c-0.2,0.3-0.4,0.5-0.7,0.7c-0.2,0.2-0.5,0.3-0.9,0.4S25.9,9,25.5,9H22.9z
																 M23.8,8.2h1.5c0.5,0,0.8,0,1.1-0.1s0.5-0.2,0.6-0.4c0.2-0.2,0.4-0.5,0.5-0.9c0.1-0.4,0.2-0.8,0.2-1.4
																c0-0.7-0.1-1.3-0.4-1.7c-0.2-0.4-0.5-0.7-0.9-0.8c-0.3-0.1-0.7-0.1-1.2-0.1h-1.5V8.2z"/>
														</g>
													</g>
												</g>
												<path class="st2" d="M0,0"/>
											</g>
										</g>
									</g>
									<path pointer-events="none" class="st2" d="M0,0"/>
								</g>
							</g>
							<g pointer-events="none">
								<g class="st1">
									<path d="M0.8,9V1.1h2.6c1,0,1.6,0,1.9,0.1C5.7,1.4,6.1,1.6,6.4,2s0.5,0.9,0.5,1.5c0,0.5-0.1,0.9-0.3,1.2S6.2,5.4,5.9,5.5
										C5.6,5.7,5.4,5.9,5.1,5.9C4.7,6,4.1,6,3.4,6h-1v3H0.8z M2.4,2.5v2.2h0.9c0.6,0,1,0,1.3-0.1C4.7,4.5,4.9,4.4,5,4.2
										C5.1,4,5.2,3.8,5.2,3.6c0-0.3-0.1-0.5-0.3-0.7C4.8,2.7,4.6,2.6,4.3,2.5c-0.2,0-0.6-0.1-1.1-0.1H2.4z"/>
									<path d="M9.6,9H8.1V3.3h1.4v0.8c0.2-0.4,0.5-0.6,0.6-0.8c0.2-0.1,0.4-0.2,0.7-0.2c0.3,0,0.7,0.1,1,0.3l-0.5,1.3
										c-0.3-0.2-0.5-0.2-0.7-0.2c-0.2,0-0.4,0.1-0.5,0.2S9.8,5,9.7,5.3C9.6,5.6,9.6,6.3,9.6,7.2V9z"/>
									<path d="M12.4,2.5V1.1h1.5v1.4H12.4z M12.4,9V3.3h1.5V9H12.4z"/>
									<path d="M15.4,3.3h1.4v0.8c0.5-0.6,1.1-0.9,1.8-0.9c0.4,0,0.7,0.1,1,0.2s0.5,0.4,0.7,0.7c0.3-0.3,0.5-0.5,0.8-0.7
										s0.6-0.2,0.9-0.2c0.4,0,0.8,0.1,1.1,0.3s0.5,0.4,0.6,0.8c0.1,0.2,0.2,0.6,0.2,1.2V9h-1.5V5.7c0-0.6-0.1-0.9-0.2-1.1
										c-0.1-0.2-0.4-0.3-0.6-0.3c-0.2,0-0.4,0.1-0.6,0.2s-0.3,0.3-0.4,0.6s-0.1,0.6-0.1,1.2V9h-1.5V5.9c0-0.6,0-0.9-0.1-1.1
										s-0.1-0.3-0.2-0.4c-0.1-0.1-0.3-0.1-0.5-0.1c-0.2,0-0.4,0.1-0.6,0.2S17.1,4.8,17,5.1c-0.1,0.2-0.1,0.6-0.1,1.2V9h-1.5V3.3z
										"/>
									<path d="M26.4,5L25,4.8c0.2-0.6,0.4-1,0.8-1.2s0.9-0.4,1.7-0.4c0.7,0,1.2,0.1,1.5,0.2s0.6,0.4,0.7,0.6
										c0.1,0.2,0.2,0.7,0.2,1.4l0,1.8c0,0.5,0,0.9,0.1,1.1c0,0.2,0.1,0.5,0.3,0.8h-1.5c0-0.1-0.1-0.2-0.1-0.4
										c0-0.1,0-0.1-0.1-0.2c-0.3,0.3-0.5,0.4-0.8,0.6c-0.3,0.1-0.6,0.2-0.9,0.2c-0.6,0-1-0.2-1.4-0.5c-0.3-0.3-0.5-0.7-0.5-1.2
										c0-0.3,0.1-0.6,0.2-0.9c0.2-0.3,0.4-0.4,0.6-0.6c0.3-0.1,0.7-0.3,1.2-0.4c0.7-0.1,1.2-0.3,1.5-0.4V5.1
										c0-0.3-0.1-0.5-0.2-0.6c-0.1-0.1-0.4-0.2-0.8-0.2c-0.3,0-0.5,0.1-0.6,0.2S26.5,4.8,26.4,5z M28.4,6.3
										c-0.2,0.1-0.5,0.1-0.9,0.2c-0.4,0.1-0.7,0.2-0.8,0.3c-0.2,0.1-0.3,0.3-0.3,0.5c0,0.2,0.1,0.4,0.2,0.5
										C26.8,8,27,8.1,27.2,8.1c0.3,0,0.5-0.1,0.8-0.3c0.2-0.1,0.3-0.3,0.4-0.5c0-0.1,0.1-0.4,0.1-0.7V6.3z"/>
									<path d="M32.8,9h-1.5V3.3h1.4v0.8c0.2-0.4,0.5-0.6,0.6-0.8c0.2-0.1,0.4-0.2,0.7-0.2c0.3,0,0.7,0.1,1,0.3l-0.5,1.3
										c-0.3-0.2-0.5-0.2-0.7-0.2c-0.2,0-0.4,0.1-0.5,0.2S33,5,32.9,5.3c-0.1,0.3-0.1,0.9-0.1,1.9V9z"/>
									<path d="M34.9,3.3h1.6l1.4,4l1.3-4h1.6l-2,5.5l-0.4,1c-0.1,0.3-0.3,0.6-0.4,0.8c-0.1,0.2-0.3,0.3-0.4,0.4
										c-0.2,0.1-0.3,0.2-0.6,0.3c-0.2,0.1-0.5,0.1-0.8,0.1c-0.3,0-0.6,0-0.9-0.1L35.3,10c0.2,0,0.4,0.1,0.6,0.1
										c0.4,0,0.6-0.1,0.8-0.3S37,9.3,37.1,9L34.9,3.3z"/>
									<path d="M44.8,1.1h2.9c0.7,0,1.2,0,1.5,0.2c0.5,0.1,0.9,0.4,1.2,0.7c0.3,0.3,0.6,0.8,0.8,1.3s0.3,1.1,0.3,1.9
										c0,0.6-0.1,1.2-0.2,1.7c-0.2,0.6-0.5,1-0.8,1.4c-0.3,0.3-0.6,0.5-1.1,0.6C48.9,8.9,48.4,9,47.8,9h-3V1.1z M46.4,2.5v5.2
										h1.2c0.4,0,0.8,0,1-0.1c0.3-0.1,0.5-0.2,0.6-0.3c0.2-0.2,0.3-0.4,0.4-0.8s0.2-0.8,0.2-1.4S49.7,4,49.6,3.7
										c-0.1-0.3-0.3-0.6-0.5-0.8c-0.2-0.2-0.4-0.3-0.7-0.4c-0.2,0-0.7-0.1-1.3-0.1H46.4z"/>
									<path d="M52.8,2.5V1.1h1.5v1.4H52.8z M52.8,9V3.3h1.5V9H52.8z"/>
									<path d="M56.9,5l-1.4-0.2c0.2-0.6,0.4-1,0.8-1.2s0.9-0.4,1.7-0.4c0.7,0,1.2,0.1,1.5,0.2s0.6,0.4,0.7,0.6
										c0.1,0.2,0.2,0.7,0.2,1.4l0,1.8c0,0.5,0,0.9,0.1,1.1c0,0.2,0.1,0.5,0.3,0.8h-1.5c0-0.1-0.1-0.2-0.1-0.4
										c0-0.1,0-0.1-0.1-0.2c-0.3,0.3-0.5,0.4-0.8,0.6c-0.3,0.1-0.6,0.2-0.9,0.2c-0.6,0-1-0.2-1.4-0.5c-0.3-0.3-0.5-0.7-0.5-1.2
										c0-0.3,0.1-0.6,0.2-0.9C55.8,6.3,56,6.1,56.3,6c0.3-0.1,0.7-0.3,1.2-0.4c0.7-0.1,1.2-0.3,1.5-0.4V5.1
										c0-0.3-0.1-0.5-0.2-0.6c-0.1-0.1-0.4-0.2-0.8-0.2c-0.3,0-0.5,0.1-0.6,0.2S57,4.8,56.9,5z M59,6.3c-0.2,0.1-0.5,0.1-0.9,0.2
										c-0.4,0.1-0.7,0.2-0.8,0.3c-0.2,0.1-0.3,0.3-0.3,0.5c0,0.2,0.1,0.4,0.2,0.5c0.2,0.2,0.4,0.2,0.6,0.2c0.3,0,0.5-0.1,0.8-0.3
										c0.2-0.1,0.3-0.3,0.4-0.5c0-0.1,0.1-0.4,0.1-0.7V6.3z"/>
									<path d="M61.8,9.4l1.7,0.2c0,0.2,0.1,0.3,0.2,0.4c0.1,0.1,0.4,0.2,0.7,0.2c0.4,0,0.7-0.1,0.9-0.2c0.1-0.1,0.2-0.2,0.3-0.4
										c0-0.1,0.1-0.4,0.1-0.7V8.1c-0.5,0.6-1,0.9-1.7,0.9c-0.8,0-1.4-0.3-1.8-1c-0.4-0.5-0.5-1.1-0.5-1.9c0-1,0.2-1.7,0.7-2.2
										c0.5-0.5,1-0.8,1.7-0.8c0.7,0,1.3,0.3,1.7,0.9V3.3h1.4v5.1c0,0.7-0.1,1.2-0.2,1.5s-0.3,0.6-0.5,0.8s-0.5,0.3-0.8,0.4
										c-0.3,0.1-0.8,0.2-1.3,0.2c-1,0-1.7-0.2-2.1-0.5s-0.6-0.8-0.6-1.3C61.8,9.5,61.8,9.4,61.8,9.4z M63.1,6
										c0,0.6,0.1,1,0.4,1.3c0.2,0.3,0.5,0.4,0.9,0.4c0.4,0,0.7-0.1,0.9-0.4s0.4-0.7,0.4-1.3c0-0.6-0.1-1-0.4-1.3
										c-0.2-0.3-0.6-0.4-0.9-0.4c-0.4,0-0.7,0.1-0.9,0.4C63.3,5,63.1,5.5,63.1,6z"/>
									<path d="M73.8,9h-1.5V6.1c0-0.6,0-1-0.1-1.2s-0.2-0.3-0.3-0.4c-0.1-0.1-0.3-0.2-0.5-0.2c-0.3,0-0.5,0.1-0.7,0.2
										c-0.2,0.1-0.4,0.3-0.4,0.6c-0.1,0.2-0.1,0.7-0.1,1.3V9h-1.5V3.3H70v0.8c0.5-0.6,1.1-1,1.9-1c0.3,0,0.6,0.1,0.9,0.2
										s0.5,0.3,0.6,0.5c0.1,0.2,0.2,0.4,0.3,0.6c0.1,0.2,0.1,0.6,0.1,1V9z"/>
									<path d="M75,6.1c0-0.5,0.1-1,0.4-1.5c0.2-0.5,0.6-0.8,1.1-1.1c0.5-0.2,1-0.4,1.5-0.4c0.9,0,1.6,0.3,2.1,0.8
										s0.8,1.3,0.8,2.1c0,0.9-0.3,1.6-0.8,2.1c-0.6,0.6-1.3,0.9-2.1,0.9c-0.5,0-1-0.1-1.5-0.4c-0.5-0.2-0.8-0.6-1.1-1
										C75.1,7.3,75,6.7,75,6.1z M76.6,6.1c0,0.6,0.1,1,0.4,1.3s0.6,0.5,1,0.5s0.7-0.2,1-0.5c0.3-0.3,0.4-0.7,0.4-1.3
										c0-0.6-0.1-1-0.4-1.3c-0.3-0.3-0.6-0.5-1-0.5s-0.7,0.2-1,0.5S76.6,5.6,76.6,6.1z"/>
									<path d="M81.6,7.4l1.5-0.2c0.1,0.3,0.2,0.5,0.4,0.7S83.9,8,84.3,8C84.7,8,85,8,85.2,7.8c0.1-0.1,0.2-0.2,0.2-0.4
										c0-0.1,0-0.2-0.1-0.3C85.2,7.1,85,7,84.8,6.9c-1.2-0.3-2-0.5-2.3-0.7c-0.5-0.3-0.7-0.7-0.7-1.3c0-0.5,0.2-0.9,0.6-1.2
										s1-0.5,1.8-0.5c0.8,0,1.4,0.1,1.7,0.4c0.4,0.3,0.6,0.6,0.8,1.1l-1.4,0.3c-0.1-0.2-0.2-0.4-0.3-0.5
										c-0.2-0.1-0.4-0.2-0.7-0.2c-0.4,0-0.7,0.1-0.9,0.2c-0.1,0.1-0.2,0.2-0.2,0.3c0,0.1,0.1,0.2,0.2,0.3
										c0.1,0.1,0.6,0.2,1.4,0.4c0.8,0.2,1.4,0.4,1.7,0.7c0.3,0.3,0.5,0.6,0.5,1.1c0,0.5-0.2,1-0.7,1.3c-0.4,0.4-1.1,0.6-1.9,0.6
										c-0.8,0-1.4-0.2-1.8-0.5C82,8.3,81.7,7.9,81.6,7.4z"/>
									<path d="M88.2,2.5V1.1h1.5v1.4H88.2z M88.2,9V3.3h1.5V9H88.2z"/>
									<path d="M90.7,7.4l1.5-0.2c0.1,0.3,0.2,0.5,0.4,0.7S93.1,8,93.5,8c0.4,0,0.7-0.1,0.9-0.2c0.1-0.1,0.2-0.2,0.2-0.4
										c0-0.1,0-0.2-0.1-0.3c-0.1-0.1-0.2-0.1-0.5-0.2c-1.2-0.3-2-0.5-2.3-0.7c-0.5-0.3-0.7-0.7-0.7-1.3c0-0.5,0.2-0.9,0.6-1.2
										s1-0.5,1.8-0.5c0.8,0,1.4,0.1,1.7,0.4c0.4,0.3,0.6,0.6,0.8,1.1l-1.4,0.3c-0.1-0.2-0.2-0.4-0.3-0.5
										c-0.2-0.1-0.4-0.2-0.7-0.2c-0.4,0-0.7,0.1-0.9,0.2c-0.1,0.1-0.2,0.2-0.2,0.3c0,0.1,0.1,0.2,0.2,0.3
										c0.1,0.1,0.6,0.2,1.4,0.4c0.8,0.2,1.4,0.4,1.7,0.7c0.3,0.3,0.5,0.6,0.5,1.1c0,0.5-0.2,1-0.7,1.3c-0.4,0.4-1.1,0.6-1.9,0.6
										c-0.8,0-1.4-0.2-1.8-0.5C91.2,8.3,90.9,7.9,90.7,7.4z"/>
								</g>
							</g>
						</g>
						<path pointer-events="none" class="st2" d="M0,0"/>
					</g>
				</g>
			</g>
			<path class="st2" d="M0,0"/>
		</g>
	</g>
</g>
</svg>
