<svg xmlns="http://www.w3.org/2000/svg" viewBox="0 0 98.822 98.822"><defs><style>.a{fill:#f37666;}.b{opacity:0.75;}.c{fill:#fdb817;}.d{fill:#044163;}.e{fill:#66c8c9;}</style></defs><circle class="a" cx="49.411" cy="49.411" r="49.411"/><g class="b"><path class="c" d="M65.766,65.947c-11.5,0-11.5-39-23-39s-11.5,39-23,39"/><path class="d" d="M65.766,66.547c-6.2,0-9-9.7-12-19.9-2.8-9.4-5.6-19.1-10.9-19.1s-8.2,9.7-10.9,19.1c-3,10.3-5.9,19.9-12,19.9v-1.2c5.3,0,8.2-9.7,10.9-19.1,3-10.3,5.9-19.9,12-19.9s9,9.7,12,19.9c2.8,9.4,5.6,19.1,10.9,19.1Z"/></g><path class="d" d="M83.612,74.947H15.1a.732.732,0,0,1-.738-.6h0v-55.7h1.476v55.1h67.77Z"/><g class="b"><path class="e" d="M80.773,66.256c-11.5,0-11.5-39-23-39s-11.5,39-23,39"/><path class="d" d="M80.773,66.856c-6.2,0-9-9.7-12-19.9-2.8-9.4-5.6-19.1-10.9-19.1s-8.2,9.7-10.9,19.1c-3,10.3-5.9,19.9-12,19.9v-1.2c5.3,0,8.2-9.7,10.9-19.1,3-10.3,5.9-19.9,12-19.9s9,9.7,12,19.9c2.8,9.4,5.6,19.1,10.9,19.1Z"/></g></svg>