<?xml version="1.0" encoding="utf-8"?>
<!-- Generator: Adobe Illustrator 24.2.0, SVG Export Plug-In . SVG Version: 6.00 Build 0)  -->
<svg version="1.1" id="Layer_1" xmlns="http://www.w3.org/2000/svg" xmlns:xlink="http://www.w3.org/1999/xlink" x="0px" y="0px"
	 viewBox="0 0 647 475.8" style="enable-background:new 0 0 647 475.8;" xml:space="preserve">
<style type="text/css">
	.st0{fill:#E6E7E8;}
	.st1{fill:#BCBEC0;}
	.st2{fill:#FFFFFF;stroke:#000000;stroke-miterlimit:10;}
	.st3{fill:#58595B;}
	.st4{fill:#4B7AA9;}
	.st5{fill:#F8991D;}
	.st6{fill:#E25656;}
	.st7{fill:none;}
	.st8{fill:#FDFEFE;}
</style>
<rect x="279.2" y="67.1" class="st0" width="349.7" height="391.9"/>
<rect x="147.7" y="67.1" class="st1" width="126.2" height="391.9"/>
<g>
	<ellipse class="st2" cx="67.2" cy="134.1" rx="46.6" ry="31.9"/>
	<g>
		<path d="M59.6,135.7c0,1-0.4,1.8-1.1,2.4c-0.7,0.6-1.7,0.8-3,0.8c-1.4,0-2.4-0.2-3.1-0.5v-1.3c0.5,0.2,1,0.4,1.5,0.5
			c0.6,0.1,1.1,0.2,1.6,0.2c0.9,0,1.6-0.2,2-0.5c0.4-0.3,0.7-0.8,0.7-1.4c0-0.4-0.1-0.7-0.2-1c-0.2-0.3-0.4-0.5-0.8-0.7
			c-0.4-0.2-0.9-0.5-1.7-0.7c-1.1-0.4-1.8-0.8-2.3-1.4c-0.5-0.5-0.7-1.2-0.7-2c0-0.9,0.3-1.6,1-2.1c0.7-0.5,1.5-0.8,2.6-0.8
			c1.1,0,2.2,0.2,3.1,0.6l-0.4,1.2c-0.9-0.4-1.9-0.6-2.8-0.6c-0.7,0-1.3,0.2-1.6,0.5c-0.4,0.3-0.6,0.7-0.6,1.3c0,0.4,0.1,0.7,0.2,1
			c0.1,0.3,0.4,0.5,0.7,0.7c0.3,0.2,0.9,0.4,1.6,0.7c1.2,0.4,2,0.9,2.5,1.4C59.4,134.3,59.6,134.9,59.6,135.7z"/>
		<path d="M66.8,128.4c-1.3,0-2.2,0.4-3,1.3c-0.7,0.8-1.1,2-1.1,3.4c0,1.5,0.4,2.6,1.1,3.5c0.7,0.8,1.7,1.2,3,1.2
			c0.8,0,1.7-0.1,2.7-0.4v1.2c-0.8,0.3-1.8,0.4-2.9,0.4c-1.7,0-3-0.5-3.9-1.5c-0.9-1-1.4-2.5-1.4-4.4c0-1.2,0.2-2.2,0.7-3.1
			c0.4-0.9,1.1-1.6,1.9-2c0.8-0.5,1.8-0.7,2.9-0.7c1.2,0,2.2,0.2,3.1,0.7l-0.6,1.1C68.5,128.6,67.7,128.4,66.8,128.4z"/>
		<path d="M81.9,133c0,1.5-0.3,2.7-0.9,3.6c-0.6,1-1.4,1.6-2.5,2l2.7,2.8h-1.9l-2.2-2.6l-0.4,0c-1.7,0-3-0.5-3.9-1.5
			c-0.9-1-1.4-2.5-1.4-4.4c0-1.9,0.5-3.3,1.4-4.3c0.9-1,2.2-1.5,3.9-1.5c1.6,0,2.9,0.5,3.8,1.6C81.5,129.8,81.9,131.2,81.9,133z
			 M72.8,133c0,1.5,0.3,2.7,1,3.5c0.7,0.8,1.6,1.2,2.9,1.2c1.3,0,2.2-0.4,2.9-1.2c0.6-0.8,1-2,1-3.5c0-1.5-0.3-2.7-1-3.5
			c-0.6-0.8-1.6-1.2-2.9-1.2c-1.3,0-2.2,0.4-2.9,1.2C73.2,130.3,72.8,131.5,72.8,133z"/>
	</g>
</g>
<g>
	<rect x="19.6" y="187.8" class="st2" width="95.3" height="51.7"/>
	<g>
		<path d="M56.3,218.4l-1.4-3.6h-4.6l-1.4,3.6h-1.3l4.5-11.5h1.1l4.5,11.5H56.3z M54.4,213.5l-1.3-3.5c-0.2-0.4-0.3-1-0.5-1.6
			c-0.1,0.5-0.3,1-0.5,1.6l-1.3,3.5H54.4z"/>
		<path d="M59.2,206.9h3.2c1.5,0,2.6,0.2,3.3,0.7c0.7,0.5,1,1.2,1,2.1c0,0.7-0.2,1.2-0.6,1.7c-0.4,0.4-0.9,0.7-1.7,0.9v0.1
			c1.7,0.3,2.6,1.2,2.6,2.7c0,1-0.3,1.8-1,2.4c-0.7,0.6-1.7,0.9-2.9,0.9h-4V206.9z M60.6,211.8h2.2c0.9,0,1.6-0.1,2-0.4
			c0.4-0.3,0.6-0.8,0.6-1.5c0-0.6-0.2-1.1-0.7-1.4c-0.5-0.3-1.2-0.4-2.2-0.4h-2V211.8z M60.6,213v4.3h2.4c0.9,0,1.6-0.2,2.1-0.5
			c0.5-0.4,0.7-0.9,0.7-1.7c0-0.7-0.2-1.2-0.7-1.6c-0.5-0.3-1.2-0.5-2.2-0.5H60.6z"/>
		<path d="M76.8,218.4l-1.4-3.6h-4.6l-1.4,3.6H68l4.5-11.5h1.1l4.5,11.5H76.8z M74.9,213.5l-1.3-3.5c-0.2-0.4-0.3-1-0.5-1.6
			c-0.1,0.5-0.3,1-0.5,1.6l-1.3,3.5H74.9z"/>
		<path d="M86.2,215.3c0,1-0.4,1.8-1.1,2.4c-0.7,0.6-1.7,0.8-3,0.8c-1.4,0-2.4-0.2-3.1-0.5v-1.3c0.5,0.2,1,0.4,1.5,0.5
			c0.6,0.1,1.1,0.2,1.6,0.2c0.9,0,1.6-0.2,2-0.5c0.4-0.3,0.7-0.8,0.7-1.4c0-0.4-0.1-0.7-0.2-1c-0.2-0.3-0.4-0.5-0.8-0.7
			c-0.4-0.2-0.9-0.5-1.7-0.7c-1.1-0.4-1.8-0.8-2.3-1.4c-0.5-0.5-0.7-1.2-0.7-2c0-0.9,0.3-1.6,1-2.1c0.7-0.5,1.5-0.8,2.6-0.8
			c1.1,0,2.2,0.2,3.1,0.6l-0.4,1.2c-0.9-0.4-1.9-0.6-2.8-0.6c-0.7,0-1.3,0.2-1.6,0.5c-0.4,0.3-0.6,0.7-0.6,1.3c0,0.4,0.1,0.7,0.2,1
			c0.1,0.3,0.4,0.5,0.7,0.7c0.3,0.2,0.9,0.4,1.6,0.7c1.2,0.4,2,0.9,2.5,1.4C85.9,213.9,86.2,214.6,86.2,215.3z"/>
	</g>
</g>
<g>
	<polygon class="st2" points="93.9,266.2 40.6,266.2 13.9,294.7 40.6,323.3 93.9,323.3 120.6,294.7 	"/>
	<g>
		<path d="M54.3,289c-1.3,0-2.2,0.4-3,1.3s-1.1,2-1.1,3.4c0,1.5,0.4,2.6,1.1,3.5c0.7,0.8,1.7,1.2,3,1.2c0.8,0,1.7-0.1,2.7-0.4v1.2
			c-0.8,0.3-1.8,0.4-2.9,0.4c-1.7,0-3-0.5-3.9-1.5s-1.4-2.5-1.4-4.4c0-1.2,0.2-2.2,0.7-3.1c0.4-0.9,1.1-1.6,1.9-2
			c0.8-0.5,1.8-0.7,2.9-0.7c1.2,0,2.2,0.2,3.1,0.7l-0.6,1.1C56,289.2,55.1,289,54.3,289z"/>
		<path d="M59.5,288h3.2c1.5,0,2.6,0.2,3.3,0.7c0.7,0.5,1,1.2,1,2.1c0,0.7-0.2,1.2-0.6,1.7c-0.4,0.4-0.9,0.7-1.7,0.9v0.1
			c1.7,0.3,2.6,1.2,2.6,2.7c0,1-0.3,1.8-1,2.4c-0.7,0.6-1.7,0.9-2.9,0.9h-4V288z M60.8,292.9H63c0.9,0,1.6-0.1,2-0.4
			c0.4-0.3,0.6-0.8,0.6-1.5c0-0.6-0.2-1.1-0.7-1.4c-0.5-0.3-1.2-0.4-2.2-0.4h-2V292.9z M60.8,294v4.3h2.4c0.9,0,1.6-0.2,2.1-0.5
			c0.5-0.4,0.7-0.9,0.7-1.7c0-0.7-0.2-1.2-0.7-1.6S64,294,63.1,294H60.8z"/>
		<path d="M74.7,289c-1.3,0-2.2,0.4-3,1.3s-1.1,2-1.1,3.4c0,1.5,0.4,2.6,1.1,3.5c0.7,0.8,1.7,1.2,3,1.2c0.8,0,1.7-0.1,2.7-0.4v1.2
			c-0.8,0.3-1.8,0.4-2.9,0.4c-1.7,0-3-0.5-3.9-1.5s-1.4-2.5-1.4-4.4c0-1.2,0.2-2.2,0.7-3.1c0.4-0.9,1.1-1.6,1.9-2
			c0.8-0.5,1.8-0.7,2.9-0.7c1.2,0,2.2,0.2,3.1,0.7l-0.6,1.1C76.5,289.2,75.6,289,74.7,289z"/>
		<path d="M79.9,299.4V288h1.3v10.2h5v1.2H79.9z"/>
	</g>
</g>
<g>
	<path class="st3" d="M173.4,77.7c-0.9,0-1.6,0.3-2.1,1c-0.5,0.7-0.8,1.6-0.8,2.9c0,2.5,1,3.8,2.9,3.8c0.8,0,1.8-0.2,2.9-0.6v2
		c-0.9,0.4-2,0.6-3.1,0.6c-1.7,0-2.9-0.5-3.8-1.5c-0.9-1-1.3-2.5-1.3-4.3c0-1.2,0.2-2.2,0.6-3.1c0.4-0.9,1.1-1.6,1.9-2.1
		c0.8-0.5,1.8-0.7,2.8-0.7c1.1,0,2.2,0.3,3.3,0.8l-0.8,2c-0.4-0.2-0.9-0.4-1.3-0.5C174.2,77.8,173.8,77.7,173.4,77.7z"/>
	<path class="st3" d="M189.1,81.5c0,1.9-0.5,3.3-1.4,4.4s-2.3,1.5-4,1.5s-3.1-0.5-4-1.5s-1.4-2.5-1.4-4.4c0-1.9,0.5-3.4,1.4-4.4
		c0.9-1,2.3-1.5,4-1.5c1.8,0,3.1,0.5,4,1.5C188.6,78.2,189.1,79.6,189.1,81.5z M180.7,81.5c0,1.3,0.2,2.2,0.7,2.9
		c0.5,0.6,1.2,1,2.2,1c1.9,0,2.9-1.3,2.9-3.9c0-2.6-1-3.9-2.9-3.9c-1,0-1.7,0.3-2.2,1C181,79.3,180.7,80.2,180.7,81.5z"/>
	<path class="st3" d="M196.3,87.2l-2.8-9h-0.1c0.1,1.8,0.1,3,0.1,3.6v5.3h-2.2V75.8h3.3l2.7,8.7h0l2.9-8.7h3.3v11.4h-2.3v-5.4
		c0-0.3,0-0.5,0-0.9c0-0.3,0-1.2,0.1-2.7h-0.1l-2.9,8.9H196.3z"/>
	<path class="st3" d="M206.5,75.8h3.6c1.6,0,2.8,0.2,3.5,0.7c0.7,0.5,1.1,1.2,1.1,2.2c0,0.7-0.2,1.2-0.5,1.7s-0.7,0.7-1.3,0.8v0.1
		c0.7,0.2,1.2,0.5,1.6,0.9c0.3,0.4,0.5,1,0.5,1.8c0,1-0.4,1.9-1.1,2.4c-0.8,0.6-1.8,0.9-3.1,0.9h-4.3V75.8z M208.9,80.4h1.4
		c0.7,0,1.1-0.1,1.4-0.3c0.3-0.2,0.4-0.5,0.4-1c0-0.4-0.2-0.8-0.5-0.9c-0.3-0.2-0.8-0.3-1.5-0.3h-1.3V80.4z M208.9,82.3v3h1.6
		c0.7,0,1.2-0.1,1.5-0.4c0.3-0.3,0.5-0.6,0.5-1.2c0-0.9-0.7-1.4-2-1.4H208.9z"/>
	<path class="st3" d="M217.3,87.2V75.8h2.4v11.4H217.3z"/>
	<path class="st3" d="M232.7,87.2h-3.1l-5-8.6h-0.1c0.1,1.5,0.1,2.6,0.1,3.3v5.4h-2.2V75.8h3.1l5,8.6h0.1c-0.1-1.5-0.1-2.5-0.1-3.1
		v-5.4h2.2V87.2z"/>
	<path class="st3" d="M242.2,87.2h-6.6V75.8h6.6v2H238v2.5h3.9v2H238v2.9h4.2V87.2z"/>
	<path class="st3" d="M254,81.4c0,1.9-0.5,3.3-1.6,4.3s-2.6,1.5-4.6,1.5h-3.2V75.8h3.6c1.9,0,3.3,0.5,4.3,1.5S254,79.7,254,81.4z
		 M251.5,81.5c0-2.5-1.1-3.7-3.3-3.7H247v7.4h1C250.3,85.2,251.5,84,251.5,81.5z"/>
</g>
<g>
	<g>
		<path class="st4" d="M323.8,87.2l-0.8-2.7h-4.2l-0.8,2.7h-2.6l4-11.5h3l4,11.5H323.8z M322.4,82.5c-0.8-2.5-1.2-3.9-1.3-4.2
			c-0.1-0.3-0.2-0.6-0.2-0.8c-0.2,0.7-0.7,2.3-1.5,4.9H322.4z"/>
		<path class="st4" d="M337.3,81.4c0,1.9-0.5,3.3-1.6,4.3s-2.6,1.5-4.6,1.5h-3.2V75.8h3.6c1.9,0,3.3,0.5,4.3,1.5
			S337.3,79.7,337.3,81.4z M334.8,81.5c0-2.5-1.1-3.7-3.3-3.7h-1.3v7.4h1C333.6,85.2,334.8,84,334.8,81.5z"/>
		<path class="st4" d="M349,87.2h-2.4v-4.9h-4.5v4.9h-2.4V75.8h2.4v4.5h4.5v-4.5h2.4V87.2z"/>
		<path class="st4" d="M361.4,81.4c0,1.9-0.5,3.3-1.6,4.3s-2.6,1.5-4.6,1.5h-3.2V75.8h3.6c1.9,0,3.3,0.5,4.3,1.5
			S361.4,79.7,361.4,81.4z M358.9,81.5c0-2.5-1.1-3.7-3.3-3.7h-1.3v7.4h1C357.7,85.2,358.9,84,358.9,81.5z"/>
	</g>
</g>
<g>
	<g>
		<path class="st5" d="M448.6,87.9l-0.8-2.7h-4.2l-0.8,2.7h-2.6l4-11.5h3l4,11.5H448.6z M447.2,83.2c-0.8-2.5-1.2-3.9-1.3-4.2
			c-0.1-0.3-0.2-0.6-0.2-0.8c-0.2,0.7-0.7,2.3-1.5,4.9H447.2z"/>
		<path class="st5" d="M459.4,84.7c0,1-0.4,1.8-1.1,2.4s-1.8,0.9-3.1,0.9c-1.2,0-2.3-0.2-3.2-0.7v-2.3c0.8,0.3,1.4,0.6,2,0.7
			s1,0.2,1.5,0.2c0.5,0,0.9-0.1,1.2-0.3s0.4-0.5,0.4-0.9c0-0.2-0.1-0.4-0.2-0.6c-0.1-0.2-0.3-0.3-0.6-0.5c-0.2-0.2-0.7-0.4-1.5-0.8
			c-0.7-0.3-1.2-0.6-1.6-0.9c-0.3-0.3-0.6-0.7-0.8-1.1c-0.2-0.4-0.3-0.9-0.3-1.4c0-1,0.3-1.8,1-2.4s1.6-0.9,2.8-0.9
			c0.6,0,1.2,0.1,1.7,0.2s1.1,0.3,1.7,0.6l-0.8,1.9c-0.6-0.3-1.1-0.4-1.5-0.5c-0.4-0.1-0.8-0.1-1.2-0.1c-0.5,0-0.8,0.1-1.1,0.3
			c-0.2,0.2-0.4,0.5-0.4,0.8c0,0.2,0,0.4,0.1,0.6c0.1,0.2,0.3,0.3,0.5,0.5s0.7,0.4,1.5,0.8c1.1,0.5,1.8,1,2.2,1.5
			C459.2,83.4,459.4,84,459.4,84.7z"/>
		<path class="st5" d="M471,82.1c0,1.9-0.5,3.3-1.6,4.3s-2.6,1.5-4.6,1.5h-3.2V76.5h3.6c1.9,0,3.3,0.5,4.3,1.5S471,80.3,471,82.1z
			 M468.5,82.2c0-2.5-1.1-3.7-3.3-3.7h-1.3v7.4h1C467.3,85.9,468.5,84.7,468.5,82.2z"/>
	</g>
</g>
<g>
	<g>
		<path class="st6" d="M564.4,87.2h-2.4v-9.4h-3.1v-2h8.6v2h-3.1V87.2z"/>
		<path class="st6" d="M578.7,81.4c0,1.9-0.5,3.3-1.6,4.3s-2.6,1.5-4.6,1.5h-3.2V75.8h3.6c1.9,0,3.3,0.5,4.3,1.5
			S578.7,79.7,578.7,81.4z M576.2,81.5c0-2.5-1.1-3.7-3.3-3.7h-1.3v7.4h1C575,85.2,576.2,84,576.2,81.5z"/>
	</g>
</g>
<g>
	<ellipse class="st3" cx="211" cy="134.1" rx="46.6" ry="31.9"/>
	<g>
		<rect x="179.1" y="118.3" class="st7" width="63.8" height="31.5"/>
		<path class="st8" d="M205.3,125.1c0,0.8-0.3,1.3-0.8,1.8s-1.3,0.6-2.2,0.6c-1,0-1.8-0.1-2.3-0.4v-1c0.4,0.1,0.7,0.3,1.1,0.4
			s0.8,0.1,1.2,0.1c0.7,0,1.2-0.1,1.5-0.4s0.5-0.6,0.5-1.1c0-0.3-0.1-0.5-0.2-0.7s-0.3-0.4-0.6-0.5s-0.7-0.3-1.3-0.5
			c-0.8-0.3-1.4-0.6-1.7-1s-0.5-0.9-0.5-1.5c0-0.7,0.2-1.2,0.7-1.6s1.2-0.6,2-0.6c0.9,0,1.6,0.2,2.3,0.5l-0.3,0.9
			c-0.7-0.3-1.4-0.4-2.1-0.4c-0.5,0-0.9,0.1-1.2,0.3s-0.4,0.5-0.4,0.9c0,0.3,0.1,0.5,0.2,0.7s0.3,0.4,0.6,0.5s0.7,0.3,1.2,0.5
			c0.9,0.3,1.5,0.7,1.9,1S205.3,124.5,205.3,125.1z"/>
		<path class="st8" d="M210.7,119.6c-0.9,0-1.7,0.3-2.2,0.9s-0.8,1.5-0.8,2.6c0,1.1,0.3,2,0.8,2.6s1.3,0.9,2.2,0.9
			c0.6,0,1.3-0.1,2-0.3v0.9c-0.6,0.2-1.3,0.3-2.2,0.3c-1.3,0-2.2-0.4-2.9-1.1s-1-1.9-1-3.3c0-0.9,0.2-1.7,0.5-2.3s0.8-1.2,1.4-1.5
			s1.4-0.5,2.2-0.5c0.9,0,1.7,0.2,2.4,0.5l-0.4,0.9C212,119.8,211.3,119.6,210.7,119.6z"/>
		<path class="st8" d="M222,123.1c0,1.1-0.2,2-0.7,2.7s-1.1,1.2-1.9,1.5l2,2.1h-1.4l-1.7-1.9l-0.3,0c-1.3,0-2.2-0.4-2.9-1.2
			s-1-1.9-1-3.3c0-1.4,0.3-2.5,1-3.2s1.7-1.2,2.9-1.2c1.2,0,2.2,0.4,2.9,1.2S222,121.7,222,123.1z M215.2,123.1c0,1.2,0.2,2,0.7,2.6
			s1.2,0.9,2.2,0.9c0.9,0,1.7-0.3,2.2-0.9s0.7-1.5,0.7-2.6c0-1.2-0.2-2-0.7-2.6s-1.2-0.9-2.1-0.9c-0.9,0-1.7,0.3-2.2,0.9
			S215.2,122,215.2,123.1z"/>
		<path class="st8" d="M184,134c-0.9,0-1.7,0.3-2.2,0.9s-0.8,1.5-0.8,2.6c0,1.1,0.3,2,0.8,2.6s1.3,0.9,2.2,0.9c0.6,0,1.3-0.1,2-0.3
			v0.9c-0.6,0.2-1.3,0.3-2.2,0.3c-1.3,0-2.2-0.4-2.9-1.1s-1-1.9-1-3.3c0-0.9,0.2-1.7,0.5-2.3s0.8-1.2,1.4-1.5s1.4-0.5,2.2-0.5
			c0.9,0,1.7,0.2,2.4,0.5l-0.4,0.9C185.3,134.2,184.6,134,184,134z"/>
		<path class="st8" d="M193.3,138.6c0,1-0.3,1.9-0.8,2.5s-1.3,0.9-2.2,0.9c-0.6,0-1.1-0.1-1.5-0.4s-0.8-0.7-1-1.2s-0.4-1.1-0.4-1.8
			c0-1,0.3-1.9,0.8-2.4s1.3-0.9,2.2-0.9c0.9,0,1.6,0.3,2.1,0.9S193.3,137.6,193.3,138.6z M188.4,138.6c0,0.8,0.2,1.4,0.5,1.9
			s0.8,0.6,1.4,0.6s1.1-0.2,1.5-0.6s0.5-1.1,0.5-1.9c0-0.8-0.2-1.4-0.5-1.9s-0.8-0.6-1.5-0.6c-0.6,0-1.1,0.2-1.4,0.6
			S188.4,137.8,188.4,138.6z"/>
		<path class="st8" d="M203.2,141.8v-4.2c0-0.5-0.1-0.9-0.3-1.2s-0.6-0.4-1-0.4c-0.6,0-1.1,0.2-1.3,0.5s-0.4,0.9-0.4,1.6v3.6h-1
			v-4.2c0-0.5-0.1-0.9-0.3-1.2s-0.6-0.4-1-0.4c-0.6,0-1.1,0.2-1.3,0.5s-0.4,1-0.4,1.8v3.4h-1v-6.4h0.8l0.2,0.9h0
			c0.2-0.3,0.4-0.6,0.8-0.7s0.7-0.3,1.1-0.3c1,0,1.7,0.4,2,1.1h0c0.2-0.3,0.5-0.6,0.8-0.8s0.8-0.3,1.2-0.3c0.7,0,1.3,0.2,1.6,0.6
			s0.5,1,0.5,1.8v4.2H203.2z"/>
		<path class="st8" d="M209.1,135.3c0.8,0,1.5,0.3,2,0.9s0.7,1.4,0.7,2.4s-0.2,1.9-0.7,2.5s-1.1,0.9-2,0.9c-0.4,0-0.8-0.1-1.1-0.2
			s-0.6-0.4-0.9-0.7H207l-0.2,0.8h-0.7v-9.1h1v2.2c0,0.5,0,0.9,0,1.3h0C207.6,135.6,208.2,135.3,209.1,135.3z M209,136.1
			c-0.7,0-1.1,0.2-1.4,0.6s-0.4,1-0.4,1.9s0.2,1.5,0.5,1.9s0.8,0.6,1.4,0.6c0.6,0,1-0.2,1.3-0.7s0.4-1.1,0.4-1.9
			c0-0.8-0.1-1.5-0.4-1.9S209.6,136.1,209,136.1z"/>
		<path class="st8" d="M213.4,133.7c0-0.2,0.1-0.4,0.2-0.5s0.2-0.2,0.4-0.2c0.2,0,0.3,0.1,0.4,0.2s0.2,0.3,0.2,0.5s-0.1,0.4-0.2,0.5
			s-0.2,0.2-0.4,0.2c-0.2,0-0.3-0.1-0.4-0.2S213.4,133.9,213.4,133.7z M214.5,141.8h-1v-6.4h1V141.8z"/>
		<path class="st8" d="M220.9,141.8v-4.2c0-0.5-0.1-0.9-0.4-1.2s-0.6-0.4-1.1-0.4c-0.7,0-1.2,0.2-1.5,0.5s-0.5,1-0.5,1.8v3.4h-1
			v-6.4h0.8l0.2,0.9h0c0.2-0.3,0.5-0.6,0.8-0.7s0.8-0.3,1.2-0.3c0.8,0,1.4,0.2,1.7,0.6s0.6,1,0.6,1.8v4.2H220.9z"/>
		<path class="st8" d="M226.6,141.9c-0.9,0-1.7-0.3-2.2-0.9s-0.8-1.4-0.8-2.4c0-1,0.3-1.9,0.8-2.5s1.2-0.9,2.1-0.9
			c0.8,0,1.4,0.3,1.9,0.8s0.7,1.2,0.7,2.1v0.6h-4.4c0,0.8,0.2,1.3,0.6,1.7s0.9,0.6,1.5,0.6c0.7,0,1.4-0.1,2.1-0.4v0.9
			c-0.3,0.1-0.7,0.3-1,0.3S227,141.9,226.6,141.9z M226.3,136.1c-0.5,0-0.9,0.2-1.2,0.5s-0.5,0.8-0.5,1.4h3.4c0-0.6-0.1-1.1-0.4-1.4
			S226.9,136.1,226.3,136.1z"/>
		<path class="st8" d="M235,141L235,141c-0.5,0.7-1.2,1-2.1,1c-0.8,0-1.5-0.3-2-0.9s-0.7-1.4-0.7-2.4s0.2-1.9,0.7-2.5s1.1-0.9,2-0.9
			c0.9,0,1.5,0.3,2,0.9h0.1l0-0.5l0-0.5v-2.6h1v9.1h-0.8L235,141z M233.1,141.1c0.7,0,1.1-0.2,1.4-0.5s0.4-0.9,0.4-1.7v-0.2
			c0-0.9-0.2-1.6-0.5-1.9s-0.8-0.6-1.5-0.6c-0.6,0-1,0.2-1.3,0.7s-0.5,1.1-0.5,1.9c0,0.8,0.2,1.4,0.5,1.9S232.5,141.1,233.1,141.1z"
			/>
	</g>
</g>
<g>
	<rect x="163.4" y="187.8" class="st3" width="95.3" height="51.7"/>
	<g>
		<rect x="179.1" y="197.9" class="st7" width="63.8" height="31.5"/>
		<path class="st8" d="M202.8,207l-1.1-2.7h-3.4l-1.1,2.7h-1l3.4-8.6h0.8l3.4,8.6H202.8z M201.4,203.4l-1-2.7
			c-0.1-0.3-0.3-0.7-0.4-1.2c-0.1,0.4-0.2,0.8-0.4,1.2l-1,2.7H201.4z"/>
		<path class="st8" d="M205,198.5h2.4c1.1,0,2,0.2,2.5,0.5s0.8,0.9,0.8,1.6c0,0.5-0.1,0.9-0.4,1.3s-0.7,0.5-1.2,0.6v0.1
			c1.3,0.2,2,0.9,2,2.1c0,0.8-0.3,1.4-0.8,1.8s-1.2,0.6-2.2,0.6h-3V198.5z M206,202.1h1.6c0.7,0,1.2-0.1,1.5-0.3s0.5-0.6,0.5-1.1
			c0-0.5-0.2-0.8-0.5-1s-0.9-0.3-1.6-0.3H206V202.1z M206,203v3.2h1.8c0.7,0,1.2-0.1,1.6-0.4s0.5-0.7,0.5-1.3c0-0.5-0.2-0.9-0.5-1.2
			s-0.9-0.4-1.6-0.4H206z"/>
		<path class="st8" d="M218.2,207l-1.1-2.7h-3.4l-1.1,2.7h-1l3.4-8.6h0.8l3.4,8.6H218.2z M216.8,203.4l-1-2.7
			c-0.1-0.3-0.3-0.7-0.4-1.2c-0.1,0.4-0.2,0.8-0.4,1.2l-1,2.7H216.8z"/>
		<path class="st8" d="M225.2,204.8c0,0.8-0.3,1.3-0.8,1.8s-1.3,0.6-2.2,0.6c-1,0-1.8-0.1-2.3-0.4v-1c0.4,0.1,0.7,0.3,1.1,0.4
			s0.8,0.1,1.2,0.1c0.7,0,1.2-0.1,1.5-0.4s0.5-0.6,0.5-1.1c0-0.3-0.1-0.5-0.2-0.7s-0.3-0.4-0.6-0.5s-0.7-0.3-1.3-0.5
			c-0.8-0.3-1.4-0.6-1.7-1s-0.5-0.9-0.5-1.5c0-0.7,0.2-1.2,0.7-1.6s1.2-0.6,2-0.6c0.9,0,1.6,0.2,2.3,0.5l-0.3,0.9
			c-0.7-0.3-1.4-0.4-2.1-0.4c-0.5,0-0.9,0.1-1.2,0.3s-0.4,0.5-0.4,0.9c0,0.3,0.1,0.5,0.2,0.7s0.3,0.4,0.6,0.5s0.7,0.3,1.2,0.5
			c0.9,0.3,1.5,0.7,1.9,1S225.2,204.2,225.2,204.8z"/>
		<path class="st8" d="M184,213.6c-0.9,0-1.7,0.3-2.2,0.9s-0.8,1.5-0.8,2.6c0,1.1,0.3,2,0.8,2.6s1.3,0.9,2.2,0.9
			c0.6,0,1.3-0.1,2-0.3v0.9c-0.6,0.2-1.3,0.3-2.2,0.3c-1.3,0-2.2-0.4-2.9-1.1s-1-1.9-1-3.3c0-0.9,0.2-1.7,0.5-2.3s0.8-1.2,1.4-1.5
			s1.4-0.5,2.2-0.5c0.9,0,1.7,0.2,2.4,0.5l-0.4,0.9C185.3,213.8,184.6,213.6,184,213.6z"/>
		<path class="st8" d="M193.3,218.2c0,1-0.3,1.9-0.8,2.5s-1.3,0.9-2.2,0.9c-0.6,0-1.1-0.1-1.5-0.4s-0.8-0.7-1-1.2s-0.4-1.1-0.4-1.8
			c0-1,0.3-1.9,0.8-2.4s1.3-0.9,2.2-0.9c0.9,0,1.6,0.3,2.1,0.9S193.3,217.2,193.3,218.2z M188.4,218.2c0,0.8,0.2,1.4,0.5,1.9
			s0.8,0.6,1.4,0.6s1.1-0.2,1.5-0.6s0.5-1.1,0.5-1.9c0-0.8-0.2-1.4-0.5-1.9s-0.8-0.6-1.5-0.6c-0.6,0-1.1,0.2-1.4,0.6
			S188.4,217.4,188.4,218.2z"/>
		<path class="st8" d="M203.2,221.4v-4.2c0-0.5-0.1-0.9-0.3-1.2s-0.6-0.4-1-0.4c-0.6,0-1.1,0.2-1.3,0.5s-0.4,0.9-0.4,1.6v3.6h-1
			v-4.2c0-0.5-0.1-0.9-0.3-1.2s-0.6-0.4-1-0.4c-0.6,0-1.1,0.2-1.3,0.5s-0.4,1-0.4,1.8v3.4h-1V215h0.8l0.2,0.9h0
			c0.2-0.3,0.4-0.6,0.8-0.7s0.7-0.3,1.1-0.3c1,0,1.7,0.4,2,1.1h0c0.2-0.3,0.5-0.6,0.8-0.8s0.8-0.3,1.2-0.3c0.7,0,1.3,0.2,1.6,0.6
			s0.5,1,0.5,1.8v4.2H203.2z"/>
		<path class="st8" d="M209.1,214.9c0.8,0,1.5,0.3,2,0.9s0.7,1.4,0.7,2.4s-0.2,1.9-0.7,2.5s-1.1,0.9-2,0.9c-0.4,0-0.8-0.1-1.1-0.2
			s-0.6-0.4-0.9-0.7H207l-0.2,0.8h-0.7v-9.1h1v2.2c0,0.5,0,0.9,0,1.3h0C207.6,215.2,208.2,214.9,209.1,214.9z M209,215.7
			c-0.7,0-1.1,0.2-1.4,0.6s-0.4,1-0.4,1.9s0.2,1.5,0.5,1.9s0.8,0.6,1.4,0.6c0.6,0,1-0.2,1.3-0.7s0.4-1.1,0.4-1.9
			c0-0.8-0.1-1.5-0.4-1.9S209.6,215.7,209,215.7z"/>
		<path class="st8" d="M213.4,213.3c0-0.2,0.1-0.4,0.2-0.5s0.2-0.2,0.4-0.2c0.2,0,0.3,0.1,0.4,0.2s0.2,0.3,0.2,0.5s-0.1,0.4-0.2,0.5
			s-0.2,0.2-0.4,0.2c-0.2,0-0.3-0.1-0.4-0.2S213.4,213.5,213.4,213.3z M214.5,221.4h-1V215h1V221.4z"/>
		<path class="st8" d="M220.9,221.4v-4.2c0-0.5-0.1-0.9-0.4-1.2s-0.6-0.4-1.1-0.4c-0.7,0-1.2,0.2-1.5,0.5s-0.5,1-0.5,1.8v3.4h-1V215
			h0.8l0.2,0.9h0c0.2-0.3,0.5-0.6,0.8-0.7s0.8-0.3,1.2-0.3c0.8,0,1.4,0.2,1.7,0.6s0.6,1,0.6,1.8v4.2H220.9z"/>
		<path class="st8" d="M226.6,221.5c-0.9,0-1.7-0.3-2.2-0.9s-0.8-1.4-0.8-2.4c0-1,0.3-1.9,0.8-2.5s1.2-0.9,2.1-0.9
			c0.8,0,1.4,0.3,1.9,0.8s0.7,1.2,0.7,2.1v0.6h-4.4c0,0.8,0.2,1.3,0.6,1.7s0.9,0.6,1.5,0.6c0.7,0,1.4-0.1,2.1-0.4v0.9
			c-0.3,0.1-0.7,0.3-1,0.3S227,221.5,226.6,221.5z M226.3,215.7c-0.5,0-0.9,0.2-1.2,0.5s-0.5,0.8-0.5,1.4h3.4c0-0.6-0.1-1.1-0.4-1.4
			S226.9,215.7,226.3,215.7z"/>
		<path class="st8" d="M235,220.6L235,220.6c-0.5,0.7-1.2,1-2.1,1c-0.8,0-1.5-0.3-2-0.9s-0.7-1.4-0.7-2.4s0.2-1.9,0.7-2.5
			s1.1-0.9,2-0.9c0.9,0,1.5,0.3,2,0.9h0.1l0-0.5l0-0.5v-2.6h1v9.1h-0.8L235,220.6z M233.1,220.7c0.7,0,1.1-0.2,1.4-0.5
			s0.4-0.9,0.4-1.7v-0.2c0-0.9-0.2-1.6-0.5-1.9s-0.8-0.6-1.5-0.6c-0.6,0-1,0.2-1.3,0.7s-0.5,1.1-0.5,1.9c0,0.8,0.2,1.4,0.5,1.9
			S232.5,220.7,233.1,220.7z"/>
	</g>
</g>
<g>
	<polygon class="st3" points="237.7,266.2 184.3,266.2 157.7,294.7 184.3,323.3 237.7,323.3 264.4,294.7 	"/>
	<g>
		<rect x="179.1" y="279" class="st7" width="63.8" height="31.5"/>
		<path class="st8" d="M201.3,280.3c-0.9,0-1.7,0.3-2.2,0.9s-0.8,1.5-0.8,2.6c0,1.1,0.3,2,0.8,2.6s1.3,0.9,2.2,0.9
			c0.6,0,1.3-0.1,2-0.3v0.9c-0.6,0.2-1.3,0.3-2.2,0.3c-1.3,0-2.2-0.4-2.9-1.1s-1-1.9-1-3.3c0-0.9,0.2-1.7,0.5-2.3
			c0.3-0.7,0.8-1.2,1.4-1.5s1.4-0.5,2.2-0.5c0.9,0,1.7,0.2,2.4,0.5l-0.4,0.9C202.6,280.4,201.9,280.3,201.3,280.3z"/>
		<path class="st8" d="M205.2,279.5h2.4c1.1,0,2,0.2,2.5,0.5s0.8,0.9,0.8,1.6c0,0.5-0.1,0.9-0.4,1.3s-0.7,0.5-1.2,0.6v0.1
			c1.3,0.2,2,0.9,2,2.1c0,0.8-0.3,1.4-0.8,1.8s-1.2,0.6-2.2,0.6h-3V279.5z M206.2,283.2h1.6c0.7,0,1.2-0.1,1.5-0.3s0.5-0.6,0.5-1.1
			c0-0.5-0.2-0.8-0.5-1s-0.9-0.3-1.6-0.3h-1.5V283.2z M206.2,284v3.2h1.8c0.7,0,1.2-0.1,1.6-0.4s0.5-0.7,0.5-1.3
			c0-0.5-0.2-0.9-0.5-1.2s-0.9-0.4-1.6-0.4H206.2z"/>
		<path class="st8" d="M216.6,280.3c-0.9,0-1.7,0.3-2.2,0.9s-0.8,1.5-0.8,2.6c0,1.1,0.3,2,0.8,2.6s1.3,0.9,2.2,0.9
			c0.6,0,1.3-0.1,2-0.3v0.9c-0.6,0.2-1.3,0.3-2.2,0.3c-1.3,0-2.2-0.4-2.9-1.1s-1-1.9-1-3.3c0-0.9,0.2-1.7,0.5-2.3
			c0.3-0.7,0.8-1.2,1.4-1.5s1.4-0.5,2.2-0.5c0.9,0,1.7,0.2,2.4,0.5l-0.4,0.9C217.9,280.4,217.3,280.3,216.6,280.3z"/>
		<path class="st8" d="M220.5,288.1v-8.6h1v7.7h3.8v0.9H220.5z"/>
		<path class="st8" d="M184,294.7c-0.9,0-1.7,0.3-2.2,0.9s-0.8,1.5-0.8,2.6c0,1.1,0.3,2,0.8,2.6s1.3,0.9,2.2,0.9
			c0.6,0,1.3-0.1,2-0.3v0.9c-0.6,0.2-1.3,0.3-2.2,0.3c-1.3,0-2.2-0.4-2.9-1.1s-1-1.9-1-3.3c0-0.9,0.2-1.7,0.5-2.3s0.8-1.2,1.4-1.5
			s1.4-0.5,2.2-0.5c0.9,0,1.7,0.2,2.4,0.5l-0.4,0.9C185.3,294.8,184.6,294.7,184,294.7z"/>
		<path class="st8" d="M193.3,299.3c0,1-0.3,1.9-0.8,2.5s-1.3,0.9-2.2,0.9c-0.6,0-1.1-0.1-1.5-0.4s-0.8-0.7-1-1.2s-0.4-1.1-0.4-1.8
			c0-1,0.3-1.9,0.8-2.4s1.3-0.9,2.2-0.9c0.9,0,1.6,0.3,2.1,0.9S193.3,298.2,193.3,299.3z M188.4,299.3c0,0.8,0.2,1.4,0.5,1.9
			s0.8,0.6,1.4,0.6s1.1-0.2,1.5-0.6s0.5-1.1,0.5-1.9c0-0.8-0.2-1.4-0.5-1.9s-0.8-0.6-1.5-0.6c-0.6,0-1.1,0.2-1.4,0.6
			S188.4,298.4,188.4,299.3z"/>
		<path class="st8" d="M203.2,302.5v-4.2c0-0.5-0.1-0.9-0.3-1.2s-0.6-0.4-1-0.4c-0.6,0-1.1,0.2-1.3,0.5s-0.4,0.9-0.4,1.6v3.6h-1
			v-4.2c0-0.5-0.1-0.9-0.3-1.2s-0.6-0.4-1-0.4c-0.6,0-1.1,0.2-1.3,0.5s-0.4,1-0.4,1.8v3.4h-1v-6.4h0.8l0.2,0.9h0
			c0.2-0.3,0.4-0.6,0.8-0.7s0.7-0.3,1.1-0.3c1,0,1.7,0.4,2,1.1h0c0.2-0.3,0.5-0.6,0.8-0.8s0.8-0.3,1.2-0.3c0.7,0,1.3,0.2,1.6,0.6
			s0.5,1,0.5,1.8v4.2H203.2z"/>
		<path class="st8" d="M209.1,296c0.8,0,1.5,0.3,2,0.9s0.7,1.4,0.7,2.4s-0.2,1.9-0.7,2.5s-1.1,0.9-2,0.9c-0.4,0-0.8-0.1-1.1-0.2
			s-0.6-0.4-0.9-0.7H207l-0.2,0.8h-0.7v-9.1h1v2.2c0,0.5,0,0.9,0,1.3h0C207.6,296.3,208.2,296,209.1,296z M209,296.8
			c-0.7,0-1.1,0.2-1.4,0.6s-0.4,1-0.4,1.9s0.2,1.5,0.5,1.9s0.8,0.6,1.4,0.6c0.6,0,1-0.2,1.3-0.7s0.4-1.1,0.4-1.9
			c0-0.8-0.1-1.5-0.4-1.9S209.6,296.8,209,296.8z"/>
		<path class="st8" d="M213.4,294.3c0-0.2,0.1-0.4,0.2-0.5s0.2-0.2,0.4-0.2c0.2,0,0.3,0.1,0.4,0.2s0.2,0.3,0.2,0.5s-0.1,0.4-0.2,0.5
			s-0.2,0.2-0.4,0.2c-0.2,0-0.3-0.1-0.4-0.2S213.4,294.5,213.4,294.3z M214.5,302.5h-1v-6.4h1V302.5z"/>
		<path class="st8" d="M220.9,302.5v-4.2c0-0.5-0.1-0.9-0.4-1.2s-0.6-0.4-1.1-0.4c-0.7,0-1.2,0.2-1.5,0.5s-0.5,1-0.5,1.8v3.4h-1
			v-6.4h0.8l0.2,0.9h0c0.2-0.3,0.5-0.6,0.8-0.7s0.8-0.3,1.2-0.3c0.8,0,1.4,0.2,1.7,0.6s0.6,1,0.6,1.8v4.2H220.9z"/>
		<path class="st8" d="M226.6,302.6c-0.9,0-1.7-0.3-2.2-0.9s-0.8-1.4-0.8-2.4c0-1,0.3-1.9,0.8-2.5s1.2-0.9,2.1-0.9
			c0.8,0,1.4,0.3,1.9,0.8s0.7,1.2,0.7,2.1v0.6h-4.4c0,0.8,0.2,1.3,0.6,1.7s0.9,0.6,1.5,0.6c0.7,0,1.4-0.1,2.1-0.4v0.9
			c-0.3,0.1-0.7,0.3-1,0.3S227,302.6,226.6,302.6z M226.3,296.8c-0.5,0-0.9,0.2-1.2,0.5s-0.5,0.8-0.5,1.4h3.4c0-0.6-0.1-1.1-0.4-1.4
			S226.9,296.8,226.3,296.8z"/>
		<path class="st8" d="M235,301.6L235,301.6c-0.5,0.7-1.2,1-2.1,1c-0.8,0-1.5-0.3-2-0.9s-0.7-1.4-0.7-2.4s0.2-1.9,0.7-2.5
			s1.1-0.9,2-0.9c0.9,0,1.5,0.3,2,0.9h0.1l0-0.5l0-0.5v-2.6h1v9.1h-0.8L235,301.6z M233.1,301.8c0.7,0,1.1-0.2,1.4-0.5
			s0.4-0.9,0.4-1.7v-0.2c0-0.9-0.2-1.6-0.5-1.9s-0.8-0.6-1.5-0.6c-0.6,0-1,0.2-1.3,0.7s-0.5,1.1-0.5,1.9c0,0.8,0.2,1.4,0.5,1.9
			S232.5,301.8,233.1,301.8z"/>
	</g>
</g>
<g>
	<ellipse class="st4" cx="338.8" cy="134.1" rx="46.6" ry="31.9"/>
	<g>
		<rect x="307" y="118.3" class="st7" width="63.8" height="31.5"/>
		<path class="st8" d="M333.1,125.1c0,0.8-0.3,1.3-0.8,1.8s-1.3,0.6-2.2,0.6c-1,0-1.8-0.1-2.3-0.4v-1c0.4,0.1,0.7,0.3,1.1,0.4
			s0.8,0.1,1.2,0.1c0.7,0,1.2-0.1,1.5-0.4s0.5-0.6,0.5-1.1c0-0.3-0.1-0.5-0.2-0.7s-0.3-0.4-0.6-0.5s-0.7-0.3-1.3-0.5
			c-0.8-0.3-1.4-0.6-1.7-1s-0.5-0.9-0.5-1.5c0-0.7,0.2-1.2,0.7-1.6s1.2-0.6,2-0.6c0.9,0,1.6,0.2,2.3,0.5l-0.3,0.9
			c-0.7-0.3-1.4-0.4-2.1-0.4c-0.5,0-0.9,0.1-1.2,0.3s-0.4,0.5-0.4,0.9c0,0.3,0.1,0.5,0.2,0.7s0.3,0.4,0.6,0.5s0.7,0.3,1.2,0.5
			c0.9,0.3,1.5,0.7,1.9,1S333.1,124.5,333.1,125.1z"/>
		<path class="st8" d="M338.5,119.6c-0.9,0-1.7,0.3-2.2,0.9s-0.8,1.5-0.8,2.6c0,1.1,0.3,2,0.8,2.6s1.3,0.9,2.2,0.9
			c0.6,0,1.3-0.1,2-0.3v0.9c-0.6,0.2-1.3,0.3-2.2,0.3c-1.3,0-2.2-0.4-2.9-1.1s-1-1.9-1-3.3c0-0.9,0.2-1.7,0.5-2.3s0.8-1.2,1.4-1.5
			s1.4-0.5,2.2-0.5c0.9,0,1.7,0.2,2.4,0.5l-0.4,0.9C339.8,119.8,339.2,119.6,338.5,119.6z"/>
		<path class="st8" d="M349.9,123.1c0,1.1-0.2,2-0.7,2.7s-1.1,1.2-1.9,1.5l2,2.1h-1.4l-1.7-1.9l-0.3,0c-1.3,0-2.2-0.4-2.9-1.2
			s-1-1.9-1-3.3c0-1.4,0.3-2.5,1-3.2s1.7-1.2,2.9-1.2c1.2,0,2.2,0.4,2.9,1.2S349.9,121.7,349.9,123.1z M343,123.1
			c0,1.2,0.2,2,0.7,2.6s1.2,0.9,2.2,0.9c0.9,0,1.7-0.3,2.2-0.9s0.7-1.5,0.7-2.6c0-1.2-0.2-2-0.7-2.6s-1.2-0.9-2.1-0.9
			c-0.9,0-1.7,0.3-2.2,0.9S343,122,343,123.1z"/>
		<path class="st8" d="M328.4,141.8l-1.1-2.7h-3.4l-1.1,2.7h-1l3.4-8.6h0.8l3.4,8.6H328.4z M327.1,138.2l-1-2.7
			c-0.1-0.3-0.3-0.7-0.4-1.2c-0.1,0.4-0.2,0.8-0.4,1.2l-1,2.7H327.1z"/>
		<path class="st8" d="M337.5,137.4c0,1.4-0.4,2.5-1.2,3.2s-1.9,1.1-3.3,1.1h-2.4v-8.6h2.6c1.3,0,2.4,0.4,3.1,1.1
			S337.5,136.1,337.5,137.4z M336.4,137.5c0-1.1-0.3-2-0.8-2.5s-1.4-0.8-2.5-0.8h-1.4v6.8h1.2c1.2,0,2.1-0.3,2.7-0.9
			S336.4,138.6,336.4,137.5z"/>
		<path class="st8" d="M345.9,141.8h-1v-4h-4.5v4h-1v-8.6h1v3.6h4.5v-3.6h1V141.8z"/>
		<path class="st8" d="M355.1,137.4c0,1.4-0.4,2.5-1.2,3.2s-1.9,1.1-3.3,1.1h-2.4v-8.6h2.6c1.3,0,2.4,0.4,3.1,1.1
			S355.1,136.1,355.1,137.4z M354,137.5c0-1.1-0.3-2-0.8-2.5s-1.4-0.8-2.5-0.8h-1.4v6.8h1.2c1.2,0,2.1-0.3,2.7-0.9
			S354,138.6,354,137.5z"/>
	</g>
</g>
<g>
	<rect x="291.2" y="187.8" class="st4" width="95.3" height="51.7"/>
	<g>
		<rect x="307" y="197.9" class="st7" width="63.8" height="31.5"/>
		<path class="st8" d="M330.6,207l-1.1-2.7h-3.4l-1.1,2.7h-1l3.4-8.6h0.8l3.4,8.6H330.6z M329.3,203.4l-1-2.7
			c-0.1-0.3-0.3-0.7-0.4-1.2c-0.1,0.4-0.2,0.8-0.4,1.2l-1,2.7H329.3z"/>
		<path class="st8" d="M332.8,198.5h2.4c1.1,0,2,0.2,2.5,0.5s0.8,0.9,0.8,1.6c0,0.5-0.1,0.9-0.4,1.3s-0.7,0.5-1.2,0.6v0.1
			c1.3,0.2,2,0.9,2,2.1c0,0.8-0.3,1.4-0.8,1.8s-1.2,0.6-2.2,0.6h-3V198.5z M333.8,202.1h1.6c0.7,0,1.2-0.1,1.5-0.3s0.5-0.6,0.5-1.1
			c0-0.5-0.2-0.8-0.5-1s-0.9-0.3-1.6-0.3h-1.5V202.1z M333.8,203v3.2h1.8c0.7,0,1.2-0.1,1.6-0.4s0.5-0.7,0.5-1.3
			c0-0.5-0.2-0.9-0.5-1.2s-0.9-0.4-1.6-0.4H333.8z"/>
		<path class="st8" d="M346,207l-1.1-2.7h-3.4l-1.1,2.7h-1l3.4-8.6h0.8l3.4,8.6H346z M344.6,203.4l-1-2.7c-0.1-0.3-0.3-0.7-0.4-1.2
			c-0.1,0.4-0.2,0.8-0.4,1.2l-1,2.7H344.6z"/>
		<path class="st8" d="M353,204.8c0,0.8-0.3,1.3-0.8,1.8s-1.3,0.6-2.2,0.6c-1,0-1.8-0.1-2.3-0.4v-1c0.4,0.1,0.7,0.3,1.1,0.4
			s0.8,0.1,1.2,0.1c0.7,0,1.2-0.1,1.5-0.4s0.5-0.6,0.5-1.1c0-0.3-0.1-0.5-0.2-0.7s-0.3-0.4-0.6-0.5s-0.7-0.3-1.3-0.5
			c-0.8-0.3-1.4-0.6-1.7-1s-0.5-0.9-0.5-1.5c0-0.7,0.2-1.2,0.7-1.6s1.2-0.6,2-0.6c0.9,0,1.6,0.2,2.3,0.5l-0.3,0.9
			c-0.7-0.3-1.4-0.4-2.1-0.4c-0.5,0-0.9,0.1-1.2,0.3s-0.4,0.5-0.4,0.9c0,0.3,0.1,0.5,0.2,0.7s0.3,0.4,0.6,0.5s0.7,0.3,1.2,0.5
			c0.9,0.3,1.5,0.7,1.9,1S353,204.2,353,204.8z"/>
		<path class="st8" d="M328.4,221.4l-1.1-2.7h-3.4l-1.1,2.7h-1l3.4-8.6h0.8l3.4,8.6H328.4z M327.1,217.8l-1-2.7
			c-0.1-0.3-0.3-0.7-0.4-1.2c-0.1,0.4-0.2,0.8-0.4,1.2l-1,2.7H327.1z"/>
		<path class="st8" d="M337.5,217.1c0,1.4-0.4,2.5-1.2,3.2s-1.9,1.1-3.3,1.1h-2.4v-8.6h2.6c1.3,0,2.4,0.4,3.1,1.1
			S337.5,215.7,337.5,217.1z M336.4,217.1c0-1.1-0.3-2-0.8-2.5s-1.4-0.8-2.5-0.8h-1.4v6.8h1.2c1.2,0,2.1-0.3,2.7-0.9
			S336.4,218.2,336.4,217.1z"/>
		<path class="st8" d="M345.9,221.4h-1v-4h-4.5v4h-1v-8.6h1v3.6h4.5v-3.6h1V221.4z"/>
		<path class="st8" d="M355.1,217.1c0,1.4-0.4,2.5-1.2,3.2s-1.9,1.1-3.3,1.1h-2.4v-8.6h2.6c1.3,0,2.4,0.4,3.1,1.1
			S355.1,215.7,355.1,217.1z M354,217.1c0-1.1-0.3-2-0.8-2.5s-1.4-0.8-2.5-0.8h-1.4v6.8h1.2c1.2,0,2.1-0.3,2.7-0.9
			S354,218.2,354,217.1z"/>
	</g>
</g>
<g>
	<polygon class="st4" points="365.5,266.2 312.2,266.2 285.5,294.7 312.2,323.3 365.5,323.3 392.2,294.7 	"/>
	<g>
		<rect x="307" y="279" class="st7" width="63.8" height="31.5"/>
		<path class="st8" d="M329.1,280.3c-0.9,0-1.7,0.3-2.2,0.9s-0.8,1.5-0.8,2.6c0,1.1,0.3,2,0.8,2.6s1.3,0.9,2.2,0.9
			c0.6,0,1.3-0.1,2-0.3v0.9c-0.6,0.2-1.3,0.3-2.2,0.3c-1.3,0-2.2-0.4-2.9-1.1s-1-1.9-1-3.3c0-0.9,0.2-1.7,0.5-2.3
			c0.3-0.7,0.8-1.2,1.4-1.5s1.4-0.5,2.2-0.5c0.9,0,1.7,0.2,2.4,0.5l-0.4,0.9C330.4,280.4,329.8,280.3,329.1,280.3z"/>
		<path class="st8" d="M333,279.5h2.4c1.1,0,2,0.2,2.5,0.5s0.8,0.9,0.8,1.6c0,0.5-0.1,0.9-0.4,1.3s-0.7,0.5-1.2,0.6v0.1
			c1.3,0.2,2,0.9,2,2.1c0,0.8-0.3,1.4-0.8,1.8s-1.2,0.6-2.2,0.6h-3V279.5z M334,283.2h1.6c0.7,0,1.2-0.1,1.5-0.3s0.5-0.6,0.5-1.1
			c0-0.5-0.2-0.8-0.5-1s-0.9-0.3-1.6-0.3H334V283.2z M334,284v3.2h1.8c0.7,0,1.2-0.1,1.6-0.4s0.5-0.7,0.5-1.3c0-0.5-0.2-0.9-0.5-1.2
			s-0.9-0.4-1.6-0.4H334z"/>
		<path class="st8" d="M344.5,280.3c-0.9,0-1.7,0.3-2.2,0.9s-0.8,1.5-0.8,2.6c0,1.1,0.3,2,0.8,2.6s1.3,0.9,2.2,0.9
			c0.6,0,1.3-0.1,2-0.3v0.9c-0.6,0.2-1.3,0.3-2.2,0.3c-1.3,0-2.2-0.4-2.9-1.1s-1-1.9-1-3.3c0-0.9,0.2-1.7,0.5-2.3
			c0.3-0.7,0.8-1.2,1.4-1.5s1.4-0.5,2.2-0.5c0.9,0,1.7,0.2,2.4,0.5l-0.4,0.9C345.8,280.4,345.1,280.3,344.5,280.3z"/>
		<path class="st8" d="M348.4,288.1v-8.6h1v7.7h3.8v0.9H348.4z"/>
		<path class="st8" d="M328.4,302.5l-1.1-2.7h-3.4l-1.1,2.7h-1l3.4-8.6h0.8l3.4,8.6H328.4z M327.1,298.9l-1-2.7
			c-0.1-0.3-0.3-0.7-0.4-1.2c-0.1,0.4-0.2,0.8-0.4,1.2l-1,2.7H327.1z"/>
		<path class="st8" d="M337.5,298.1c0,1.4-0.4,2.5-1.2,3.2s-1.9,1.1-3.3,1.1h-2.4v-8.6h2.6c1.3,0,2.4,0.4,3.1,1.1
			S337.5,296.8,337.5,298.1z M336.4,298.2c0-1.1-0.3-2-0.8-2.5s-1.4-0.8-2.5-0.8h-1.4v6.8h1.2c1.2,0,2.1-0.3,2.7-0.9
			S336.4,299.3,336.4,298.2z"/>
		<path class="st8" d="M345.9,302.5h-1v-4h-4.5v4h-1v-8.6h1v3.6h4.5v-3.6h1V302.5z"/>
		<path class="st8" d="M355.1,298.1c0,1.4-0.4,2.5-1.2,3.2s-1.9,1.1-3.3,1.1h-2.4v-8.6h2.6c1.3,0,2.4,0.4,3.1,1.1
			S355.1,296.8,355.1,298.1z M354,298.2c0-1.1-0.3-2-0.8-2.5s-1.4-0.8-2.5-0.8h-1.4v6.8h1.2c1.2,0,2.1-0.3,2.7-0.9
			S354,299.3,354,298.2z"/>
	</g>
</g>
<g>
	<ellipse class="st5" cx="456" cy="134.1" rx="46.6" ry="31.9"/>
	<g>
		<rect x="424.2" y="118.3" class="st7" width="63.8" height="31.5"/>
		<path class="st8" d="M450.3,125.1c0,0.8-0.3,1.3-0.8,1.8s-1.3,0.6-2.2,0.6c-1,0-1.8-0.1-2.3-0.4v-1c0.4,0.1,0.7,0.3,1.1,0.4
			s0.8,0.1,1.2,0.1c0.7,0,1.2-0.1,1.5-0.4s0.5-0.6,0.5-1.1c0-0.3-0.1-0.5-0.2-0.7s-0.3-0.4-0.6-0.5s-0.7-0.3-1.3-0.5
			c-0.8-0.3-1.4-0.6-1.7-1s-0.5-0.9-0.5-1.5c0-0.7,0.2-1.2,0.7-1.6s1.2-0.6,2-0.6c0.9,0,1.6,0.2,2.3,0.5l-0.3,0.9
			c-0.7-0.3-1.4-0.4-2.1-0.4c-0.5,0-0.9,0.1-1.2,0.3s-0.4,0.5-0.4,0.9c0,0.3,0.1,0.5,0.2,0.7s0.3,0.4,0.6,0.5s0.7,0.3,1.2,0.5
			c0.9,0.3,1.5,0.7,1.9,1S450.3,124.5,450.3,125.1z"/>
		<path class="st8" d="M455.7,119.6c-0.9,0-1.7,0.3-2.2,0.9s-0.8,1.5-0.8,2.6c0,1.1,0.3,2,0.8,2.6s1.3,0.9,2.2,0.9
			c0.6,0,1.3-0.1,2-0.3v0.9c-0.6,0.2-1.3,0.3-2.2,0.3c-1.3,0-2.2-0.4-2.9-1.1s-1-1.9-1-3.3c0-0.9,0.2-1.7,0.5-2.3s0.8-1.2,1.4-1.5
			s1.4-0.5,2.2-0.5c0.9,0,1.7,0.2,2.4,0.5l-0.4,0.9C457,119.8,456.4,119.6,455.7,119.6z"/>
		<path class="st8" d="M467.1,123.1c0,1.1-0.2,2-0.7,2.7s-1.1,1.2-1.9,1.5l2,2.1h-1.4l-1.7-1.9l-0.3,0c-1.3,0-2.2-0.4-2.9-1.2
			s-1-1.9-1-3.3c0-1.4,0.3-2.5,1-3.2s1.7-1.2,2.9-1.2c1.2,0,2.2,0.4,2.9,1.2S467.1,121.7,467.1,123.1z M460.2,123.1
			c0,1.2,0.2,2,0.7,2.6s1.2,0.9,2.2,0.9c0.9,0,1.7-0.3,2.2-0.9s0.7-1.5,0.7-2.6c0-1.2-0.2-2-0.7-2.6s-1.2-0.9-2.1-0.9
			c-0.9,0-1.7,0.3-2.2,0.9S460.2,122,460.2,123.1z"/>
		<path class="st8" d="M451.1,141.8l-1.1-2.7h-3.4l-1.1,2.7h-1l3.4-8.6h0.8l3.4,8.6H451.1z M449.8,138.2l-1-2.7
			c-0.1-0.3-0.3-0.7-0.4-1.2c-0.1,0.4-0.2,0.8-0.4,1.2l-1,2.7H449.8z"/>
		<path class="st8" d="M458.2,139.5c0,0.8-0.3,1.3-0.8,1.8s-1.3,0.6-2.2,0.6c-1,0-1.8-0.1-2.3-0.4v-1c0.4,0.1,0.7,0.3,1.1,0.4
			s0.8,0.1,1.2,0.1c0.7,0,1.2-0.1,1.5-0.4s0.5-0.6,0.5-1.1c0-0.3-0.1-0.5-0.2-0.7s-0.3-0.4-0.6-0.5s-0.7-0.3-1.3-0.5
			c-0.8-0.3-1.4-0.6-1.7-1s-0.5-0.9-0.5-1.5c0-0.7,0.2-1.2,0.7-1.6s1.2-0.6,2-0.6c0.9,0,1.6,0.2,2.3,0.5l-0.3,0.9
			c-0.7-0.3-1.4-0.4-2.1-0.4c-0.5,0-0.9,0.1-1.2,0.3s-0.4,0.5-0.4,0.9c0,0.3,0.1,0.5,0.2,0.7s0.3,0.4,0.6,0.5s0.7,0.3,1.2,0.5
			c0.9,0.3,1.5,0.7,1.9,1S458.2,138.9,458.2,139.5z"/>
		<path class="st8" d="M466.8,137.4c0,1.4-0.4,2.5-1.2,3.2s-1.9,1.1-3.3,1.1h-2.4v-8.6h2.6c1.3,0,2.4,0.4,3.1,1.1
			S466.8,136.1,466.8,137.4z M465.7,137.5c0-1.1-0.3-2-0.8-2.5s-1.4-0.8-2.5-0.8h-1.4v6.8h1.2c1.2,0,2.1-0.3,2.7-0.9
			S465.7,138.6,465.7,137.5z"/>
	</g>
</g>
<g>
	<rect x="408.4" y="187.8" class="st5" width="95.3" height="51.7"/>
	<g>
		<rect x="424.2" y="197.9" class="st7" width="63.8" height="31.5"/>
		<path class="st8" d="M447.8,207l-1.1-2.7h-3.4l-1.1,2.7h-1l3.4-8.6h0.8l3.4,8.6H447.8z M446.5,203.4l-1-2.7
			c-0.1-0.3-0.3-0.7-0.4-1.2c-0.1,0.4-0.2,0.8-0.4,1.2l-1,2.7H446.5z"/>
		<path class="st8" d="M450,198.5h2.4c1.1,0,2,0.2,2.5,0.5s0.8,0.9,0.8,1.6c0,0.5-0.1,0.9-0.4,1.3s-0.7,0.5-1.2,0.6v0.1
			c1.3,0.2,2,0.9,2,2.1c0,0.8-0.3,1.4-0.8,1.8S454,207,453,207h-3V198.5z M451,202.1h1.6c0.7,0,1.2-0.1,1.5-0.3s0.5-0.6,0.5-1.1
			c0-0.5-0.2-0.8-0.5-1s-0.9-0.3-1.6-0.3H451V202.1z M451,203v3.2h1.8c0.7,0,1.2-0.1,1.6-0.4s0.5-0.7,0.5-1.3c0-0.5-0.2-0.9-0.5-1.2
			s-0.9-0.4-1.6-0.4H451z"/>
		<path class="st8" d="M463.2,207l-1.1-2.7h-3.4l-1.1,2.7h-1l3.4-8.6h0.8l3.4,8.6H463.2z M461.8,203.4l-1-2.7
			c-0.1-0.3-0.3-0.7-0.4-1.2c-0.1,0.4-0.2,0.8-0.4,1.2l-1,2.7H461.8z"/>
		<path class="st8" d="M470.2,204.8c0,0.8-0.3,1.3-0.8,1.8s-1.3,0.6-2.2,0.6c-1,0-1.8-0.1-2.3-0.4v-1c0.4,0.1,0.7,0.3,1.1,0.4
			s0.8,0.1,1.2,0.1c0.7,0,1.2-0.1,1.5-0.4s0.5-0.6,0.5-1.1c0-0.3-0.1-0.5-0.2-0.7s-0.3-0.4-0.6-0.5s-0.7-0.3-1.3-0.5
			c-0.8-0.3-1.4-0.6-1.7-1s-0.5-0.9-0.5-1.5c0-0.7,0.2-1.2,0.7-1.6s1.2-0.6,2-0.6c0.9,0,1.6,0.2,2.3,0.5l-0.3,0.9
			c-0.7-0.3-1.4-0.4-2.1-0.4c-0.5,0-0.9,0.1-1.2,0.3s-0.4,0.5-0.4,0.9c0,0.3,0.1,0.5,0.2,0.7s0.3,0.4,0.6,0.5s0.7,0.3,1.2,0.5
			c0.9,0.3,1.5,0.7,1.9,1S470.2,204.2,470.2,204.8z"/>
		<path class="st8" d="M451.1,221.4l-1.1-2.7h-3.4l-1.1,2.7h-1l3.4-8.6h0.8l3.4,8.6H451.1z M449.8,217.8l-1-2.7
			c-0.1-0.3-0.3-0.7-0.4-1.2c-0.1,0.4-0.2,0.8-0.4,1.2l-1,2.7H449.8z"/>
		<path class="st8" d="M458.2,219.2c0,0.8-0.3,1.3-0.8,1.8s-1.3,0.6-2.2,0.6c-1,0-1.8-0.1-2.3-0.4v-1c0.4,0.1,0.7,0.3,1.1,0.4
			s0.8,0.1,1.2,0.1c0.7,0,1.2-0.1,1.5-0.4s0.5-0.6,0.5-1.1c0-0.3-0.1-0.5-0.2-0.7s-0.3-0.4-0.6-0.5s-0.7-0.3-1.3-0.5
			c-0.8-0.3-1.4-0.6-1.7-1s-0.5-0.9-0.5-1.5c0-0.7,0.2-1.2,0.7-1.6s1.2-0.6,2-0.6c0.9,0,1.6,0.2,2.3,0.5l-0.3,0.9
			c-0.7-0.3-1.4-0.4-2.1-0.4c-0.5,0-0.9,0.1-1.2,0.3s-0.4,0.5-0.4,0.9c0,0.3,0.1,0.5,0.2,0.7s0.3,0.4,0.6,0.5s0.7,0.3,1.2,0.5
			c0.9,0.3,1.5,0.7,1.9,1S458.2,218.6,458.2,219.2z"/>
		<path class="st8" d="M466.8,217.1c0,1.4-0.4,2.5-1.2,3.2s-1.9,1.1-3.3,1.1h-2.4v-8.6h2.6c1.3,0,2.4,0.4,3.1,1.1
			S466.8,215.7,466.8,217.1z M465.7,217.1c0-1.1-0.3-2-0.8-2.5s-1.4-0.8-2.5-0.8h-1.4v6.8h1.2c1.2,0,2.1-0.3,2.7-0.9
			S465.7,218.2,465.7,217.1z"/>
	</g>
</g>
<g>
	<polygon class="st5" points="482.7,266.2 429.4,266.2 402.7,294.7 429.4,323.3 482.7,323.3 509.4,294.7 	"/>
	<g>
		<rect x="424.2" y="279" class="st7" width="63.8" height="31.5"/>
		<path class="st8" d="M446.3,280.3c-0.9,0-1.7,0.3-2.2,0.9s-0.8,1.5-0.8,2.6c0,1.1,0.3,2,0.8,2.6s1.3,0.9,2.2,0.9
			c0.6,0,1.3-0.1,2-0.3v0.9c-0.6,0.2-1.3,0.3-2.2,0.3c-1.3,0-2.2-0.4-2.9-1.1s-1-1.9-1-3.3c0-0.9,0.2-1.7,0.5-2.3
			c0.3-0.7,0.8-1.2,1.4-1.5s1.4-0.5,2.2-0.5c0.9,0,1.7,0.2,2.4,0.5l-0.4,0.9C447.6,280.4,447,280.3,446.3,280.3z"/>
		<path class="st8" d="M450.2,279.5h2.4c1.1,0,2,0.2,2.5,0.5s0.8,0.9,0.8,1.6c0,0.5-0.1,0.9-0.4,1.3s-0.7,0.5-1.2,0.6v0.1
			c1.3,0.2,2,0.9,2,2.1c0,0.8-0.3,1.4-0.8,1.8s-1.2,0.6-2.2,0.6h-3V279.5z M451.2,283.2h1.6c0.7,0,1.2-0.1,1.5-0.3s0.5-0.6,0.5-1.1
			c0-0.5-0.2-0.8-0.5-1s-0.9-0.3-1.6-0.3h-1.5V283.2z M451.2,284v3.2h1.8c0.7,0,1.2-0.1,1.6-0.4s0.5-0.7,0.5-1.3
			c0-0.5-0.2-0.9-0.5-1.2s-0.9-0.4-1.6-0.4H451.2z"/>
		<path class="st8" d="M461.7,280.3c-0.9,0-1.7,0.3-2.2,0.9s-0.8,1.5-0.8,2.6c0,1.1,0.3,2,0.8,2.6s1.3,0.9,2.2,0.9
			c0.6,0,1.3-0.1,2-0.3v0.9c-0.6,0.2-1.3,0.3-2.2,0.3c-1.3,0-2.2-0.4-2.9-1.1s-1-1.9-1-3.3c0-0.9,0.2-1.7,0.5-2.3
			c0.3-0.7,0.8-1.2,1.4-1.5s1.4-0.5,2.2-0.5c0.9,0,1.7,0.2,2.4,0.5l-0.4,0.9C463,280.4,462.3,280.3,461.7,280.3z"/>
		<path class="st8" d="M465.6,288.1v-8.6h1v7.7h3.8v0.9H465.6z"/>
		<path class="st8" d="M451.1,302.5l-1.1-2.7h-3.4l-1.1,2.7h-1l3.4-8.6h0.8l3.4,8.6H451.1z M449.8,298.9l-1-2.7
			c-0.1-0.3-0.3-0.7-0.4-1.2c-0.1,0.4-0.2,0.8-0.4,1.2l-1,2.7H449.8z"/>
		<path class="st8" d="M458.2,300.2c0,0.8-0.3,1.3-0.8,1.8s-1.3,0.6-2.2,0.6c-1,0-1.8-0.1-2.3-0.4v-1c0.4,0.1,0.7,0.3,1.1,0.4
			s0.8,0.1,1.2,0.1c0.7,0,1.2-0.1,1.5-0.4s0.5-0.6,0.5-1.1c0-0.3-0.1-0.5-0.2-0.7s-0.3-0.4-0.6-0.5s-0.7-0.3-1.3-0.5
			c-0.8-0.3-1.4-0.6-1.7-1s-0.5-0.9-0.5-1.5c0-0.7,0.2-1.2,0.7-1.6s1.2-0.6,2-0.6c0.9,0,1.6,0.2,2.3,0.5l-0.3,0.9
			c-0.7-0.3-1.4-0.4-2.1-0.4c-0.5,0-0.9,0.1-1.2,0.3s-0.4,0.5-0.4,0.9c0,0.3,0.1,0.5,0.2,0.7s0.3,0.4,0.6,0.5s0.7,0.3,1.2,0.5
			c0.9,0.3,1.5,0.7,1.9,1S458.2,299.6,458.2,300.2z"/>
		<path class="st8" d="M466.8,298.1c0,1.4-0.4,2.5-1.2,3.2s-1.9,1.1-3.3,1.1h-2.4v-8.6h2.6c1.3,0,2.4,0.4,3.1,1.1
			S466.8,296.8,466.8,298.1z M465.7,298.2c0-1.1-0.3-2-0.8-2.5s-1.4-0.8-2.5-0.8h-1.4v6.8h1.2c1.2,0,2.1-0.3,2.7-0.9
			S465.7,299.3,465.7,298.2z"/>
	</g>
</g>
<g>
	<ellipse class="st6" cx="569.1" cy="134.1" rx="46.6" ry="31.9"/>
	<g>
		<rect x="537.2" y="118.3" class="st7" width="63.8" height="31.5"/>
		<path class="st8" d="M563.3,125.1c0,0.8-0.3,1.3-0.8,1.8s-1.3,0.6-2.2,0.6c-1,0-1.8-0.1-2.3-0.4v-1c0.4,0.1,0.7,0.3,1.1,0.4
			s0.8,0.1,1.2,0.1c0.7,0,1.2-0.1,1.5-0.4s0.5-0.6,0.5-1.1c0-0.3-0.1-0.5-0.2-0.7s-0.3-0.4-0.6-0.5s-0.7-0.3-1.3-0.5
			c-0.8-0.3-1.4-0.6-1.7-1s-0.5-0.9-0.5-1.5c0-0.7,0.2-1.2,0.7-1.6s1.2-0.6,2-0.6c0.9,0,1.6,0.2,2.3,0.5l-0.3,0.9
			c-0.7-0.3-1.4-0.4-2.1-0.4c-0.5,0-0.9,0.1-1.2,0.3s-0.4,0.5-0.4,0.9c0,0.3,0.1,0.5,0.2,0.7s0.3,0.4,0.6,0.5s0.7,0.3,1.2,0.5
			c0.9,0.3,1.5,0.7,1.9,1S563.3,124.5,563.3,125.1z"/>
		<path class="st8" d="M568.8,119.6c-0.9,0-1.7,0.3-2.2,0.9s-0.8,1.5-0.8,2.6c0,1.1,0.3,2,0.8,2.6s1.3,0.9,2.2,0.9
			c0.6,0,1.3-0.1,2-0.3v0.9c-0.6,0.2-1.3,0.3-2.2,0.3c-1.3,0-2.2-0.4-2.9-1.1s-1-1.9-1-3.3c0-0.9,0.2-1.7,0.5-2.3s0.8-1.2,1.4-1.5
			s1.4-0.5,2.2-0.5c0.9,0,1.7,0.2,2.4,0.5l-0.4,0.9C570.1,119.8,569.4,119.6,568.8,119.6z"/>
		<path class="st8" d="M580.1,123.1c0,1.1-0.2,2-0.7,2.7s-1.1,1.2-1.9,1.5l2,2.1h-1.4l-1.7-1.9l-0.3,0c-1.3,0-2.2-0.4-2.9-1.2
			s-1-1.9-1-3.3c0-1.4,0.3-2.5,1-3.2s1.7-1.2,2.9-1.2c1.2,0,2.2,0.4,2.9,1.2S580.1,121.7,580.1,123.1z M573.3,123.1
			c0,1.2,0.2,2,0.7,2.6s1.2,0.9,2.2,0.9c0.9,0,1.7-0.3,2.2-0.9s0.7-1.5,0.7-2.6c0-1.2-0.2-2-0.7-2.6s-1.2-0.9-2.1-0.9
			c-0.9,0-1.7,0.3-2.2,0.9S573.3,122,573.3,123.1z"/>
		<path class="st8" d="M564.2,141.8l-1.1-2.7h-3.4l-1.1,2.7h-1l3.4-8.6h0.8l3.4,8.6H564.2z M562.8,138.2l-1-2.7
			c-0.1-0.3-0.3-0.7-0.4-1.2c-0.1,0.4-0.2,0.8-0.4,1.2l-1,2.7H562.8z"/>
		<path class="st8" d="M571.2,139.5c0,0.8-0.3,1.3-0.8,1.8s-1.3,0.6-2.2,0.6c-1,0-1.8-0.1-2.3-0.4v-1c0.4,0.1,0.7,0.3,1.1,0.4
			s0.8,0.1,1.2,0.1c0.7,0,1.2-0.1,1.5-0.4s0.5-0.6,0.5-1.1c0-0.3-0.1-0.5-0.2-0.7s-0.3-0.4-0.6-0.5s-0.7-0.3-1.3-0.5
			c-0.8-0.3-1.4-0.6-1.7-1s-0.5-0.9-0.5-1.5c0-0.7,0.2-1.2,0.7-1.6s1.2-0.6,2-0.6c0.9,0,1.6,0.2,2.3,0.5l-0.3,0.9
			c-0.7-0.3-1.4-0.4-2.1-0.4c-0.5,0-0.9,0.1-1.2,0.3s-0.4,0.5-0.4,0.9c0,0.3,0.1,0.5,0.2,0.7s0.3,0.4,0.6,0.5s0.7,0.3,1.2,0.5
			c0.9,0.3,1.5,0.7,1.9,1S571.2,138.9,571.2,139.5z"/>
		<path class="st8" d="M579.8,137.4c0,1.4-0.4,2.5-1.2,3.2s-1.9,1.1-3.3,1.1H573v-8.6h2.6c1.3,0,2.4,0.4,3.1,1.1
			S579.8,136.1,579.8,137.4z M578.8,137.5c0-1.1-0.3-2-0.8-2.5s-1.4-0.8-2.5-0.8H574v6.8h1.2c1.2,0,2.1-0.3,2.7-0.9
			S578.8,138.6,578.8,137.5z"/>
	</g>
</g>
<g>
	<rect x="521.4" y="187.8" class="st6" width="95.3" height="51.7"/>
	<g>
		<rect x="537.2" y="197.9" class="st7" width="63.8" height="31.5"/>
		<path class="st8" d="M560.9,207l-1.1-2.7h-3.4l-1.1,2.7h-1l3.4-8.6h0.8l3.4,8.6H560.9z M559.5,203.4l-1-2.7
			c-0.1-0.3-0.3-0.7-0.4-1.2c-0.1,0.4-0.2,0.8-0.4,1.2l-1,2.7H559.5z"/>
		<path class="st8" d="M563.1,198.5h2.4c1.1,0,2,0.2,2.5,0.5s0.8,0.9,0.8,1.6c0,0.5-0.1,0.9-0.4,1.3s-0.7,0.5-1.2,0.6v0.1
			c1.3,0.2,2,0.9,2,2.1c0,0.8-0.3,1.4-0.8,1.8s-1.2,0.6-2.2,0.6h-3V198.5z M564.1,202.1h1.6c0.7,0,1.2-0.1,1.5-0.3s0.5-0.6,0.5-1.1
			c0-0.5-0.2-0.8-0.5-1s-0.9-0.3-1.6-0.3h-1.5V202.1z M564.1,203v3.2h1.8c0.7,0,1.2-0.1,1.6-0.4s0.5-0.7,0.5-1.3
			c0-0.5-0.2-0.9-0.5-1.2s-0.9-0.4-1.6-0.4H564.1z"/>
		<path class="st8" d="M576.2,207l-1.1-2.7h-3.4l-1.1,2.7h-1l3.4-8.6h0.8l3.4,8.6H576.2z M574.9,203.4l-1-2.7
			c-0.1-0.3-0.3-0.7-0.4-1.2c-0.1,0.4-0.2,0.8-0.4,1.2l-1,2.7H574.9z"/>
		<path class="st8" d="M583.3,204.8c0,0.8-0.3,1.3-0.8,1.8s-1.3,0.6-2.2,0.6c-1,0-1.8-0.1-2.3-0.4v-1c0.4,0.1,0.7,0.3,1.1,0.4
			s0.8,0.1,1.2,0.1c0.7,0,1.2-0.1,1.5-0.4s0.5-0.6,0.5-1.1c0-0.3-0.1-0.5-0.2-0.7s-0.3-0.4-0.6-0.5s-0.7-0.3-1.3-0.5
			c-0.8-0.3-1.4-0.6-1.7-1s-0.5-0.9-0.5-1.5c0-0.7,0.2-1.2,0.7-1.6s1.2-0.6,2-0.6c0.9,0,1.6,0.2,2.3,0.5l-0.3,0.9
			c-0.7-0.3-1.4-0.4-2.1-0.4c-0.5,0-0.9,0.1-1.2,0.3s-0.4,0.5-0.4,0.9c0,0.3,0.1,0.5,0.2,0.7s0.3,0.4,0.6,0.5s0.7,0.3,1.2,0.5
			c0.9,0.3,1.5,0.7,1.9,1S583.3,204.2,583.3,204.8z"/>
		<path class="st8" d="M564.2,221.4l-1.1-2.7h-3.4l-1.1,2.7h-1l3.4-8.6h0.8l3.4,8.6H564.2z M562.8,217.8l-1-2.7
			c-0.1-0.3-0.3-0.7-0.4-1.2c-0.1,0.4-0.2,0.8-0.4,1.2l-1,2.7H562.8z"/>
		<path class="st8" d="M571.2,219.2c0,0.8-0.3,1.3-0.8,1.8s-1.3,0.6-2.2,0.6c-1,0-1.8-0.1-2.3-0.4v-1c0.4,0.1,0.7,0.3,1.1,0.4
			s0.8,0.1,1.2,0.1c0.7,0,1.2-0.1,1.5-0.4s0.5-0.6,0.5-1.1c0-0.3-0.1-0.5-0.2-0.7s-0.3-0.4-0.6-0.5s-0.7-0.3-1.3-0.5
			c-0.8-0.3-1.4-0.6-1.7-1s-0.5-0.9-0.5-1.5c0-0.7,0.2-1.2,0.7-1.6s1.2-0.6,2-0.6c0.9,0,1.6,0.2,2.3,0.5l-0.3,0.9
			c-0.7-0.3-1.4-0.4-2.1-0.4c-0.5,0-0.9,0.1-1.2,0.3s-0.4,0.5-0.4,0.9c0,0.3,0.1,0.5,0.2,0.7s0.3,0.4,0.6,0.5s0.7,0.3,1.2,0.5
			c0.9,0.3,1.5,0.7,1.9,1S571.2,218.6,571.2,219.2z"/>
		<path class="st8" d="M579.8,217.1c0,1.4-0.4,2.5-1.2,3.2s-1.9,1.1-3.3,1.1H573v-8.6h2.6c1.3,0,2.4,0.4,3.1,1.1
			S579.8,215.7,579.8,217.1z M578.8,217.1c0-1.1-0.3-2-0.8-2.5s-1.4-0.8-2.5-0.8H574v6.8h1.2c1.2,0,2.1-0.3,2.7-0.9
			S578.8,218.2,578.8,217.1z"/>
	</g>
</g>
<g>
	<polygon class="st6" points="595.8,266.2 542.4,266.2 515.7,294.7 542.4,323.3 595.8,323.3 622.4,294.7 	"/>
	<g>
		<rect x="537.2" y="279" class="st7" width="63.8" height="31.5"/>
		<path class="st8" d="M559.3,280.3c-0.9,0-1.7,0.3-2.2,0.9s-0.8,1.5-0.8,2.6c0,1.1,0.3,2,0.8,2.6s1.3,0.9,2.2,0.9
			c0.6,0,1.3-0.1,2-0.3v0.9c-0.6,0.2-1.3,0.3-2.2,0.3c-1.3,0-2.2-0.4-2.9-1.1s-1-1.9-1-3.3c0-0.9,0.2-1.7,0.5-2.3
			c0.3-0.7,0.8-1.2,1.4-1.5s1.4-0.5,2.2-0.5c0.9,0,1.7,0.2,2.4,0.5l-0.4,0.9C560.6,280.4,560,280.3,559.3,280.3z"/>
		<path class="st8" d="M563.3,279.5h2.4c1.1,0,2,0.2,2.5,0.5s0.8,0.9,0.8,1.6c0,0.5-0.1,0.9-0.4,1.3s-0.7,0.5-1.2,0.6v0.1
			c1.3,0.2,2,0.9,2,2.1c0,0.8-0.3,1.4-0.8,1.8s-1.2,0.6-2.2,0.6h-3V279.5z M564.2,283.2h1.6c0.7,0,1.2-0.1,1.5-0.3s0.5-0.6,0.5-1.1
			c0-0.5-0.2-0.8-0.5-1s-0.9-0.3-1.6-0.3h-1.5V283.2z M564.2,284v3.2h1.8c0.7,0,1.2-0.1,1.6-0.4s0.5-0.7,0.5-1.3
			c0-0.5-0.2-0.9-0.5-1.2s-0.9-0.4-1.6-0.4H564.2z"/>
		<path class="st8" d="M574.7,280.3c-0.9,0-1.7,0.3-2.2,0.9s-0.8,1.5-0.8,2.6c0,1.1,0.3,2,0.8,2.6s1.3,0.9,2.2,0.9
			c0.6,0,1.3-0.1,2-0.3v0.9c-0.6,0.2-1.3,0.3-2.2,0.3c-1.3,0-2.2-0.4-2.9-1.1s-1-1.9-1-3.3c0-0.9,0.2-1.7,0.5-2.3
			c0.3-0.7,0.8-1.2,1.4-1.5s1.4-0.5,2.2-0.5c0.9,0,1.7,0.2,2.4,0.5l-0.4,0.9C576,280.4,575.3,280.3,574.7,280.3z"/>
		<path class="st8" d="M578.6,288.1v-8.6h1v7.7h3.8v0.9H578.6z"/>
		<path class="st8" d="M564.2,302.5l-1.1-2.7h-3.4l-1.1,2.7h-1l3.4-8.6h0.8l3.4,8.6H564.2z M562.8,298.9l-1-2.7
			c-0.1-0.3-0.3-0.7-0.4-1.2c-0.1,0.4-0.2,0.8-0.4,1.2l-1,2.7H562.8z"/>
		<path class="st8" d="M571.2,300.2c0,0.8-0.3,1.3-0.8,1.8s-1.3,0.6-2.2,0.6c-1,0-1.8-0.1-2.3-0.4v-1c0.4,0.1,0.7,0.3,1.1,0.4
			s0.8,0.1,1.2,0.1c0.7,0,1.2-0.1,1.5-0.4s0.5-0.6,0.5-1.1c0-0.3-0.1-0.5-0.2-0.7s-0.3-0.4-0.6-0.5s-0.7-0.3-1.3-0.5
			c-0.8-0.3-1.4-0.6-1.7-1s-0.5-0.9-0.5-1.5c0-0.7,0.2-1.2,0.7-1.6s1.2-0.6,2-0.6c0.9,0,1.6,0.2,2.3,0.5l-0.3,0.9
			c-0.7-0.3-1.4-0.4-2.1-0.4c-0.5,0-0.9,0.1-1.2,0.3s-0.4,0.5-0.4,0.9c0,0.3,0.1,0.5,0.2,0.7s0.3,0.4,0.6,0.5s0.7,0.3,1.2,0.5
			c0.9,0.3,1.5,0.7,1.9,1S571.2,299.6,571.2,300.2z"/>
		<path class="st8" d="M579.8,298.1c0,1.4-0.4,2.5-1.2,3.2s-1.9,1.1-3.3,1.1H573v-8.6h2.6c1.3,0,2.4,0.4,3.1,1.1
			S579.8,296.8,579.8,298.1z M578.8,298.2c0-1.1-0.3-2-0.8-2.5s-1.4-0.8-2.5-0.8H574v6.8h1.2c1.2,0,2.1-0.3,2.7-0.9
			S578.8,299.3,578.8,298.2z"/>
	</g>
</g>
<g>
	<path d="M21.7,31.5h-2.9v-7.8l0-1.3l0-1.4c-0.5,0.5-0.8,0.8-1,0.9l-1.6,1.3L15,21.5l4.4-3.5h2.4V31.5z"/>
	<path d="M35,31.5h-9.5v-2l3.4-3.4c1-1,1.7-1.7,2-2.1c0.3-0.4,0.5-0.8,0.7-1.1c0.1-0.3,0.2-0.7,0.2-1.1c0-0.5-0.1-0.9-0.5-1.2
		c-0.3-0.3-0.7-0.4-1.2-0.4c-0.5,0-1,0.1-1.5,0.4c-0.5,0.2-1,0.6-1.5,1l-1.6-1.8c0.7-0.6,1.2-1,1.7-1.2c0.4-0.2,0.9-0.4,1.4-0.5
		c0.5-0.1,1.1-0.2,1.7-0.2c0.8,0,1.6,0.2,2.2,0.5c0.6,0.3,1.2,0.7,1.5,1.3c0.4,0.6,0.5,1.2,0.5,1.9c0,0.6-0.1,1.2-0.3,1.8
		c-0.2,0.5-0.6,1.1-1,1.7c-0.5,0.6-1.3,1.4-2.4,2.5L29.1,29v0.1H35V31.5z"/>
	<path d="M50.2,27.8c0,1.2-0.4,2.2-1.3,2.9c-0.9,0.7-2.1,1.1-3.7,1.1c-1.4,0-2.7-0.3-3.8-0.8v-2.7c0.9,0.4,1.7,0.7,2.3,0.9
		c0.6,0.2,1.2,0.3,1.7,0.3c0.6,0,1.1-0.1,1.5-0.4c0.3-0.2,0.5-0.6,0.5-1.1c0-0.3-0.1-0.5-0.2-0.7c-0.1-0.2-0.4-0.4-0.7-0.6
		c-0.3-0.2-0.9-0.5-1.8-0.9c-0.8-0.4-1.5-0.8-1.9-1.1c-0.4-0.4-0.7-0.8-1-1.3c-0.2-0.5-0.4-1-0.4-1.7c0-1.2,0.4-2.1,1.2-2.8
		c0.8-0.7,1.9-1,3.4-1c0.7,0,1.4,0.1,2,0.3c0.6,0.2,1.3,0.4,2,0.7L49.2,21c-0.7-0.3-1.3-0.5-1.8-0.6c-0.5-0.1-0.9-0.2-1.4-0.2
		c-0.5,0-1,0.1-1.3,0.4c-0.3,0.3-0.4,0.6-0.4,1c0,0.3,0.1,0.5,0.2,0.7c0.1,0.2,0.3,0.4,0.6,0.5c0.3,0.2,0.9,0.5,1.8,1
		c1.3,0.6,2.1,1.2,2.6,1.8C50,26.1,50.2,26.9,50.2,27.8z"/>
	<path d="M60.5,31.5h-7.8V18h7.8v2.4h-4.9v3h4.6v2.4h-4.6v3.5h4.9V31.5z"/>
	<path d="M69.1,31.5l-3.3-10.6h-0.1c0.1,2.2,0.2,3.6,0.2,4.3v6.3h-2.6V18h3.9l3.2,10.4h0.1L73.9,18h3.9v13.6h-2.7v-6.4
		c0-0.3,0-0.7,0-1c0-0.4,0.1-1.4,0.1-3.2h-0.1l-3.5,10.6H69.1z"/>
	<path d="M91.9,31.5l-3.3-10.6h-0.1c0.1,2.2,0.2,3.6,0.2,4.3v6.3h-2.6V18h3.9l3.2,10.4h0.1L96.8,18h3.9v13.6H98v-6.4
		c0-0.3,0-0.7,0-1c0-0.4,0.1-1.4,0.1-3.2H98l-3.5,10.6H91.9z"/>
	<path d="M116.4,24.7c0,2.2-0.6,4-1.7,5.2s-2.7,1.8-4.8,1.8s-3.7-0.6-4.8-1.8s-1.7-2.9-1.7-5.2c0-2.3,0.6-4,1.7-5.2
		c1.1-1.2,2.7-1.8,4.8-1.8c2.1,0,3.7,0.6,4.8,1.8C115.8,20.8,116.4,22.5,116.4,24.7z M106.5,24.7c0,1.5,0.3,2.7,0.9,3.4
		c0.6,0.8,1.4,1.2,2.6,1.2c2.3,0,3.4-1.5,3.4-4.6c0-3.1-1.1-4.6-3.4-4.6c-1.1,0-2,0.4-2.6,1.2C106.8,22.1,106.5,23.2,106.5,24.7z"/>
	<path d="M130.5,24.6c0,2.2-0.6,3.9-1.9,5.1c-1.3,1.2-3.1,1.8-5.5,1.8h-3.8V18h4.3c2.2,0,3.9,0.6,5.2,1.8
		C129.8,20.9,130.5,22.5,130.5,24.6z M127.5,24.7c0-2.9-1.3-4.4-3.9-4.4h-1.5v8.8h1.2C126.1,29.2,127.5,27.7,127.5,24.7z"/>
	<path d="M141.1,31.5h-7.8V18h7.8v2.4h-4.9v3h4.6v2.4h-4.6v3.5h4.9V31.5z"/>
	<path d="M143.9,31.5V18h2.9v11.2h5.5v2.4H143.9z"/>
	<path d="M162.7,27.8c0,1.2-0.4,2.2-1.3,2.9c-0.9,0.7-2.1,1.1-3.7,1.1c-1.4,0-2.7-0.3-3.8-0.8v-2.7c0.9,0.4,1.7,0.7,2.3,0.9
		c0.6,0.2,1.2,0.3,1.7,0.3c0.6,0,1.1-0.1,1.5-0.4c0.3-0.2,0.5-0.6,0.5-1.1c0-0.3-0.1-0.5-0.2-0.7c-0.1-0.2-0.4-0.4-0.7-0.6
		c-0.3-0.2-0.9-0.5-1.8-0.9c-0.8-0.4-1.5-0.8-1.9-1.1c-0.4-0.4-0.7-0.8-1-1.3c-0.2-0.5-0.4-1-0.4-1.7c0-1.2,0.4-2.1,1.2-2.8
		c0.8-0.7,1.9-1,3.4-1c0.7,0,1.4,0.1,2,0.3c0.6,0.2,1.3,0.4,2,0.7l-0.9,2.2c-0.7-0.3-1.3-0.5-1.8-0.6c-0.5-0.1-0.9-0.2-1.4-0.2
		c-0.5,0-1,0.1-1.3,0.4c-0.3,0.3-0.4,0.6-0.4,1c0,0.3,0.1,0.5,0.2,0.7c0.1,0.2,0.3,0.4,0.6,0.5c0.3,0.2,0.9,0.5,1.8,1
		c1.3,0.6,2.1,1.2,2.6,1.8C162.4,26.1,162.7,26.9,162.7,27.8z"/>
	<path d="M14.4,42.7c0-1,0.2-2,0.5-2.9s0.7-1.7,1.3-2.4h1.2c-0.5,0.7-1,1.6-1.2,2.5c-0.3,0.9-0.4,1.8-0.4,2.8s0.1,1.9,0.4,2.8
		c0.3,0.9,0.7,1.7,1.2,2.4h-1.2c-0.6-0.7-1-1.4-1.3-2.3S14.4,43.7,14.4,42.7z"/>
	<path d="M23.7,39.3c0,0.5-0.2,1-0.5,1.4s-0.8,0.6-1.3,0.7v0c0.7,0.1,1.2,0.3,1.5,0.6s0.5,0.8,0.5,1.4c0,0.8-0.3,1.5-0.9,1.9
		s-1.4,0.7-2.5,0.7c-0.9,0-1.8-0.2-2.4-0.5v-1.2c0.4,0.2,0.7,0.3,1.2,0.4s0.8,0.1,1.2,0.1c0.7,0,1.2-0.1,1.5-0.4s0.5-0.6,0.5-1.1
		c0-0.5-0.2-0.8-0.5-1s-0.9-0.3-1.7-0.3h-0.7V41h0.8c1.4,0,2.1-0.5,2.1-1.4c0-0.4-0.1-0.7-0.4-0.8s-0.6-0.3-1.1-0.3
		c-0.3,0-0.6,0-0.9,0.1s-0.7,0.3-1.1,0.5l-0.7-1c0.8-0.6,1.7-0.9,2.7-0.9c0.9,0,1.5,0.2,2,0.6S23.7,38.7,23.7,39.3z"/>
	<path d="M32.5,45.9L30,38.8h0c0.1,1.1,0.1,2.1,0.1,3v4.2h-1.3v-8.6h2l2.4,6.8h0l2.4-6.8h2v8.6h-1.3v-4.2c0-0.4,0-1,0-1.7
		s0-1.1,0.1-1.2h0l-2.6,7.1H32.5z"/>
	<path d="M44.7,45.9h-4.8v-8.6h4.8v1.2h-3.4v2.3h3.2v1.2h-3.2v2.7h3.4V45.9z"/>
	<path d="M51.9,45.9L51,43.6h-3.3l-0.8,2.4h-1.5l3.2-8.6h1.5l3.2,8.6H51.9z M50.6,42.4L49.8,40c-0.1-0.2-0.1-0.4-0.2-0.7
		s-0.2-0.6-0.2-0.7c-0.1,0.5-0.3,1-0.5,1.6l-0.8,2.2H50.6z"/>
	<path d="M59.4,43.6c0,0.8-0.3,1.4-0.8,1.8s-1.3,0.7-2.3,0.7s-1.8-0.2-2.4-0.5v-1.3c0.4,0.2,0.8,0.3,1.2,0.4s0.8,0.2,1.2,0.2
		c0.6,0,1-0.1,1.2-0.3s0.4-0.5,0.4-0.8c0-0.3-0.1-0.6-0.4-0.8s-0.7-0.5-1.5-0.8c-0.8-0.3-1.3-0.7-1.7-1.1S54,40.1,54,39.6
		c0-0.7,0.3-1.3,0.8-1.7s1.2-0.6,2-0.6c0.8,0,1.6,0.2,2.4,0.5l-0.4,1.1c-0.8-0.3-1.4-0.5-2-0.5c-0.5,0-0.8,0.1-1,0.3
		s-0.4,0.5-0.4,0.8c0,0.2,0,0.4,0.1,0.6s0.2,0.3,0.5,0.4s0.6,0.3,1.2,0.6c0.6,0.3,1.1,0.5,1.4,0.7s0.5,0.5,0.6,0.8
		S59.4,43.2,59.4,43.6z"/>
	<path d="M67.8,37.4v5.5c0,0.6-0.1,1.2-0.4,1.7s-0.7,0.8-1.2,1.1s-1.1,0.4-1.8,0.4c-1.1,0-1.9-0.3-2.5-0.8S61,43.9,61,42.9v-5.5h1.4
		v5.4c0,0.7,0.2,1.2,0.5,1.6s0.8,0.5,1.5,0.5c1.3,0,2-0.7,2-2.1v-5.4H67.8z"/>
	<path d="M71.4,42.5v3.4H70v-8.6h2.4c1.1,0,1.9,0.2,2.5,0.6s0.8,1,0.8,1.9c0,1.1-0.6,1.8-1.7,2.3l2.4,3.8h-1.6l-2.1-3.4H71.4z
		 M71.4,41.4h1c0.7,0,1.1-0.1,1.4-0.4s0.4-0.6,0.4-1.1c0-0.5-0.2-0.8-0.5-1s-0.8-0.3-1.4-0.3h-0.9V41.4z"/>
	<path d="M82.5,45.9h-4.8v-8.6h4.8v1.2h-3.4v2.3h3.2v1.2h-3.2v2.7h3.4V45.9z"/>
	<path d="M89.3,43.6c0,0.8-0.3,1.4-0.8,1.8s-1.3,0.7-2.3,0.7s-1.8-0.2-2.4-0.5v-1.3c0.4,0.2,0.8,0.3,1.2,0.4s0.8,0.2,1.2,0.2
		c0.6,0,1-0.1,1.2-0.3s0.4-0.5,0.4-0.8c0-0.3-0.1-0.6-0.4-0.8s-0.7-0.5-1.5-0.8c-0.8-0.3-1.3-0.7-1.7-1.1s-0.5-0.9-0.5-1.5
		c0-0.7,0.3-1.3,0.8-1.7s1.2-0.6,2-0.6c0.8,0,1.6,0.2,2.4,0.5l-0.4,1.1c-0.8-0.3-1.4-0.5-2-0.5c-0.5,0-0.8,0.1-1,0.3
		s-0.4,0.5-0.4,0.8c0,0.2,0,0.4,0.1,0.6s0.2,0.3,0.5,0.4s0.6,0.3,1.2,0.6c0.6,0.3,1.1,0.5,1.4,0.7s0.5,0.5,0.6,0.8
		S89.3,43.2,89.3,43.6z"/>
	<path d="M96.9,36.8l-0.2,2.2l2.3-0.6l0.2,1.3l-2.1,0.2l1.4,1.8l-1.2,0.6l-1-2l-0.9,2l-1.2-0.6l1.4-1.8l-2.1-0.2l0.2-1.3l2.2,0.6
		l-0.2-2.2H96.9z"/>
	<path d="M109.3,44.1h-1.2v1.9h-1.3v-1.9h-3.9V43l3.9-5.7h1.3v5.6h1.2V44.1z M106.8,42.9v-2.2c0-0.8,0-1.4,0.1-1.9h0
		c-0.1,0.3-0.3,0.6-0.5,0.9l-2.1,3.1H106.8z"/>
	<path d="M118.7,43.6c0,0.8-0.3,1.4-0.8,1.8s-1.3,0.7-2.3,0.7s-1.8-0.2-2.4-0.5v-1.3c0.4,0.2,0.8,0.3,1.2,0.4s0.8,0.2,1.2,0.2
		c0.6,0,1-0.1,1.2-0.3s0.4-0.5,0.4-0.8c0-0.3-0.1-0.6-0.4-0.8s-0.7-0.5-1.5-0.8c-0.8-0.3-1.3-0.7-1.7-1.1s-0.5-0.9-0.5-1.5
		c0-0.7,0.3-1.3,0.8-1.7s1.2-0.6,2-0.6c0.8,0,1.6,0.2,2.4,0.5l-0.4,1.1c-0.8-0.3-1.4-0.5-2-0.5c-0.5,0-0.8,0.1-1,0.3
		s-0.4,0.5-0.4,0.8c0,0.2,0,0.4,0.1,0.6s0.2,0.3,0.5,0.4s0.6,0.3,1.2,0.6c0.6,0.3,1.1,0.5,1.4,0.7s0.5,0.5,0.6,0.8
		S118.7,43.2,118.7,43.6z"/>
	<path d="M125.6,45.9l-0.9-2.4h-3.3l-0.8,2.4h-1.5l3.2-8.6h1.5l3.2,8.6H125.6z M124.4,42.4l-0.8-2.3c-0.1-0.2-0.1-0.4-0.2-0.7
		s-0.2-0.6-0.2-0.7c-0.1,0.5-0.3,1-0.5,1.6l-0.8,2.2H124.4z"/>
	<path d="M132,45.9l-2.5-7.2h0c0.1,1.1,0.1,2.1,0.1,3v4.2h-1.3v-8.6h2l2.4,6.8h0l2.4-6.8h2v8.6h-1.3v-4.2c0-0.4,0-1,0-1.7
		s0-1.1,0.1-1.2h0l-2.6,7.1H132z"/>
	<path d="M145,40c0,0.9-0.3,1.6-0.9,2.1s-1.4,0.7-2.5,0.7h-0.9v3.2h-1.4v-8.6h2.5c1.1,0,1.9,0.2,2.4,0.7S145,39.1,145,40z
		 M140.7,41.6h0.7c0.7,0,1.2-0.1,1.6-0.4s0.5-0.6,0.5-1.2c0-0.5-0.2-0.9-0.5-1.1s-0.8-0.4-1.4-0.4h-1V41.6z"/>
	<path d="M146.7,45.9v-8.6h1.4v7.4h3.6v1.2H146.7z"/>
	<path d="M158.1,45.9h-4.8v-8.6h4.8v1.2h-3.4v2.3h3.2v1.2h-3.2v2.7h3.4V45.9z"/>
	<path d="M166.5,41.3h3.2v4.3c-0.5,0.2-1,0.3-1.5,0.4s-1,0.1-1.5,0.1c-1.3,0-2.3-0.4-3-1.2s-1.1-1.9-1.1-3.2c0-1.4,0.4-2.5,1.2-3.2
		s1.9-1.2,3.3-1.2c0.9,0,1.7,0.2,2.5,0.5l-0.5,1.2c-0.7-0.3-1.4-0.5-2.1-0.5c-0.9,0-1.6,0.3-2.2,0.9s-0.8,1.4-0.8,2.4
		c0,1,0.2,1.8,0.7,2.4s1.2,0.8,2.1,0.8c0.5,0,0.9-0.1,1.5-0.2v-2.2h-1.8V41.3z"/>
	<path d="M173.1,42.5v3.4h-1.4v-8.6h2.4c1.1,0,1.9,0.2,2.5,0.6s0.8,1,0.8,1.9c0,1.1-0.6,1.8-1.7,2.3l2.4,3.8h-1.6l-2.1-3.4H173.1z
		 M173.1,41.4h1c0.7,0,1.1-0.1,1.4-0.4s0.4-0.6,0.4-1.1c0-0.5-0.2-0.8-0.5-1s-0.8-0.3-1.4-0.3h-0.9V41.4z"/>
	<path d="M187,41.6c0,1.4-0.3,2.5-1,3.3s-1.7,1.2-3,1.2c-1.3,0-2.3-0.4-3-1.2s-1-1.9-1-3.3s0.3-2.5,1-3.3s1.7-1.1,3-1.1
		c1.3,0,2.3,0.4,3,1.2S187,40.3,187,41.6z M180.5,41.6c0,1.1,0.2,1.9,0.6,2.4s1.1,0.8,1.9,0.8c0.8,0,1.5-0.3,1.9-0.8
		s0.6-1.3,0.6-2.4c0-1.1-0.2-1.8-0.6-2.4s-1-0.8-1.9-0.8c-0.8,0-1.5,0.3-1.9,0.8S180.5,40.6,180.5,41.6z"/>
	<path d="M195.6,37.4v5.5c0,0.6-0.1,1.2-0.4,1.7s-0.7,0.8-1.2,1.1s-1.1,0.4-1.8,0.4c-1.1,0-1.9-0.3-2.5-0.8s-0.9-1.3-0.9-2.3v-5.5
		h1.4v5.4c0,0.7,0.2,1.2,0.5,1.6s0.8,0.5,1.5,0.5c1.3,0,2-0.7,2-2.1v-5.4H195.6z"/>
	<path d="M203.4,40c0,0.9-0.3,1.6-0.9,2.1s-1.4,0.7-2.5,0.7h-0.9v3.2h-1.4v-8.6h2.5c1.1,0,1.9,0.2,2.4,0.7S203.4,39.1,203.4,40z
		 M199.2,41.6h0.7c0.7,0,1.2-0.1,1.6-0.4s0.5-0.6,0.5-1.2c0-0.5-0.2-0.9-0.5-1.1s-0.8-0.4-1.4-0.4h-1V41.6z"/>
	<path d="M210.1,43.6c0,0.8-0.3,1.4-0.8,1.8s-1.3,0.7-2.3,0.7s-1.8-0.2-2.4-0.5v-1.3c0.4,0.2,0.8,0.3,1.2,0.4s0.8,0.2,1.2,0.2
		c0.6,0,1-0.1,1.2-0.3s0.4-0.5,0.4-0.8c0-0.3-0.1-0.6-0.4-0.8s-0.7-0.5-1.5-0.8c-0.8-0.3-1.3-0.7-1.7-1.1s-0.5-0.9-0.5-1.5
		c0-0.7,0.3-1.3,0.8-1.7s1.2-0.6,2-0.6c0.8,0,1.6,0.2,2.4,0.5l-0.4,1.1c-0.8-0.3-1.4-0.5-2-0.5c-0.5,0-0.8,0.1-1,0.3
		s-0.4,0.5-0.4,0.8c0,0.2,0,0.4,0.1,0.6s0.2,0.3,0.5,0.4s0.6,0.3,1.2,0.6c0.6,0.3,1.1,0.5,1.4,0.7s0.5,0.5,0.6,0.8
		S210.1,43.2,210.1,43.6z"/>
	<path d="M213.9,42.7c0,1-0.2,2-0.5,2.9s-0.7,1.7-1.3,2.3H211c0.5-0.7,1-1.5,1.2-2.4s0.4-1.8,0.4-2.8c0-1-0.1-1.9-0.4-2.8
		s-0.7-1.7-1.2-2.5h1.2c0.6,0.7,1,1.5,1.3,2.4S213.9,41.6,213.9,42.7z"/>
</g>
<path class="st2" d="M160.4,345"/>
<g>
	<path d="M164.4,419.7c0,1.3-0.4,2.3-1.3,3s-2.1,1-3.8,1h-1.1l-1,4.5H156l2.4-11.4h2.6c1.1,0,2,0.2,2.5,0.7S164.4,418.7,164.4,419.7
		z M158.5,422.6h1c1.1,0,2-0.2,2.6-0.7s0.9-1.2,0.9-2.1c0-0.7-0.2-1.1-0.5-1.4s-0.9-0.4-1.7-0.4h-1.3L158.5,422.6z"/>
	<path d="M167.4,423.4l-1,4.8H165l2.4-11.4h2.5c2.3,0,3.5,1,3.5,2.9c0,1.8-1,3-2.9,3.5l1.9,5.1H171l-1.6-4.8H167.4z M168.5,417.9
		c-0.5,2.6-0.8,4-0.9,4.4h1.3c1,0,1.8-0.2,2.3-0.7s0.8-1.1,0.8-1.9c0-0.6-0.2-1.1-0.5-1.4s-0.9-0.4-1.7-0.4H168.5z"/>
	<path d="M174.1,428.2l2.4-11.4h1.3l-2.4,11.4H174.1z"/>
	<path d="M183.1,428.2l-1.3-10.1h-0.1c0,0.4-0.1,0.9-0.2,1.5s-0.2,1.2-0.3,1.6l-1.5,7h-1.3l2.4-11.4h1.9l1.2,9.4h0.1l5.1-9.4h2.1
		l-2.4,11.4h-1.4c0.7-3.1,1.2-5.4,1.5-7.1s0.6-2.7,0.7-3.1h0l-5.6,10.1H183.1z"/>
	<path d="M197.6,424.6h-3.9l-1.9,3.6h-1.5l6.2-11.4h1.4l1.4,11.4H198L197.6,424.6z M197.4,423.3l-0.3-2.3c-0.1-0.9-0.2-1.8-0.2-2.7
		c-0.2,0.5-0.4,0.9-0.6,1.4s-0.9,1.7-1.9,3.7H197.4z"/>
	<path d="M203.1,423.4l-1,4.8h-1.3l2.4-11.4h2.5c2.3,0,3.5,1,3.5,2.9c0,1.8-1,3-2.9,3.5l1.9,5.1h-1.5l-1.6-4.8H203.1z M204.3,417.9
		c-0.5,2.6-0.8,4-0.9,4.4h1.3c1,0,1.8-0.2,2.3-0.7s0.8-1.1,0.8-1.9c0-0.6-0.2-1.1-0.5-1.4s-0.9-0.4-1.7-0.4H204.3z"/>
	<path d="M213.4,422.6l3.8-5.8h1.5l-4.9,7.2l-0.9,4.2h-1.3l0.9-4.3l-1.9-7.1h1.3L213.4,422.6z"/>
	<path d="M166.3,440.3c0,1.4-0.2,2.7-0.7,3.8s-1.1,2-2,2.6s-1.8,0.9-3,0.9c-1.3,0-2.4-0.4-3.1-1.2s-1.1-1.9-1.1-3.3
		c0-1.4,0.3-2.6,0.8-3.8s1.2-2,2.1-2.6s1.9-0.9,2.9-0.9c1.3,0,2.3,0.4,3,1.2S166.3,438.9,166.3,440.3z M162.1,437
		c-0.8,0-1.5,0.3-2.2,0.8s-1.1,1.3-1.5,2.2s-0.5,2-0.5,3.1c0,1,0.3,1.8,0.8,2.4s1.2,0.9,2.1,0.9c0.8,0,1.5-0.3,2.1-0.8
		s1.1-1.2,1.5-2.2s0.5-2,0.5-3.1c0-1-0.2-1.8-0.7-2.4S163,437,162.1,437z"/>
	<path d="M172.8,436c2.3,0,3.4,0.9,3.4,2.6c0,0.7-0.2,1.4-0.7,1.9s-1.1,0.8-1.9,1v0.1c0.6,0.2,1.1,0.5,1.4,0.9s0.5,0.9,0.5,1.5
		c0,1.1-0.4,2-1.2,2.6s-1.9,0.9-3.2,0.9h-3.6l2.4-11.4H172.8z M169.1,446.3h2.1c0.9,0,1.7-0.2,2.2-0.6s0.8-1,0.8-1.8
		c0-0.6-0.2-1.1-0.6-1.4s-0.9-0.5-1.7-0.5H170L169.1,446.3z M170.2,440.9h1.9c0.8,0,1.5-0.2,1.9-0.6s0.7-0.9,0.7-1.6
		c0-0.5-0.2-0.9-0.5-1.2s-0.9-0.4-1.6-0.4H171L170.2,440.9z"/>
	<path d="M175.1,450.4c-0.5,0-0.9-0.1-1.2-0.2l0-1.1c0.4,0.1,0.7,0.2,1.1,0.2c0.5,0,1-0.2,1.3-0.5s0.6-0.8,0.7-1.4l2.4-11.3h1.3
		l-2.4,11.5C178,449.4,176.9,450.4,175.1,450.4z"/>
	<path d="M187.1,447.4h-5.7l2.4-11.4h5.7l-0.3,1.2h-4.4l-0.8,3.7h4.1L188,442h-4.1l-0.9,4.2h4.4L187.1,447.4z"/>
	<path d="M196.2,437c-0.9,0-1.7,0.3-2.4,0.8s-1.3,1.2-1.7,2.2s-0.6,2-0.6,3.2c0,1,0.3,1.8,0.8,2.3s1.2,0.9,2.1,0.9
		c0.7,0,1.6-0.1,2.5-0.4v1.2c-0.4,0.2-0.9,0.3-1.3,0.4s-0.9,0.1-1.5,0.1c-1.3,0-2.3-0.4-3-1.2s-1.1-1.8-1.1-3.2
		c0-1.4,0.3-2.6,0.8-3.8s1.3-2.1,2.2-2.7s2-0.9,3.1-0.9c1,0,1.9,0.2,2.7,0.6l-0.5,1.1C197.7,437.2,196.9,437,196.2,437z"/>
	<path d="M202,447.4h-1.3l2.2-10.2h-3.2l0.3-1.2h7.7l-0.2,1.2h-3.2L202,447.4z"/>
	<path d="M206.9,447.4l2.4-11.4h1.3l-2.4,11.4H206.9z"/>
	<path d="M214.3,445.8c0.3-0.8,0.7-1.6,1.3-2.6l3.7-7.2h1.5l-6.1,11.4h-1.4L212,436h1.3l0.8,7.3
		C214.2,444.3,214.3,445.1,214.3,445.8L214.3,445.8z"/>
	<path d="M225.7,447.4H220l2.4-11.4h5.7l-0.3,1.2h-4.4l-0.8,3.7h4.1l-0.2,1.2h-4.1l-0.9,4.2h4.4L225.7,447.4z"/>
</g>
<g>
	<path d="M291.9,428.2h-5.7l2.4-11.4h5.7l-0.3,1.2h-4.4l-0.8,3.7h4.1l-0.2,1.2h-4.1l-0.9,4.2h4.4L291.9,428.2z"/>
	<path d="M301.1,428.2h-1.4l-1.7-5l-3.8,5h-1.5l4.7-6.1l-2.1-5.4h1.3l1.6,4.4l3.5-4.4h1.5l-4.3,5.4L301.1,428.2z"/>
	<path d="M311,419.7c0,1.3-0.4,2.3-1.3,3s-2.1,1-3.8,1h-1.1l-1,4.5h-1.3l2.4-11.4h2.6c1.1,0,2,0.2,2.5,0.7S311,418.7,311,419.7z
		 M305.2,422.6h1c1.1,0,2-0.2,2.6-0.7s0.9-1.2,0.9-2.1c0-0.7-0.2-1.1-0.5-1.4s-0.9-0.4-1.7-0.4h-1.3L305.2,422.6z"/>
	<path d="M311.7,428.2l2.4-11.4h1.3l-2.2,10.2h4.4l-0.3,1.2H311.7z"/>
	<path d="M329.6,421.1c0,1.4-0.2,2.7-0.7,3.8s-1.1,2-2,2.6s-1.8,0.9-3,0.9c-1.3,0-2.4-0.4-3.1-1.2s-1.1-1.9-1.1-3.3
		c0-1.4,0.3-2.6,0.8-3.8s1.2-2,2.1-2.6s1.9-0.9,2.9-0.9c1.3,0,2.3,0.4,3,1.2S329.6,419.7,329.6,421.1z M325.4,417.8
		c-0.8,0-1.5,0.3-2.2,0.8s-1.1,1.3-1.5,2.2s-0.5,2-0.5,3.1c0,1,0.3,1.8,0.8,2.4s1.2,0.9,2.1,0.9c0.8,0,1.5-0.3,2.1-0.8
		s1.1-1.2,1.5-2.2s0.5-2,0.5-3.1c0-1-0.2-1.8-0.7-2.4S326.3,417.8,325.4,417.8z"/>
	<path d="M333.1,423.4l-1,4.8h-1.3l2.4-11.4h2.5c2.3,0,3.5,1,3.5,2.9c0,1.8-1,3-2.9,3.5l1.9,5.1h-1.5l-1.6-4.8H333.1z M334.3,417.9
		c-0.5,2.6-0.8,4-0.9,4.4h1.3c1,0,1.8-0.2,2.3-0.7s0.8-1.1,0.8-1.9c0-0.6-0.2-1.1-0.5-1.4s-0.9-0.4-1.7-0.4H334.3z"/>
	<path d="M345.6,424.6h-3.9l-1.9,3.6h-1.5l6.2-11.4h1.4l1.4,11.4H346L345.6,424.6z M345.4,423.3l-0.3-2.3c-0.1-0.9-0.2-1.8-0.2-2.7
		c-0.2,0.5-0.4,0.9-0.6,1.4s-0.9,1.7-1.9,3.7H345.4z"/>
	<path d="M351.9,428.2h-1.3l2.2-10.2h-3.2l0.3-1.2h7.7l-0.2,1.2h-3.2L351.9,428.2z"/>
	<path d="M367.1,421.1c0,1.4-0.2,2.7-0.7,3.8s-1.1,2-2,2.6s-1.8,0.9-3,0.9c-1.3,0-2.4-0.4-3.1-1.2s-1.1-1.9-1.1-3.3
		c0-1.4,0.3-2.6,0.8-3.8s1.2-2,2.1-2.6s1.9-0.9,2.9-0.9c1.3,0,2.3,0.4,3,1.2S367.1,419.7,367.1,421.1z M362.9,417.8
		c-0.8,0-1.5,0.3-2.2,0.8s-1.1,1.3-1.5,2.2s-0.5,2-0.5,3.1c0,1,0.3,1.8,0.8,2.4s1.2,0.9,2.1,0.9c0.8,0,1.5-0.3,2.1-0.8
		s1.1-1.2,1.5-2.2s0.5-2,0.5-3.1c0-1-0.2-1.8-0.7-2.4S363.8,417.8,362.9,417.8z"/>
	<path d="M370.6,423.4l-1,4.8h-1.3l2.4-11.4h2.5c2.3,0,3.5,1,3.5,2.9c0,1.8-1,3-2.9,3.5l1.9,5.1h-1.5l-1.6-4.8H370.6z M371.8,417.9
		c-0.5,2.6-0.8,4-0.9,4.4h1.3c1,0,1.8-0.2,2.3-0.7s0.8-1.1,0.8-1.9c0-0.6-0.2-1.1-0.5-1.4s-0.9-0.4-1.7-0.4H371.8z"/>
	<path d="M380.9,422.6l3.8-5.8h1.5l-4.9,7.2l-0.9,4.2h-1.3l0.9-4.3l-1.9-7.1h1.3L380.9,422.6z"/>
	<path d="M296.5,440.3c0,1.4-0.2,2.7-0.7,3.8s-1.1,2-2,2.6s-1.8,0.9-3,0.9c-1.3,0-2.4-0.4-3.1-1.2s-1.1-1.9-1.1-3.3
		c0-1.4,0.3-2.6,0.8-3.8s1.2-2,2.1-2.6s1.9-0.9,2.9-0.9c1.3,0,2.3,0.4,3,1.2S296.5,438.9,296.5,440.3z M292.3,437
		c-0.8,0-1.5,0.3-2.2,0.8s-1.1,1.3-1.5,2.2s-0.5,2-0.5,3.1c0,1,0.3,1.8,0.8,2.4s1.2,0.9,2.1,0.9c0.8,0,1.5-0.3,2.1-0.8
		s1.1-1.2,1.5-2.2s0.5-2,0.5-3.1c0-1-0.2-1.8-0.7-2.4S293.2,437,292.3,437z"/>
	<path d="M303,436c2.3,0,3.4,0.9,3.4,2.6c0,0.7-0.2,1.4-0.7,1.9s-1.1,0.8-1.9,1v0.1c0.6,0.2,1.1,0.5,1.4,0.9s0.5,0.9,0.5,1.5
		c0,1.1-0.4,2-1.2,2.6s-1.9,0.9-3.2,0.9h-3.6l2.4-11.4H303z M299.3,446.3h2.1c0.9,0,1.7-0.2,2.2-0.6s0.8-1,0.8-1.8
		c0-0.6-0.2-1.1-0.6-1.4s-0.9-0.5-1.7-0.5h-1.8L299.3,446.3z M300.4,440.9h1.9c0.8,0,1.5-0.2,1.9-0.6s0.7-0.9,0.7-1.6
		c0-0.5-0.2-0.9-0.5-1.2s-0.9-0.4-1.6-0.4h-1.6L300.4,440.9z"/>
	<path d="M305.3,450.4c-0.5,0-0.9-0.1-1.2-0.2l0-1.1c0.4,0.1,0.7,0.2,1.1,0.2c0.5,0,1-0.2,1.3-0.5s0.6-0.8,0.7-1.4l2.4-11.3h1.3
		l-2.4,11.5C308.2,449.4,307.1,450.4,305.3,450.4z"/>
	<path d="M317.3,447.4h-5.7l2.4-11.4h5.7l-0.3,1.2H315l-0.8,3.7h4.1l-0.2,1.2H314l-0.9,4.2h4.4L317.3,447.4z"/>
	<path d="M326.4,437c-0.9,0-1.7,0.3-2.4,0.8s-1.3,1.2-1.7,2.2s-0.6,2-0.6,3.2c0,1,0.3,1.8,0.8,2.3s1.2,0.9,2.1,0.9
		c0.7,0,1.6-0.1,2.5-0.4v1.2c-0.4,0.2-0.9,0.3-1.3,0.4s-0.9,0.1-1.5,0.1c-1.3,0-2.3-0.4-3-1.2s-1.1-1.8-1.1-3.2
		c0-1.4,0.3-2.6,0.8-3.8s1.3-2.1,2.2-2.7s2-0.9,3.1-0.9c1,0,1.9,0.2,2.7,0.6l-0.5,1.1C327.9,437.2,327.1,437,326.4,437z"/>
	<path d="M332.2,447.4h-1.3l2.2-10.2h-3.2l0.3-1.2h7.7l-0.2,1.2h-3.2L332.2,447.4z"/>
	<path d="M337,447.4l2.4-11.4h1.3l-2.4,11.4H337z"/>
	<path d="M344.5,445.8c0.3-0.8,0.7-1.6,1.3-2.6l3.7-7.2h1.5l-6.1,11.4h-1.4l-1.3-11.4h1.3l0.8,7.3
		C344.4,444.3,344.4,445.1,344.5,445.8L344.5,445.8z"/>
	<path d="M355.9,447.4h-5.7l2.4-11.4h5.7l-0.3,1.2h-4.4l-0.8,3.7h4.1l-0.2,1.2h-4.1l-0.9,4.2h4.4L355.9,447.4z"/>
</g>
<g>
</g>
<g>
</g>
<g>
</g>
<g>
</g>
<g>
</g>
<g>
</g>
</svg>
